<?xml version="1.0" encoding="utf-8"?>
<!-- Generator: Adobe Illustrator 15.0.0, SVG Export Plug-In . SVG Version: 6.00 Build 0)  -->
<!DOCTYPE svg PUBLIC "-//W3C//DTD SVG 1.1//EN" "http://www.w3.org/Graphics/SVG/1.1/DTD/svg11.dtd">
<svg version="1.1" id="Layer_1" xmlns="http://www.w3.org/2000/svg" xmlns:xlink="http://www.w3.org/1999/xlink" x="0px" y="0px"
	 width="113px" height="113px" viewBox="0 0 113 113" enable-background="new 0 0 113 113" xml:space="preserve">
<path fill-rule="evenodd" clip-rule="evenodd" fill="#F5F5F5" d="M58.69,0.25h-4.382c-29.732,0-54.06,24.327-54.06,54.059v4.381
	c0,29.732,24.327,54.06,54.06,54.06h4.382c29.734,0,54.061-24.327,54.061-54.06v-4.381C112.751,24.577,88.425,0.25,58.69,0.25z
	 M75.299,30.742c-3.876,0.216-8.767-0.58-11.533,0.749c-3.758,1.734-1.989,8.996-2.397,14.081c4.595,0,9.188,0,13.781,0
	c-0.078,4.565-0.292,8.994-0.599,13.333c-4.394,0-8.788,0-13.183,0c0,12.732,0,24.067,0,36.102c-4.693,0-9.387,0-14.081,0
	c0-12.034,0-24.067,0-36.102c-3.196,0-6.391,0-9.588,0c0-4.395,0-8.789,0-13.183c2.9-0.347,6.44-0.052,9.588-0.15
	c0.16-5.117-0.388-10.04,0.45-14.23c0.832-4.157,2.591-7.127,5.092-9.438c2.621-1.974,4.759-3.582,9.138-3.795
	c0.243,0.042,1.157-0.092,1.349-0.1c4.227-0.082,8.081,0.209,11.983,0.45C75.299,22.553,75.299,26.646,75.299,30.742z"/>
</svg>
