<?xml version="1.0" encoding="utf-8"?>
<!-- Generator: Adobe Illustrator 15.0.0, SVG Export Plug-In . SVG Version: 6.00 Build 0)  -->
<!DOCTYPE svg PUBLIC "-//W3C//DTD SVG 1.1//EN" "http://www.w3.org/Graphics/SVG/1.1/DTD/svg11.dtd">
<svg version="1.1" id="Layer_1" xmlns="http://www.w3.org/2000/svg" xmlns:xlink="http://www.w3.org/1999/xlink" x="0px" y="0px"
	 width="113px" height="113px" viewBox="0 0 113 113" enable-background="new 0 0 113 113" xml:space="preserve">
<path fill="#F5F5F5" d="M58.69,0.25h-4.382c-29.732,0-54.06,24.326-54.06,54.06v4.379c0,29.733,24.327,54.062,54.06,54.062h4.382
	c29.734,0,54.061-24.328,54.061-54.062V54.31C112.751,24.576,88.425,0.25,58.69,0.25z M40.438,82.528H28.38V43.75h12.059V82.528z
	 M34.409,38.449c-3.862,0-6.985-3.131-6.985-6.99c0-3.854,3.123-6.986,6.985-6.986c3.854,0,6.984,3.132,6.984,6.986
	C41.394,35.317,38.263,38.449,34.409,38.449z M85.576,82.528H73.538V63.671c0-4.5-0.088-10.283-6.266-10.283
	c-6.271,0-7.228,4.898-7.228,9.957v19.184H47.997V43.75H59.56v5.296h0.163c1.61-3.048,5.542-6.263,11.405-6.263
	c12.195,0,14.448,8.029,14.448,18.475V82.528z"/>
</svg>
