<?xml version="1.0" encoding="utf-8"?>
<!-- Generator: Adobe Illustrator 15.0.0, SVG Export Plug-In . SVG Version: 6.00 Build 0)  -->
<!DOCTYPE svg PUBLIC "-//W3C//DTD SVG 1.1//EN" "http://www.w3.org/Graphics/SVG/1.1/DTD/svg11.dtd">
<svg version="1.1" id="Layer_1" xmlns="http://www.w3.org/2000/svg" xmlns:xlink="http://www.w3.org/1999/xlink" x="0px" y="0px"
	 width="113px" height="113px" viewBox="0 0 113 113" enable-background="new 0 0 113 113" xml:space="preserve">
<g>
	<path fill="#FFFFFF" d="M58.692,0.25H54.31c-29.733,0-54.061,24.327-54.061,54.059v4.381c0,29.732,24.327,54.06,54.061,54.06h4.383
		c29.73,0,54.059-24.327,54.059-54.06v-4.381C112.751,24.577,88.423,0.25,58.692,0.25z M90.532,76.002c0,0.55-0.45,1-1,1H44.681
		c-0.55,0-1.371,0.254-1.826,0.563l-12.73,8.694c-0.455,0.31-0.654,0.148-0.443-0.36l3.305-7.974
		c0.211-0.509-0.067-0.924-0.617-0.924h-7.496c-0.55,0-1-0.45-1-1v-39.15c0-0.55,0.45-1,1-1l64.66,0c0.55,0,1,0.45,1,1V76.002z"/>
	<line fill="none" stroke="#E0E0E0" stroke-miterlimit="10" x1="80.326" y1="46.484" x2="34.858" y2="46.484"/>
	<line fill="none" stroke="#E0E0E0" stroke-miterlimit="10" x1="80.326" y1="55.859" x2="34.858" y2="55.859"/>
	<line fill="none" stroke="#E0E0E0" stroke-miterlimit="10" x1="80.326" y1="65.233" x2="34.858" y2="65.233"/>
</g>
</svg>
