<?xml version="1.0" encoding="utf-8"?>
<!-- Generator: Adobe Illustrator 15.0.0, SVG Export Plug-In . SVG Version: 6.00 Build 0)  -->
<!DOCTYPE svg PUBLIC "-//W3C//DTD SVG 1.1//EN" "http://www.w3.org/Graphics/SVG/1.1/DTD/svg11.dtd">
<svg version="1.1" id="Layer_1" xmlns="http://www.w3.org/2000/svg" xmlns:xlink="http://www.w3.org/1999/xlink" x="0px" y="0px"
	 width="113px" height="113px" viewBox="0 0 113 113" enable-background="new 0 0 113 113" xml:space="preserve">
<path fill-rule="evenodd" clip-rule="evenodd" fill="#F5F5F5" d="M58.69,0.25h-4.382c-29.732,0-54.06,24.326-54.06,54.06v4.379
	c0,29.733,24.327,54.062,54.06,54.062h4.382c29.734,0,54.061-24.328,54.061-54.062V54.31C112.751,24.576,88.425,0.25,58.69,0.25z
	 M28.376,64.937c-4.66,0-8.438-3.777-8.438-8.438c0-4.659,3.778-8.437,8.438-8.437c4.658,0,8.437,3.777,8.437,8.437
	C36.813,61.159,33.034,64.937,28.376,64.937z M56.501,64.937c-4.66,0-8.438-3.777-8.438-8.438c0-4.659,3.778-8.437,8.438-8.437
	s8.437,3.777,8.437,8.437C64.938,61.159,61.161,64.937,56.501,64.937z M84.626,64.937c-4.66,0-8.438-3.777-8.438-8.438
	c0-4.659,3.778-8.437,8.438-8.437s8.437,3.777,8.437,8.437C93.063,61.159,89.286,64.937,84.626,64.937z"/>
</svg>
