<?xml version="1.0" encoding="utf-8"?>
<!-- Generator: Adobe Illustrator 15.0.0, SVG Export Plug-In . SVG Version: 6.00 Build 0)  -->
<!DOCTYPE svg PUBLIC "-//W3C//DTD SVG 1.1//EN" "http://www.w3.org/Graphics/SVG/1.1/DTD/svg11.dtd">
<svg version="1.1" id="Layer_1" xmlns="http://www.w3.org/2000/svg" xmlns:xlink="http://www.w3.org/1999/xlink" x="0px" y="0px"
	 width="113px" height="113px" viewBox="0 0 113 113" enable-background="new 0 0 113 113" xml:space="preserve">
<path fill-rule="evenodd" clip-rule="evenodd" fill="#F5F5F5" d="M58.692,0.25H54.31c-29.733,0-54.061,24.327-54.061,54.059v4.381
	c0,29.732,24.327,54.06,54.061,54.06h4.383c29.73,0,54.059-24.327,54.059-54.06v-4.381C112.751,24.577,88.423,0.25,58.692,0.25z
	 M98.447,54.446c-0.035,0.091-0.099,0.155-0.191,0.191c-0.065,0.167-0.253,0.215-0.318,0.382c-0.254,0.214-0.517,0.421-0.767,0.638
	c-0.577,0.38-1.128,0.786-1.787,1.085c-1.259,0.652-2.786,1.039-4.527,1.211c-0.754-0.012-1.573,0.041-2.234-0.063
	c-0.185,0.132-0.188,0.449-0.254,0.701c-0.506,1.664-1.044,3.294-1.723,4.784c-0.367,0.866-0.77,1.697-1.212,2.488
	c-0.45,0.783-0.854,1.613-1.403,2.297c-0.445,0.787-0.947,1.519-1.529,2.169c-0.187,0.431-0.583,0.652-0.768,1.084
	c-0.35,0.267-0.581,0.651-0.893,0.956c-0.609,0.626-1.152,1.313-1.85,1.852c-0.258,0.357-0.627,0.605-0.957,0.893
	c-0.124,0.195-0.35,0.289-0.511,0.446c-0.196,0.103-0.256,0.339-0.509,0.382c-0.281,0.338-0.664,0.572-1.021,0.83
	c-1.043,0.809-2.134,1.566-3.316,2.232c-1.492,0.977-3.184,1.753-4.849,2.552c-3.489,1.444-7.167,2.698-11.419,3.382
	c-4.218,0.849-9.058,1.171-13.65,0.7c-4.43-0.454-8.482-1.628-11.738-3.062c-6.877-2.989-12.332-7.399-16.585-13.014
	c0.065-0.122,0.253,0.168,0.317,0.256c0.252-0.018,0.195,0.273,0.447,0.256c0.188,0.259,0.473,0.42,0.766,0.572
	c0.481,0.434,1.035,0.795,1.659,1.086c0.501,0.412,1.177,0.651,1.722,1.021c0.641,0.253,1.26,0.526,1.85,0.829
	c1.359,0.441,2.729,0.922,4.275,1.212c1.53,0.288,3.197,0.366,5.102,0.319c6.633-0.62,11-3.502,14.863-6.89
	c-2.728,0.134-4.522-0.665-5.676-2.104c-0.113-0.313-0.25-0.602-0.384-0.894c0.008-0.471-0.028-0.917,0.063-1.276
	c0.096-0.365,0.359-0.664,0.574-0.956c0.115-0.155,0.19-0.311,0.319-0.447c0.536-0.565,1.413-1.103,2.106-1.53
	c-2.956,0.127-5.092-0.566-6.826-1.658c-0.657-0.492-1.309-0.987-1.852-1.596c-0.538-0.588-0.957-1.297-1.402-1.978
	c0.211-0.467,0.627-0.734,1.021-1.02c1.17-0.827,2.732-1.265,4.594-1.404c-1.143-0.347-2.346-0.633-3.318-1.148
	c-1.041-0.447-1.973-1.004-2.743-1.722c-0.882-0.608-1.492-1.485-2.105-2.361c-0.483-0.984-0.985-1.948-1.021-3.381
	c1.495-0.269,3.07-0.459,4.656-0.638c0.152-0.057-0.138-0.195-0.255-0.191c-0.021-0.172-0.269-0.114-0.319-0.255
	c-0.229-0.135-0.475-0.248-0.638-0.447c-0.497-0.225-0.849-0.599-1.275-0.893c-1.188-0.965-2.218-2.166-2.998-3.573
	c-0.762-1.373-1.438-3.033-1.212-5.166c2.645,0.949,5.145,2.042,7.718,3.062c2.468,1.104,5.027,2.117,7.4,3.317
	c1.253,0.514,2.442,1.132,3.637,1.723c0.296,0.147,0.599,0.29,0.892,0.446c0.299,0.159,0.605,0.292,0.893,0.447
	c0.071,0.037,0.113,0.146,0.191,0.191c0.186,0.104,0.424,0.202,0.639,0.319c0.286,0.156,0.609,0.285,0.895,0.447
	c0.062,0.037,0.122,0.153,0.191,0.191c0.079,0.045,0.177,0.013,0.255,0.064c0.12,0.08,0.2,0.235,0.318,0.319
	c0.063,0.046,0.174,0.071,0.255,0.128c0.228,0.157,0.475,0.373,0.766,0.574c0.155,0.108,0.323,0.295,0.511,0.446
	c1.177,0.956,2.446,2.021,3.507,3.19c0.734-2.095,1.519-4.139,2.425-6.06c0.841-1.966,1.844-3.771,2.808-5.614
	c0.224-0.137,0.232-0.489,0.445-0.637c0.08-0.283,0.296-0.429,0.383-0.702c0.568-0.834,1.107-1.701,1.724-2.488
	c0.273-0.427,0.647-0.754,0.894-1.212c0.736-0.664,1.259-1.546,2.104-2.104c0.683-0.72,1.507-1.3,2.424-1.787
	c-0.134,0.783-0.513,1.317-0.829,1.914c0.047,0.143,0.19-0.14,0.316-0.127c0.105-0.089,0.203-0.182,0.321-0.256
	c0.229-0.153,0.479-0.284,0.701-0.446c0.489-0.255,0.908-0.58,1.466-0.766c1.01-0.48,2.047-0.931,3.445-1.021
	c-0.105,0.744-0.553,1.146-0.956,1.595c-0.302,0.124-0.479,0.371-0.765,0.51c-0.22,0.206-0.57,0.281-0.768,0.511
	c0.567-0.227,1.418-0.551,2.361-0.829c0.842-0.248,1.852-0.55,2.68-0.51c0.556,0.026,1.191,0.222,1.275,0.702
	c0.138,0.806-0.781,1.082-1.148,1.468c-0.596,0.253-1.188,0.512-1.786,0.765c-1.333,0.39-2.599,0.845-4.082,1.085
	c0.284,0.217,0.654,0.1,0.956,0.126c2.18,0.198,4.35,0.784,6.061,1.532c5.895,2.737,9.449,7.816,11.1,14.8
	c2.852,0.912,7.339,0.94,9.888-0.256c-1.352,3.2-4.882,4.219-8.995,4.657c1.742,0.81,3.99,1.115,6.443,1.212
	c0.922-0.057,1.866-0.09,2.743-0.191C98.658,54.271,98.545,54.445,98.447,54.446z"/>
</svg>
