<?xml version="1.0" encoding="utf-8"?>
<!-- Generator: Adobe Illustrator 15.0.0, SVG Export Plug-In . SVG Version: 6.00 Build 0)  -->
<!DOCTYPE svg PUBLIC "-//W3C//DTD SVG 1.1//EN" "http://www.w3.org/Graphics/SVG/1.1/DTD/svg11.dtd">
<svg version="1.1" id="Layer_1" xmlns="http://www.w3.org/2000/svg" xmlns:xlink="http://www.w3.org/1999/xlink" x="0px" y="0px"
	 width="113px" height="113px" viewBox="0 0 113 113" enable-background="new 0 0 113 113" xml:space="preserve">
<g>
	<path fill-rule="evenodd" clip-rule="evenodd" fill="#F5F5F5" d="M58.69,0.25h-4.382c-29.732,0-54.06,24.326-54.06,54.06v4.379
		c0,29.733,24.327,54.062,54.06,54.062h4.382c29.734,0,54.061-24.328,54.061-54.062V54.31C112.751,24.576,88.425,0.25,58.69,0.25z"
		/>
	<g>
		<g>
			<path fill-rule="evenodd" clip-rule="evenodd" fill="#231F20" d="M57.156,22.153c-19.382,0-35.093,15.712-35.093,35.095
				c0,6.631,1.84,12.832,5.035,18.121l-6.334,18.828l19.43-6.221c5.027,2.78,10.809,4.366,16.962,4.366
				c19.384,0,35.095-15.714,35.095-35.095C92.251,37.865,76.54,22.153,57.156,22.153z M57.156,86.463
				c-5.934,0-11.459-1.78-16.073-4.83l-11.227,3.594l3.648-10.85c-3.496-4.816-5.563-10.734-5.563-17.129
				c0-16.11,13.106-29.217,29.214-29.217c16.11,0,29.216,13.106,29.216,29.217C86.372,73.357,73.267,86.463,57.156,86.463z
				 M73.611,65.223c-0.88-0.482-5.201-2.814-6.012-3.145c-0.811-0.329-1.401-0.5-2.033,0.375c-0.632,0.871-2.423,2.824-2.967,3.404
				c-0.546,0.578-1.071,0.632-1.951,0.148c-0.878-0.48-3.729-1.535-7.036-4.715c-2.574-2.473-4.262-5.474-4.752-6.39
				c-0.49-0.916-0.004-1.383,0.463-1.812c0.418-0.387,0.935-1.013,1.401-1.52s0.632-0.874,0.952-1.461
				c0.32-0.586,0.191-1.115-0.016-1.571c-0.208-0.456-1.834-4.932-2.514-6.752c-0.679-1.821-1.437-1.55-1.959-1.57
				c-0.523-0.02-1.117-0.117-1.715-0.139c-0.596-0.023-1.576,0.165-2.43,1.031c-0.855,0.865-3.251,2.945-3.416,7.353
				c-0.164,4.408,2.885,8.788,3.311,9.401c0.426,0.615,5.824,10.169,14.795,14.098c8.974,3.929,9.021,2.731,10.666,2.644
				c1.648-0.087,5.382-1.97,6.207-4.032c0.826-2.063,0.893-3.856,0.682-4.238C75.078,65.95,74.49,65.703,73.611,65.223z"/>
		</g>
	</g>
</g>
</svg>
