<?xml version="1.0" encoding="utf-8"?>
<!-- Generator: Adobe Illustrator 15.0.0, SVG Export Plug-In . SVG Version: 6.00 Build 0)  -->
<!DOCTYPE svg PUBLIC "-//W3C//DTD SVG 1.1//EN" "http://www.w3.org/Graphics/SVG/1.1/DTD/svg11.dtd">
<svg version="1.1" id="Layer_1" xmlns="http://www.w3.org/2000/svg" xmlns:xlink="http://www.w3.org/1999/xlink" x="0px" y="0px"
	 width="55px" height="62px" viewBox="0 0 55 62" enable-background="new 0 0 55 62" xml:space="preserve">
<g>
	<path fill="#333333" d="M22,24.039V23h-6.479C14.967,23,14,23.167,14,23.709v13.733C14,37.987,14.967,39,15.521,39h24.718
		C40.792,39,41,37.987,41,37.442V23.709C41,23.167,40.792,23,40.238,23H34v1.039C34,24.223,33.183,25,32.999,25H22.761
		C22.578,25,22,24.224,22,24.039z M28,29h7v1h-7V29z M28,32h10v1H28V32z M28,35h10v1H28V35z M16.238,38
		c0.375-3,1.413-4.587,4.298-4.587c2.884,0,3.924,1.587,4.298,4.587H16.238z M23.738,28.924c0,1.866-1.434,3.38-3.202,3.38
		c-1.768,0-3.201-1.513-3.201-3.38c0-1.866,1.434-3.38,3.201-3.38C22.305,25.544,23.738,27.057,23.738,28.924z"/>
	<polygon fill="#333333" points="32,22.392 32,21.681 32.286,21.681 32.407,23.681 32,23.681 	"/>
	<path fill="#333333" d="M27.881,14.421c-0.738,0-1.338,0.591-1.338,1.316c0,0.727,0.599,1.317,1.338,1.317
		c0.735,0,1.335-0.591,1.335-1.317C29.216,15.012,28.616,14.421,27.881,14.421z"/>
	<path fill="#333333" d="M30.598,14.478C30.598,13.557,30.05,13,29.4,13h-3.04c-0.647,0-1.194,0.557-1.194,1.444l-0.487,9.361
		l6.403,0.046L30.598,14.478z M27.881,17.717c-1.104,0-2.002-0.888-2.002-1.98c0-1.09,0.898-1.978,2.002-1.978
		c1.102,0,1.999,0.888,1.999,1.978C29.88,16.829,28.982,17.717,27.881,17.717z"/>
	<path fill="#333333" d="M11.863,43.691c-0.396,0-0.768-0.1-1.104-0.252C11.001,43.783,11.405,44,11.863,44h32.034
		c0.458,0,0.862-0.219,1.104-0.561c-0.337,0.154-0.71,0.248-1.104,0.248L11.863,43.691z"/>
	<path fill="#333333" d="M52.266,13.066L30.758,0.549c-0.813-0.47-1.814-0.729-2.948-0.729c-1.133,0-2.169,0.259-2.983,0.729
		L3.098,13.066C1.405,14.045,0,16.345,0,18.302v25.036c0,1.958,1.423,4.258,3.115,5.235l21.699,12.518
		c0.813,0.471,1.909,0.729,3.043,0.729c1.133,0,2.217-0.259,3.03-0.729l21.371-12.518C53.951,47.596,55,45.296,55,43.338V18.302
		C55,16.345,53.957,14.045,52.266,13.066z M47,31.35v9.705v1.648C47,44.156,45.367,45,43.897,45H11.863C10.394,45,9,44.156,9,42.703
		v-1.647V31.35v-11.25C9,18.644,10.394,18,11.863,18h11.813l0.166-3.16c0-1.598,1.129-2.84,2.519-2.84h3.04
		c1.391,0,2.52,1.243,2.52,2.873L32.086,18h11.812C45.367,18,47,18.644,47,20.098V31.35z"/>
	<polygon fill="#333333" points="23,21.681 23,22.392 23,23.681 23.354,23.681 23.477,21.681 	"/>
	<path fill="#333333" d="M43.897,19H32.153l0.097,2h0.749C33.183,21,34,20.825,34,21.006V22h6.238C41.158,22,42,22.801,42,23.709
		v14.733C42,39.353,41.158,40,40.238,40H14.521C13.603,40,13,39.353,13,38.442V23.709C13,22.801,13.603,22,14.521,22H22v-0.994
		C22,20.824,22.578,21,22.761,21h0.749l0.099-2H11.863C11.123,19,10,19.374,10,20.099v20.957C10,41.782,11.123,43,11.863,43h32.034
		C44.637,43,45,41.781,45,41.056V20.098C45,19.373,44.637,19,43.897,19z"/>
</g>
</svg>
