<?xml version="1.0" encoding="utf-8"?>
<!-- Generator: Adobe Illustrator 15.0.0, SVG Export Plug-In . SVG Version: 6.00 Build 0)  -->
<!DOCTYPE svg PUBLIC "-//W3C//DTD SVG 1.1//EN" "http://www.w3.org/Graphics/SVG/1.1/DTD/svg11.dtd">
<svg version="1.1" id="Layer_1" xmlns="http://www.w3.org/2000/svg" xmlns:xlink="http://www.w3.org/1999/xlink" x="0px" y="0px"
	 width="55px" height="62px" viewBox="0 0 55 62" enable-background="new 0 0 55 62" xml:space="preserve">
<g>
	<rect x="24" y="35" fill="#333333" width="7" height="2"/>
	<polygon fill="#333333" points="11.156,38.049 9.667,37.21 10.682,39 44.492,39 45.506,37.21 43.985,38.205 	"/>
	<path fill="#333333" d="M51.997,13.066L30.581,0.549c-0.804-0.47-1.868-0.729-2.989-0.729c-1.12,0-2.182,0.259-2.987,0.729
		L3.092,13.067C1.418,14.045,0,16.345,0,18.303v25.035c0,1.957,1.417,4.256,3.09,5.235L24.55,61.092
		c0.805,0.47,1.891,0.729,3.011,0.729c1.121,0,2.194-0.259,2.999-0.729L51.99,48.573c1.674-0.979,3.01-3.278,3.01-5.235V18.303
		C55,16.345,53.671,14.045,51.997,13.066z M22,16h12v4h-1v-2H23v2h-1V16z M47,43.923C47,45.622,45.639,47,43.96,47H11.04
		C9.361,47,8,45.622,8,43.923V24.077C8,22.378,9.361,21,11.04,21h32.92c1.679,0,3.04,1.378,3.04,3.077V43.923z"/>
</g>
</svg>
