<?xml version="1.0" encoding="utf-8"?>
<!-- Generator: Adobe Illustrator 16.0.0, SVG Export Plug-In . SVG Version: 6.00 Build 0)  -->
<!DOCTYPE svg PUBLIC "-//W3C//DTD SVG 1.1//EN" "http://www.w3.org/Graphics/SVG/1.1/DTD/svg11.dtd">
<svg version="1.1" id="Layer_1" xmlns="http://www.w3.org/2000/svg" xmlns:xlink="http://www.w3.org/1999/xlink" x="0px" y="0px"
	 width="75px" height="85px" viewBox="0 0 75 85" enable-background="new 0 0 75 85" xml:space="preserve">
<path fill="#FFFFFF" d="M69.9,18.572L41.828,2.365c-2.383-1.375-6.279-1.375-8.66,0L5.102,18.572c-2.381,1.375-4.33,4.75-4.33,7.5
	V58.48c0,2.75,1.949,6.125,4.33,7.5l28.07,16.207c2.381,1.375,6.277,1.375,8.66,0l28.066-16.205c2.381-1.375,4.33-4.75,4.33-7.5
	v-32.41h0.002C74.23,23.322,72.281,19.947,69.9,18.572z M68.209,44.332h-2.105c-0.984,5.826-6.05,10.281-12.151,10.281
	c-6.804,0-12.337-5.535-12.337-12.337c0-2.269-1.846-4.114-4.116-4.114c-2.268,0-4.113,1.845-4.113,4.114
	c0,6.802-5.534,12.337-12.337,12.337c-6.101,0-11.167-4.455-12.151-10.281H6.792v-4.111h2.106
	c0.983-5.825,6.05-10.281,12.151-10.281c4.643,0,8.69,2.579,10.796,6.378c1.476-1.401,3.464-2.268,5.655-2.268
	s4.181,0.866,5.656,2.268c2.105-3.799,6.152-6.378,10.796-6.378c6.101,0,11.167,4.456,12.151,10.281h2.105V44.332z"/>
<path fill="#FFFFFF" d="M53.952,34.052c-4.534,0-8.226,3.69-8.226,8.225s3.691,8.225,8.226,8.225s8.225-3.689,8.225-8.225
	S58.486,34.052,53.952,34.052z"/>
<path fill="#FFFFFF" d="M21.05,34.052c-4.535,0-8.225,3.69-8.225,8.225s3.69,8.225,8.225,8.225s8.225-3.689,8.225-8.225
	S25.584,34.052,21.05,34.052z"/>
</svg>
