<?xml version="1.0" encoding="utf-8"?>
<!-- Generator: Adobe Illustrator 16.0.0, SVG Export Plug-In . SVG Version: 6.00 Build 0)  -->
<!DOCTYPE svg PUBLIC "-//W3C//DTD SVG 1.1//EN" "http://www.w3.org/Graphics/SVG/1.1/DTD/svg11.dtd">
<svg version="1.1" id="Layer_1" xmlns="http://www.w3.org/2000/svg" xmlns:xlink="http://www.w3.org/1999/xlink" x="0px" y="0px"
	 width="75px" height="85px" viewBox="0 0 75 85" enable-background="new 0 0 75 85" xml:space="preserve">
<path fill="#FFFFFF" d="M19.399,55.497c1.791,2.24,6.496,4.948,18.736,4.948c12.238,0,16.943-2.692,18.732-4.938
	c0.826-1.03,1.051-2.112,1.094-2.689H18.309C18.351,53.396,18.575,54.464,19.399,55.497z"/>
<path fill="#FFFFFF" d="M57.961,36.047c0.025-1.157-0.246-5.041-2.875-8.085c-3.24-3.75-8.943-5.574-16.951-5.574
	c-8.008,0-13.712,1.851-16.953,5.601c-2.631,3.044-2.902,6.901-2.874,8.058H57.961z M49.3,30.965c0.487,0,0.883,0.39,0.883,0.879
	c0,0.486-0.394,0.879-0.883,0.879c-0.487,0-0.879-0.393-0.88-0.879C48.42,31.355,48.813,30.965,49.3,30.965z M45.455,27.046
	c0.481,0,0.88,0.395,0.88,0.881c0,0.485-0.398,0.884-0.88,0.884c-0.486,0-0.883-0.397-0.883-0.884
	C44.572,27.441,44.969,27.046,45.455,27.046z M41.292,30.965c0.486,0,0.882,0.39,0.882,0.879c0,0.486-0.396,0.879-0.882,0.879
	s-0.879-0.393-0.879-0.879C40.413,31.355,40.807,30.965,41.292,30.965z M37.446,27.046c0.482,0,0.88,0.395,0.88,0.881
	c0,0.485-0.397,0.884-0.88,0.884c-0.487,0-0.882-0.397-0.882-0.884C36.564,27.441,36.959,27.046,37.446,27.046z M33.285,30.965
	c0.489,0,0.884,0.39,0.884,0.879c0,0.486-0.396,0.879-0.884,0.879c-0.487,0-0.881-0.393-0.881-0.879
	C32.403,31.355,32.798,30.965,33.285,30.965z M29.435,27.046c0.487,0,0.881,0.395,0.881,0.881c0,0.485-0.395,0.884-0.881,0.884
	c-0.483,0-0.879-0.397-0.879-0.884C28.556,27.441,28.952,27.046,29.435,27.046z M25.278,30.965c0.485,0,0.88,0.39,0.88,0.879
	c0,0.486-0.395,0.879-0.88,0.879c-0.486,0-0.879-0.393-0.879-0.879C24.398,31.355,24.792,30.965,25.278,30.965z"/>
<path fill="#FFFFFF" d="M70.67,18.572L42.598,2.365c-2.383-1.375-6.279-1.375-8.66,0L5.872,18.572c-2.381,1.375-4.33,4.75-4.33,7.5
	V58.48c0,2.75,1.949,6.125,4.33,7.5l28.07,16.207c2.381,1.375,6.277,1.375,8.66,0l28.066-16.205c2.381-1.375,4.33-4.75,4.33-7.5
	v-32.41H75C75,23.322,73.051,19.947,70.67,18.572z M19.638,26.818c3.635-4.236,9.858-6.375,18.499-6.375
	c8.637,0,14.861,2.157,18.496,6.391c4.095,4.768,3.294,10.392,3.258,10.627c-0.075,0.492-0.496,0.899-0.994,0.899H17.37
	c-0.494,0-0.915-0.404-0.99-0.896C16.343,37.228,15.542,31.583,19.638,26.818z M58.499,56.741c-2.97,3.812-9.821,5.757-20.362,5.757
	c-10.548,0-17.398-1.911-20.367-5.724c-1.98-2.543-1.399-4.923-1.373-5.025c0.116-0.444,0.512-0.666,0.973-0.666h41.527
	c0.461,0,0.859,0.227,0.973,0.672C59.896,51.856,60.479,54.196,58.499,56.741z M62.009,46.248c0,1.393-1.323,2.521-2.955,2.521
	H17.543c-1.632,0-2.955-1.129-2.955-2.521v-3.055c0-1.392,1.322-2.521,2.955-2.521h41.511c1.632,0,2.955,1.129,2.955,2.521V46.248z"
	/>
</svg>
