<?xml version="1.0" encoding="utf-8"?>
<!-- Generator: Adobe Illustrator 16.0.0, SVG Export Plug-In . SVG Version: 6.00 Build 0)  -->
<!DOCTYPE svg PUBLIC "-//W3C//DTD SVG 1.1//EN" "http://www.w3.org/Graphics/SVG/1.1/DTD/svg11.dtd">
<svg version="1.1" id="Layer_1" xmlns="http://www.w3.org/2000/svg" xmlns:xlink="http://www.w3.org/1999/xlink" x="0px" y="0px"
	 width="75px" height="85px" viewBox="0 0 75 85" enable-background="new 0 0 75 85" xml:space="preserve">
<path fill="#FFFFFF" d="M70.67,18.572L42.598,2.365c-2.383-1.375-6.279-1.375-8.66,0L5.871,18.572c-2.381,1.375-4.33,4.75-4.33,7.5
	V58.48c0,2.75,1.949,6.125,4.33,7.5l28.07,16.207c2.381,1.375,6.277,1.375,8.66,0l28.066-16.205c2.381-1.375,4.33-4.75,4.33-7.5
	v-32.41H75C75,23.322,73.051,19.947,70.67,18.572z M60.758,45.832c0,12.445-10.126,22.571-22.572,22.571
	c-12.445,0-22.571-10.126-22.571-22.571c0-10.678,7.504-19.89,17.91-22.082v-6.414l0.313-0.157c0.088-0.044,2.192-1.083,4.347-1.083
	c2.156,0,4.259,1.039,4.348,1.083l0.313,0.157v6.414c2.739,0.576,5.311,1.643,7.655,3.176l4.518-4.519l0.333,0.11
	c0.094,0.032,2.316,0.784,3.841,2.309c1.524,1.524,2.275,3.746,2.307,3.839L61.609,29l-4.519,4.518
	C59.491,37.188,60.758,41.436,60.758,45.832z"/>
<path fill="#FFFFFF" d="M38.186,27.465c-10.127,0-18.367,8.24-18.367,18.367c0,10.127,8.239,18.367,18.367,18.367
	c10.128,0,18.367-8.24,18.367-18.367C56.553,35.705,48.313,27.465,38.186,27.465z M40.289,45.832c0,1.159-0.943,2.103-2.104,2.103
	c-1.159,0-2.102-0.943-2.102-2.103V31.504c0-1.159,0.943-2.103,2.102-2.103c1.16,0,2.104,0.943,2.104,2.103V45.832z"/>
</svg>
