<?xml version="1.0" encoding="utf-8"?>
<!-- Generator: Adobe Illustrator 16.0.0, SVG Export Plug-In . SVG Version: 6.00 Build 0)  -->
<!DOCTYPE svg PUBLIC "-//W3C//DTD SVG 1.1//EN" "http://www.w3.org/Graphics/SVG/1.1/DTD/svg11.dtd">
<svg version="1.1" id="Layer_1" xmlns="http://www.w3.org/2000/svg" xmlns:xlink="http://www.w3.org/1999/xlink" x="0px" y="0px"
	 width="75px" height="85px" viewBox="0 0 75 85" enable-background="new 0 0 75 85" xml:space="preserve">
<path fill="#FFFFFF" d="M44.922,61.691c8.733,0,15.838-7.104,15.838-15.836c0-8.732-7.104-15.837-15.838-15.837
	c-8.73,0-15.836,7.105-15.836,15.837C29.085,54.587,36.191,61.692,44.922,61.691z M44.922,34.63c6.198,0,11.226,5.026,11.226,11.225
	c0,6.198-5.027,11.224-11.226,11.224s-11.224-5.026-11.224-11.224C33.698,39.656,38.725,34.63,44.922,34.63z"/>
<path fill="#FFFFFF" d="M5.871,65.98l28.07,16.207c2.381,1.375,6.277,1.375,8.66,0l28.066-16.205c2.381-1.375,4.33-4.75,4.33-7.5
	v-32.41H75c0-2.75-1.949-6.125-4.33-7.5L42.598,2.365c-2.383-1.375-6.279-1.375-8.66,0L5.871,18.572
	c-2.381,1.375-4.33,4.75-4.33,7.5V58.48C1.541,61.23,3.49,64.605,5.871,65.98z M11.263,28.872c0-1.417,1.093-2.349,2.51-2.349
	h22.247v-2.784c0-1.416,1.031-2.28,2.448-2.28h12.826c1.417,0,2.73,0.864,2.73,2.28v2.784h8.496c1.416,0,2.757,0.931,2.757,2.349
	v26.617c0,1.416-1.341,3.105-2.757,3.105h-6.107c-3.022,2.25-7.06,4.501-11.49,4.501c-4.43,0-8.467-2.251-11.49-4.501h-19.66
	c-1.417,0-2.51-1.689-2.51-3.104V28.872z"/>
</svg>
