<?xml version="1.0" encoding="utf-8"?>
<!-- Generator: Adobe Illustrator 16.0.0, SVG Export Plug-In . SVG Version: 6.00 Build 0)  -->
<!DOCTYPE svg PUBLIC "-//W3C//DTD SVG 1.1//EN" "http://www.w3.org/Graphics/SVG/1.1/DTD/svg11.dtd">
<svg version="1.1" id="Layer_1" xmlns="http://www.w3.org/2000/svg" xmlns:xlink="http://www.w3.org/1999/xlink" x="0px" y="0px"
	 width="75px" height="85px" viewBox="0 0 75 85" enable-background="new 0 0 75 85" xml:space="preserve">
<path fill="#FFFFFF" d="M70.67,18.572L42.598,2.365c-2.383-1.375-6.279-1.375-8.66,0L5.871,18.572c-2.381,1.375-4.33,4.75-4.33,7.5
	V58.48c0,2.75,1.949,6.125,4.33,7.5l28.07,16.207c2.381,1.375,6.277,1.375,8.66,0l28.066-16.205c2.381-1.375,4.33-4.75,4.33-7.5
	v-32.41H75C75,23.322,73.051,19.947,70.67,18.572z M38.212,69.596c-4.177,0-7.321-1.951-6.793-3.409
	c0.216-0.595,0.664-1.021,1.368-0.903c-0.005-0.001-0.011-0.002-0.016-0.004l0.025,0.004c-0.003,0-0.006,0-0.009,0
	c2.395,0.558,5.385,0.534,5.385,0.534s3.535,0.023,5.358-0.538v0.004c0.607-0.123,1.263,0.307,1.479,0.903
	C45.537,67.645,42.418,69.597,38.212,69.596z M45.177,64.122c-0.063,0.016-0.125,0.026-0.188,0.032
	c-3.053,0.668-6.534,0.655-6.686,0.653c-0.151,0.002-3.634,0.016-6.687-0.653c-0.063-0.006-0.126-0.018-0.19-0.032
	c-0.739-0.177-1.174-0.915-0.999-1.655c0.17-0.709,0.774-1.175,1.587-1.033l0.001-0.005c2.741,0.643,6.287,0.633,6.287,0.633
	s3.543,0.01,6.286-0.633l0.001,0.005c0.812-0.143,1.417,0.324,1.585,1.033C46.353,63.207,45.917,63.945,45.177,64.122z
	 M45.194,60.506c-0.064,0.016-0.174,0.025-0.237,0.033c-3.051,0.667-6.533,0.654-6.684,0.652c-0.151,0.002-3.634,0.015-6.686-0.653
	c-0.063-0.007-0.123-0.018-0.187-0.032c-0.74-0.176-1.169-0.914-0.992-1.654c0.169-0.708,0.785-1.176,1.597-1.035l0.025-0.005
	c2.742,0.644,6.335,0.634,6.335,0.634s3.948,0.01,6.38-0.634v0.005c0.607-0.141,1.325,0.327,1.492,1.035
	C46.415,59.592,45.933,60.33,45.194,60.506z M50.77,45.117c-3.443,4.391-3.954,6.329-4.17,7.404
	c-0.215,1.076,0.485,2.756-0.831,3.918c-1.316,1.164-7.487,1.336-7.487,1.336s-6.192-0.172-7.508-1.336
	c-1.315-1.162-0.625-2.84-0.841-3.918c-0.214-1.075-0.731-3.014-4.175-7.404C22.313,40.726,19.47,34.139,23,27.037
	c3.53-7.103,10.761-9.514,15.281-9.514c4.52,0,11.733,2.411,15.264,9.514C57.073,34.14,54.215,40.727,50.77,45.117z"/>
</svg>
