<?xml version="1.0" encoding="utf-8"?>
<!-- Generator: Adobe Illustrator 16.0.0, SVG Export Plug-In . SVG Version: 6.00 Build 0)  -->
<!DOCTYPE svg PUBLIC "-//W3C//DTD SVG 1.1//EN" "http://www.w3.org/Graphics/SVG/1.1/DTD/svg11.dtd">
<svg version="1.1" id="Layer_1" xmlns="http://www.w3.org/2000/svg" xmlns:xlink="http://www.w3.org/1999/xlink" x="0px" y="0px"
	 width="75px" height="85px" viewBox="0 0 75 85" enable-background="new 0 0 75 85" xml:space="preserve">
<g>
	<path fill="#FFFFFF" d="M70.233,18.841L42.162,2.634c-2.383-1.375-6.279-1.375-8.66,0L5.436,18.841
		c-2.381,1.375-4.33,4.75-4.33,7.5v32.408c0,2.75,1.949,6.125,4.33,7.5l28.07,16.207c2.381,1.375,6.277,1.375,8.66,0l28.066-16.205
		c2.381-1.375,4.33-4.75,4.33-7.5v-32.41h0.001C74.563,23.591,72.614,20.216,70.233,18.841z M37.751,64.99
		c-7.994-0.453-12.189-3.799-15.081-8.164c-3.23-5.272-5.103-12.247,1.418-18.257c14.457-11.85,10.093-18.879,7.937-22.962
		c17.634,2.664,20.071,17.916,13.268,27.328C38.545,52.347,33.159,54.104,37.751,64.99z M41.606,64.537
		c-1.53-4.025-2.664-7.484,0.567-11.736c3.289-4.252,8.958-10.489,10.546-16.045C63.151,54.445,45.292,64.537,41.606,64.537z"/>
</g>
</svg>
