<?xml version="1.0" encoding="utf-8"?>
<!-- Generator: Adobe Illustrator 16.0.0, SVG Export Plug-In . SVG Version: 6.00 Build 0)  -->
<!DOCTYPE svg PUBLIC "-//W3C//DTD SVG 1.1//EN" "http://www.w3.org/Graphics/SVG/1.1/DTD/svg11.dtd">
<svg version="1.1" id="Layer_1" xmlns="http://www.w3.org/2000/svg" xmlns:xlink="http://www.w3.org/1999/xlink" x="0px" y="0px"
	 width="75px" height="85px" viewBox="0 0 75 85" enable-background="new 0 0 75 85" xml:space="preserve">
<path fill="#FFFFFF" d="M28.445,47.405c1.271-0.054,2.49-0.583,3.284-1.483c0.635-0.688,0.953-1.482,0.9-2.33v-1.324
	c-3.443-1.006-7.15-1.06-10.54-0.106c0,0.053,0,0.053,0,0.053l-0.053,1.271c-0.052,0.899,0.266,1.801,0.954,2.542
	c0.794,0.848,1.959,1.377,3.177,1.377H28.445z"/>
<path fill="#FFFFFF" d="M47.775,47.405c1.271-0.054,2.489-0.583,3.284-1.483c0.636-0.688,0.953-1.482,0.9-2.33v-1.324
	c-3.442-1.006-7.15-1.06-10.539-0.106c0,0.053,0,0.053,0,0.053l-0.054,1.271c-0.053,0.899,0.266,1.801,0.953,2.542
	c0.795,0.848,1.96,1.377,3.178,1.377H47.775z"/>
<path fill="#FFFFFF" d="M69.4,18.572L41.328,2.365c-2.383-1.375-6.279-1.375-8.66,0L4.602,18.572c-2.381,1.375-4.33,4.75-4.33,7.5
	V58.48c0,2.75,1.949,6.125,4.33,7.5l28.07,16.207c2.381,1.375,6.277,1.375,8.66,0l28.066-16.205c2.381-1.375,4.33-4.75,4.33-7.5
	v-32.41h0.002C73.73,23.322,71.781,19.947,69.4,18.572z M56.991,50.795c-1.112,3.866-2.648,5.878-3.655,5.561
	c-0.211-0.053-0.423-0.265-0.582-0.583c-3.919,8.792-9.639,12.976-15.782,12.976c-6.09,0-11.863-4.184-15.782-12.976
	c-0.158,0.265-0.371,0.53-0.582,0.583c-1.06,0.317-2.542-1.694-3.708-5.561c-1.112-3.919-0.953-7.785,0.529-8.209
	c-2.277-16.523,8.209-27.486,19.49-26.745c11.334-0.742,21.82,10.222,19.542,26.745C57.944,43.063,58.103,46.929,56.991,50.795z"/>
<path fill="#FFFFFF" d="M45.393,49.788c-1.854-0.053-3.654-0.795-4.873-2.118c-0.847-0.9-1.324-1.959-1.535-3.072h-4.184
	c-0.159,1.06-0.635,2.065-1.43,2.913c-1.218,1.324-3.019,2.119-4.926,2.225l-2.33,0.053c-1.588,0-3.124-0.582-4.29-1.535
	c3.178,11.121,8.951,16.364,15.146,16.364c6.25,0,12.021-5.297,15.094-16.471c-1.165,0.953-2.7,1.536-4.29,1.589L45.393,49.788z"/>
<path fill="#FFFFFF" d="M52.225,35.648c-0.212-1.695-0.106-3.654-0.265-5.349c-1.59-1.377-4.131-3.389-7.097-3.336
	c-1.59,0.847-3.019,1.06-4.344,1.907c-1.164,0.741-5.984,0.741-7.202,0c-1.324-0.847-2.754-1.006-4.343-1.907
	c-2.966-0.053-5.508,1.959-7.097,3.336c-0.159,1.748-0.053,3.708-0.265,5.349c-0.265,2.119-0.953,2.753-1.43,2.913
	c0.053,0.583,0.053,1.166,0.106,1.748l0.318-0.106c4.343-1.377,9.056-1.324,13.399,0.159l0.635,0.212l0.159,0.635
	c0.053,0.212,0.053,0.477,0.105,0.742h4.184c0-0.265,0.054-0.583,0.105-0.847l0.16-0.688l0.635-0.212
	c4.29-1.429,9.057-1.377,13.294,0.159l0.265,0.106c0.053-0.689,0.105-1.271,0.105-1.907C53.178,38.401,52.489,37.819,52.225,35.648z
	"/>
</svg>
