<?xml version="1.0" encoding="utf-8"?>
<!-- Generator: Adobe Illustrator 16.0.0, SVG Export Plug-In . SVG Version: 6.00 Build 0)  -->
<!DOCTYPE svg PUBLIC "-//W3C//DTD SVG 1.1//EN" "http://www.w3.org/Graphics/SVG/1.1/DTD/svg11.dtd">
<svg version="1.1" id="Layer_1" xmlns="http://www.w3.org/2000/svg" xmlns:xlink="http://www.w3.org/1999/xlink" x="0px" y="0px"
	 width="75px" height="85px" viewBox="0 0 75 85" enable-background="new 0 0 75 85" xml:space="preserve">
<path fill="#FFFFFF" d="M70.67,18.572L42.598,2.365c-2.383-1.375-6.279-1.375-8.66,0L5.872,18.572c-2.381,1.375-4.33,4.75-4.33,7.5
	V58.48c0,2.75,1.949,6.125,4.33,7.5l28.07,16.207c2.381,1.375,6.277,1.375,8.66,0l28.066-16.205c2.381-1.375,4.33-4.75,4.33-7.5
	v-32.41H75C75,23.322,73.051,19.947,70.67,18.572z M50.379,47.32c-0.493,1.576,3.865,16.623,2.814,17.436
	c-1.063,0.813-13.341-8.197-14.924-8.197c-1.582,0-13.861,9.01-14.922,8.197c-1.051-0.813,3.307-15.857,2.813-17.436
	c-0.482-1.586-12.436-11.065-12.025-12.377c0.398-1.309,15.371-1.601,16.65-2.58s6.169-15.847,7.484-15.847
	c1.305,0,6.207,14.868,7.486,15.847s16.252,1.271,16.65,2.58C62.816,36.255,50.863,45.734,50.379,47.32z"/>
</svg>
