<?xml version="1.0" encoding="utf-8"?>
<!-- Generator: Adobe Illustrator 16.0.0, SVG Export Plug-In . SVG Version: 6.00 Build 0)  -->
<!DOCTYPE svg PUBLIC "-//W3C//DTD SVG 1.1//EN" "http://www.w3.org/Graphics/SVG/1.1/DTD/svg11.dtd">
<svg version="1.1" id="Layer_1" xmlns="http://www.w3.org/2000/svg" xmlns:xlink="http://www.w3.org/1999/xlink" x="0px" y="0px"
	 width="75px" height="85px" viewBox="0 0 75 85" enable-background="new 0 0 75 85" xml:space="preserve">
<g>
	<path fill="#FFFFFF" d="M70.67,18.572L42.598,2.365c-2.383-1.375-6.279-1.375-8.66,0L5.872,18.572c-2.381,1.375-4.33,4.75-4.33,7.5
		V58.48c0,2.75,1.949,6.125,4.33,7.5l28.07,16.207c2.381,1.375,6.277,1.375,8.66,0l28.066-16.205c2.381-1.375,4.33-4.75,4.33-7.5
		v-32.41H75C75,23.322,73.051,19.947,70.67,18.572z M38.271,67.943c-14.176,0-25.667-11.49-25.667-25.667
		c0-14.176,11.491-25.667,25.667-25.667S63.938,28.1,63.938,42.276S52.446,67.943,38.271,67.943z"/>
	<path fill="#FFFFFF" d="M38.271,21.422c-11.517,0-20.854,9.336-20.854,20.854s9.337,20.854,20.854,20.854
		c11.517,0,20.854-9.338,20.854-20.854C59.125,30.759,49.787,21.422,38.271,21.422z M38.271,58.318
		c-8.86,0-16.042-7.182-16.042-16.042s7.182-16.042,16.042-16.042c8.86,0,16.042,7.182,16.042,16.042
		C54.313,51.137,47.131,58.318,38.271,58.318z"/>
	<path fill="#FFFFFF" d="M38.271,31.046c-6.203,0-11.229,5.028-11.229,11.23c0,6.203,5.028,11.229,11.229,11.229
		c6.202,0,11.229-5.027,11.229-11.229C49.5,36.074,44.473,31.046,38.271,31.046z M38.271,48.693c-3.543,0-6.417-2.873-6.417-6.417
		c0-3.543,2.873-6.417,6.417-6.417c3.544,0,6.417,2.873,6.417,6.417C44.688,45.82,41.814,48.693,38.271,48.693z"/>
</g>
</svg>
