<?xml version="1.0" encoding="utf-8"?>
<!-- Generator: Adobe Illustrator 16.0.0, SVG Export Plug-In . SVG Version: 6.00 Build 0)  -->
<!DOCTYPE svg PUBLIC "-//W3C//DTD SVG 1.1//EN" "http://www.w3.org/Graphics/SVG/1.1/DTD/svg11.dtd">
<svg version="1.1" id="Layer_1" xmlns="http://www.w3.org/2000/svg" xmlns:xlink="http://www.w3.org/1999/xlink" x="0px" y="0px"
	 width="75px" height="85px" viewBox="0 0 75 85" enable-background="new 0 0 75 85" xml:space="preserve">
<path fill="#FFFFFF" d="M70.233,18.572L42.162,2.365c-2.383-1.375-6.279-1.375-8.66,0L5.436,18.572c-2.381,1.375-4.33,4.75-4.33,7.5
	V58.48c0,2.75,1.949,6.125,4.33,7.5l28.07,16.207c2.381,1.375,6.277,1.375,8.66,0l28.066-16.205c2.381-1.375,4.33-4.75,4.33-7.5
	v-32.41h0.001C74.563,23.322,72.614,19.947,70.233,18.572z M62.851,48.132c-0.498,0.667-1.292,1.065-2.125,1.065h-2.42l0.08,8.713
	c0.01,1.415-1.086,2.588-2.494,2.67l-7.903,0.475v6.551c0,0.784-0.345,1.523-0.945,2.028c-0.477,0.401-1.083,0.622-1.706,0.622
	c-0.153,0-0.304-0.012-0.459-0.039l-17.984-3.121c-1.273-0.219-2.199-1.316-2.199-2.609v-8.024c-0.91-0.878-2.2-2.269-3.479-4.142
	c-2.884-4.221-4.408-9.004-4.408-13.832c0-5.229,2.466-10.527,6.764-14.534c4.233-3.947,9.779-6.21,15.215-6.21
	c6.482,0,11.158,2.825,13.939,5.195c3.259,2.781,5.738,6.472,6.802,10.127c1.39,4.774,3.088,10.519,3.593,12.226l0.149,0.506
	C63.504,46.591,63.348,47.464,62.851,48.132z"/>
<path fill="#FFFFFF" d="M38.786,21.528c-9.352,0-18.192,8.242-18.192,16.959c0,9.79,7.385,15.848,7.46,15.908l0.427,0.339v8.796
	l15.722,2.728V57.49l10.388-0.623l-0.104-11.454h4.723c-0.697-2.356-2.113-7.16-3.313-11.288
	C54.478,29.255,48.579,21.528,38.786,21.528z M47.185,35.151c-1.112,1.27-2.222,2.547-3.33,3.826l-8.859,10.192
	c-0.108,0.124-0.164,0.187-0.222,0.243c-0.361,0.4-0.759,0.489-1.025,0.489c-0.251,0-0.498-0.081-0.713-0.233
	c-0.339-0.249-0.813-0.793-0.281-1.715l3.888-6.813c0.576-1.016,1.151-2.03,1.735-3.04c-1.155-0.037-2.255-0.078-3.355-0.118
	l-1.689-0.062c-0.099-0.003-0.197-0.007-0.297-0.017c-0.509-0.059-0.888-0.295-1.075-0.665c-0.188-0.372-0.154-0.819,0.097-1.261
	c1.388-2.444,2.778-4.89,4.172-7.33l0.688-1.202c0.412-0.718,0.824-1.435,1.224-2.16c0.354-0.647,0.851-0.783,1.206-0.783
	c0.152,0,0.31,0.023,0.479,0.072c0.447,0.131,2.825,0.807,2.825,0.807c0.537,0.152,1.074,0.303,1.609,0.468
	c0.527,0.162,0.858,0.437,0.984,0.817c0.126,0.378,0.025,0.793-0.298,1.234c0,0-2.843,3.872-3.666,4.999l4.818,0.177l0.243,0.014
	c0.515,0.036,0.912,0.308,1.112,0.765C47.647,34.289,47.558,34.726,47.185,35.151z"/>
</svg>
