<?xml version="1.0" encoding="utf-8"?>
<!-- Generator: Adobe Illustrator 16.0.0, SVG Export Plug-In . SVG Version: 6.00 Build 0)  -->
<!DOCTYPE svg PUBLIC "-//W3C//DTD SVG 1.1//EN" "http://www.w3.org/Graphics/SVG/1.1/DTD/svg11.dtd">
<svg version="1.1" id="Layer_1" xmlns="http://www.w3.org/2000/svg" xmlns:xlink="http://www.w3.org/1999/xlink" x="0px" y="0px"
	 width="75px" height="85px" viewBox="0 0 75 85" enable-background="new 0 0 75 85" xml:space="preserve">
<path fill="#FFFFFF" d="M69.9,18.572L41.828,2.365c-2.383-1.375-6.279-1.375-8.66,0L5.102,18.572c-2.381,1.375-4.33,4.75-4.33,7.5
	V58.48c0,2.75,1.949,6.125,4.33,7.5l28.07,16.207c2.381,1.375,6.277,1.375,8.66,0l28.066-16.205c2.381-1.375,4.33-4.75,4.33-7.5
	v-32.41h0.002C74.23,23.322,72.281,19.947,69.9,18.572z M16.449,35.054c-0.738-0.783-1.199-1.845-1.199-2.951
	c0-1.107,0.461-2.26,1.199-3.044l4.612-4.611c0.783-0.737,1.937-1.199,3.042-1.199c1.153,0,2.168,0.461,2.951,1.199l3.228,3.228
	L19.676,38.283L16.449,35.054z M42.594,60.784c-0.415-0.092-0.691-0.322-0.922-0.553L21.199,39.804l5.902-6.041l22.086,22.133
	l-4.289,4.335l5.857,1.567l3.043-3.044l-1.613-5.809l-1.292,1.29L28.808,32.104l2.95-2.905c1.015,1.014,1.015,1.014,20.474,20.472
	c0.23,0.231,0.461,0.554,0.553,0.923L56.75,64.75L42.594,60.784z"/>
</svg>
