<?xml version="1.0" encoding="utf-8"?>
<!-- Generator: Adobe Illustrator 16.0.0, SVG Export Plug-In . SVG Version: 6.00 Build 0)  -->
<!DOCTYPE svg PUBLIC "-//W3C//DTD SVG 1.1//EN" "http://www.w3.org/Graphics/SVG/1.1/DTD/svg11.dtd">
<svg version="1.1" id="Layer_1" xmlns="http://www.w3.org/2000/svg" xmlns:xlink="http://www.w3.org/1999/xlink" x="0px" y="0px"
	 width="75px" height="85px" viewBox="0 0 75 85" enable-background="new 0 0 75 85" xml:space="preserve">
<path fill="#FFFFFF" d="M69.4,18.841L41.328,2.634c-2.383-1.375-6.279-1.375-8.66,0L4.602,18.841c-2.381,1.375-4.33,4.75-4.33,7.5
	v32.408c0,2.75,1.949,6.125,4.33,7.5l28.07,16.207c2.381,1.375,6.277,1.375,8.66,0l28.066-16.205c2.381-1.375,4.33-4.75,4.33-7.5
	v-32.41h0.002C73.73,23.591,71.781,20.216,69.4,18.841z M50.321,64.228c-4.194,4.718-10.485,1.136-13.281,1.136
	s-9.087,3.582-13.281-1.136c-4.194-4.806-10.136-20.708-7.165-26.999c3.616-7.563,13.879-8.238,19.449-2.183
	c0.135-2.955,0.165-5.788-0.226-7.43c-0.438-2.185-1.922-3.845-2.447-4.456c-0.961-0.961-0.175-1.747,0.524-1.923
	c1.048-0.261,1.573,0.525,2.097,1.137c0.523,0.699,1.311,2.534,1.573,4.543c0.05,0.349,0.086,0.742,0.117,1.154
	c2.278-7.701,8.56-9.872,14.475-9.629c-2.131,7.584-7.258,10.261-14.4,11.441c0.034,2.016-0.063,4.201-0.171,5.659
	c5.091-6.646,16.19-6.075,19.901,1.686C60.545,43.52,54.516,59.509,50.321,64.228z"/>
</svg>
