<?xml version="1.0" encoding="utf-8"?>
<!-- Generator: Adobe Illustrator 16.0.0, SVG Export Plug-In . SVG Version: 6.00 Build 0)  -->
<!DOCTYPE svg PUBLIC "-//W3C//DTD SVG 1.1//EN" "http://www.w3.org/Graphics/SVG/1.1/DTD/svg11.dtd">
<svg version="1.1" id="Layer_1" xmlns="http://www.w3.org/2000/svg" xmlns:xlink="http://www.w3.org/1999/xlink" x="0px" y="0px"
	 width="75px" height="85px" viewBox="0 0 75 85" enable-background="new 0 0 75 85" xml:space="preserve">
<path fill="#FFFFFF" d="M26.991,36.321c0,1.368,1.12,2.488,2.488,2.488h14.932c1.369,0,2.488-1.12,2.488-2.488V23.878H26.991V36.321
	z M39.435,26.366h4.977v9.955h-4.977V26.366z"/>
<path fill="#FFFFFF" d="M69.4,18.841L41.328,2.634c-2.383-1.375-6.279-1.375-8.66,0L4.602,18.841c-2.381,1.375-4.33,4.75-4.33,7.5
	v32.408c0,2.75,1.949,6.125,4.33,7.5l28.07,16.207c2.381,1.375,6.277,1.375,8.66,0l28.066-16.205c2.381-1.375,4.33-4.75,4.33-7.5
	v-32.41h0.002C73.73,23.591,71.781,20.216,69.4,18.841z M56.854,56.231c0,2.737-2.239,4.977-4.977,4.977H22.013
	c-2.737,0-4.977-2.239-4.977-4.977V26.366c0-2.737,2.24-4.977,4.977-4.977h27.805l7.037,7.783V56.231z"/>
</svg>
