<?xml version="1.0" encoding="utf-8"?>
<!-- Generator: Adobe Illustrator 16.0.0, SVG Export Plug-In . SVG Version: 6.00 Build 0)  -->
<!DOCTYPE svg PUBLIC "-//W3C//DTD SVG 1.1//EN" "http://www.w3.org/Graphics/SVG/1.1/DTD/svg11.dtd">
<svg version="1.1" id="Layer_1" xmlns="http://www.w3.org/2000/svg" xmlns:xlink="http://www.w3.org/1999/xlink" x="0px" y="0px"
	 width="75px" height="85px" viewBox="0 0 75 85" enable-background="new 0 0 75 85" xml:space="preserve">
<path fill="#FFFFFF" d="M69.9,18.841L41.828,2.634c-2.383-1.375-6.279-1.375-8.66,0L5.102,18.841c-2.381,1.375-4.33,4.75-4.33,7.5
	v32.408c0,2.75,1.949,6.125,4.33,7.5l28.07,16.207c2.381,1.375,6.277,1.375,8.66,0l28.066-16.205c2.381-1.375,4.33-4.75,4.33-7.5
	v-32.41h0.002C74.23,23.591,72.281,20.216,69.9,18.841z M61.5,38.67H20.6c-3.26,0-5.948,2.688-5.948,5.948
	c0,3.259,2.688,5.947,5.948,5.947h40.9v3.83H20.6c-5.378,0-9.778-4.4-9.778-9.777c0-5.378,4.4-9.777,9.778-9.777h40.9V38.67z
	 M16.362,45.433c-0.082-0.244-0.082-0.57-0.082-0.896c0-0.325,0-0.57,0.082-0.896h44.241v1.793H16.362z M60.604,46.98v1.874H19.621
	c-1.141-0.244-2.118-0.978-2.688-1.874H60.604z M16.933,42.173c0.651-0.977,1.547-1.629,2.688-1.874h40.982v1.874H16.933z"/>
</svg>
