<?xml version="1.0" encoding="utf-8"?>
<!-- Generator: Adobe Illustrator 16.0.0, SVG Export Plug-In . SVG Version: 6.00 Build 0)  -->
<!DOCTYPE svg PUBLIC "-//W3C//DTD SVG 1.1//EN" "http://www.w3.org/Graphics/SVG/1.1/DTD/svg11.dtd">
<svg version="1.1" id="Layer_1" xmlns="http://www.w3.org/2000/svg" xmlns:xlink="http://www.w3.org/1999/xlink" x="0px" y="0px"
	 width="75px" height="85px" viewBox="0 0 75 85" enable-background="new 0 0 75 85" xml:space="preserve">
<path fill="#FFFFFF" d="M44.194,45.225c-1.58,0-3.044,0.477-4.278,1.275c-1.215-5.25-5.898-9.172-11.518-9.172
	c-6.543,0-11.847,5.303-11.847,11.846c0,6.543,5.304,11.848,11.847,11.848c3.57,0,12.814,0,15.796,0
	c4.362,0,7.897-3.537,7.897-7.898S48.557,45.225,44.194,45.225z"/>
<path fill="#FFFFFF" d="M42.188,41.478c0.656-0.112,1.32-0.203,2.007-0.203c2.099,0,4.067,0.552,5.776,1.508
	c0.094-0.488,0.148-0.991,0.148-1.508c0-4.36-3.537-7.897-7.899-7.897c-2.185,0-4.161,0.887-5.59,2.319
	C38.939,37.115,40.86,39.107,42.188,41.478z"/>
<path fill="#FFFFFF" d="M70.67,18.572L42.598,2.365c-2.383-1.375-6.279-1.375-8.66,0L5.872,18.572c-2.381,1.375-4.33,4.75-4.33,7.5
	V58.48c0,2.75,1.949,6.125,4.33,7.5l28.07,16.207c2.381,1.375,6.277,1.375,8.66,0l28.066-16.205c2.381-1.375,4.33-4.75,4.33-7.5
	v-32.41H75C75,23.322,73.051,19.947,70.67,18.572z M40.246,19.557c0-1.091,0.885-1.975,1.974-1.975c1.091,0,1.975,0.884,1.975,1.975
	v3.949c0,1.09-0.882,1.974-1.975,1.974c-1.091,0-1.974-0.884-1.974-1.974V19.557z M25.467,24.522c0.77-0.771,2.021-0.771,2.792,0
	l2.792,2.792c0.771,0.771,0.771,2.021,0,2.792c-0.77,0.771-2.021,0.771-2.792,0l-2.792-2.792
	C24.696,26.543,24.696,25.292,25.467,24.522z M44.194,64.97c-2.738,0-12.639,0-15.795,0c-8.724,0-15.796-7.071-15.796-15.796
	c0-8.724,7.072-15.795,15.796-15.795c1.552,0,3.052,0.229,4.466,0.645c2.168-2.791,5.547-4.595,9.354-4.595
	c6.544,0,11.85,5.306,11.85,11.847c-0.003,1.496-0.292,2.922-0.797,4.24c1.728,2.059,2.771,4.711,2.771,7.607
	C56.043,59.664,50.738,64.97,44.194,64.97z M53.391,30.106c-0.771-0.771-0.771-2.021,0-2.792l2.793-2.792
	c0.77-0.771,2.021-0.771,2.791,0c0.771,0.771,0.771,2.021,0,2.792l-2.791,2.792C55.411,30.877,54.162,30.877,53.391,30.106z
	 M63.94,43.25h-3.95c-1.09,0-1.974-0.884-1.974-1.975c0-1.09,0.884-1.973,1.974-1.973h3.95c1.089,0,1.975,0.884,1.975,1.973
	C65.916,42.366,65.029,43.25,63.94,43.25z"/>
</svg>
