<?xml version="1.0" encoding="utf-8"?>
<!-- Generator: Adobe Illustrator 16.0.0, SVG Export Plug-In . SVG Version: 6.00 Build 0)  -->
<!DOCTYPE svg PUBLIC "-//W3C//DTD SVG 1.1//EN" "http://www.w3.org/Graphics/SVG/1.1/DTD/svg11.dtd">
<svg version="1.1" id="Layer_1" xmlns="http://www.w3.org/2000/svg" xmlns:xlink="http://www.w3.org/1999/xlink" x="0px" y="0px"
	 width="75px" height="85px" viewBox="0 0 75 85" enable-background="new 0 0 75 85" xml:space="preserve">
<path fill="#FFFFFF" d="M69.9,18.572L41.828,2.365c-2.383-1.375-6.279-1.375-8.66,0L5.102,18.572c-2.381,1.375-4.33,4.75-4.33,7.5
	V58.48c0,2.75,1.949,6.125,4.33,7.5l28.07,16.207c2.381,1.375,6.277,1.375,8.66,0l28.066-16.205c2.381-1.375,4.33-4.75,4.33-7.5
	v-32.41h0.002C74.23,23.322,72.281,19.947,69.9,18.572z M49.524,27.903l2.796-2.794c0.478-0.48,1.115-0.746,1.797-0.746
	c0.68,0,1.318,0.265,1.799,0.746c0.989,0.991,0.989,2.604,0.001,3.595L53.121,31.5c-0.48,0.48-1.119,0.745-1.799,0.745
	s-1.318-0.265-1.798-0.745C48.533,30.508,48.533,28.895,49.524,27.903z M36.204,20.54c0-1.402,1.141-2.543,2.542-2.543
	c1.402,0,2.543,1.141,2.543,2.543v3.952c0,1.402-1.141,2.543-2.543,2.543c-1.402,0-2.542-1.141-2.542-2.543V20.54z M21.578,25.109
	c0.48-0.48,1.119-0.746,1.798-0.746c0.68,0,1.318,0.265,1.798,0.746l2.795,2.793c0.991,0.992,0.99,2.605,0,3.597
	c-0.48,0.48-1.119,0.745-1.798,0.745s-1.318-0.264-1.798-0.744l-2.794-2.795c-0.48-0.479-0.745-1.118-0.745-1.797
	C20.833,26.228,21.098,25.589,21.578,25.109z M14.466,42.276c0-1.402,1.14-2.543,2.542-2.543h3.953c1.402,0,2.543,1.141,2.543,2.543
	c0,1.401-1.141,2.542-2.543,2.542h-3.953C15.606,44.818,14.466,43.678,14.466,42.276z M27.97,56.649l-2.796,2.794
	c-0.479,0.48-1.118,0.746-1.797,0.746s-1.318-0.266-1.799-0.746c-0.479-0.479-0.744-1.118-0.744-1.797
	c0-0.68,0.265-1.318,0.745-1.799l2.794-2.794c0.481-0.48,1.12-0.745,1.799-0.745s1.318,0.265,1.798,0.745
	C28.96,54.045,28.96,55.658,27.97,56.649z M41.289,64.013c0,1.402-1.141,2.543-2.543,2.543c-1.402,0-2.542-1.141-2.542-2.543v-3.952
	c0-1.402,1.141-2.543,2.542-2.543c1.402,0,2.543,1.141,2.543,2.543V64.013z M38.746,54.699c-6.85,0-12.424-5.573-12.424-12.423
	c0-6.85,5.574-12.423,12.424-12.423c6.85,0,12.423,5.573,12.423,12.423C51.169,49.126,45.596,54.699,38.746,54.699z M55.917,59.443
	c-0.481,0.48-1.12,0.746-1.8,0.746c-0.681,0-1.319-0.266-1.799-0.747l-2.793-2.792c-0.48-0.48-0.745-1.119-0.745-1.799
	s0.265-1.318,0.745-1.798c0.478-0.479,1.115-0.745,1.796-0.745c0.679,0,1.317,0.265,1.8,0.744l2.795,2.795
	C56.906,56.84,56.906,58.452,55.917,59.443z M60.482,44.818h-3.951c-1.402,0-2.543-1.141-2.543-2.542
	c0-1.402,1.141-2.543,2.543-2.543h3.951c1.402,0,2.543,1.141,2.543,2.543C63.025,43.678,61.885,44.818,60.482,44.818z"/>
<path fill="#FFFFFF" d="M38.746,34.939c-4.045,0-7.337,3.292-7.337,7.337s3.292,7.337,7.337,7.337c4.046,0,7.337-3.291,7.337-7.337
	S42.792,34.939,38.746,34.939z"/>
</svg>
