<?xml version="1.0" encoding="utf-8"?>
<!-- Generator: Adobe Illustrator 16.0.0, SVG Export Plug-In . SVG Version: 6.00 Build 0)  -->
<!DOCTYPE svg PUBLIC "-//W3C//DTD SVG 1.1//EN" "http://www.w3.org/Graphics/SVG/1.1/DTD/svg11.dtd">
<svg version="1.1" id="Layer_1" xmlns="http://www.w3.org/2000/svg" xmlns:xlink="http://www.w3.org/1999/xlink" x="0px" y="0px"
	 width="75px" height="85px" viewBox="0 0 75 85" enable-background="new 0 0 75 85" xml:space="preserve">
<path fill="#FFFFFF" d="M69.9,18.572L41.828,2.365c-2.383-1.375-6.279-1.375-8.66,0L5.102,18.572c-2.381,1.375-4.33,4.75-4.33,7.5
	V58.48c0,2.75,1.949,6.125,4.33,7.5l28.07,16.207c2.381,1.375,6.277,1.375,8.66,0l28.066-16.205c2.381-1.375,4.33-4.75,4.33-7.5
	v-32.41h0.002C74.23,23.322,72.281,19.947,69.9,18.572z M53.196,39.18L31.801,66.619c-0.42,0.537-1.051,0.836-1.696,0.836
	c-0.337,0-0.674-0.059-0.987-0.223c-0.919-0.475-1.369-1.502-1.071-2.492l4.821-15.883h-2.75h-0.012h-0.013h-6.589
	c-0.752,0-1.447-0.466-1.836-1.105c-0.39-0.641-0.419-1.513-0.078-2.181L34.33,20.829c0.368-0.715,1.107-1.165,1.913-1.165H51.5
	c0.839,0,1.604,0.464,1.953,1.227c0.352,0.766,0.221,1.637-0.329,2.273L42.332,35.588H51.5c0.822,0,1.57,0.526,1.932,1.266
	C53.791,37.591,53.7,38.531,53.196,39.18z"/>
</svg>
