<?xml version="1.0" encoding="utf-8"?>
<!-- Generator: Adobe Illustrator 16.0.0, SVG Export Plug-In . SVG Version: 6.00 Build 0)  -->
<!DOCTYPE svg PUBLIC "-//W3C//DTD SVG 1.1//EN" "http://www.w3.org/Graphics/SVG/1.1/DTD/svg11.dtd">
<svg version="1.1" id="Layer_1" xmlns="http://www.w3.org/2000/svg" xmlns:xlink="http://www.w3.org/1999/xlink" x="0px" y="0px"
	 width="75px" height="85px" viewBox="0 0 75 85" enable-background="new 0 0 75 85" xml:space="preserve">
<g>
	<path fill="#FFFFFF" d="M37.834,39.367c-4.089-2.262-6.557,0-6.557,0v21.735c0,3.613,2.939,6.557,6.557,6.557
		c3.614,0,6.554-2.943,6.554-6.557V39.367C44.388,39.367,41.982,41.663,37.834,39.367z"/>
	<path fill="#FFFFFF" d="M70.233,18.573L42.162,2.366c-2.383-1.375-6.279-1.375-8.66,0L5.436,18.572
		c-2.381,1.375-4.33,4.75-4.33,7.5v32.409c0,2.75,1.949,6.125,4.33,7.5l28.07,16.206c2.381,1.375,6.277,1.375,8.66,0l28.066-16.205
		c2.381-1.375,4.33-4.75,4.33-7.5V26.073h0.001C74.563,23.323,72.614,19.948,70.233,18.573z M42.9,12.912
		c1.526,0,2.764,1.238,2.764,2.763c0,1.526-1.237,2.762-2.764,2.762c-1.525,0-2.763-1.236-2.763-2.762
		C40.138,14.149,41.375,12.912,42.9,12.912z M34.601,15.675c2.018,0,3.654,1.636,3.654,3.653c0,2.018-1.637,3.654-3.654,3.654
		s-3.653-1.636-3.653-3.654C30.947,17.312,32.583,15.675,34.601,15.675z M52.31,35.104h-3.936v25.998
		c0,5.82-4.72,10.539-10.54,10.539s-10.54-4.719-10.54-10.539V35.104h-3.936V31.73h9.844c-0.278-0.625-0.437-1.32-0.437-2.054
		c0-2.797,2.27-5.065,5.068-5.065c2.796,0,5.068,2.268,5.068,5.065c0,0.734-0.16,1.428-0.438,2.054h9.846V35.104z"/>
</g>
</svg>
