<?xml version="1.0" encoding="utf-8"?>
<!-- Generator: Adobe Illustrator 16.0.0, SVG Export Plug-In . SVG Version: 6.00 Build 0)  -->
<!DOCTYPE svg PUBLIC "-//W3C//DTD SVG 1.1//EN" "http://www.w3.org/Graphics/SVG/1.1/DTD/svg11.dtd">
<svg version="1.1" id="Layer_1" xmlns="http://www.w3.org/2000/svg" xmlns:xlink="http://www.w3.org/1999/xlink" x="0px" y="0px"
	 width="75px" height="85px" viewBox="0 0 75 85" enable-background="new 0 0 75 85" xml:space="preserve">
<g>
	<path fill="#FFFFFF" d="M52.139,36.871v15.211c4.2,0,7.605-3.406,7.605-7.605C59.744,40.275,56.339,36.871,52.139,36.871z"/>
	<path fill="#FFFFFF" d="M70.67,19.573L42.6,3.366c-2.383-1.375-6.28-1.375-8.661,0L5.873,19.572
		c-2.381,1.375-4.33,4.751-4.33,7.501V59.48c0,2.75,1.949,6.125,4.33,7.5l28.07,16.207c2.381,1.375,6.278,1.375,8.661,0
		L70.67,66.982c2.381-1.375,4.33-4.75,4.33-7.5v-32.41l0,0C75,24.323,73.051,20.948,70.67,19.573z M52.139,58.057v1.193
		c0,3.879-3.146,7.024-7.023,7.024H27.247c-3.88,0-7.024-3.146-7.024-7.024V28.314c0-3.879,0-3.871,7.024-3.871h17.869
		c7.023,0,7.023-0.008,7.023,3.871v2.581c7.501,0,13.58,6.081,13.58,13.582C65.719,51.977,59.639,58.057,52.139,58.057z"/>
</g>
</svg>
