<?xml version="1.0" encoding="utf-8"?>
<!-- Generator: Adobe Illustrator 16.0.0, SVG Export Plug-In . SVG Version: 6.00 Build 0)  -->
<!DOCTYPE svg PUBLIC "-//W3C//DTD SVG 1.1//EN" "http://www.w3.org/Graphics/SVG/1.1/DTD/svg11.dtd">
<svg version="1.1" id="Layer_1" xmlns="http://www.w3.org/2000/svg" xmlns:xlink="http://www.w3.org/1999/xlink" x="0px" y="0px"
	 width="75px" height="85px" viewBox="0 0 75 85" enable-background="new 0 0 75 85" xml:space="preserve">
<path fill="#FFFFFF" d="M69.758,19.573L41.688,3.366c-2.383-1.375-6.28-1.375-8.661,0L4.96,19.572c-2.381,1.375-4.33,4.75-4.33,7.5
	V59.48c0,2.75,1.949,6.125,4.33,7.5l28.07,16.207c2.381,1.375,6.278,1.375,8.661,0l28.066-16.205c2.381-1.375,4.33-4.75,4.33-7.5
	v-32.41l0,0C74.088,24.323,72.139,20.948,69.758,19.573z M14.717,57.143l9.382-7.282c0.576-0.446,1.217-0.583,1.435-0.302
	l0.394,0.507c0.217,0.28-0.072,0.868-0.648,1.315l-9.383,7.283c-0.574,0.447-1.217,0.582-1.435,0.303l-0.394-0.508
	C13.85,58.18,14.141,57.59,14.717,57.143z M14.316,62.732l-0.393-0.505c-0.217-0.281,0.256-1.012,1.058-1.634l13.056-10.135
	c0.801-0.623,1.626-0.898,1.843-0.618l0.394,0.506c0.217,0.28-0.255,1.011-1.058,1.632L16.162,62.113
	C15.36,62.735,14.535,63.014,14.316,62.732z M31.532,58.223l-10.558,8.195c-0.648,0.504-1.35,0.685-1.568,0.404l-0.393-0.507
	c-0.218-0.28,0.132-0.915,0.779-1.417l10.56-8.196c0.647-0.504,1.348-0.685,1.565-0.405l0.394,0.508
	C32.529,57.084,32.179,57.719,31.532,58.223z M31.208,54.611L17.333,65.379c-0.85,0.662-1.715,0.97-1.934,0.689l-0.393-0.506
	c-0.219-0.28,0.296-1.043,1.146-1.703l13.874-10.769c0.851-0.661,1.715-0.97,1.933-0.689l0.394,0.507
	C32.572,53.188,32.058,53.95,31.208,54.611z M62.477,49.869c-0.359,0.721-0.896,1.28-1.609,1.675
	c-0.715,0.386-1.471,0.537-2.27,0.45l-10.646-1.236l-4.959,9.512c-0.379,0.705-0.926,1.245-1.639,1.625
	c-0.73,0.369-1.492,0.497-2.281,0.387c-0.799-0.121-1.495-0.457-2.088-1.006c-0.592-0.559-0.965-1.233-1.121-2.023l-2.126-10.491
	l-10.594-1.779c-0.791-0.137-1.474-0.489-2.05-1.058c-0.584-0.575-0.945-1.258-1.082-2.049c-0.139-0.798-0.035-1.563,0.309-2.293
	c0.344-0.729,0.869-1.297,1.573-1.702l9.356-5.285l-1.6-10.605c-0.121-0.799,0.006-1.559,0.374-2.281
	c0.36-0.721,0.899-1.271,1.612-1.648c0.713-0.387,1.473-0.529,2.281-0.426c0.791,0.103,1.49,0.429,2.102,0.979l7.924,7.284
	l9.604-4.807c0.721-0.361,1.48-0.481,2.279-0.361c0.801,0.121,1.49,0.464,2.076,1.032c0.586,0.558,0.955,1.237,1.107,2.036
	c0.145,0.79,0.051,1.558-0.283,2.306l-4.471,9.77l7.512,7.643c0.559,0.582,0.908,1.275,1.045,2.074
	C62.943,48.377,62.828,49.139,62.477,49.869z"/>
</svg>
