<?xml version="1.0" encoding="utf-8"?>
<!-- Generator: Adobe Illustrator 16.0.0, SVG Export Plug-In . SVG Version: 6.00 Build 0)  -->
<!DOCTYPE svg PUBLIC "-//W3C//DTD SVG 1.1//EN" "http://www.w3.org/Graphics/SVG/1.1/DTD/svg11.dtd">
<svg version="1.1" id="Layer_1" xmlns="http://www.w3.org/2000/svg" xmlns:xlink="http://www.w3.org/1999/xlink" x="0px" y="0px"
	 width="75px" height="85px" viewBox="0 0 75 85" enable-background="new 0 0 75 85" xml:space="preserve">
<path fill="#FFFFFF" d="M70.67,19.573L42.599,3.366c-2.383-1.375-6.279-1.375-8.66,0L5.872,19.572c-2.381,1.375-4.33,4.75-4.33,7.5
	v32.409c0,2.75,1.949,6.125,4.33,7.5l28.07,16.206c2.381,1.375,6.277,1.375,8.66,0l28.066-16.205c2.381-1.375,4.33-4.75,4.33-7.5
	V27.073H75C75,24.323,73.051,20.948,70.67,19.573z M14.791,44.002c1.838-2.826,7.339-9.717,18.17-11.486
	c-4.331,2.007-7.335,6.392-7.335,11.479c0,5.095,3.012,9.485,7.354,11.487C22.088,53.732,16.625,46.855,14.791,44.002z
	 M42.033,44.582c-2.179,0-3.945-1.769-3.945-3.947c0-2.181,1.767-3.948,3.945-3.948c2.184,0,3.948,1.768,3.948,3.948
	C45.981,42.813,44.216,44.582,42.033,44.582z M43.58,55.475c4.331-2.008,7.335-6.393,7.335-11.479c0-5.094-3.012-9.485-7.354-11.488
	c10.892,1.75,16.354,8.627,18.189,11.481C59.912,46.814,54.411,53.707,43.58,55.475z"/>
</svg>
