<?xml version="1.0" encoding="utf-8"?>
<!-- Generator: Adobe Illustrator 16.0.0, SVG Export Plug-In . SVG Version: 6.00 Build 0)  -->
<!DOCTYPE svg PUBLIC "-//W3C//DTD SVG 1.1//EN" "http://www.w3.org/Graphics/SVG/1.1/DTD/svg11.dtd">
<svg version="1.1" id="Layer_1" xmlns="http://www.w3.org/2000/svg" xmlns:xlink="http://www.w3.org/1999/xlink" x="0px" y="0px"
	 width="75px" height="85px" viewBox="0 0 75 85" enable-background="new 0 0 75 85" xml:space="preserve">
<path fill="#FFFFFF" d="M69.732,19.573L41.66,3.366c-2.383-1.375-6.279-1.375-8.66,0L4.934,19.572c-2.381,1.375-4.33,4.75-4.33,7.5
	v32.409c0,2.75,1.949,6.125,4.33,7.5l28.07,16.206c2.381,1.375,6.277,1.375,8.66,0L69.73,66.982c2.381-1.375,4.33-4.75,4.33-7.5
	V27.073h0.002C74.063,24.323,72.113,20.948,69.732,19.573z M60.129,49.92c-6.316,4.329-11.277,3.428-13.893,2.346
	c-2.617-1.084-7.527-4.15-8.997-5.955c0,0-5.798,7.743-13.646,6.849c-7.849-0.894-11.276-5.044-12.178-6.397
	c-0.902-1.354-1.985-3.698-2.256-7.396c0,0,5.051,8.82,10.555,1.343c0,0,8.22-7.126,13.261-4.05c0,0,2.938,1.604,4.265,4.05
	c0,0,5.838-8.83,14.86-2.065c9.021,6.766,7.035,7.307,13.35,0.902C65.449,39.545,66.443,45.59,60.129,49.92z"/>
</svg>
