<?xml version="1.0" encoding="utf-8"?>
<!-- Generator: Adobe Illustrator 16.0.0, SVG Export Plug-In . SVG Version: 6.00 Build 0)  -->
<!DOCTYPE svg PUBLIC "-//W3C//DTD SVG 1.1//EN" "http://www.w3.org/Graphics/SVG/1.1/DTD/svg11.dtd">
<svg version="1.1" id="Layer_1" xmlns="http://www.w3.org/2000/svg" xmlns:xlink="http://www.w3.org/1999/xlink" x="0px" y="0px"
	 width="75px" height="85px" viewBox="0 0 75 85" enable-background="new 0 0 75 85" xml:space="preserve">
<g>
	<polygon fill="#FFFFFF" points="35.752,34.77 34.25,35.063 37.788,41.884 50.004,39.469 	"/>
	<polygon fill="#FFFFFF" points="30.477,35.669 16.808,29.479 19.628,34.382 32.803,40.191 	"/>
	<polygon fill="#FFFFFF" points="38.631,62.977 55.28,57.791 55.28,42.106 38.631,45.437 	"/>
	<polygon fill="#FFFFFF" points="20.204,55.457 34.989,62.443 34.989,45.108 20.204,38.61 	"/>
	<polygon fill="#FFFFFF" points="38.314,31.803 56.145,37.691 59.752,30.578 41.235,25.358 	"/>
	<path fill="#FFFFFF" d="M69.816,19.573L41.746,3.366c-2.383-1.375-6.28-1.375-8.661,0L5.019,19.572
		c-2.381,1.375-4.33,4.75-4.33,7.5V59.48c0,2.75,1.949,6.125,4.33,7.5l28.07,16.207c2.381,1.375,6.278,1.375,8.661,0l28.066-16.205
		c2.381-1.375,4.33-4.75,4.33-7.5v-32.41l0,0C74.146,24.322,72.197,20.948,69.816,19.573z M64.165,29.839
		c-0.019,0.191-0.095,0.323-0.144,0.406l-5.1,10.08v18.815c0,0.864-0.609,1.613-1.448,1.78l-20.002,6.167
		c-0.167,0.055-0.345,0.086-0.52,0.086c-0.297,0-0.583-0.086-0.872-0.26l-18.492-8.719c-0.656-0.328-1.025-0.916-1.025-1.621V36.318
		l-5.697-9.897c-0.244-0.406-0.306-0.896-0.17-1.372c0.13-0.457,0.428-0.844,0.837-1.088c0.249-0.167,0.563-0.264,0.885-0.264
		c0.261,0,0.526,0.064,0.767,0.185l17.949,8.08l3.5-0.669l3.961-8.826c0.255-0.641,0.936-1.085,1.684-1.085
		c0.176,0,0.348,0.025,0.512,0.074l22.09,6.237c0.444,0.121,0.84,0.429,1.08,0.844C64.192,28.935,64.266,29.406,64.165,29.839z"/>
</g>
</svg>
