<?xml version="1.0" encoding="utf-8"?>
<!-- Generator: Adobe Illustrator 16.0.0, SVG Export Plug-In . SVG Version: 6.00 Build 0)  -->
<!DOCTYPE svg PUBLIC "-//W3C//DTD SVG 1.1//EN" "http://www.w3.org/Graphics/SVG/1.1/DTD/svg11.dtd">
<svg version="1.1" id="Layer_1" xmlns="http://www.w3.org/2000/svg" xmlns:xlink="http://www.w3.org/1999/xlink" x="0px" y="0px"
	 width="75px" height="85px" viewBox="0 0 75 85" enable-background="new 0 0 75 85" xml:space="preserve">
<path fill="#FFFFFF" d="M69.816,19.573L41.746,3.366c-2.383-1.375-6.28-1.375-8.661,0L5.019,19.572c-2.381,1.375-4.33,4.75-4.33,7.5
	V59.48c0,2.75,1.949,6.125,4.33,7.5l28.07,16.207c2.381,1.375,6.278,1.375,8.661,0l28.066-16.205c2.381-1.375,4.33-4.75,4.33-7.5
	v-32.41l0,0C74.146,24.322,72.197,20.948,69.816,19.573z M27.36,67.608c0,1.542-1.255,2.796-2.797,2.796s-2.796-1.254-2.796-2.796
	V23.546c0-1.542,1.254-2.797,2.796-2.797s2.797,1.255,2.797,2.797V67.608z M60.465,49.534l-1.206-0.554
	c-1.963-0.902-3.999-1.341-6.224-1.341c-2.813,0-5.516,0.675-8.378,1.391c-2.833,0.708-5.762,1.439-8.778,1.439
	c-2.466,0-4.726-0.487-6.907-1.489l-0.496-0.229V23.187l1.206,0.554c1.954,0.898,3.981,1.334,6.196,1.334c0,0,0.001,0,0.002,0
	c2.806,0,5.506-0.675,8.365-1.389c2.836-0.708,5.769-1.441,8.79-1.441c2.476,0,4.743,0.489,6.934,1.496l0.496,0.228V49.534z"/>
</svg>
