<?xml version="1.0" encoding="utf-8"?>
<!-- Generator: Adobe Illustrator 16.0.0, SVG Export Plug-In . SVG Version: 6.00 Build 0)  -->
<!DOCTYPE svg PUBLIC "-//W3C//DTD SVG 1.1//EN" "http://www.w3.org/Graphics/SVG/1.1/DTD/svg11.dtd">
<svg version="1.1" id="Layer_1" xmlns="http://www.w3.org/2000/svg" xmlns:xlink="http://www.w3.org/1999/xlink" x="0px" y="0px"
	 width="75px" height="85px" viewBox="0 0 75 85" enable-background="new 0 0 75 85" xml:space="preserve">
<path fill="#FFFFFF" d="M70.817,19.573L42.745,3.366c-2.383-1.375-6.279-1.375-8.66,0L6.019,19.572
	c-2.381,1.375-4.33,4.751-4.33,7.501V59.48c0,2.75,1.949,6.125,4.33,7.5l28.07,16.207c2.381,1.375,6.277,1.375,8.66,0l28.066-16.205
	c2.381-1.375,4.33-4.75,4.33-7.5v-32.41h0.002C75.147,24.323,73.198,20.948,70.817,19.573z M31.14,16.545
	c0.719-0.501,1.711-0.336,2.218,0.395c0.003,0.005,6.588,9.478,6.588,9.478l-0.002,0.01c0.483,0.697,0.369,1.699-0.396,2.229
	l-0.004,0.006c0,0.005-3.342,2.319-3.342,2.319L27.792,18.87L31.14,16.545z M45.069,61.813l-2.574,2.042
	c-0.612,0.486-1.324,0.738-2.052,0.738c-0.197,0-0.395-0.019-0.592-0.057c-0.928-0.177-1.711-0.746-2.208-1.604l-0.438-0.76
	c-0.195-0.335-0.404-0.485-0.525-0.485s-0.331,0.15-0.524,0.485l-0.44,0.76c-0.525,0.907-1.311,1.427-2.156,1.427
	c-0.003,0-0.004,0-0.006,0c-0.845-0.003-1.631-0.525-2.152-1.439l-0.466-0.814c-0.382-0.668-0.636-0.668-1.018,0l-0.465,0.814
	c-0.521,0.914-1.306,1.437-2.153,1.439c-0.002,0-0.004,0-0.006,0c-0.844,0-1.63-0.52-2.155-1.427l-0.44-0.76
	c-0.193-0.335-0.403-0.485-0.524-0.485s-0.331,0.15-0.525,0.485l-0.44,0.76c-0.524,0.907-1.31,1.427-2.156,1.427
	c-0.002,0-0.003,0-0.005,0c-0.847-0.003-1.632-0.525-2.153-1.439l-0.466-0.814c-0.191-0.334-0.396-0.484-0.515-0.485
	c-0.119,0-0.325,0.149-0.519,0.483l-0.439,0.76c-0.529,0.914-1.353,1.41-2.156,1.417c-0.839-0.015-1.609-0.555-2.108-1.485
	l1.667-0.896c0.19,0.354,0.387,0.486,0.473,0.488h0.002c0.087,0,0.286-0.126,0.488-0.474l0.439-0.76
	c0.525-0.907,1.311-1.426,2.155-1.426c0.001,0,0.003,0,0.006,0c0.846,0.002,1.631,0.525,2.152,1.438l0.466,0.813
	c0.191,0.336,0.397,0.486,0.515,0.486c0.119,0,0.326-0.15,0.519-0.482l0.439-0.761c0.525-0.909,1.314-1.429,2.162-1.429
	s1.637,0.521,2.161,1.429l0.44,0.761c0.193,0.332,0.398,0.482,0.518,0.482s0.325-0.15,0.517-0.486l0.465-0.813
	c0.521-0.915,1.306-1.437,2.151-1.437s1.63,0.521,2.152,1.437l0.465,0.813c0.193,0.336,0.398,0.486,0.517,0.486
	s0.325-0.15,0.518-0.482l0.44-0.761c0.526-0.909,1.314-1.429,2.162-1.429c0.849,0,1.636,0.521,2.163,1.429l0.439,0.761
	c0.217,0.375,0.547,0.621,0.923,0.694c0.38,0.071,0.776-0.036,1.115-0.308l1.94-1.537c-3.766-2.261-8.185-6.301-12.896-13.269
	c-11.581-17.128-6.662-25.427-4.834-27.024l8.422,12.104c-1.728,1.199-0.688,3.538,0.557,5.811c1.772,3.239,3.951,6.223,5.902,8.502
	c2.949,3.443,4.527,5.007,6.177,3.861l8.203,11.818C53.705,63.426,50.111,64.238,45.069,61.813z M60.395,58.678l-0.003,0.006
	c-0.001,0.006-3.344,2.318-3.344,2.318l-8.226-11.848l3.347-2.324c0.721-0.5,1.711-0.334,2.219,0.396
	c0.004,0.006,6.403,9.211,6.403,9.211l-0.001,0.01C61.273,57.144,61.158,58.148,60.395,58.678z"/>
</svg>
