<?xml version="1.0" encoding="utf-8"?>
<!-- Generator: Adobe Illustrator 16.0.0, SVG Export Plug-In . SVG Version: 6.00 Build 0)  -->
<!DOCTYPE svg PUBLIC "-//W3C//DTD SVG 1.1//EN" "http://www.w3.org/Graphics/SVG/1.1/DTD/svg11.dtd">
<svg version="1.1" id="Layer_1" xmlns="http://www.w3.org/2000/svg" xmlns:xlink="http://www.w3.org/1999/xlink" x="0px" y="0px"
	 width="75px" height="85px" viewBox="0 0 75 85" enable-background="new 0 0 75 85" xml:space="preserve">
<g>
	<path fill="#FFFFFF" d="M43.914,23.32l-0.093,0c-6.141,0-11.136,4.947-11.136,11.028c0,6.192,5.037,11.229,11.229,11.229
		c6.109,0,11.079-5.015,11.079-11.179C54.993,28.29,50.023,23.32,43.914,23.32z"/>
	<path fill="#FFFFFF" d="M69.817,19.573L41.745,3.366c-2.383-1.375-6.279-1.375-8.66,0L5.019,19.572
		c-2.381,1.375-4.33,4.75-4.33,7.5V59.48c0,2.75,1.949,6.125,4.33,7.5l28.07,16.207c2.381,1.375,6.277,1.375,8.66,0l28.066-16.205
		c2.381-1.375,4.33-4.75,4.33-7.5v-32.41h0.002C74.147,24.322,72.198,20.948,69.817,19.573z M43.914,51.019
		c-2.978,0-5.942-0.829-8.617-2.403L20.103,63.81c-0.748,0.747-1.744,1.159-2.807,1.159c-1.056,0-2.062-0.407-2.832-1.146
		c-1.571-1.635-1.565-4.111-0.012-5.662l0.042-0.043l0.047-0.035c0.377-0.35,10.613-10.609,15.105-15.116
		c-1.575-2.675-2.404-5.641-2.404-8.618c-0.025-4.395,1.682-8.549,4.808-11.693c3.159-3.177,7.372-4.927,11.863-4.927
		c9.164,0,16.62,7.456,16.62,16.621C60.534,43.54,53.078,51.019,43.914,51.019z"/>
</g>
</svg>
