<?xml version="1.0" encoding="utf-8"?>
<!-- Generator: Adobe Illustrator 16.0.0, SVG Export Plug-In . SVG Version: 6.00 Build 0)  -->
<!DOCTYPE svg PUBLIC "-//W3C//DTD SVG 1.1//EN" "http://www.w3.org/Graphics/SVG/1.1/DTD/svg11.dtd">
<svg version="1.1" id="Layer_1" xmlns="http://www.w3.org/2000/svg" xmlns:xlink="http://www.w3.org/1999/xlink" x="0px" y="0px"
	 width="75px" height="85px" viewBox="0 0 75 85" enable-background="new 0 0 75 85" xml:space="preserve">
<g>
	<ellipse fill="#FFFFFF" cx="44.02" cy="38.2" rx="3.333" ry="3.533"/>
	<path fill="#FFFFFF" d="M70.67,19.573L42.6,3.366c-2.383-1.375-6.28-1.375-8.661,0L5.873,19.572c-2.381,1.375-4.33,4.75-4.33,7.5
		V59.48c0,2.75,1.949,6.125,4.33,7.5l28.07,16.207c2.381,1.375,6.278,1.375,8.661,0L70.67,66.982c2.381-1.375,4.33-4.75,4.33-7.5
		v-32.41l0,0C75,24.322,73.051,20.948,70.67,19.573z M17.068,53.539c-2.517,1.486-5.437-0.852-4.954-3.605
		c-2.077-0.79-2.824-3.422-1.554-5.225c-1.406-1.549-1.12-4.074,0.629-5.236c-1.143-1.808-0.364-4.323,1.654-5.089
		c-0.979-2.07,0.332-4.634,2.646-4.895c0.588-0.076,1.199,0.026,1.74,0.276c2.342,0.961,4.904,3.36,6.438,4.59
		c-2.798,4.676-3.247,10.493-1.168,15.537C20.798,51.275,18.979,52.469,17.068,53.539z M53.687,45.996L53.687,45.996
		c-0.001,0.002-0.001,0.006-0.001,0.011c-1.525,8.429-10.037,14.058-18.381,12.21c-5.313-1.188-9.673-5.238-11.294-10.431
		c-1.736-5.561-0.051-11.75,4.205-15.711c4.409-4.111,10.981-5.249,16.513-2.84c5.512,2.404,9.213,8.024,9.213,14.04
		C53.941,44.204,53.846,45.112,53.687,45.996z M67.662,44.709c1.27,1.803,0.522,4.437-1.555,5.226
		c0.512,2.757-2.456,5.083-4.951,3.604c-2.192-1.227-4.272-2.619-6.173-4.266c1.732-4.705,1.347-10.002-1.077-14.396
		c1.134-0.919,2.281-1.822,3.447-2.698c1.139-0.854,2.313-1.869,3.64-2.414c0.538-0.249,1.151-0.353,1.74-0.276
		c2.311,0.26,3.628,2.825,2.645,4.895c2.017,0.765,2.802,3.281,1.654,5.088c0.925,0.614,1.54,1.675,1.54,2.89
		C68.572,43.272,68.223,44.093,67.662,44.709z"/>
	<path fill="#FFFFFF" d="M53.686,45.997v-0.003c0,0.006,0,0.009-0.001,0.014C53.686,46.004,53.686,46,53.686,45.997z"/>
</g>
</svg>
