<?xml version="1.0" encoding="utf-8"?>
<!-- Generator: Adobe Illustrator 16.0.0, SVG Export Plug-In . SVG Version: 6.00 Build 0)  -->
<!DOCTYPE svg PUBLIC "-//W3C//DTD SVG 1.1//EN" "http://www.w3.org/Graphics/SVG/1.1/DTD/svg11.dtd">
<svg version="1.1" id="Layer_1" xmlns="http://www.w3.org/2000/svg" xmlns:xlink="http://www.w3.org/1999/xlink" x="0px" y="0px"
	 width="75px" height="85px" viewBox="0 0 75 85" enable-background="new 0 0 75 85" xml:space="preserve">
<path fill="#FFFFFF" d="M70.67,19.573L42.599,3.366c-2.383-1.375-6.279-1.375-8.66,0L5.872,19.572c-2.381,1.375-4.33,4.75-4.33,7.5
	v32.409c0,2.75,1.949,6.125,4.33,7.5l28.07,16.206c2.381,1.375,6.277,1.375,8.66,0l28.066-16.205c2.381-1.375,4.33-4.75,4.33-7.5
	V27.073H75C75,24.323,73.051,20.948,70.67,19.573z M21.386,68.222c-1.005,0-1.823-0.816-1.823-1.821s0.818-1.822,1.823-1.822
	s1.822,0.817,1.822,1.822S22.391,68.222,21.386,68.222z M27.459,64.15c-2.341,0-4.246-1.904-4.246-4.246
	c0-2.34,1.905-4.244,4.246-4.244c2.34,0,4.245,1.904,4.245,4.244C31.704,62.246,29.799,64.15,27.459,64.15z M53.086,52.248
	c-1.021,0-2.064-0.146-3.102-0.43l-0.567-0.158l-0.373,0.458c-2.489,3.057-6.173,4.811-10.108,4.811
	c-3.234,0-6.338-1.194-8.735-3.362l-0.338-0.305l-0.447,0.088c-0.852,0.174-1.724,0.26-2.596,0.26
	c-7.183,0-13.027-5.845-13.027-13.028c0-7.184,5.845-13.029,13.027-13.029c0.836,0,1.681,0.082,2.512,0.245l0.563,0.11l0.34-0.463
	c2.448-3.346,6.38-5.343,10.518-5.343c4.575,0,8.87,2.448,11.209,6.391l0.272,0.456l0.53-0.014c0.063-0.001,0.127-0.006,0.19-0.012
	c0.045-0.002,0.087-0.006,0.132-0.006c6.432,0,11.665,5.233,11.665,11.666C64.751,47.016,59.518,52.248,53.086,52.248z"/>
</svg>
