<?xml version="1.0" encoding="utf-8"?>
<!-- Generator: Adobe Illustrator 16.0.0, SVG Export Plug-In . SVG Version: 6.00 Build 0)  -->
<!DOCTYPE svg PUBLIC "-//W3C//DTD SVG 1.1//EN" "http://www.w3.org/Graphics/SVG/1.1/DTD/svg11.dtd">
<svg version="1.1" id="Layer_1" xmlns="http://www.w3.org/2000/svg" xmlns:xlink="http://www.w3.org/1999/xlink" x="0px" y="0px"
	 width="75px" height="85px" viewBox="0 0 75 85" enable-background="new 0 0 75 85" xml:space="preserve">
<g>
	<path fill="#FFFFFF" d="M52.109,35.918c-0.926,0-1.111,0.495-1.111,0.865l-0.369,6.359c0,0.495-0.371,0.989-0.865,1.111
		c-0.494,0.186-1.051,0.063-1.357-0.309c-0.248-0.246-0.557-0.74-0.557-1.049l-0.371-8.892c-0.061-0.987-1.234-1.111-1.729-1.111
		c-0.988,0-1.977,0.37-1.977,1.111l-0.369,8.336c-0.063,0.679-0.617,1.236-1.297,1.236s-1.359-0.557-1.42-1.236l-0.371-9.509
		c0-0.803-0.926-1.481-1.977-1.481c-0.989,0-1.975,0.37-1.975,1.111l-0.371,9.57c0,0.68-0.494,1.235-1.297,1.235h-0.371
		c-0.68,0-1.296-0.556-1.296-1.296l-0.309-17.6c0-0.308,0-0.617,0-0.926c0.062-1.915-0.062-2.408-1.112-2.655
		c-1.111-0.309-2.346,0.308-2.408,1.112l-0.74,26.922c0,0.062,0,0.247,0,0.309c-0.123,0.679-0.741,1.111-1.359,1.05
		c-0.679-0.062-1.173-0.618-1.173-1.235c0-0.062,0-0.062,0-0.123c0-0.371-0.556-3.828-0.618-4.137
		c-0.802-3.828-2.037-5.743-3.828-5.805c-0.617,0-1.111,0.186-1.174,0.556c0,0.679,0.125,1.481,0.311,2.284
		c0.061,0.371,0.123,0.804,0.185,1.174c0.247,1.42,0.37,2.902,0.493,4.445c0.557,5.558,1.112,11.301,5.436,14.758
		c2.963,2.347,7.409,3.706,11.979,3.706c6.113,0,13.215-2.532,14.818-9.571c0.988-4.26,1.605-16.92-0.74-19.883
		C52.48,35.918,52.234,35.918,52.109,35.918z"/>
	<path fill="#FFFFFF" d="M69.816,19.573L41.746,3.366c-2.383-1.375-6.28-1.375-8.661,0L5.019,19.572
		c-2.381,1.375-4.33,4.751-4.33,7.501V59.48c0,2.75,1.949,6.125,4.33,7.5l28.07,16.207c2.381,1.375,6.278,1.375,8.661,0
		l28.066-16.205c2.381-1.375,4.33-4.75,4.33-7.5v-32.41l0,0C74.146,24.323,72.197,20.948,69.816,19.573z M56.186,56.914
		c-1.668,6.915-8.521,11.484-17.414,11.484c-5.186,0-10.126-1.543-13.584-4.26c-5.186-4.139-5.865-10.745-6.422-16.55
		c-0.123-1.481-0.309-2.901-0.494-4.261c-0.062-0.37-0.123-0.679-0.186-1.049c-0.185-0.926-0.369-1.853-0.369-2.779
		c0-1.791,1.605-3.149,3.643-3.149c2.038,0.123,3.582,1.111,4.755,3.025l0.493-17.474c0.063-2.471,2.903-4.324,5.682-3.582
		c3.148,0.865,3.088,3.644,3.025,5.311c0,0.247,0,0.556,0,0.802l0.123,5.249c0.803-0.494,1.791-0.803,2.965-0.803
		c1.914,0,3.58,1.049,4.26,2.532c0.803-0.618,1.914-0.927,3.211-0.927c2.408,0,4.139,1.421,4.322,3.458
		c0.557-0.308,1.297-0.494,2.039-0.494c0.74,0,1.789,0.247,2.717,1.42C58.348,39.13,56.926,53.701,56.186,56.914z"/>
</g>
</svg>
