<?xml version="1.0" encoding="utf-8"?>
<!-- Generator: Adobe Illustrator 16.0.0, SVG Export Plug-In . SVG Version: 6.00 Build 0)  -->
<!DOCTYPE svg PUBLIC "-//W3C//DTD SVG 1.1//EN" "http://www.w3.org/Graphics/SVG/1.1/DTD/svg11.dtd">
<svg version="1.1" id="Layer_1" xmlns="http://www.w3.org/2000/svg" xmlns:xlink="http://www.w3.org/1999/xlink" x="0px" y="0px"
	 width="75px" height="85px" viewBox="0 0 75 85" enable-background="new 0 0 75 85" xml:space="preserve">
<g>
	<path fill="#FFFFFF" d="M70.67,19.573L42.6,3.366c-2.383-1.375-6.28-1.375-8.661,0L5.873,19.572c-2.381,1.375-4.33,4.75-4.33,7.5
		V59.48c0,2.75,1.949,6.125,4.33,7.5l28.07,16.207c2.381,1.375,6.278,1.375,8.661,0L70.67,66.982c2.381-1.375,4.33-4.75,4.33-7.5
		v-32.41l0,0C75,24.322,73.051,20.948,70.67,19.573z M63.122,57.359c0,0.712-0.296,1.424-0.89,1.84
		c-0.355,0.355-0.891,0.533-1.424,0.533c-0.237,0-0.416,0-0.594-0.059l-19.994-4.984l-1.482,5.933
		c-0.119,0.534-0.475,1.009-0.89,1.306c-0.355,0.178-0.771,0.297-1.127,0.297c-0.237,0-0.415,0-0.593-0.06l-13.23-3.323
		c-1.187-0.236-1.839-1.423-1.542-2.551l1.423-5.933l-4.687-1.187H12.04c-1.305,0-2.314-1.068-2.373-2.373v-9.433
		c0-1.305,1.068-2.314,2.373-2.314h5.992L60.156,24.55c0.711-0.178,1.424-0.059,2.018,0.416c0.533,0.415,0.889,1.127,0.948,1.78
		V57.359z"/>
	<polygon fill="#FFFFFF" points="25.923,55.224 35.06,57.537 36.009,53.682 26.873,51.367 	"/>
</g>
</svg>
