<?xml version="1.0" encoding="utf-8"?>
<!-- Generator: Adobe Illustrator 16.0.0, SVG Export Plug-In . SVG Version: 6.00 Build 0)  -->
<!DOCTYPE svg PUBLIC "-//W3C//DTD SVG 1.1//EN" "http://www.w3.org/Graphics/SVG/1.1/DTD/svg11.dtd">
<svg version="1.1" id="Layer_1" xmlns="http://www.w3.org/2000/svg" xmlns:xlink="http://www.w3.org/1999/xlink" x="0px" y="0px"
	 width="75px" height="85px" viewBox="0 0 75 85" enable-background="new 0 0 75 85" xml:space="preserve">
<g>
	<path fill="#FFFFFF" d="M47.541,33.022l-23.325,14.94l3.561,10.967c0.548,1.713,0.997,2.705,1.247-0.146l0.495-5.732
		c0.039-0.447,0.308-1.037,0.635-1.346l0.002-0.002h0l18.61-17.455C51.148,32.069,51.148,30.774,47.541,33.022z"/>
	<path fill="#FFFFFF" d="M69.817,19.573L41.745,3.366c-2.383-1.375-6.279-1.375-8.66,0L5.019,19.572
		c-2.381,1.375-4.33,4.751-4.33,7.501V59.48c0,2.75,1.949,6.125,4.33,7.5l28.07,16.207c2.381,1.375,6.277,1.375,8.66,0
		l28.066-16.205c2.381-1.375,4.33-4.75,4.33-7.5v-32.41h0.002C74.147,24.323,72.198,20.948,69.817,19.573z M59.612,27.608
		l-7.415,36.171c-0.54,2.643-2.743,3.475-4.893,1.85l-10.974-8.297c-0.025,0.024-0.048,0.049-0.074,0.075l-5.992,6.003
		c-1.27,1.271-2.736,0.904-3.258-0.816l-4.371-13.636l-11.25-3.757c-2.555-0.854-2.59-2.347-0.078-3.319L56.03,24.571
		C58.543,23.6,60.154,24.965,59.612,27.608z"/>
</g>
</svg>
