<?xml version="1.0" encoding="utf-8"?>
<!-- Generator: Adobe Illustrator 16.0.0, SVG Export Plug-In . SVG Version: 6.00 Build 0)  -->
<!DOCTYPE svg PUBLIC "-//W3C//DTD SVG 1.1//EN" "http://www.w3.org/Graphics/SVG/1.1/DTD/svg11.dtd">
<svg version="1.1" id="Layer_1" xmlns="http://www.w3.org/2000/svg" xmlns:xlink="http://www.w3.org/1999/xlink" x="0px" y="0px"
	 width="75px" height="85px" viewBox="0 0 75 85" enable-background="new 0 0 75 85" xml:space="preserve">
<path fill="#FFFFFF" d="M69.817,19.573L41.745,3.366c-2.383-1.375-6.279-1.375-8.66,0L5.019,19.572c-2.381,1.375-4.33,4.75-4.33,7.5
	V59.48c0,2.75,1.949,6.125,4.33,7.5l28.07,16.207c2.381,1.375,6.277,1.375,8.66,0l28.066-16.205c2.381-1.375,4.33-4.75,4.33-7.5
	v-32.41h0.002C74.147,24.322,72.198,20.948,69.817,19.573z M37.639,65.947c0,0-21.654-13.331-21.607-24.127
	c0.026-5.869,4.674-13.015,11.861-13.015c3.296,0,7.454,2.149,9.747,4.169c2.293-2.021,6.451-4.169,9.747-4.169
	c7.187,0,11.839,7.145,11.863,13.015C59.298,52.617,37.639,65.947,37.639,65.947z"/>
</svg>
