<?xml version="1.0" encoding="utf-8"?>
<!-- Generator: Adobe Illustrator 16.0.0, SVG Export Plug-In . SVG Version: 6.00 Build 0)  -->
<!DOCTYPE svg PUBLIC "-//W3C//DTD SVG 1.1//EN" "http://www.w3.org/Graphics/SVG/1.1/DTD/svg11.dtd">
<svg version="1.1" id="Layer_1" xmlns="http://www.w3.org/2000/svg" xmlns:xlink="http://www.w3.org/1999/xlink" x="0px" y="0px"
	 width="75px" height="85px" viewBox="0 0 75 85" enable-background="new 0 0 75 85" xml:space="preserve">
<g>
	<circle fill="#FFFFFF" cx="38.271" cy="52.853" r="3.173"/>
	<path fill="#FFFFFF" d="M38.248,48.539c1.631,0,2.951-1.24,2.951-2.768V33.079c0-1.528-1.32-2.766-2.951-2.766
		c-1.63,0-2.951,1.238-2.951,2.766v12.692C35.297,47.299,36.618,48.539,38.248,48.539z"/>
	<path fill="#FFFFFF" d="M70.67,19.573L42.599,3.366c-2.383-1.375-6.279-1.375-8.66,0L5.872,19.573c-2.381,1.375-4.33,4.75-4.33,7.5
		V59.48c0,2.75,1.949,6.125,4.33,7.5l28.07,16.207c2.381,1.375,6.277,1.375,8.66,0l28.066-16.205c2.381-1.375,4.33-4.75,4.33-7.5
		v-32.41H75C75,24.323,73.051,20.948,70.67,19.573z M38.271,62.645c-2.259,0-4.453-0.197-6.558-0.561
		c-3.729,3.166-8.139,4.523-12.081,4.369c2.203-1.966,3.564-4.341,4.185-6.681c-8.121-3.507-13.552-9.226-13.552-16.503
		c0-11.062,12.538-20.681,28.006-20.681s28.007,9.619,28.007,20.681C66.277,54.33,53.738,62.645,38.271,62.645z"/>
</g>
</svg>
