<?xml version="1.0" encoding="utf-8"?>
<!-- Generator: Adobe Illustrator 16.0.0, SVG Export Plug-In . SVG Version: 6.00 Build 0)  -->
<!DOCTYPE svg PUBLIC "-//W3C//DTD SVG 1.1//EN" "http://www.w3.org/Graphics/SVG/1.1/DTD/svg11.dtd">
<svg version="1.1" id="Layer_1" xmlns="http://www.w3.org/2000/svg" xmlns:xlink="http://www.w3.org/1999/xlink" x="0px" y="0px"
	 width="75px" height="85px" viewBox="0 0 75 85" enable-background="new 0 0 75 85" xml:space="preserve">
<path fill="#FFFFFF" d="M70.67,19.573L42.599,3.366c-2.383-1.375-6.279-1.375-8.66,0L5.872,19.573c-2.381,1.375-4.33,4.75-4.33,7.5
	V59.48c0,2.75,1.949,6.125,4.33,7.5l28.07,16.207c2.381,1.375,6.277,1.375,8.66,0l28.066-16.205c2.381-1.375,4.33-4.75,4.33-7.5
	v-32.41H75C75,24.323,73.051,20.948,70.67,19.573z M47.615,54.354c0,0,0,6.234-6.209,6.234h-14.89l-4.288,4.335l-4.378-4.335h-1.278
	c-6.208,0-6.208-6.234-6.208-6.234V39.449c0,0,0-6.204,6.208-6.204h24.834c6.209,0,6.209,6.208,6.209,6.208V54.354z M64.999,46.904
	c0,0,0,6.232-6.208,6.232h-2.464l-3.694,4.336l-3.805-4.336V38.971c0,0,0-6.967-6.992-6.967l-14.088-0.005c0,0,0-6.204,6.209-6.204
	h24.834c6.208,0,6.208,6.208,6.208,6.208V46.904z"/>
</svg>
