<?xml version="1.0" encoding="utf-8"?>
<!-- Generator: Adobe Illustrator 16.0.0, SVG Export Plug-In . SVG Version: 6.00 Build 0)  -->
<!DOCTYPE svg PUBLIC "-//W3C//DTD SVG 1.1//EN" "http://www.w3.org/Graphics/SVG/1.1/DTD/svg11.dtd">
<svg version="1.1" id="Layer_1" xmlns="http://www.w3.org/2000/svg" xmlns:xlink="http://www.w3.org/1999/xlink" x="0px" y="0px"
	 width="75px" height="85px" viewBox="0 0 75 85" enable-background="new 0 0 75 85" xml:space="preserve">
<g>
	<path fill="#FFFFFF" d="M41.484,50.373h5.295V22.285H21.934v34.961h18.024v-5.41C39.958,51.029,40.643,50.373,41.484,50.373z
		 M27.745,30.954h13.149c0.681,0,1.234,0.553,1.234,1.233c0,0.33-0.128,0.64-0.36,0.873c-0.233,0.233-0.544,0.361-0.874,0.361
		H27.745c-0.681,0-1.234-0.553-1.234-1.234C26.511,31.507,27.064,30.954,27.745,30.954z M27.745,36.517h13.149
		c0.681,0,1.234,0.553,1.234,1.234c0,0.33-0.127,0.64-0.359,0.873c-0.233,0.233-0.544,0.361-0.875,0.361H27.745
		c-0.681,0-1.234-0.553-1.234-1.234S27.064,36.517,27.745,36.517z M27.745,44.548c-0.681,0-1.234-0.554-1.234-1.233
		c0-0.68,0.554-1.233,1.234-1.233h13.149c0.681,0,1.234,0.553,1.234,1.233c0,0.33-0.127,0.639-0.359,0.872
		c-0.233,0.233-0.544,0.361-0.875,0.361H27.745z"/>
	<path fill="#FFFFFF" d="M70.67,19.572L42.598,3.365c-2.383-1.375-6.279-1.375-8.66,0L5.872,19.571c-2.381,1.375-4.33,4.75-4.33,7.5
		V59.48c0,2.75,1.949,6.125,4.33,7.5l28.07,16.207c2.381,1.375,6.277,1.375,8.66,0l28.066-16.205c2.381-1.375,4.33-4.75,4.33-7.5
		V27.072H75C75,24.322,73.051,20.947,70.67,19.572z M19.466,59.063V20.471c0-0.36,0.277-0.653,0.617-0.653h28.544
		c0.341,0,0.618,0.293,0.618,0.653v30.082l-9.162,9.162h-20C19.743,59.715,19.466,59.422,19.466,59.063z M56.311,66.123
		c0,0.358-0.277,0.65-0.617,0.65H27.149c-0.341,0-0.618-0.292-0.618-0.65v-3.84h2.468v2.023h24.847V29.345h-2.023v-2.467h3.871
		c0.158,0,0.311,0.063,0.426,0.179c0.124,0.125,0.192,0.292,0.191,0.473V66.123z"/>
</g>
</svg>
