<?xml version="1.0" encoding="utf-8"?>
<!-- Generator: Adobe Illustrator 16.0.0, SVG Export Plug-In . SVG Version: 6.00 Build 0)  -->
<!DOCTYPE svg PUBLIC "-//W3C//DTD SVG 1.1//EN" "http://www.w3.org/Graphics/SVG/1.1/DTD/svg11.dtd">
<svg version="1.1" id="Layer_1" xmlns="http://www.w3.org/2000/svg" xmlns:xlink="http://www.w3.org/1999/xlink" x="0px" y="0px"
	 width="75px" height="85px" viewBox="0 0 75 85" enable-background="new 0 0 75 85" xml:space="preserve">
<path fill="#FFFFFF" d="M70.67,19.572L42.599,3.365c-2.383-1.375-6.279-1.375-8.66,0L5.872,19.572c-2.381,1.375-4.33,4.75-4.33,7.5
	V59.48c0,2.75,1.949,6.125,4.33,7.5l28.07,16.207c2.381,1.375,6.277,1.375,8.66,0l28.066-16.205c2.381-1.375,4.33-4.75,4.33-7.5
	v-32.41H75C75,24.322,73.051,20.947,70.67,19.572z M22.405,54.484c-0.167-0.385-0.141-0.787,0.085-1.265
	c0.544-1.15,1.195-1.839,1.74-1.839c0.328,0,0.724,0.241,1.147,0.684c-0.667,0.828-1.521,2.14-1.749,3.615
	C23.127,55.381,22.622,54.979,22.405,54.484z M26.852,58.812c-0.288,0.001-1.163,0.001-1.505-1.935v-0.006
	c-0.235-1.295,0.568-2.653,1.236-3.523l0.597-0.565c0.381-0.359,1.198-0.929,1.774-0.929c0.498,0,0.762,0.66,0.904,1.337
	c-0.741,0.884-2.515,3.24-2.536,5.559C27.18,58.784,27.02,58.812,26.852,58.812z M31.2,60.984c-0.151,0.06-0.321,0.109-0.497,0.109
	c-0.781,0-1.303-0.981-1.617-1.867l0.007-0.002c-0.315-1.729,1.426-4.148,2.24-5.076c0.136-0.062,0.413-0.164,0.738-0.164
	c0.523,0,0.979,0.292,1.367,0.854c-0.374,0.191-0.718,0.47-1.02,0.832C31.405,56.885,30.94,58.976,31.2,60.984z M35.915,61.649
	v0.046c0,0.137-0.073,0.47-0.229,0.629c-0.031,0.031-0.138,0.125-0.423,0.125c-0.063,0-0.136-0.005-0.206-0.014
	c-1.178-0.146-1.895-1.063-2.087-1.341c-0.29-1.602,0.039-3.413,0.787-4.309c0.286-0.345,0.598-0.513,0.952-0.513
	c0.117,0.005,1.024,0.094,1.486,1.646l-0.305,3.674L35.915,61.649z M54.525,54.241c-0.5,0.452-1.313,0.517-1.829,0.49l-6.637-6.021
	c-0.354-0.32-0.906-0.295-1.229,0.061c-0.324,0.356-0.297,0.908,0.061,1.23l6.402,5.808c-0.044,0.737-0.265,1.313-0.681,1.695
	c-0.551,0.507-1.323,0.633-1.786,0.659l-6.233-5.954c-0.349-0.331-0.898-0.319-1.23,0.027c-0.332,0.349-0.32,0.899,0.028,1.232
	l6.033,5.764c-0.133,0.64-0.394,1.107-0.813,1.401c-0.409,0.286-0.906,0.379-1.329,0.397c-0.022-0.027-0.034-0.06-0.061-0.084
	l-5.428-5.15c-0.349-0.33-0.9-0.315-1.232,0.032c-0.331,0.35-0.315,0.901,0.033,1.231l4.74,4.498l-0.016,0.073
	c-0.171,0.771-0.503,0.915-0.612,0.962c-0.68,0.295-1.854-0.234-2.247-0.461l-2.728-1.911l0.224-2.458l-0.038-0.148
	c-0.515-1.946-1.688-2.751-2.601-2.996c-0.993-2.055-2.438-2.377-3.246-2.377c-0.229,0-0.447,0.024-0.644,0.063
	c-0.578-1.882-1.76-2.192-2.474-2.192c-0.854,0-1.678,0.437-2.244,0.826c-0.799-0.862-1.631-1.299-2.479-1.299
	c-0.919,0-1.763,0.507-2.489,1.462l-10.177-7.27l7.75-11.782c1.072,0.748,3.179,2.14,5.652,3.376
	c0.256,0.128,0.556,0.122,0.806-0.016c1.889-1.029,4.507-1.711,6.598-2.131c-0.532,0.492-1.142,1.085-1.837,1.811
	c-2.845,2.97-1.605,4.77-1.425,5.003c0.699,0.812,1.657,1.24,2.77,1.24c2.441,0,5.137-2.071,5.914-2.714l2.108-0.235
	c1.434,4.951,7.014,7.075,8.212,7.479l6.819,6.818c0.04,0.039,0.09,0.06,0.135,0.089C55.044,53.433,54.868,53.93,54.525,54.241z
	 M55.721,51.007l-6.524-6.522c-0.102-0.103-0.227-0.178-0.365-0.219c-0.064-0.02-6.471-1.996-7.407-6.99
	c-0.078-0.415-0.44-0.711-0.854-0.711c-0.032,0-0.064,0.002-0.098,0.005l-3.135,0.348c-0.178,0.021-0.346,0.095-0.48,0.214
	c-0.776,0.684-3.181,2.462-4.979,2.462c-0.589,0-1.037-0.185-1.401-0.581c-0.062-0.153-0.299-1.033,1.313-2.716
	c2.942-3.071,4.189-3.613,4.188-3.613c0.019-0.007,0.037-0.014,0.056-0.022c0.017-0.007,1.646-0.697,3.275-0.697
	c0.273,0,0.53,0.021,0.768,0.06c1.421,0.238,6.649,2.987,9.817,4.777c0.212,0.119,0.465,0.145,0.696,0.07l9.412-3.732l4.977,13.241
	L55.721,51.007z"/>
</svg>
