<?xml version="1.0" encoding="utf-8"?>
<!-- Generator: Adobe Illustrator 16.0.0, SVG Export Plug-In . SVG Version: 6.00 Build 0)  -->
<!DOCTYPE svg PUBLIC "-//W3C//DTD SVG 1.1//EN" "http://www.w3.org/Graphics/SVG/1.1/DTD/svg11.dtd">
<svg version="1.1" id="Layer_1" xmlns="http://www.w3.org/2000/svg" xmlns:xlink="http://www.w3.org/1999/xlink" x="0px" y="0px"
	 width="75px" height="85px" viewBox="0 0 75 85" enable-background="new 0 0 75 85" xml:space="preserve">
<path fill="#FFFFFF" d="M70.67,19.573L42.599,3.366c-2.383-1.375-6.279-1.375-8.66,0L5.872,19.572c-2.381,1.375-4.33,4.75-4.33,7.5
	V59.48c0,2.75,1.949,6.125,4.33,7.5l28.07,16.207c2.381,1.375,6.277,1.375,8.66,0l28.066-16.205c2.381-1.375,4.33-4.75,4.33-7.5
	v-32.41H75C75,24.323,73.051,20.948,70.67,19.573z M29.377,23.531c0-4.911,3.983-8.893,8.894-8.893c4.912,0,8.893,3.981,8.893,8.893
	v20.155c0,4.912-3.98,8.894-8.893,8.894c-4.91,0-8.894-3.981-8.894-8.894V23.531z M45.752,71.914c-1.17,0-14.201,0-15.11,0
	c-0.908,0-1.7-0.828-1.718-1.824s0.816-1.824,1.824-1.824h5.698l0.002-5.454c0.021-1.179,0.185-2.572,1.822-2.572
	c1.716,0,1.833,1.52,1.825,2.572l-0.001,5.454h5.699c1.008,0,1.824,0.816,1.825,1.824S46.795,71.914,45.752,71.914z M53.366,43.686
	c0,8.324-6.772,15.096-15.096,15.096c-8.322,0-15.095-6.771-15.095-15.096v-5.563c0-1.007,0.817-1.824,1.825-1.824
	c1.007,0,1.823,0.816,1.823,1.824v5.563c0,6.312,5.135,11.446,11.446,11.446s11.447-5.135,11.447-11.446v-5.563
	c0-1.007,0.816-1.824,1.824-1.824s1.824,0.816,1.824,1.824V43.686z"/>
</svg>
