<?xml version="1.0" encoding="utf-8"?>
<!-- Generator: Adobe Illustrator 16.0.0, SVG Export Plug-In . SVG Version: 6.00 Build 0)  -->
<!DOCTYPE svg PUBLIC "-//W3C//DTD SVG 1.1//EN" "http://www.w3.org/Graphics/SVG/1.1/DTD/svg11.dtd">
<svg version="1.1" id="Layer_1" xmlns="http://www.w3.org/2000/svg" xmlns:xlink="http://www.w3.org/1999/xlink" x="0px" y="0px"
	 width="75px" height="85px" viewBox="0 0 75 85" enable-background="new 0 0 75 85" xml:space="preserve">
<path fill="#FFFFFF" d="M70.67,19.465L42.598,3.258c-2.383-1.375-6.279-1.375-8.66,0L5.872,19.464c-2.381,1.375-4.33,4.75-4.33,7.5
	v32.408c0,2.75,1.949,6.125,4.33,7.5l28.07,16.207c2.381,1.375,6.277,1.375,8.66,0l28.066-16.205c2.381-1.375,4.33-4.75,4.33-7.5
	v-32.41H75C75,24.215,73.051,20.84,70.67,19.465z M43.709,52.828l-7.116,10.732c-1.455,2.197-3.682,3.697-6.267,4.221
	s-5.219,0.01-7.415-1.448c-4.537-3.007-5.781-9.146-2.773-13.684l7.116-10.732c0.751-1.136,2.284-1.446,3.42-0.693
	c1.137,0.753,1.447,2.286,0.693,3.422l-7.115,10.73c-1.502,2.269-0.88,5.338,1.387,6.84c1.099,0.73,2.415,0.987,3.706,0.725
	c1.293-0.262,2.404-1.01,3.132-2.109L39.594,50.1c0.752-1.136,2.285-1.446,3.422-0.694C44.152,50.16,44.463,51.691,43.709,52.828z
	 M34.929,52.672c-0.377,0.568-0.948,0.93-1.567,1.056c-0.617,0.126-1.286,0.015-1.854-0.362c-1.135-0.753-1.446-2.285-0.693-3.42
	l10.791-16.278c0.752-1.136,2.287-1.446,3.422-0.693c1.137,0.753,1.447,2.286,0.693,3.421L34.929,52.672z M56.396,33.689
	l-7.113,10.731c-0.375,0.567-0.949,0.931-1.566,1.056c-0.619,0.125-1.287,0.014-1.855-0.361c-1.135-0.756-1.445-2.288-0.693-3.423
	l7.113-10.73c0.73-1.099,0.986-2.415,0.725-3.708c-0.264-1.292-1.012-2.403-2.111-3.131c-1.098-0.73-2.414-0.987-3.705-0.725
	c-1.293,0.262-2.406,1.011-3.133,2.11L36.942,36.24c-0.752,1.136-2.286,1.447-3.422,0.694c-1.137-0.754-1.447-2.287-0.693-3.422
	l7.113-10.731c1.459-2.199,3.686-3.698,6.268-4.221c2.586-0.524,5.221-0.01,7.418,1.447c2.197,1.457,3.697,3.682,4.221,6.267
	S57.855,31.491,56.396,33.689z"/>
</svg>
