<?xml version="1.0" encoding="utf-8"?>
<!-- Generator: Adobe Illustrator 16.0.0, SVG Export Plug-In . SVG Version: 6.00 Build 0)  -->
<!DOCTYPE svg PUBLIC "-//W3C//DTD SVG 1.1//EN" "http://www.w3.org/Graphics/SVG/1.1/DTD/svg11.dtd">
<svg version="1.1" id="Layer_1" xmlns="http://www.w3.org/2000/svg" xmlns:xlink="http://www.w3.org/1999/xlink" x="0px" y="0px"
	 width="75px" height="85px" viewBox="0 0 75 85" enable-background="new 0 0 75 85" xml:space="preserve">
<g>
	<path fill="#FFFFFF" d="M24.079,26.354c-0.017-0.001-0.032,0.001-0.048,0c-0.229-0.019-0.968,0.001-1.338,0.342
		c-0.068,0.063-0.275,0.254-0.275,0.816v36.253c0,0.037,0.002,0.008-0.001,0.043c0,0.005-0.003,0.439,0.296,0.742
		c0.341,0.346,0.961,0.419,1.421,0.419h29.992V26.359H24.133C24.114,26.359,24.097,26.354,24.079,26.354z M40.927,44.876H29.274
		c-0.605,0-1.097-0.491-1.097-1.097s0.491-1.097,1.097-1.097h11.653c0.605,0,1.097,0.491,1.097,1.097S41.532,44.876,40.927,44.876z
		 M29.067,34.137h19.585c0.605,0,1.097,0.491,1.097,1.097s-0.491,1.096-1.097,1.096H29.067c-0.605,0-1.097-0.491-1.097-1.096
		S28.461,34.137,29.067,34.137z M29.067,38.538h19.585c0.605,0,1.097,0.491,1.097,1.096c0,0.606-0.491,1.097-1.097,1.097H29.067
		c-0.605,0-1.097-0.491-1.097-1.097C27.97,39.029,28.461,38.538,29.067,38.538z"/>
	<polygon fill="#FFFFFF" points="48.985,20.458 41.629,22.188 48.985,21.379 	"/>
	<path fill="#FFFFFF" d="M70.67,19.572L42.598,3.365c-2.383-1.375-6.279-1.375-8.66,0L5.872,19.571c-2.381,1.375-4.33,4.75-4.33,7.5
		V59.48c0,2.75,1.949,6.125,4.33,7.5l28.07,16.207c2.381,1.375,6.277,1.375,8.66,0l28.066-16.205c2.381-1.375,4.33-4.75,4.33-7.5
		V27.072H75C75,24.322,73.051,20.947,70.67,19.572z M56.318,66.066c0,0.605-0.491,1.098-1.097,1.098H24.133
		c-1.309,0-2.329-0.379-3.03-1.123c-0.862-0.912-0.886-2.03-0.878-2.294V27.512c0-1.272,0.544-2.033,1.001-2.446
		c0.792-0.716,1.823-0.879,2.456-0.906c0.016-0.004,0.03-0.012,0.047-0.017l26.104-6.137c0.326-0.078,0.669,0,0.932,0.208
		c0.262,0.208,0.416,0.525,0.416,0.859v2.065l1.238-0.136c0.311-0.034,0.619,0.066,0.851,0.273c0.231,0.208,0.365,0.505,0.365,0.816
		v2.074h1.588c0.605,0,1.097,0.491,1.097,1.096V66.066z"/>
	<polygon fill="#FFFFFF" points="51.439,24.166 51.439,23.315 43.705,24.166 	"/>
</g>
</svg>
