<?xml version="1.0" encoding="utf-8"?>
<!-- Generator: Adobe Illustrator 16.0.0, SVG Export Plug-In . SVG Version: 6.00 Build 0)  -->
<!DOCTYPE svg PUBLIC "-//W3C//DTD SVG 1.1//EN" "http://www.w3.org/Graphics/SVG/1.1/DTD/svg11.dtd">
<svg version="1.1" id="Layer_1" xmlns="http://www.w3.org/2000/svg" xmlns:xlink="http://www.w3.org/1999/xlink" x="0px" y="0px"
	 width="75px" height="85px" viewBox="0 0 75 85" enable-background="new 0 0 75 85" xml:space="preserve">
<g>
	<path fill="#FFFFFF" d="M24.228,57.756c-1.571-0.313-3.022-0.682-4.291-1.112c1.486,2.032,3.302,3.808,5.366,5.251
		c-0.295-0.869-0.57-1.85-0.824-2.947C24.39,58.564,24.31,58.158,24.228,57.756z"/>
	<path fill="#FFFFFF" d="M54.614,27.529c-0.064-0.067-0.126-0.137-0.192-0.203c-1.023-1.038-2.133-1.96-3.306-2.77
		c0.237,0.689,0.463,1.451,0.673,2.288C52.79,27.047,53.736,27.274,54.614,27.529z"/>
	<path fill="#FFFFFF" d="M28.52,63.769c2.688,1.284,5.666,2.052,8.81,2.182v-6.978c-3.677-0.027-7.421-0.3-10.778-0.812
		C27.159,60.878,27.876,62.766,28.52,63.769z"/>
	<path fill="#FFFFFF" d="M37.328,44.219H25.114c0.062,4.642,0.449,8.548,0.986,11.663c3.044,0.517,6.804,0.871,11.228,0.901V44.219z
		"/>
	<path fill="#FFFFFF" d="M37.328,42.029V27.832c-4.271,0.04-7.919,0.417-10.863,0.956c-0.739,3.308-1.296,7.756-1.353,13.241H37.328
		z"/>
	<path fill="#FFFFFF" d="M37.328,20.6c-3.088,0.128-6.023,0.878-8.68,2.129c-0.516,0.758-1.073,2.016-1.591,3.754
		c3.229-0.521,6.808-0.805,10.271-0.84V20.6z"/>
	<path fill="#FFFFFF" d="M24.13,29.28c-2.218,0.537-3.879,1.156-4.941,1.741c-2.071,3.211-3.361,6.97-3.581,11.008h7.316
		C22.973,37.596,23.38,33.079,24.13,29.28z"/>
	<path fill="#FFFFFF" d="M25.36,24.634c-1.266,0.88-2.437,1.885-3.499,2.997c0.873-0.26,1.812-0.494,2.802-0.704
		C24.876,26.108,25.108,25.341,25.36,24.634z"/>
	<path fill="#FFFFFF" d="M22.933,44.219h-7.341c0.136,3.287,0.977,6.395,2.371,9.181c1.115,0.683,3.086,1.422,5.846,2.035
		C23.284,52.078,22.986,48.229,22.933,44.219z"/>
	<path fill="#FFFFFF" d="M52.222,57.778c-0.326,1.56-0.714,2.985-1.159,4.226c2.107-1.447,3.962-3.239,5.479-5.297
		c-0.781,0.253-1.646,0.489-2.599,0.71C53.39,57.544,52.815,57.664,52.222,57.778z"/>
	<path fill="#FFFFFF" d="M53.517,42.029h7.416c-0.215-3.989-1.455-7.788-3.602-11.089c-1.082-0.611-2.774-1.222-5.021-1.737
		C53.022,32.895,53.438,37.345,53.517,42.029z"/>
	<path fill="#FFFFFF" d="M47.882,22.703c-2.603-1.218-5.43-1.936-8.364-2.092v5.04c3.396,0.056,6.812,0.309,9.887,0.772
		C48.905,24.684,48.371,23.435,47.882,22.703z"/>
	<path fill="#FFFFFF" d="M70.67,19.572L42.598,3.365c-2.383-1.375-6.279-1.375-8.66,0L5.871,19.571c-2.381,1.375-4.33,4.75-4.33,7.5
		v32.408c0,2.75,1.949,6.125,4.33,7.5l28.07,16.208c2.381,1.375,6.277,1.375,8.66,0l28.066-16.206c2.381-1.375,4.33-4.75,4.33-7.5
		v-32.41H75C75,24.321,73.051,20.947,70.67,19.572z M38.273,69.184h-0.165c-14.285-0.091-25.834-11.785-25.745-26.069
		c0.089-14.195,11.71-25.745,25.903-25.745l0.167,0.001c6.919,0.042,13.408,2.778,18.271,7.702s7.517,11.446,7.474,18.366
		C64.088,57.634,52.468,69.184,38.273,69.184z"/>
	<path fill="#FFFFFF" d="M52.647,55.454c2.759-0.585,4.73-1.28,5.855-1.922c1.439-2.819,2.304-5.975,2.442-9.313h-7.414
		C53.503,48.063,53.205,51.98,52.647,55.454z"/>
	<path fill="#FFFFFF" d="M39.518,44.219v12.556c4.259-0.069,7.892-0.414,10.849-0.896c0.557-3.117,0.943-7.027,0.977-11.66H39.518z"
		/>
	<path fill="#FFFFFF" d="M49.978,28.738c-2.858-0.493-6.37-0.833-10.46-0.898v14.189h11.813
		C51.242,36.512,50.69,32.045,49.978,28.738z"/>
	<path fill="#FFFFFF" d="M39.518,65.939c2.929-0.158,5.711-0.883,8.248-2.06c0.697-0.992,1.479-2.923,2.132-5.719
		c-3.145,0.462-6.687,0.736-10.38,0.798V65.939z"/>
</g>
</svg>
