<?xml version="1.0" encoding="utf-8"?>
<!-- Generator: Adobe Illustrator 16.0.0, SVG Export Plug-In . SVG Version: 6.00 Build 0)  -->
<!DOCTYPE svg PUBLIC "-//W3C//DTD SVG 1.1//EN" "http://www.w3.org/Graphics/SVG/1.1/DTD/svg11.dtd">
<svg version="1.1" id="Layer_1" xmlns="http://www.w3.org/2000/svg" xmlns:xlink="http://www.w3.org/1999/xlink" x="0px" y="0px"
	 width="75px" height="85px" viewBox="0 0 75 85" enable-background="new 0 0 75 85" xml:space="preserve">
<path fill="#FFFFFF" d="M70.67,19.573L42.599,3.366c-2.383-1.375-6.279-1.375-8.66,0L5.872,19.572c-2.381,1.375-4.33,4.75-4.33,7.5
	V59.48c0,2.75,1.949,6.125,4.33,7.5l28.07,16.207c2.381,1.375,6.277,1.375,8.66,0l28.066-16.205c2.381-1.375,4.33-4.75,4.33-7.5
	v-32.41H75C75,24.323,73.051,20.948,70.67,19.573z M60.521,52.132c-1.422,11.995-9.297,16.093-9.638,16.264l-0.12,0.06h-4.006
	c-0.917,2.041-3.715,3.531-7.016,3.531c-4.045,0-7.336-2.234-7.336-4.981s3.291-4.981,7.336-4.981c3.302,0,6.1,1.49,7.017,3.532
	h3.12c5.308-3.35,7.043-9.439,7.592-12.428c-0.123,0.007-0.244,0.024-0.367,0.024c-1.476,0-3.51-2.033-3.51-3.509V35.347
	l0.096-0.143c0.046-0.069,0.994-1.429,2.845-1.871c-3.106-6.742-9.965-11.373-17.675-11.373c-7.849,0-14.813,4.797-17.837,11.735
	c1.178,0.58,1.793,1.453,1.829,1.508l0.096,0.143v14.296c0,1.476-2.034,3.509-3.51,3.509c-4.301,0-8.219-4.758-8.219-9.982
	c0-3.728,2.773-7.499,5.312-9.136c3.12-9.456,12.05-16.15,22.329-16.15c10.716,0,19.946,7.283,22.676,17.377
	c2.01,1.923,3.787,4.927,3.787,7.909C65.322,46.941,63.275,50.461,60.521,52.132z"/>
</svg>
