<?xml version="1.0" encoding="utf-8"?>
<!-- Generator: Adobe Illustrator 16.0.0, SVG Export Plug-In . SVG Version: 6.00 Build 0)  -->
<!DOCTYPE svg PUBLIC "-//W3C//DTD SVG 1.1//EN" "http://www.w3.org/Graphics/SVG/1.1/DTD/svg11.dtd">
<svg version="1.1" id="Layer_1" xmlns="http://www.w3.org/2000/svg" xmlns:xlink="http://www.w3.org/1999/xlink" x="0px" y="0px"
	 width="75px" height="85px" viewBox="0 0 75 85" enable-background="new 0 0 75 85" xml:space="preserve">
<path fill="#FFFFFF" d="M70.67,19.572L42.598,3.365c-2.383-1.375-6.279-1.375-8.66,0L5.872,19.571
	c-2.381,1.375-4.33,4.751-4.33,7.501V59.48c0,2.75,1.949,6.125,4.33,7.5l28.07,16.207c2.381,1.375,6.277,1.375,8.66,0l28.066-16.205
	c2.381-1.375,4.33-4.75,4.33-7.5v-32.41H75C75,24.322,73.051,20.947,70.67,19.572z M56.567,32.223
	c-0.715,1.212-4.514,1.216-4.514,1.216l-7.669,14.453c0,0,5.326,6.364,3.805,8.94c-0.627,1.062-2,1.418-3.072,0.791l-10.161-6
	L25.157,64.91l-0.009-0.006c-0.166,0.195-0.445,0.258-0.673,0.124c-0.226-0.134-0.307-0.409-0.217-0.649l-0.011-0.004l6.897-15.003
	l-10.166-6c-1.067-0.628-1.418-2.002-0.792-3.068c1.519-2.572,9.665-0.987,9.665-0.987l8.944-13.699c0,0-1.831-3.329-1.116-4.542
	c1.161-1.97,6.71,0.248,11.069,2.82C54.041,27.021,57.754,30.212,56.567,32.223z"/>
</svg>
