<?xml version="1.0" encoding="utf-8"?>
<!-- Generator: Adobe Illustrator 16.0.0, SVG Export Plug-In . SVG Version: 6.00 Build 0)  -->
<!DOCTYPE svg PUBLIC "-//W3C//DTD SVG 1.1//EN" "http://www.w3.org/Graphics/SVG/1.1/DTD/svg11.dtd">
<svg version="1.1" id="Layer_1" xmlns="http://www.w3.org/2000/svg" xmlns:xlink="http://www.w3.org/1999/xlink" x="0px" y="0px"
	 width="75px" height="85px" viewBox="0 0 75 85" enable-background="new 0 0 75 85" xml:space="preserve">
<polygon fill="#FFFFFF" points="24.644,43.749 24.644,36.629 21.983,40.167 "/>
<path fill="#FFFFFF" d="M70.67,19.572L42.598,3.365c-2.383-1.375-6.279-1.375-8.66,0L5.871,19.571
	c-2.381,1.375-4.33,4.751-4.33,7.501V59.48c0,2.75,1.949,6.125,4.33,7.5l28.07,16.207c2.381,1.375,6.277,1.375,8.66,0l28.066-16.205
	c2.381-1.375,4.33-4.75,4.33-7.5v-32.41H75C75,24.322,73.051,20.947,70.67,19.572z M31.199,20.493c2.604,0,4.715,2.111,4.715,4.716
	s-2.111,4.717-4.715,4.717c-2.605,0-4.717-2.112-4.717-4.717S28.594,20.493,31.199,20.493z M37.072,37.094v29.462
	c0,1.188-0.973,2.151-2.161,2.151c-1.189,0-2.162-0.964-2.162-2.151V50.983h-3.782v15.572c0,1.188-0.973,2.151-2.162,2.151
	c-1.188,0-2.161-0.964-2.161-2.151V48.571c-0.54-0.046-0.718-0.274-1.02-0.681l-4.78-6.692c-0.455-0.613-0.453-1.44,0.006-2.051
	l5.232-6.931c0.567-0.754,2.39-0.686,2.39-0.686h9.163c1.344,0,6.586,5.854,6.586,5.854l4.904-4.941
	c0.645-0.646,1.689-0.646,2.334,0c0.645,0.644,0.632,1.689-0.014,2.333l-6.086,6.073c-0.322,0.321-0.773,0.483-1.195,0.483
	s-0.901-0.162-1.224-0.483L37.072,37.094z M60.848,45.58H40.854v-2.162h17.831V22.886h-15.67V33.31l-0.902,1.11l-1.259-1.555V20.184
	h19.993V45.58z"/>
</svg>
