<?xml version="1.0" encoding="utf-8"?>
<!-- Generator: Adobe Illustrator 16.0.0, SVG Export Plug-In . SVG Version: 6.00 Build 0)  -->
<!DOCTYPE svg PUBLIC "-//W3C//DTD SVG 1.1//EN" "http://www.w3.org/Graphics/SVG/1.1/DTD/svg11.dtd">
<svg version="1.1" id="Layer_1" xmlns="http://www.w3.org/2000/svg" xmlns:xlink="http://www.w3.org/1999/xlink" x="0px" y="0px"
	 width="75px" height="85px" viewBox="0 0 75 85" enable-background="new 0 0 75 85" xml:space="preserve">
<g>
	<path fill="#FFFFFF" d="M53.45,40.17c-0.254,0-0.479-0.032-0.67-0.095c-1.5-0.496-2.047-1.703-2.487-2.673
		c-0.323-0.711-0.626-1.38-1.257-1.867c-1.363-1.051-3.557-1.541-6.902-1.541c-1.166,0-2.32,0.06-3.395,0.124l-0.546,0.033
		l0.013,0.547c0.034,1.432-0.242,2.858-0.51,4.238l-0.143,0.737c-0.061,0.329-0.078,0.682-0.095,1.024l-0.007,0.127
		c-0.055,1.114-0.116,2.375-0.896,3.359c-0.779,0.979-1.077,1.32-1.646,1.368c-0.008,0-0.015,0-0.022,0
		c-0.325,0-0.553-0.079-0.763-0.23l-0.184-0.132l-0.355,0.051c-0.894,0.17-1.773,0.18-2.551,0.188
		c-2.028,0.019-3.137,0.029-3.826,2.307c-0.242,0.802-0.078,1.702,0.111,2.745c0.257,1.409,0.52,2.853-0.137,4.363
		c-0.141,0.324-0.436,0.55-0.789,0.604c-0.037,0.005-0.092,0.009-0.145,0.009c-0.302,0-0.585-0.131-0.777-0.358
		c-0.553-0.65-1.166-1.265-1.76-1.858c-1.576-1.572-3.168-3.162-3.891-5.521c-0.287-0.937-0.389-2.04-0.488-3.106
		c-0.234-2.52-0.49-4.232-1.83-4.98l-0.074-0.052l-0.733-0.466l-0.13,0.859c-0.188,1.239-0.276,2.289-0.276,3.304
		c0,12.121,9.862,21.982,21.983,21.982c0.848,0,1.741-0.063,2.812-0.199l0.299-0.037l0.136-0.27c0.166-0.327,0.34-0.684,0.508-1.027
		c1.501-3.094,3.557-7.328,6.794-7.947c0.264-0.051,0.53-0.077,0.791-0.077c1.225,0,2.461,0.563,3.674,1.673
		c0.113,0.105,0.196,0.25,0.261,0.459l0.293,0.948l0.668-0.733c3.707-4.071,5.748-9.316,5.749-14.771
		c0-1.604-0.191-3.255-0.569-4.905l-0.18-0.787l-0.68,0.437C57.213,39.061,54.952,40.17,53.45,40.17z"/>
	<path fill="#FFFFFF" d="M38.272,21.292c-9.631,0-18.289,6.452-21.053,15.689l-0.242,0.81l0.841-0.083
		c0.052-0.005,0.103-0.008,0.153-0.008c0.162,0,0.296,0.03,0.412,0.09c2.483,1.296,2.746,4.125,2.979,6.622
		c0.094,1.011,0.184,1.965,0.41,2.708c0.447,1.46,1.322,2.568,2.498,3.784l1.281,1.324l-0.315-1.816
		c-0.171-0.981-0.323-2.125,0.021-3.269c1.121-3.712,3.684-3.735,5.742-3.756c0.752-0.008,1.496-0.016,2.221-0.152
		c0.248-0.048,0.482-0.071,0.695-0.071c0.16,0,0.306,0.014,0.439,0.037l0.343,0.061l0.209-0.279c0.396-0.5,0.458-1.241,0.509-2.24
		c0.028-0.554,0.057-1.03,0.134-1.443l0.142-0.739c0.344-1.766,0.697-3.589,0.311-5.111c-0.074-0.296-0.012-0.607,0.17-0.854
		c0.182-0.247,0.461-0.397,0.768-0.413l1.199-0.071c1.235-0.076,2.635-0.162,4.051-0.162c3.777,0,6.349,0.626,8.092,1.971
		c1.036,0.799,1.478,1.775,1.867,2.637c0.408,0.899,0.649,1.377,1.273,1.583l0.086,0.028h0.092c0.791,0,3.381-1.303,4.157-1.878
		c0.13-0.097,0.294-0.15,0.517-0.169l0.756-0.064l-0.275-0.706C55.488,26.942,47.257,21.292,38.272,21.292z"/>
	<path fill="#FFFFFF" d="M51.906,58.877c-0.823-0.753-1.6-1.135-2.306-1.135c-0.182,0-0.314,0.024-0.402,0.041
		c-1.873,0.357-3.5,3.158-4.709,5.558l-0.617,1.226l1.303-0.433c2.678-0.89,5.123-2.262,7.268-4.077l0.762-0.645l-0.943-0.324
		C52.13,59.043,52.011,58.972,51.906,58.877z"/>
	<path fill="#FFFFFF" d="M70.67,19.572L42.598,3.365c-2.383-1.375-6.279-1.375-8.66,0L5.871,19.571c-2.381,1.375-4.33,4.75-4.33,7.5
		V59.48c0,2.75,1.949,6.125,4.33,7.5l28.07,16.207c2.381,1.375,6.277,1.375,8.66,0l28.066-16.205c2.381-1.375,4.33-4.75,4.33-7.5
		V27.072H75C75,24.322,73.051,20.947,70.67,19.572z M38.272,68.886c-14.121,0-25.61-11.487-25.61-25.608s11.489-25.61,25.61-25.61
		c14.119,0,25.607,11.489,25.607,25.61S52.392,68.886,38.272,68.886z"/>
</g>
</svg>
