<?xml version="1.0" encoding="utf-8"?>
<!-- Generator: Adobe Illustrator 16.0.0, SVG Export Plug-In . SVG Version: 6.00 Build 0)  -->
<!DOCTYPE svg PUBLIC "-//W3C//DTD SVG 1.1//EN" "http://www.w3.org/Graphics/SVG/1.1/DTD/svg11.dtd">
<svg version="1.1" id="Layer_1" xmlns="http://www.w3.org/2000/svg" xmlns:xlink="http://www.w3.org/1999/xlink" x="0px" y="0px"
	 width="75px" height="85px" viewBox="0 0 75 85" enable-background="new 0 0 75 85" xml:space="preserve">
<path fill="#FFFFFF" d="M70.67,19.573L42.599,3.366c-2.383-1.375-6.279-1.375-8.66,0L5.872,19.572c-2.381,1.375-4.33,4.75-4.33,7.5
	V59.48c0,2.75,1.949,6.125,4.33,7.5l28.07,16.207c2.381,1.375,6.277,1.375,8.66,0l28.066-16.205c2.381-1.375,4.33-4.75,4.33-7.5
	v-32.41H75C75,24.322,73.051,20.948,70.67,19.573z M43.858,62.667c-7.664,11.938-18.094,4.123-18.094,4.123
	c-11.976-7.388-3.729-18.896-3.729-18.896l14.429-22.902c6.229-9.883,13.926-4.237,13.926-4.237
	c8.211,4.627,2.109,14.246,2.109,14.246L39.287,55.944c-3.276,4.058-7.197,1.766-7.197,1.766c-4.977-2.772-2.56-7.526-2.56-7.526
	l8.684-13.788c3.115-1.104,3.207,2.002,3.207,2.002s-8.27,12.665-8.374,13.287c-0.103,0.617-0.271,1.821,0.678,2.435
	c0.949,0.621,1.737,0.201,2.394-0.216c0.658-0.411,13.721-22.015,13.721-22.015c2.749-4.617-2.042-7.148-2.042-7.148
	c-4.651-2.905-8.126,2.256-8.126,2.256L24.948,50.609c-4.614,7.573,3.92,12.599,3.92,12.599c9.305,4.18,13.109-4.431,13.109-4.431
	l12.416-19.7c3.104-1.196,3.246,1.942,3.246,1.942L43.858,62.667z"/>
</svg>
