<?xml version="1.0" encoding="utf-8"?>
<!-- Generator: Adobe Illustrator 16.0.0, SVG Export Plug-In . SVG Version: 6.00 Build 0)  -->
<!DOCTYPE svg PUBLIC "-//W3C//DTD SVG 1.1//EN" "http://www.w3.org/Graphics/SVG/1.1/DTD/svg11.dtd">
<svg version="1.1" id="Layer_1" xmlns="http://www.w3.org/2000/svg" xmlns:xlink="http://www.w3.org/1999/xlink" x="0px" y="0px"
	 width="75px" height="85px" viewBox="0 0 75 85" enable-background="new 0 0 75 85" xml:space="preserve">
<path fill="#FFFFFF" d="M70.67,19.573L42.598,3.366c-2.383-1.375-6.279-1.375-8.66,0L5.872,19.572c-2.381,1.375-4.33,4.75-4.33,7.5
	V59.48c0,2.75,1.949,6.125,4.33,7.5l28.07,16.207c2.381,1.375,6.277,1.375,8.66,0l28.066-16.205c2.381-1.375,4.33-4.75,4.33-7.5
	v-32.41H75C75,24.323,73.051,20.948,70.67,19.573z M49.5,21.169c2.139,0,3.873,1.733,3.873,3.874c0,2.138-1.734,3.872-3.873,3.872
	s-3.871-1.735-3.871-3.873C45.629,22.903,47.361,21.169,49.5,21.169z M27.556,21.169c2.139,0,3.873,1.733,3.873,3.874
	c-0.001,2.138-1.734,3.872-3.873,3.872s-3.872-1.735-3.872-3.873C23.684,22.903,25.417,21.169,27.556,21.169z M58.277,46.795
	c0,1.709-1.516,3.098-3.227,3.098V36.659c0-0.356-0.289-0.646-0.645-0.646s-0.646,0.289-0.646,0.646v26.786
	c0,1.068-0.865,1.936-1.936,1.936s-1.938-0.867-1.936-1.936l-0.002-15.813c0-0.357-0.287-0.646-0.645-0.646
	s-0.645,0.289-0.645,0.646L48.6,63.445c0,1.07-0.867,1.938-1.938,1.938s-1.936-0.867-1.936-1.938V36.659
	c0-0.355-0.291-0.645-0.646-0.645c-0.357,0-0.646,0.288-0.646,0.645v13.233c-1.711,0-3.225-1.387-3.225-3.098l-0.002-11.749
	c0-0.219,0.02-0.432,0.051-0.643h-7.796v0.001c-0.356,0-0.646,0.288-0.646,0.644v28.397c0,1.068-0.865,1.936-1.936,1.936
	s-1.936-0.867-1.936-1.936l-0.001-15.813c0-0.357-0.29-0.646-0.646-0.646c-0.357,0-0.645,0.289-0.645,0.646l0.002,15.813
	c0,1.07-0.867,1.938-1.938,1.938s-1.937-0.867-1.937-1.938l0.001-26.786c0-0.355-0.29-0.645-0.646-0.645
	c-0.357,0-0.646,0.288-0.646,0.645v13.233c-1.711,0-3.227-1.387-3.227-3.098V35.046c0-2.495,2.021-4.517,4.518-4.517l30.979,0
	c2.496,0,4.52,2.022,4.518,4.518V46.795z"/>
</svg>
