<?xml version="1.0" encoding="utf-8"?>
<!-- Generator: Adobe Illustrator 16.0.0, SVG Export Plug-In . SVG Version: 6.00 Build 0)  -->
<!DOCTYPE svg PUBLIC "-//W3C//DTD SVG 1.1//EN" "http://www.w3.org/Graphics/SVG/1.1/DTD/svg11.dtd">
<svg version="1.1" id="Layer_1" xmlns="http://www.w3.org/2000/svg" xmlns:xlink="http://www.w3.org/1999/xlink" x="0px" y="0px"
	 width="75px" height="85px" viewBox="0 0 75 85" enable-background="new 0 0 75 85" xml:space="preserve">
<path fill="#FFFFFF" d="M70.67,19.573L42.599,3.366c-2.383-1.375-6.279-1.375-8.66,0L5.872,19.572c-2.381,1.375-4.33,4.75-4.33,7.5
	V59.48c0,2.75,1.949,6.125,4.33,7.5l28.07,16.207c2.381,1.375,6.277,1.375,8.66,0l28.066-16.205c2.381-1.375,4.33-4.75,4.33-7.5
	v-32.41H75C75,24.322,73.051,20.948,70.67,19.573z M60.369,48.846c-2.191,0-4.197-1.479-4.872-3.48H45.113
	c-0.216,0.536-0.495,1.129-0.835,1.66l7.931,7.798c0.623-0.403,1.348-0.618,2.106-0.618c2.153,0,3.904,1.751,3.904,3.904
	c0,2.152-1.751,3.904-3.904,3.904s-3.905-1.752-3.905-3.904c0-0.268,0.03-0.539,0.091-0.809l-8.377-8.379
	c-0.644,0.386-1.342,0.663-2.067,0.822v10.739c2.116,0.644,3.633,2.627,3.633,4.892c0,2.82-2.295,5.115-5.115,5.115
	s-5.115-2.295-5.115-5.115c0-2.265,1.517-4.248,3.633-4.892V49.745c-0.604-0.132-1.189-0.345-1.736-0.632l-8.116,8.117
	c0.068,0.29,0.104,0.586,0.104,0.883c0,2.156-1.751,3.91-3.904,3.91s-3.904-1.747-3.904-3.895c0-2.143,1.751-3.887,3.904-3.887
	c0.669,0,1.336,0.193,1.936,0.553l7.642-7.575c-0.426-0.628-0.756-1.338-0.971-1.854H21.047c-0.676,2.022-2.684,3.52-4.873,3.52
	c-2.773,0-5.116-2.396-5.116-5.23c0-2.825,2.247-5.04,5.116-5.04c2.432,0,4.326,1.491,4.916,3.784h10.591
	c0.11-1.2,0.451-2.063,0.94-2.836l-8.379-8.515c-0.268,0.06-0.537,0.089-0.804,0.089c-2.153,0-3.904-1.752-3.904-3.905
	s1.751-3.905,3.904-3.905s3.904,1.752,3.904,3.905c0,0.757-0.215,1.48-0.614,2.102l7.928,7.926c0.739-0.51,1.563-0.869,2.436-1.059
	V26.069c-2.116-0.644-3.633-2.626-3.633-4.891c0-2.821,2.295-5.115,5.115-5.115s5.115,2.294,5.115,5.115
	c0,2.265-1.517,4.247-3.633,4.891v10.135c0.946,0.209,1.847,0.62,2.631,1.199l8.24-8.24c-0.337-0.586-0.518-1.248-0.518-1.925
	c0-2.15,1.751-3.9,3.904-3.9s3.904,1.756,3.904,3.915c0,2.163-1.751,3.923-3.904,3.923c-0.319,0-0.605-0.024-0.868-0.076
	l-8.721,8.79c0.382,0.66,0.656,1.375,0.747,2.509h9.98c0.589-2.293,2.483-3.784,4.916-3.784c2.82,0,5.116,2.295,5.116,5.116
	C65.485,46.551,63.189,48.846,60.369,48.846z"/>
</svg>
