<?xml version="1.0" encoding="utf-8"?>
<!-- Generator: Adobe Illustrator 16.0.0, SVG Export Plug-In . SVG Version: 6.00 Build 0)  -->
<!DOCTYPE svg PUBLIC "-//W3C//DTD SVG 1.1//EN" "http://www.w3.org/Graphics/SVG/1.1/DTD/svg11.dtd">
<svg version="1.1" id="Layer_1" xmlns="http://www.w3.org/2000/svg" xmlns:xlink="http://www.w3.org/1999/xlink" x="0px" y="0px"
	 width="75px" height="85px" viewBox="0 0 75 85" enable-background="new 0 0 75 85" xml:space="preserve">
<g>
	<path fill="#FFFFFF" d="M42.359,42.322c0.074,0.354,0.113,0.72,0.113,1.096c0,2.33-1.482,4.306-3.553,5.055v10.691
		c0.545,0.242,1.041,0.572,1.473,0.971l9.74-5.489c-0.019-0.181-0.027-0.364-0.027-0.55c0-2.363,1.527-4.365,3.645-5.088V37.955
		c-0.801-0.273-1.518-0.725-2.098-1.316L42.359,42.322z"/>
	<path fill="#FFFFFF" d="M50.133,33.397c-0.018-0.174-0.026-0.35-0.026-0.529c0-0.418,0.052-0.824,0.143-1.214l-9.783-5.513
		c-0.966,0.922-2.271,1.491-3.712,1.491c-1.406,0-2.683-0.545-3.642-1.429l-9.284,5.23c0.125,0.458,0.198,0.937,0.198,1.434
		c0,0.311-0.032,0.614-0.082,0.909l9.57,5.635c0.952-0.852,2.204-1.373,3.58-1.373c1.304,0,2.499,0.463,3.43,1.235L50.133,33.397z"
		/>
	<path fill="#FFFFFF" d="M69.463,19.572L41.391,3.365c-2.383-1.375-6.279-1.375-8.66,0L4.664,19.571
		c-2.381,1.375-4.33,4.75-4.33,7.5V59.48c0,2.75,1.949,6.125,4.33,7.5l28.07,16.207c2.381,1.375,6.277,1.375,8.66,0l28.066-16.205
		c2.381-1.375,4.33-4.75,4.33-7.5V27.072h0.002C73.793,24.322,71.844,20.947,69.463,19.572z M60.862,54.097
		c0,2.972-2.406,5.378-5.378,5.378c-1.498,0-2.852-0.613-3.828-1.602l-9.591,5.404c0.04,0.265,0.066,0.533,0.066,0.809
		c0,2.972-2.407,5.378-5.379,5.378c-2.967,0-5.378-2.406-5.378-5.378c0-0.309,0.032-0.607,0.081-0.902l-9.148-5.154
		c-0.96,0.895-2.244,1.445-3.66,1.445c-2.968,0-5.379-2.406-5.379-5.378c0-2.159,1.275-4.015,3.108-4.871V37.738
		c-1.833-0.855-3.108-2.71-3.108-4.87c0-2.972,2.411-5.379,5.379-5.379c1.171,0,2.251,0.378,3.134,1.013l9.661-5.443
		c-0.039-0.263-0.066-0.53-0.066-0.805c0-2.972,2.41-5.379,5.378-5.379c2.971,0,5.379,2.407,5.379,5.379
		c0,0.242-0.021,0.478-0.053,0.712l10.08,5.679c0.914-0.722,2.068-1.156,3.324-1.156c2.972,0,5.379,2.407,5.379,5.379
		c0,2.331-1.482,4.307-3.555,5.055v11.119C59.381,49.789,60.863,51.768,60.862,54.097z"/>
	<path fill="#FFFFFF" d="M31.714,43.419c0-0.304,0.032-0.599,0.08-0.889l-9.583-5.641c-0.641,0.568-1.417,0.985-2.276,1.195v10.794
		c2.347,0.579,4.09,2.692,4.09,5.219c0,0.266-0.026,0.524-0.063,0.78l9.22,5.194c0.616-0.548,1.358-0.955,2.177-1.176V48.505
		C33.242,47.783,31.714,45.783,31.714,43.419z"/>
</g>
</svg>
