<?xml version="1.0" encoding="utf-8"?>
<!-- Generator: Adobe Illustrator 16.0.0, SVG Export Plug-In . SVG Version: 6.00 Build 0)  -->
<!DOCTYPE svg PUBLIC "-//W3C//DTD SVG 1.1//EN" "http://www.w3.org/Graphics/SVG/1.1/DTD/svg11.dtd">
<svg version="1.1" id="Layer_1" xmlns="http://www.w3.org/2000/svg" xmlns:xlink="http://www.w3.org/1999/xlink" x="0px" y="0px"
	 width="75px" height="85px" viewBox="0 0 75 85" enable-background="new 0 0 75 85" xml:space="preserve">
<g>
	<path fill="#FFFFFF" d="M70.67,19.572L42.598,3.365c-2.383-1.375-6.279-1.375-8.66,0L5.872,19.571
		c-2.381,1.375-4.33,4.751-4.33,7.501V59.48c0,2.75,1.949,6.125,4.33,7.5l28.07,16.207c2.381,1.375,6.277,1.375,8.66,0
		l28.066-16.205c2.381-1.375,4.33-4.75,4.33-7.5v-32.41H75C75,24.322,73.051,20.947,70.67,19.572z M26.344,60.528h-9.5V36.074h9.5
		V60.528z M58.428,51.046c0.87,2.613-3.049,3.715-2.828,5.167c0.738,4.822-4.932,4.604-5.137,4.604H35.278
		c-4.072,0-6.786-1.356-6.786-1.356V37.688c1.629,0,2.957-1.299,4.179-2.248c1.183-1.184,2.803-3.437,4.051-5.202
		c1.471-2.083,2.629-4.414,2.629-6.618v-3.774c0-0.679,0.934-1.104,0.934-1.104l-0.003-0.001c0,0,6.128-0.637,5.854,5.428
		c-0.179,3.938-2.291,7.449-2.291,9.077c0,1.63,1.34,3.141,2.969,3.141h9.756c1.765,0,3.148,1.34,3.013,2.969
		c-0.021,1.238-0.37,2.198-0.514,2.586c-0.087,0.305-0.183,0.632-0.285,0.974c-0.077,0.485-0.027,1.012,0.327,1.618
		C61.071,47.89,57.403,47.975,58.428,51.046z"/>
</g>
</svg>
