<?xml version="1.0" encoding="utf-8"?>
<!-- Generator: Adobe Illustrator 15.0.0, SVG Export Plug-In . SVG Version: 6.00 Build 0)  -->
<!DOCTYPE svg PUBLIC "-//W3C//DTD SVG 1.1//EN" "http://www.w3.org/Graphics/SVG/1.1/DTD/svg11.dtd">
<svg version="1.1" id="Layer_1" xmlns="http://www.w3.org/2000/svg" xmlns:xlink="http://www.w3.org/1999/xlink" x="0px" y="0px"
	 width="88.6px" height="99.063px" viewBox="0 0 88.6 99.063" enable-background="new 0 0 88.6 99.063" xml:space="preserve">
<path fill="#FFFFFF" d="M83.77,21.165l-34.64-20C47.829,0.414,46.115,0,44.3,0s-3.529,0.414-4.83,1.165l-34.64,20
	C2.122,22.729,0,26.404,0,29.531v40c0,3.128,2.122,6.802,4.83,8.366l34.64,20c1.301,0.751,3.017,1.165,4.83,1.165
	c1.813,0,3.529-0.415,4.83-1.166l34.64-20c2.708-1.563,4.83-5.238,4.83-8.365v-40C88.6,26.404,86.478,22.729,83.77,21.165z
	 M44.3,23.487c7.405,0,13.407,4.717,13.407,13.154S51.705,51.916,44.3,51.916c-7.405,0-13.407-6.839-13.407-15.276
	C30.893,28.204,36.895,23.487,44.3,23.487z M45.726,93.482c-0.182,0.104-0.686,0.281-1.426,0.281s-1.244-0.177-1.424-0.281
	l-16.907-9.761C27.562,73.103,26.05,54.178,44.3,54.178s16.738,18.926,18.331,29.543L45.726,93.482z"/>
</svg>
