<?xml version="1.0" encoding="utf-8"?>
<!-- Generator: Adobe Illustrator 15.0.0, SVG Export Plug-In . SVG Version: 6.00 Build 0)  -->
<!DOCTYPE svg PUBLIC "-//W3C//DTD SVG 1.1//EN" "http://www.w3.org/Graphics/SVG/1.1/DTD/svg11.dtd">
<svg version="1.1" id="Layer_1" xmlns="http://www.w3.org/2000/svg" xmlns:xlink="http://www.w3.org/1999/xlink" x="0px" y="0px"
	 width="140px" height="99.063px" viewBox="0 0 140 99.063" enable-background="new 0 0 140 99.063" xml:space="preserve">
<g>
	<g>
		<polygon fill="#FFFFFF" points="48.209,59.058 46.223,57.493 47.576,59.393 92.707,59.393 94.059,57.493 92.029,59.034 		"/>
		<rect x="65" y="54.393" fill="#FFFFFF" width="10" height="2"/>
		<path fill="#FFFFFF" d="M109.391,21.165l-34.529-20C73.56,0.414,71.9,0,70.087,0c-1.813,0-3.501,0.414-4.803,1.165l-34.547,20
			c-2.708,1.563-4.736,5.237-4.736,8.366v40c0,3.127,2.042,6.802,4.751,8.364l34.6,20c1.301,0.751,2.997,1.165,4.81,1.165
			s3.52-0.414,4.821-1.165l34.414-20c2.707-1.563,4.604-5.237,4.604-8.364v-40C114,26.404,112.099,22.729,109.391,21.165z
			 M62,29.393h16v5h-1v-2H64v2h-2V29.393z M96,65.336c0,2.24-1.816,4.057-4.059,4.057H48.058c-2.241,0-4.058-1.814-4.058-4.057
			V39.449c0-2.24,1.815-4.059,4.058-4.059h43.886c2.24,0,4.059,1.816,4.059,4.059L96,65.336L96,65.336z"/>
	</g>
	<g>
		<path fill="#FFFFFF" d="M122.391,21.166l-34.529-20C86.56,0.415,84.9,0.001,83.088,0.001c-1.68,0-3.235,0.368-4.492,1.017
			l31.798,18.418c3.248,1.875,5.607,6.122,5.607,10.098v40c0,3.976-2.357,8.223-5.604,10.098l-31.71,18.427
			c1.255,0.642,2.808,1.005,4.476,1.005c1.813,0,3.52-0.414,4.82-1.165l34.414-20c2.707-1.563,4.604-5.237,4.604-8.364v-40
			C127,26.406,125.099,22.73,122.391,21.166z"/>
	</g>
</g>
</svg>
