<?xml version="1.0" encoding="utf-8"?>
<!-- Generator: Adobe Illustrator 15.0.0, SVG Export Plug-In . SVG Version: 6.00 Build 0)  -->
<!DOCTYPE svg PUBLIC "-//W3C//DTD SVG 1.1//EN" "http://www.w3.org/Graphics/SVG/1.1/DTD/svg11.dtd">
<svg version="1.1" id="Layer_1" xmlns="http://www.w3.org/2000/svg" xmlns:xlink="http://www.w3.org/1999/xlink" x="0px" y="0px"
	 width="140px" height="99.063px" viewBox="0 0 140 99.063" enable-background="new 0 0 140 99.063" xml:space="preserve">
<g>
	<path fill="#FFFFFF" d="M109.391,21.165l-34.529-20C73.56,0.414,71.9,0,70.087,0c-1.813,0-3.501,0.414-4.803,1.165l-34.547,20
		c-2.708,1.563-4.736,5.237-4.736,8.366v40c0,3.127,2.042,6.802,4.751,8.364l34.6,20c1.301,0.751,2.997,1.165,4.81,1.165
		s3.52-0.414,4.821-1.165l34.414-20c2.707-1.563,4.604-5.237,4.604-8.364v-40C114,26.404,112.099,22.729,109.391,21.165z
		 M84.262,71.257l-14.121-7.422l-14.119,7.422l2.697-15.72L47.297,44.403l15.785-2.293l7.06-14.304l7.062,14.304l15.785,2.293
		L81.564,55.537L84.262,71.257z"/>
	<g>
		<path fill="#FFFFFF" d="M122.391,21.165l-34.529-20C86.56,0.414,84.9,0,83.087,0c-1.679,0-3.235,0.368-4.492,1.017l31.798,18.418
			C113.641,21.31,116,25.557,116,29.532v40c0,3.976-2.357,8.223-5.604,10.098l-31.71,18.427c1.255,0.642,2.808,1.005,4.476,1.005
			c1.813,0,3.52-0.414,4.82-1.165l34.414-20c2.707-1.563,4.604-5.237,4.604-8.364v-40C127,26.404,125.099,22.729,122.391,21.165z"/>
	</g>
</g>
</svg>
