<?xml version="1.0" encoding="utf-8"?>
<!-- Generator: Adobe Illustrator 15.0.0, SVG Export Plug-In . SVG Version: 6.00 Build 0)  -->
<!DOCTYPE svg PUBLIC "-//W3C//DTD SVG 1.1//EN" "http://www.w3.org/Graphics/SVG/1.1/DTD/svg11.dtd">
<svg version="1.1" id="Layer_1" xmlns="http://www.w3.org/2000/svg" xmlns:xlink="http://www.w3.org/1999/xlink" x="0px" y="0px"
	 width="88.6px" height="99.063px" viewBox="0 0 88.6 99.063" enable-background="new 0 0 88.6 99.063" xml:space="preserve">
<g>
	<g>
		<path fill="#FFFFFF" d="M44.3,99.063c-1.813,0-3.529-0.414-4.83-1.165l-34.64-20C2.122,76.333,0,72.659,0,69.531v-40
			c0-3.127,2.122-6.802,4.83-8.366l34.64-20C40.771,0.414,42.486,0,44.3,0s3.529,0.414,4.83,1.165l34.64,20
			c2.708,1.564,4.83,5.239,4.83,8.366v40c0,3.127-2.122,6.802-4.83,8.366l-34.64,20C47.829,98.648,46.113,99.063,44.3,99.063z
			 M44.3,2c-1.446,0-2.842,0.327-3.83,0.897l-34.64,20C3.754,24.096,2,27.134,2,29.531v40c0,2.397,1.754,5.435,3.83,6.634l34.64,20
			c1.976,1.141,5.685,1.141,7.66,0l34.64-20c2.076-1.198,3.83-4.236,3.83-6.634v-40c0-2.397-1.754-5.436-3.83-6.634l-34.64-20
			C47.142,2.327,45.746,2,44.3,2z"/>
	</g>
	<polygon fill="#FFFFFF" points="44.299,27.805 51.36,42.109 67.145,44.403 55.723,55.537 58.42,71.257 44.299,63.835 30.18,71.257 
		32.877,55.537 21.455,44.403 37.239,42.109 	"/>
</g>
</svg>
