<?xml version="1.0" encoding="utf-8"?>
<!-- Generator: Adobe Illustrator 15.0.0, SVG Export Plug-In . SVG Version: 6.00 Build 0)  -->
<!DOCTYPE svg PUBLIC "-//W3C//DTD SVG 1.1//EN" "http://www.w3.org/Graphics/SVG/1.1/DTD/svg11.dtd">
<svg version="1.1" id="Layer_1" xmlns="http://www.w3.org/2000/svg" xmlns:xlink="http://www.w3.org/1999/xlink" x="0px" y="0px"
	 width="140px" height="99.063px" viewBox="0 0 140 99.063" enable-background="new 0 0 140 99.063" xml:space="preserve">
<g>
	<g>
		<g>
			<g>
				<path fill="#FFFFFF" d="M70.001,99.063c-1.813,0-3.529-0.414-4.83-1.166l-34.641-20c-2.708-1.563-4.83-5.238-4.83-8.365v-40
					c0-3.129,2.122-6.804,4.83-8.366l34.641-20C66.472,0.414,68.187,0,70.001,0c1.814,0,3.529,0.414,4.83,1.166l34.639,20
					c2.709,1.563,4.83,5.239,4.83,8.366v40c0,3.127-2.121,6.802-4.83,8.364l-34.639,20C73.53,98.648,71.815,99.063,70.001,99.063z
					 M70.001,2c-1.447,0-2.843,0.327-3.83,0.896l-34.641,20c-2.076,1.2-3.83,4.238-3.83,6.636v40c0,2.396,1.754,5.435,3.83,6.634
					l34.641,20c1.975,1.141,5.687,1.14,7.66,0l34.639-20c2.076-1.199,3.83-4.237,3.83-6.634v-40c0-2.397-1.754-5.437-3.83-6.636
					l-34.639-20C72.844,2.327,71.448,2,70.001,2z"/>
			</g>
		</g>
		<g>
			<g>
				<path fill="#FFFFFF" d="M84.116,64.124c-7.144-0.561-12.495-6.82-11.938-13.959c0.561-7.141,6.819-12.494,13.959-11.938
					c7.142,0.56,12.493,6.82,11.938,13.958C97.517,59.328,91.253,64.682,84.116,64.124z M85.699,43.858
					c-4.036-0.313-7.575,2.711-7.891,6.746c-0.313,4.036,2.711,7.575,6.746,7.892c4.033,0.313,7.573-2.71,7.891-6.746
					C92.762,47.714,89.735,44.173,85.699,43.858z"/>
			</g>
			<g>
				<path fill="#FFFFFF" d="M72.557,47.928l-2.732-0.213c-0.621-0.049-1.166,0.418-1.215,1.038l-0.176,2.252
					c-0.049,0.619,0.417,1.166,1.036,1.213l2.735,0.214c-0.071-0.743-0.086-1.5-0.024-2.268
					C72.238,49.396,72.37,48.651,72.557,47.928z"/>
				<path fill="#FFFFFF" d="M78.537,39.995l-1.784-2.088c-0.401-0.474-1.12-0.527-1.592-0.124l-1.717,1.467
					c-0.474,0.402-0.527,1.121-0.125,1.593l1.784,2.087C76.07,41.76,77.233,40.766,78.537,39.995z"/>
				<path fill="#FFFFFF" d="M96.308,44.586l2.088-1.784c0.473-0.405,0.529-1.121,0.125-1.593l-1.467-1.716
					c-0.403-0.475-1.12-0.529-1.595-0.125l-2.084,1.783C94.542,42.119,95.538,43.282,96.308,44.586z"/>
				<path fill="#FFFFFF" d="M88.374,38.605l0.214-2.732c0.051-0.618-0.416-1.164-1.035-1.212l-2.254-0.179
					c-0.619-0.048-1.164,0.418-1.214,1.038l-0.215,2.733c0.746-0.072,1.5-0.084,2.269-0.024
					C86.907,38.289,87.653,38.419,88.374,38.605z"/>
				<path fill="#FFFFFF" d="M81.878,63.747l-0.211,2.731c-0.049,0.619,0.416,1.166,1.037,1.214l2.252,0.177
					c0.619,0.048,1.164-0.417,1.213-1.037l0.216-2.734c-0.744,0.072-1.498,0.085-2.269,0.025
					C83.348,64.063,82.6,63.933,81.878,63.747z"/>
				<path fill="#FFFFFF" d="M100.783,50.135l-2.733-0.213c0.07,0.741,0.086,1.5,0.027,2.267c-0.063,0.77-0.195,1.516-0.379,2.236
					l2.73,0.214c0.621,0.048,1.166-0.419,1.215-1.038l0.18-2.252C101.87,50.729,101.401,50.183,100.783,50.135z"/>
				<path fill="#FFFFFF" d="M91.719,62.358l1.784,2.088c0.404,0.474,1.12,0.528,1.591,0.125l1.718-1.467
					c0.475-0.402,0.525-1.12,0.121-1.592l-1.783-2.086C94.184,60.593,93.018,61.586,91.719,62.358z"/>
				<path fill="#FFFFFF" d="M73.944,57.765l-2.088,1.785c-0.47,0.404-0.526,1.121-0.124,1.592l1.468,1.716
					c0.403,0.474,1.123,0.528,1.594,0.125l2.087-1.784C75.713,60.234,74.719,59.073,73.944,57.765z"/>
			</g>
			<g>
				<path fill="#FFFFFF" d="M60.436,71.47c-5.984,2.118-12.575-1.027-14.696-7.011c-2.117-5.985,1.028-12.577,7.014-14.697
					c5.983-2.119,12.578,1.026,14.695,7.01C69.567,62.757,66.424,69.35,60.436,71.47z M54.423,54.481
					c-3.383,1.197-5.16,4.926-3.963,8.309c1.197,3.382,4.924,5.161,8.307,3.963c3.384-1.198,5.16-4.925,3.966-8.31
					C61.532,55.062,57.807,53.283,54.423,54.481z"/>
			</g>
			<g>
				<path fill="#FFFFFF" d="M45.241,62.512l-2.294,0.813c-0.518,0.184-0.792,0.757-0.607,1.274l0.667,1.891
					c0.185,0.519,0.758,0.793,1.281,0.607l2.291-0.812c-0.326-0.575-0.609-1.186-0.84-1.827
					C45.513,63.814,45.349,63.163,45.241,62.512z"/>
				<path fill="#FFFFFF" d="M47.229,53.931l-2.195-1.05c-0.498-0.238-1.1-0.024-1.336,0.474l-0.862,1.809
					c-0.238,0.497-0.025,1.098,0.474,1.335l2.198,1.048C45.865,56.249,46.45,55.024,47.229,53.931z"/>
				<path fill="#FFFFFF" d="M63.281,51.251l1.046-2.198c0.238-0.498,0.026-1.098-0.471-1.335l-1.808-0.862
					c-0.496-0.236-1.101-0.023-1.334,0.474l-1.047,2.196C60.962,49.887,62.184,50.471,63.281,51.251z"/>
				<path fill="#FFFFFF" d="M54.698,49.262l-0.812-2.292c-0.184-0.52-0.758-0.793-1.278-0.609l-1.888,0.667
					c-0.52,0.186-0.795,0.76-0.608,1.277l0.811,2.292c0.578-0.326,1.185-0.606,1.83-0.836C53.395,49.534,54.048,49.37,54.698,49.262
					z"/>
				<path fill="#FFFFFF" d="M58.49,71.971l0.811,2.29c0.187,0.521,0.761,0.794,1.28,0.61l1.889-0.668
					c0.519-0.186,0.791-0.761,0.607-1.277l-0.812-2.292c-0.576,0.326-1.184,0.608-1.83,0.837
					C59.794,71.698,59.143,71.86,58.49,71.971z"/>
				<path fill="#FFFFFF" d="M68.903,54.133l-2.29,0.812c0.324,0.576,0.606,1.186,0.835,1.828c0.229,0.646,0.392,1.296,0.5,1.947
					l2.293-0.811c0.519-0.186,0.793-0.761,0.608-1.278l-0.67-1.887C69.998,54.224,69.423,53.95,68.903,54.133z"/>
				<path fill="#FFFFFF" d="M65.961,67.301l2.198,1.049c0.495,0.237,1.097,0.024,1.332-0.473l0.862-1.808
					c0.237-0.495,0.025-1.098-0.473-1.335l-2.197-1.049C67.323,64.983,66.738,66.207,65.961,67.301z"/>
				<path fill="#FFFFFF" d="M49.909,69.981l-1.049,2.198c-0.237,0.497-0.025,1.098,0.471,1.335l1.81,0.861
					c0.497,0.235,1.1,0.022,1.334-0.475l1.049-2.196C52.227,71.344,51.005,70.761,49.909,69.981z"/>
			</g>
			<g>
				<path fill="#FFFFFF" d="M67.134,41.815c-4.472,3.034-10.594,1.849-13.638-2.645c-3.048-4.492-1.894-10.615,2.579-13.648
					c4.475-3.034,10.592-1.848,13.641,2.646S71.608,38.782,67.134,41.815z M58.481,29.064c-2.528,1.715-3.187,5.178-1.461,7.714
					c1.725,2.54,5.184,3.21,7.712,1.495c2.527-1.714,3.182-5.176,1.459-7.714C64.467,28.021,61.009,27.349,58.481,29.064z"/>
			</g>
			<g>
				<path fill="#FFFFFF" d="M52.657,37.668l-1.709,1.162c-0.391,0.263-0.492,0.797-0.228,1.187l0.963,1.417
					c0.265,0.392,0.798,0.493,1.185,0.229l1.715-1.161c-0.396-0.405-0.759-0.847-1.087-1.331
					C53.167,38.688,52.891,38.184,52.657,37.668z"/>
				<path fill="#FFFFFF" d="M52.43,30.151l-2.039-0.396c-0.462-0.089-0.907,0.215-1,0.678l-0.313,1.678
					c-0.088,0.464,0.219,0.912,0.678,1.002l2.042,0.396C51.811,32.36,52.026,31.222,52.43,30.151z"/>
				<path fill="#FFFFFF" d="M65.079,24.495l0.386-2.041c0.089-0.461-0.219-0.911-0.68-1.001l-1.678-0.324
					c-0.463-0.09-0.909,0.215-0.997,0.676l-0.388,2.042C62.869,23.866,64.007,24.086,65.079,24.495z"/>
				<path fill="#FFFFFF" d="M57.573,24.691l-1.168-1.719c-0.267-0.391-0.797-0.494-1.188-0.229l-1.41,0.956
					c-0.389,0.264-0.488,0.797-0.226,1.188l1.168,1.72c0.404-0.393,0.846-0.756,1.324-1.082
					C56.557,25.195,57.058,24.921,57.573,24.691z"/>
				<path fill="#FFFFFF" d="M65.641,42.646l1.164,1.722c0.265,0.39,0.799,0.492,1.188,0.229l1.409-0.956
					c0.389-0.263,0.488-0.797,0.224-1.188l-1.165-1.723c-0.404,0.395-0.845,0.757-1.327,1.083
					C66.655,42.141,66.151,42.417,65.641,42.646z"/>
				<path fill="#FFFFFF" d="M70.343,25.673l-1.712,1.162c0.39,0.406,0.758,0.848,1.085,1.332c0.33,0.481,0.603,0.985,0.836,1.501
					l1.711-1.161c0.391-0.263,0.49-0.797,0.228-1.188l-0.961-1.417C71.264,25.514,70.729,25.411,70.343,25.673z"/>
				<path fill="#FFFFFF" d="M70.78,37.188l2.04,0.396c0.463,0.09,0.908-0.216,0.997-0.676l0.315-1.68
					c0.09-0.461-0.219-0.912-0.681-1.002l-2.04-0.396C71.399,34.979,71.184,36.117,70.78,37.188z"/>
				<path fill="#FFFFFF" d="M58.132,42.842l-0.389,2.042c-0.086,0.461,0.223,0.912,0.684,1.002l1.679,0.324
					c0.459,0.09,0.908-0.215,0.997-0.676l0.385-2.042C60.343,43.471,59.204,43.251,58.132,42.842z"/>
			</g>
		</g>
	</g>
	<g>
		<path fill="#FFFFFF" d="M80.075,96.719c1.976,1.141,4.479,0.587,6.455-0.554l34.64-20c2.076-1.198,3.83-4.236,3.83-6.634v-40
			c0-2.397-1.754-5.438-3.83-6.636l-34.64-20C85.542,2.327,84.147,2,82.7,2s-1.888-0.163-2.875,0.406L77.87,1.165
			C79.172,0.414,80.887,0,82.7,0s3.528,0.414,4.83,1.165l34.64,20c2.708,1.563,4.83,5.237,4.83,8.366v40
			c0,3.127-2.122,6.802-4.83,8.364l-34.64,20c-1.302,0.751-3.019,1.166-4.83,1.166c-1.813,0-3.528-0.414-4.83-1.165L80.075,96.719z"
			/>
	</g>
</g>
</svg>
