<?xml version="1.0" encoding="utf-8"?>
<!-- Generator: Adobe Illustrator 15.0.0, SVG Export Plug-In . SVG Version: 6.00 Build 0)  -->
<!DOCTYPE svg PUBLIC "-//W3C//DTD SVG 1.1//EN" "http://www.w3.org/Graphics/SVG/1.1/DTD/svg11.dtd">
<svg version="1.1" id="Layer_1" xmlns="http://www.w3.org/2000/svg" xmlns:xlink="http://www.w3.org/1999/xlink" x="0px" y="0px"
	 width="140px" height="99.063px" viewBox="0 0 140 99.063" enable-background="new 0 0 140 99.063" xml:space="preserve">
<g>
	<g>
		<path fill="#FFFFFF" d="M54.565,54.481c-3.383,1.197-5.16,4.926-3.963,8.309c1.197,3.382,4.924,5.161,8.307,3.963
			c3.384-1.198,5.16-4.925,3.966-8.31C61.674,55.062,57.949,53.283,54.565,54.481z"/>
		<path fill="#FFFFFF" d="M64.873,38.273c2.527-1.714,3.182-5.176,1.459-7.714c-1.725-2.539-5.183-3.21-7.71-1.495
			c-2.528,1.715-3.187,5.178-1.461,7.714C58.886,39.318,62.345,39.988,64.873,38.273z"/>
		<path fill="#FFFFFF" d="M85.841,43.858c-4.036-0.313-7.575,2.711-7.892,6.746c-0.313,4.036,2.711,7.575,6.746,7.892
			c4.035,0.313,7.574-2.71,7.892-6.746C92.902,47.714,89.877,44.173,85.841,43.858z"/>
		<path fill="#FFFFFF" d="M109.391,21.165l-34.527-20C73.561,0.414,71.9,0,70.088,0c-1.813,0-3.501,0.414-4.803,1.165l-34.548,20
			c-2.708,1.563-4.736,5.237-4.736,8.366v40c0,3.127,2.042,6.802,4.751,8.364l34.601,20c1.301,0.751,2.997,1.166,4.81,1.166
			s3.52-0.414,4.82-1.165l34.414-20c2.709-1.563,4.604-5.237,4.604-8.364v-40C114,26.404,112.1,22.729,109.391,21.165z
			 M49.533,30.432c0.093-0.462,0.538-0.767,1-0.678l2.039,0.396c-0.041,0.109-0.07,0.223-0.107,0.331
			c0.496-1.473,1.341-2.832,2.513-3.943c-0.026,0.022-0.059,0.043-0.084,0.066l-1.168-1.72c-0.264-0.39-0.163-0.923,0.226-1.188
			l1.41-0.955c0.391-0.266,0.921-0.161,1.188,0.229l1.168,1.719c-0.113,0.053-0.224,0.112-0.334,0.167
			c1.529-0.756,3.188-1.074,4.819-0.99c-0.111-0.008-0.223-0.021-0.335-0.021l0.388-2.042c0.088-0.461,0.535-0.766,0.997-0.676
			l1.678,0.324c0.461,0.09,0.769,0.541,0.68,1.001l-0.386,2.041c-0.127-0.05-0.259-0.085-0.388-0.131
			c1.581,0.53,3.035,1.463,4.201,2.766c-0.087-0.1-0.171-0.2-0.262-0.294l1.712-1.162c0.388-0.263,0.922-0.16,1.187,0.229
			l0.961,1.417c0.265,0.392,0.163,0.926-0.228,1.188l-1.711,1.161c-0.047-0.104-0.104-0.205-0.153-0.309
			c0.737,1.499,1.063,3.117,1.002,4.712c0.003-0.081,0.013-0.16,0.014-0.242l2.04,0.396c0.462,0.091,0.77,0.541,0.68,1.002
			l-0.314,1.678c-0.088,0.46-0.534,0.768-0.997,0.678l-2.04-0.396c0.035-0.093,0.061-0.188,0.094-0.283
			c-0.527,1.534-1.433,2.942-2.69,4.076c0.093-0.083,0.188-0.163,0.278-0.249l1.165,1.723c0.266,0.39,0.165,0.924-0.224,1.188
			l-1.409,0.956c-0.389,0.264-0.924,0.16-1.188-0.23l-1.164-1.72c0.124-0.056,0.246-0.123,0.368-0.185
			c-1.525,0.763-3.182,1.089-4.813,1.012c0.097,0.005,0.192,0.016,0.291,0.018l-0.384,2.042c-0.09,0.463-0.539,0.768-0.998,0.678
			l-1.679-0.324c-0.461-0.09-0.77-0.541-0.684-1.002l0.389-2.042c0.091,0.035,0.186,0.06,0.277,0.092
			c-1.514-0.528-2.907-1.425-4.035-2.667c0.071,0.077,0.137,0.16,0.209,0.234l-1.715,1.161c-0.387,0.264-0.92,0.159-1.185-0.229
			l-0.963-1.417c-0.266-0.39-0.163-0.924,0.228-1.187l1.709-1.162c0.06,0.131,0.13,0.258,0.194,0.388
			c-0.781-1.554-1.115-3.239-1.035-4.895c-0.006,0.113-0.019,0.229-0.021,0.345L49.9,33.106c-0.459-0.09-0.766-0.541-0.678-1.002
			L49.533,30.432z M70.383,57.909L68.09,58.72c-0.022-0.135-0.059-0.271-0.085-0.405c0.398,1.947,0.274,3.908-0.293,5.725
			c0.037-0.117,0.081-0.231,0.113-0.352l2.197,1.049c0.498,0.237,0.71,0.84,0.473,1.337l-0.862,1.806
			c-0.235,0.497-0.837,0.71-1.332,0.473l-2.198-1.049c0.073-0.103,0.136-0.212,0.205-0.317c-1.054,1.591-2.505,2.926-4.276,3.844
			c0.125-0.065,0.254-0.124,0.377-0.193l0.812,2.292c0.184,0.518-0.09,1.094-0.607,1.277l-1.889,0.668
			c-0.521,0.184-1.095-0.09-1.28-0.61l-0.811-2.29c0.145-0.022,0.289-0.062,0.433-0.092c-1.949,0.404-3.912,0.284-5.729-0.282
			c0.109,0.035,0.217,0.076,0.328,0.107l-1.049,2.196c-0.234,0.497-0.837,0.71-1.334,0.475l-1.81-0.861
			c-0.496-0.237-0.708-0.838-0.471-1.335l1.049-2.198c0.092,0.065,0.189,0.121,0.284,0.186c-1.533-1.024-2.826-2.418-3.734-4.113
			c0.042,0.077,0.077,0.158,0.12,0.234l-2.291,0.812c-0.523,0.186-1.098-0.09-1.281-0.607L42.482,64.6
			c-0.185-0.519,0.091-1.093,0.607-1.274l2.294-0.813c0.018,0.107,0.046,0.214,0.066,0.321c-0.372-1.896-0.253-3.797,0.288-5.565
			c-0.027,0.093-0.063,0.185-0.09,0.277l-2.198-1.048c-0.499-0.237-0.712-0.838-0.474-1.335l0.862-1.809
			c0.236-0.498,0.838-0.711,1.336-0.474l2.195,1.05c-0.078,0.11-0.146,0.229-0.22,0.34c1.062-1.604,2.525-2.956,4.316-3.877
			c-0.134,0.069-0.271,0.132-0.402,0.206l-0.811-2.292c-0.187-0.519,0.09-1.094,0.608-1.275l1.888-0.667
			c0.521-0.187,1.096,0.089,1.278,0.607l0.812,2.292c-0.143,0.023-0.283,0.063-0.424,0.089c1.972-0.408,3.958-0.277,5.793,0.307
			c-0.134-0.042-0.264-0.094-0.398-0.132l1.047-2.196c0.233-0.497,0.838-0.71,1.334-0.474l1.808,0.862
			c0.497,0.237,0.709,0.838,0.471,1.335l-1.046,2.198c-0.087-0.063-0.181-0.115-0.271-0.174c1.571,1.054,2.892,2.496,3.798,4.253
			c-0.065-0.127-0.126-0.26-0.196-0.385l2.29-0.813c0.52-0.183,1.095,0.091,1.276,0.61l0.669,1.887
			C71.176,57.15,70.9,57.725,70.383,57.909z M101.787,53.6c-0.049,0.619-0.596,1.086-1.215,1.038l-2.731-0.214
			c0.028-0.114,0.048-0.233,0.074-0.349c-0.487,2.126-1.488,4.035-2.861,5.609c0.077-0.088,0.161-0.171,0.236-0.262l1.782,2.086
			c0.405,0.472,0.354,1.188-0.121,1.592l-1.717,1.467c-0.471,0.403-1.187,0.35-1.591-0.125l-1.784-2.088
			c0.121-0.07,0.233-0.153,0.354-0.229c-1.809,1.147-3.904,1.856-6.141,1.996c0.15-0.012,0.305-0.012,0.453-0.025l-0.216,2.734
			c-0.049,0.62-0.594,1.085-1.213,1.037l-2.252-0.177c-0.621-0.048-1.086-0.596-1.037-1.214l0.211-2.731
			c0.146,0.037,0.294,0.062,0.439,0.094c-2.173-0.48-4.121-1.497-5.722-2.898c0.097,0.084,0.186,0.177,0.282,0.258l-2.086,1.784
			c-0.471,0.403-1.188,0.349-1.594-0.125l-1.47-1.716c-0.4-0.471-0.344-1.188,0.125-1.592l2.089-1.785
			c0.063,0.106,0.137,0.206,0.202,0.313c-1.125-1.786-1.821-3.854-1.965-6.055c0.011,0.138,0.011,0.274,0.022,0.41l-2.735-0.214
			c-0.619-0.048-1.085-0.594-1.036-1.213l0.176-2.252c0.049-0.62,0.594-1.086,1.215-1.038l2.732,0.213
			c-0.039,0.149-0.063,0.304-0.099,0.456c0.483-2.199,1.517-4.17,2.942-5.783c-0.1,0.11-0.203,0.215-0.299,0.329l-1.783-2.087
			c-0.402-0.472-0.35-1.188,0.125-1.593l1.717-1.467c0.471-0.403,1.188-0.351,1.592,0.124l1.784,2.088
			c-0.126,0.075-0.244,0.161-0.367,0.237c1.819-1.158,3.933-1.874,6.187-2.007c-0.161,0.012-0.323,0.013-0.484,0.026l0.215-2.733
			c0.049-0.62,0.594-1.086,1.213-1.038l2.254,0.179c0.619,0.048,1.086,0.594,1.036,1.212l-0.214,2.732
			c-0.152-0.04-0.313-0.063-0.465-0.1c2.227,0.488,4.22,1.538,5.845,2.989c-0.126-0.113-0.247-0.233-0.378-0.342l2.084-1.784
			c0.475-0.404,1.189-0.35,1.594,0.125l1.467,1.716c0.404,0.472,0.349,1.188-0.125,1.593l-2.088,1.784
			c-0.059-0.101-0.127-0.193-0.188-0.291c1.109,1.767,1.8,3.807,1.951,5.979c-0.01-0.115-0.01-0.235-0.021-0.354l2.733,0.213
			c0.618,0.048,1.087,0.594,1.04,1.213L101.787,53.6z"/>
	</g>
	<g>
		<path fill="#FFFFFF" d="M122.391,21.166l-34.529-20C86.56,0.415,84.9,0.001,83.088,0.001c-1.68,0-3.235,0.368-4.492,1.017
			l31.798,18.418c3.248,1.875,5.607,6.122,5.607,10.098v40c0,3.976-2.357,8.223-5.604,10.098l-31.71,18.427
			c1.255,0.642,2.808,1.005,4.476,1.005c1.813,0,3.52-0.414,4.82-1.165l34.414-20c2.707-1.563,4.604-5.237,4.604-8.364v-40
			C127,26.406,125.099,22.73,122.391,21.166z"/>
	</g>
</g>
</svg>
