<?xml version="1.0" encoding="utf-8"?>
<!-- Generator: Adobe Illustrator 15.0.0, SVG Export Plug-In . SVG Version: 6.00 Build 0)  -->
<!DOCTYPE svg PUBLIC "-//W3C//DTD SVG 1.1//EN" "http://www.w3.org/Graphics/SVG/1.1/DTD/svg11.dtd">
<svg version="1.1" id="Layer_1" xmlns="http://www.w3.org/2000/svg" xmlns:xlink="http://www.w3.org/1999/xlink" x="0px" y="0px"
	 width="88.6px" height="99.063px" viewBox="0 0 88.6 99.063" enable-background="new 0 0 88.6 99.063" xml:space="preserve">
<g>
	<g>
		<g>
			<path fill="#FFFFFF" d="M44.301,99.063c-1.813,0-3.529-0.414-4.83-1.166l-34.641-20C2.122,76.333,0,72.658,0,69.531v-40
				c0-3.127,2.122-6.802,4.83-8.366l34.641-20C40.772,0.414,42.487,0,44.301,0s3.529,0.414,4.83,1.166l34.639,20
				c2.709,1.564,4.83,5.239,4.83,8.366v40c0,3.127-2.121,6.802-4.83,8.366l-34.639,20C47.83,98.648,46.114,99.063,44.301,99.063z
				 M44.301,2c-1.447,0-2.843,0.327-3.83,0.897l-34.641,20C3.754,24.096,2,27.134,2,29.531v40c0,2.397,1.754,5.435,3.83,6.634
				l34.641,20c1.975,1.141,5.686,1.14,7.66,0l34.639-20c2.076-1.199,3.83-4.237,3.83-6.634v-40c0-2.397-1.754-5.435-3.83-6.634
				l-34.639-20C47.144,2.327,45.748,2,44.301,2z"/>
		</g>
	</g>
	<g>
		<g>
			<path fill="#FFFFFF" d="M58.416,64.124c-7.143-0.559-12.495-6.82-11.937-13.959c0.559-7.139,6.819-12.494,13.959-11.936
				c7.14,0.558,12.493,6.82,11.938,13.958C71.816,59.328,65.553,64.682,58.416,64.124z M59.999,43.858
				c-4.036-0.315-7.575,2.711-7.89,6.746c-0.314,4.036,2.711,7.575,6.746,7.89c4.034,0.315,7.574-2.71,7.89-6.746
				C67.061,47.714,64.035,44.173,59.999,43.858z"/>
		</g>
		<g>
			<path fill="#FFFFFF" d="M46.856,47.928l-2.733-0.213c-0.621-0.049-1.166,0.418-1.215,1.038l-0.175,2.252
				c-0.049,0.619,0.417,1.166,1.036,1.213l2.735,0.214c-0.071-0.743-0.086-1.5-0.025-2.268
				C46.538,49.396,46.67,48.651,46.856,47.928z"/>
			<path fill="#FFFFFF" d="M52.837,39.995l-1.784-2.088c-0.402-0.472-1.121-0.527-1.592-0.124l-1.717,1.467
				c-0.473,0.404-0.527,1.121-0.125,1.593l1.785,2.087C50.37,41.76,51.533,40.766,52.837,39.995z"/>
			<path fill="#FFFFFF" d="M70.607,44.586l2.088-1.784c0.472-0.405,0.529-1.121,0.125-1.593l-1.467-1.716
				c-0.404-0.473-1.119-0.529-1.594-0.125l-2.084,1.785C68.842,42.119,69.838,43.282,70.607,44.586z"/>
			<path fill="#FFFFFF" d="M62.674,38.605l0.214-2.734c0.05-0.618-0.417-1.164-1.036-1.212l-2.254-0.177
				c-0.619-0.048-1.164,0.418-1.213,1.038l-0.215,2.733c0.746-0.072,1.5-0.084,2.269-0.024
				C61.207,38.289,61.953,38.419,62.674,38.605z"/>
			<path fill="#FFFFFF" d="M56.178,63.747l-0.211,2.733c-0.049,0.619,0.416,1.166,1.037,1.214l2.252,0.175
				c0.619,0.048,1.164-0.417,1.213-1.037l0.215-2.734c-0.743,0.072-1.498,0.085-2.268,0.025
				C57.647,64.063,56.9,63.933,56.178,63.747z"/>
			<path fill="#FFFFFF" d="M75.083,50.135l-2.733-0.213c0.07,0.741,0.086,1.5,0.027,2.267c-0.063,0.768-0.195,1.514-0.379,2.236
				l2.732,0.214c0.62,0.048,1.166-0.419,1.215-1.038l0.178-2.252C76.17,50.729,75.701,50.183,75.083,50.135z"/>
			<path fill="#FFFFFF" d="M66.018,62.358l1.785,2.088c0.404,0.472,1.12,0.528,1.59,0.125l1.718-1.467
				c0.474-0.404,0.526-1.12,0.121-1.592l-1.784-2.086C68.484,60.593,67.318,61.586,66.018,62.358z"/>
			<path fill="#FFFFFF" d="M48.244,57.765l-2.088,1.785c-0.469,0.404-0.526,1.121-0.124,1.592l1.468,1.716
				c0.404,0.472,1.123,0.528,1.594,0.125l2.086-1.786C50.012,60.234,49.018,59.072,48.244,57.765z"/>
		</g>
		<g>
			<path fill="#FFFFFF" d="M34.736,71.47c-5.985,2.118-12.576-1.027-14.697-7.011c-2.117-5.985,1.029-12.577,7.014-14.697
				c5.983-2.119,12.578,1.026,14.695,7.01C43.867,62.757,40.724,69.35,34.736,71.47z M28.723,54.481
				c-3.383,1.197-5.16,4.924-3.963,8.307c1.197,3.382,4.924,5.161,8.307,3.963c3.383-1.198,5.16-4.925,3.965-8.308
				C35.832,55.062,32.107,53.283,28.723,54.481z"/>
		</g>
		<g>
			<path fill="#FFFFFF" d="M19.541,62.512l-2.294,0.812c-0.517,0.184-0.792,0.757-0.607,1.276l0.667,1.889
				c0.184,0.519,0.758,0.793,1.281,0.609l2.291-0.812c-0.326-0.575-0.609-1.184-0.84-1.827
				C19.813,63.814,19.649,63.163,19.541,62.512z"/>
			<path fill="#FFFFFF" d="M21.529,53.931l-2.196-1.05c-0.498-0.238-1.099-0.024-1.336,0.474l-0.862,1.807
				c-0.238,0.497-0.025,1.098,0.474,1.335l2.198,1.048C20.165,56.249,20.75,55.024,21.529,53.931z"/>
			<path fill="#FFFFFF" d="M37.581,51.251l1.046-2.198c0.238-0.498,0.027-1.098-0.471-1.335l-1.807-0.862
				c-0.496-0.238-1.101-0.025-1.334,0.472l-1.047,2.198C35.262,49.887,36.484,50.471,37.581,51.251z"/>
			<path fill="#FFFFFF" d="M28.998,49.262l-0.811-2.292c-0.184-0.52-0.758-0.793-1.279-0.609l-1.887,0.667
				c-0.52,0.184-0.795,0.758-0.609,1.277l0.811,2.292c0.578-0.326,1.184-0.608,1.83-0.836C27.695,49.534,28.348,49.37,28.998,49.262
				z"/>
			<path fill="#FFFFFF" d="M32.79,71.971l0.811,2.29c0.186,0.521,0.761,0.794,1.28,0.61l1.889-0.668
				c0.518-0.184,0.791-0.759,0.607-1.277l-0.811-2.292c-0.577,0.326-1.184,0.608-1.83,0.837
				C34.094,71.698,33.443,71.86,32.79,71.971z"/>
			<path fill="#FFFFFF" d="M43.203,54.133l-2.29,0.812c0.325,0.576,0.607,1.184,0.835,1.828c0.23,0.644,0.392,1.296,0.5,1.947
				l2.293-0.811c0.518-0.184,0.793-0.759,0.609-1.278l-0.67-1.887C44.298,54.224,43.723,53.95,43.203,54.133z"/>
			<path fill="#FFFFFF" d="M40.261,67.301l2.198,1.049c0.495,0.237,1.097,0.024,1.332-0.473l0.863-1.806
				c0.237-0.497,0.025-1.098-0.473-1.335l-2.197-1.049C41.623,64.983,41.038,66.207,40.261,67.301z"/>
			<path fill="#FFFFFF" d="M24.209,69.981l-1.049,2.198c-0.237,0.497-0.025,1.098,0.471,1.335l1.81,0.861
				c0.497,0.237,1.099,0.024,1.334-0.473l1.048-2.198C26.527,71.344,25.305,70.761,24.209,69.981z"/>
		</g>
		<g>
			<path fill="#FFFFFF" d="M41.434,41.815c-4.472,3.034-10.594,1.847-13.638-2.645c-3.048-4.492-1.893-10.615,2.579-13.648
				c4.475-3.034,10.592-1.848,13.641,2.644S45.908,38.782,41.434,41.815z M32.78,29.064c-2.528,1.715-3.185,5.176-1.46,7.714
				c1.724,2.54,5.183,3.21,7.711,1.495c2.528-1.714,3.182-5.176,1.459-7.714C38.767,28.021,35.309,27.349,32.78,29.064z"/>
		</g>
		<g>
			<path fill="#FFFFFF" d="M26.957,37.668l-1.709,1.162c-0.39,0.263-0.492,0.797-0.227,1.187l0.963,1.417
				c0.264,0.39,0.797,0.493,1.184,0.229l1.715-1.161c-0.395-0.405-0.759-0.847-1.087-1.331
				C27.467,38.688,27.191,38.184,26.957,37.668z"/>
			<path fill="#FFFFFF" d="M26.73,30.151l-2.039-0.397c-0.462-0.089-0.908,0.215-1,0.678l-0.314,1.678
				c-0.088,0.462,0.219,0.912,0.678,1.002l2.042,0.395C26.111,32.36,26.326,31.222,26.73,30.151z"/>
			<path fill="#FFFFFF" d="M39.379,24.495l0.386-2.041c0.089-0.461-0.219-0.911-0.68-1.001l-1.678-0.324
				c-0.462-0.09-0.909,0.215-0.997,0.676l-0.387,2.042C37.169,23.866,38.307,24.086,39.379,24.495z"/>
			<path fill="#FFFFFF" d="M31.873,24.691l-1.168-1.719c-0.266-0.391-0.797-0.494-1.187-0.23l-1.41,0.956
				c-0.389,0.264-0.489,0.797-0.226,1.188l1.168,1.72c0.404-0.393,0.846-0.756,1.324-1.082
				C30.857,25.195,31.358,24.921,31.873,24.691z"/>
			<path fill="#FFFFFF" d="M39.941,42.646l1.164,1.72c0.264,0.39,0.799,0.494,1.188,0.23l1.409-0.956
				c0.389-0.263,0.489-0.797,0.224-1.188l-1.165-1.721c-0.404,0.393-0.845,0.757-1.327,1.083
				C40.955,42.141,40.451,42.417,39.941,42.646z"/>
			<path fill="#FFFFFF" d="M44.643,25.673l-1.712,1.162c0.39,0.406,0.758,0.848,1.085,1.332c0.33,0.483,0.602,0.987,0.836,1.501
				l1.712-1.161c0.389-0.263,0.49-0.797,0.226-1.187l-0.961-1.417C45.564,25.514,45.029,25.411,44.643,25.673z"/>
			<path fill="#FFFFFF" d="M45.08,37.188l2.04,0.396c0.463,0.09,0.909-0.216,0.997-0.676l0.316-1.678
				c0.09-0.461-0.218-0.912-0.68-1.002l-2.04-0.396C45.699,34.979,45.483,36.117,45.08,37.188z"/>
			<path fill="#FFFFFF" d="M32.432,42.842l-0.389,2.042c-0.086,0.461,0.223,0.912,0.684,1.002l1.678,0.324
				c0.459,0.09,0.909-0.215,0.998-0.676l0.384-2.042C34.643,43.471,33.504,43.251,32.432,42.842z"/>
		</g>
	</g>
</g>
</svg>
