<?xml version="1.0" encoding="utf-8"?>
<!-- Generator: Adobe Illustrator 15.0.0, SVG Export Plug-In . SVG Version: 6.00 Build 0)  -->
<!DOCTYPE svg PUBLIC "-//W3C//DTD SVG 1.1//EN" "http://www.w3.org/Graphics/SVG/1.1/DTD/svg11.dtd">
<svg version="1.1" id="Layer_1" xmlns="http://www.w3.org/2000/svg" xmlns:xlink="http://www.w3.org/1999/xlink" x="0px" y="0px"
	 width="88.6px" height="99.063px" viewBox="0 0 88.6 99.063" enable-background="new 0 0 88.6 99.063" xml:space="preserve">
<g>
	<g>
		<path fill="#FFFFFF" d="M44.3,99.063c-1.813,0-3.529-0.414-4.83-1.165l-34.64-20C2.122,76.333,0,72.659,0,69.531v-40
			c0-3.127,2.122-6.802,4.83-8.365l34.64-20C40.771,0.414,42.486,0,44.3,0c1.813,0,3.529,0.414,4.83,1.165l34.64,20
			c2.708,1.563,4.83,5.238,4.83,8.365v40c0,3.128-2.122,6.803-4.83,8.366l-34.64,20C47.829,98.648,46.113,99.063,44.3,99.063z
			 M44.3,2c-1.446,0-2.842,0.327-3.83,0.896l-34.64,20C3.754,24.096,2,27.134,2,29.531v40c0,2.397,1.754,5.436,3.83,6.635l34.64,20
			c1.976,1.141,5.685,1.141,7.66,0l34.64-20c2.076-1.198,3.83-4.236,3.83-6.635v-40c0-2.396-1.754-5.436-3.83-6.634l-34.64-20
			C47.142,2.327,45.746,2,44.3,2z"/>
	</g>
	<g>
		<g>
			<rect x="44.479" y="45.434" fill="#FFFFFF" width="9.385" height="1.853"/>
			<rect x="44.479" y="49.269" fill="#FFFFFF" width="12.687" height="1.852"/>
			<rect x="44.479" y="53.103" fill="#FFFFFF" width="12.687" height="1.851"/>
			<path fill="#FFFFFF" d="M64.273,32.014H49.544l-0.207-3.998c0-2.03-1.408-3.683-3.143-3.683h-3.792
				c-1.73,0-3.139,1.651-3.139,3.641l-0.207,4.04H24.324c-1.831,0-3.319,1.473-3.319,3.284V49.31v12.085v2.051
				c0,1.813,1.488,3.284,3.319,3.284l39.948-0.001c1.832,0,3.321-1.473,3.321-3.282v-2.053V49.309V35.297
				C67.595,33.485,66.105,32.014,64.273,32.014z M37.916,40.617h12.767c0.229,0,0.415-0.186,0.415-0.413v-1.639h8.613
				c0.689,0,1.252,0.553,1.252,1.229v17.102c0,0.679-0.563,1.229-1.252,1.229l-30.825,0.001c-0.689,0-1.252-0.553-1.252-1.229
				V39.796c0-0.677,0.563-1.229,1.252-1.229h8.617v1.64C37.503,40.434,37.688,40.617,37.916,40.617z M38.655,39.793h-0.325v-1.64
				v-1.313l0.479-0.001L38.655,39.793z M50.269,38.154v1.639h-0.323l-0.15-2.951h0.475L50.269,38.154L50.269,38.154z M42.403,25.979
				h3.792c0.812,0,1.493,0.934,1.493,2.08l0.604,11.733l-7.985,0.001l0.607-11.776C40.915,26.911,41.597,25.979,42.403,25.979z
				 M22.653,35.298c0-0.903,0.75-1.64,1.672-1.64h14.647l-0.122,2.356h-0.935c-0.229,0-0.414,0.187-0.414,0.413v1.313h-8.616
				c-1.146,0-2.076,0.921-2.076,2.053v17.102c0,1.134,0.933,2.055,2.076,2.055l30.825-0.001c1.146,0,2.077-0.921,2.077-2.054V39.795
				c0-1.133-0.932-2.053-2.077-2.053h-8.613v-1.313c0-0.227-0.187-0.412-0.415-0.412h-0.934l-0.121-2.357h14.646
				c0.922,0,1.673,0.734,1.673,1.639v26.098c0,0.903-0.751,1.64-1.673,1.64l-39.948,0.001c-0.922,0-1.672-0.735-1.672-1.64V35.298
				L22.653,35.298z M64.273,65.085H24.324c-0.569,0-1.073-0.282-1.375-0.71c0.42,0.188,0.883,0.303,1.375,0.303l39.948-0.001
				c0.491,0,0.956-0.112,1.376-0.304C65.349,64.802,64.845,65.085,64.273,65.085z"/>
			<path fill="#FFFFFF" d="M44.3,32.332c1.374,0,2.494-1.105,2.494-2.465c0-1.358-1.12-2.465-2.494-2.465
				c-1.375,0-2.496,1.105-2.496,2.465S42.925,32.333,44.3,32.332z M44.3,28.229c0.918,0,1.666,0.735,1.666,1.64
				c0,0.903-0.748,1.64-1.666,1.64c-0.921,0-1.668-0.735-1.668-1.64S43.381,28.229,44.3,28.229z"/>
		</g>
		<ellipse fill="#FFFFFF" cx="35.142" cy="46.287" rx="3.992" ry="4.209"/>
		<path fill="#FFFFFF" d="M29.782,56.816c0.467-3.104,1.762-5.713,5.358-5.713c3.596,0,4.894,2.609,5.358,5.712L29.782,56.816z"/>
	</g>
</g>
</svg>
