<?xml version="1.0" encoding="utf-8"?>
<!-- Generator: Adobe Illustrator 15.0.0, SVG Export Plug-In . SVG Version: 6.00 Build 0)  -->
<!DOCTYPE svg PUBLIC "-//W3C//DTD SVG 1.1//EN" "http://www.w3.org/Graphics/SVG/1.1/DTD/svg11.dtd">
<svg version="1.1" id="Layer_1" xmlns="http://www.w3.org/2000/svg" xmlns:xlink="http://www.w3.org/1999/xlink" x="0px" y="0px"
	 width="88.6px" height="99.063px" viewBox="0 0 88.6 99.063" enable-background="new 0 0 88.6 99.063" xml:space="preserve">
<g>
	<polygon fill="#FFFFFF" points="50.158,38.154 50.158,36.393 49.794,36.393 49.945,39.393 50.158,39.393 	"/>
	<path fill="#FFFFFF" d="M37.158,40.205v-1.813h-8.272c-0.689,0-1.728,0.727-1.728,1.403v17.102c0,0.677,1.038,1.495,1.728,1.495
		h30.825c0.69,0,1.447-0.818,1.447-1.496V39.795c0-0.677-0.757-1.402-1.447-1.402h-8.553v1.812c0,0.229-0.247,0.188-0.476,0.188
		H37.916C37.688,40.393,37.158,40.434,37.158,40.205z M44.158,45.393h10v2h-10V45.393z M44.158,49.393h13v2h-13V49.393z
		 M44.158,53.393h13v2h-13V53.393z M29.782,56.393c0.467-3,1.762-5.712,5.359-5.712c3.596,0,4.893,2.712,5.358,5.712H29.782z
		 M39.134,46.287c0,2.325-1.787,4.209-3.992,4.209s-3.992-1.884-3.992-4.209c0-2.324,1.787-4.209,3.992-4.209
		S39.134,43.962,39.134,46.287z"/>
	<path fill="#FFFFFF" d="M44.3,28.229c-0.919,0-1.668,0.735-1.668,1.639c0,0.904,0.747,1.64,1.668,1.64
		c0.918,0,1.666-0.735,1.666-1.64C45.966,28.964,45.218,28.229,44.3,28.229z"/>
	<path fill="#FFFFFF" d="M47.688,28.066c0-1.147-0.683-1.673-1.493-1.673h-3.792c-0.807,0-1.488,0.525-1.488,1.631l-0.607,11.369
		h7.985L47.688,28.066z M44.3,32.332c-1.375,0.001-2.496-1.105-2.496-2.465c0-1.358,1.121-2.464,2.496-2.464
		c1.374,0,2.494,1.105,2.494,2.464C46.794,31.227,45.674,32.332,44.3,32.332z"/>
	<polygon fill="#FFFFFF" points="38.158,36.393 38.158,38.154 38.158,39.393 38.655,39.393 38.808,36.393 	"/>
	<path fill="#FFFFFF" d="M83.549,21.165l-34.529-20C47.718,0.414,46.058,0,44.245,0s-3.501,0.414-4.802,1.165l-34.547,20
		c-2.708,1.564-4.737,5.239-4.737,8.366v40c0,3.127,2.042,6.802,4.751,8.366l34.6,20c1.301,0.751,2.997,1.165,4.81,1.165
		s3.519-0.414,4.82-1.165l34.414-20c2.708-1.564,4.604-5.239,4.604-8.366v-40C88.158,26.404,86.257,22.729,83.549,21.165z
		 M67.158,49.309v12.085v2.053c0,1.81-1.053,2.946-2.885,2.946H24.324c-1.831,0-3.166-1.136-3.166-2.947v-2.051V49.31V35.298
		c0-1.812,1.335-2.905,3.166-2.905h14.733l0.207-4.2c0-1.988,1.407-3.8,3.139-3.8h3.792c1.733,0,3.142,1.812,3.142,3.842
		l0.207,4.158h14.729c1.832,0,2.885,1.093,2.885,2.904V49.309z"/>
	<path fill="#FFFFFF" d="M24.324,64.393c-0.492,0-0.955,0.183-1.375-0.006c0.302,0.428,0.806,1.006,1.375,1.006h39.949
		c0.571,0,1.075-0.579,1.376-1.008c-0.42,0.191-0.885,0.008-1.376,0.008H24.324z"/>
	<path fill="#FFFFFF" d="M64.273,33.393H49.628l0.121,3h0.934c0.229,0,0.476-0.19,0.476,0.036v0.964h8.553
		c1.146,0,2.447,1.27,2.447,2.402v17.102c0,1.133-1.301,2.496-2.447,2.496H28.886c-1.145,0-2.728-1.362-2.728-2.496V39.795
		c0-1.132,1.583-2.402,2.728-2.402h8.272v-0.964c0-0.228,0.529-0.036,0.758-0.036h0.935l0.122-3H24.324
		c-0.921,0-2.166,1.002-2.166,1.905v26.098c0,0.903,1.245,1.997,2.166,1.997h39.949c0.922,0,1.885-1.095,1.885-1.998V35.297
		C66.158,34.394,65.195,33.393,64.273,33.393z"/>
</g>
</svg>
