<?xml version="1.0" encoding="utf-8"?>
<!-- Generator: Adobe Illustrator 16.0.0, SVG Export Plug-In . SVG Version: 6.00 Build 0)  -->
<!DOCTYPE svg PUBLIC "-//W3C//DTD SVG 1.1//EN" "http://www.w3.org/Graphics/SVG/1.1/DTD/svg11.dtd">
<svg version="1.1" id="Layer_1" xmlns="http://www.w3.org/2000/svg" xmlns:xlink="http://www.w3.org/1999/xlink" x="0px" y="0px"
	 width="75px" height="85px" viewBox="0 0 75 85" enable-background="new 0 0 75 85" xml:space="preserve">
<g>
	<path fill="#FFFFFF" d="M70.733,19.572L42.662,3.365c-2.383-1.375-6.279-1.375-8.66,0L5.936,19.571
		c-2.381,1.375-4.33,4.751-4.33,7.501V59.48c0,2.75,1.949,6.125,4.33,7.5l28.07,16.207c2.381,1.375,6.277,1.375,8.66,0
		l28.066-16.205c2.381-1.375,4.33-4.75,4.33-7.5v-32.41h0.001C75.063,24.322,73.114,20.947,70.733,19.572z M57.732,61.137
		c0,2.849-2.308,5.156-5.153,5.156H23.937c-2.848,0-5.157-2.308-5.157-5.156V28.17c0-2.85,2.309-5.159,5.157-5.159h3.5v-2.163
		c0-1.194,0.968-2.166,2.164-2.166c1.194,0,2.163,0.971,2.163,2.166v2.163h4.328v-2.163c0-1.194,0.969-2.166,2.164-2.166
		c1.194,0,2.165,0.971,2.165,2.166v2.163h4.328v-2.163c0-1.194,0.97-2.166,2.164-2.166c1.195,0,2.164,0.971,2.164,2.166v2.163h3.501
		c2.846,0,5.153,2.31,5.153,5.159V61.137z"/>
	<path fill="#FFFFFF" d="M51.727,27.34h-2.648v2.165c0,1.195-0.969,2.163-2.164,2.163c-1.193,0-2.164-0.968-2.164-2.163V27.34
		h-4.328v2.165c0,1.195-0.971,2.163-2.164,2.163c-1.196,0-2.165-0.968-2.165-2.163V27.34h-4.329v2.165
		c0,1.195-0.969,2.163-2.163,2.163c-1.196,0-2.164-0.968-2.164-2.163V27.34h-2.646c-0.927,0-1.682,0.756-1.682,1.681v31.262
		c0,0.929,0.754,1.682,1.682,1.682h26.935c0.928,0,1.681-0.753,1.681-1.682V29.021C53.407,28.096,52.654,27.34,51.727,27.34z
		 M49.078,57.637h-21.64v-4.328h21.64V57.637z M49.078,48.98h-21.64v-4.328h21.64V48.98z M49.078,40.324h-21.64v-4.329h21.64V40.324
		z"/>
</g>
</svg>
