<?xml version="1.0" encoding="utf-8"?>
<!-- Generator: Adobe Illustrator 16.0.0, SVG Export Plug-In . SVG Version: 6.00 Build 0)  -->
<!DOCTYPE svg PUBLIC "-//W3C//DTD SVG 1.1//EN" "http://www.w3.org/Graphics/SVG/1.1/DTD/svg11.dtd">
<svg version="1.1" id="Layer_1" xmlns="http://www.w3.org/2000/svg" xmlns:xlink="http://www.w3.org/1999/xlink" x="0px" y="0px"
	 width="75px" height="85px" viewBox="0 0 75 85" enable-background="new 0 0 75 85" xml:space="preserve">
<polygon fill="#FFFFFF" points="34.338,39.497 26.877,48.456 32.849,48.456 34.338,48.456 47.771,48.456 47.771,43.972 
	34.338,43.972 "/>
<path fill="#FFFFFF" d="M69.733,18.609L41.662,2.402c-2.383-1.375-6.279-1.375-8.66,0L4.936,18.608
	c-2.381,1.375-4.33,4.751-4.33,7.501v32.408c0,2.75,1.949,6.125,4.33,7.5l28.07,16.207c2.381,1.375,6.277,1.375,8.66,0L69.732,66.02
	c2.381-1.375,4.33-4.75,4.33-7.5v-32.41h0.001C74.063,23.359,72.114,19.984,69.733,18.609z M27.753,18.731
	c0.541-0.101,3.301-0.479,4.041-0.34c0.879,0.14,1.68,0.581,2.5,0.88c1,0.36,2.2,0.48,3.261,0.54c1.221,0.08,2.459-0.26,3.561-0.64
	c0.801-0.261,1.559-0.66,2.379-0.82c0.941-0.201,3.24,0.38,3.68,0.46c0.642,0.12,1.221,0.32,1.441,0.94
	c0.32,0.88-0.5,2.02-0.922,2.699c-0.898,1.46-1.959,2.82-2.917,4.241l-1.161,1.64H30.853l-1.16-1.64
	C26.692,22.331,23.853,19.392,27.753,18.731z M50.951,66.316H23.59c-7.501,0-11.442-7.36-8.162-14.843
	c3.28-7.479,9.201-15.621,15.401-19.541h12.884c6.199,3.92,12.118,12.062,15.399,19.541C62.395,58.956,58.452,66.316,50.951,66.316z
	"/>
<polygon fill="#FFFFFF" points="40.311,52.598 26.877,52.598 26.877,57.08 40.311,57.08 40.311,61.554 47.771,52.598 41.8,52.598 
	"/>
</svg>
