<?xml version="1.0" encoding="utf-8"?>
<!-- Generator: Adobe Illustrator 16.0.0, SVG Export Plug-In . SVG Version: 6.00 Build 0)  -->
<!DOCTYPE svg PUBLIC "-//W3C//DTD SVG 1.1//EN" "http://www.w3.org/Graphics/SVG/1.1/DTD/svg11.dtd">
<svg version="1.1" id="Layer_1" xmlns="http://www.w3.org/2000/svg" xmlns:xlink="http://www.w3.org/1999/xlink" x="0px" y="0px"
	 width="75px" height="85px" viewBox="0 0 75 85" enable-background="new 0 0 75 85" xml:space="preserve">
<path fill="#FFFFFF" d="M69.734,18.572L41.662,2.365c-2.383-1.375-6.279-1.375-8.66,0L4.935,18.571c-2.381,1.375-4.33,4.75-4.33,7.5
	V58.48c0,2.75,1.949,6.125,4.33,7.5l28.071,16.207c2.381,1.375,6.277,1.375,8.66,0l28.066-16.205c2.381-1.375,4.33-4.75,4.33-7.5
	V26.072h0.002C74.064,23.322,72.115,19.947,69.734,18.572z M59.378,48.988l-6.457-6.462c0,0,3.627,0,3.938,0
	c-0.03-7.348-4.119-13.738-10.143-17.044c2.517,4.223,4.098,10.328,4.098,17.119c0,6.808-1.589,12.925-4.117,17.15
	c4.071-2.229,7.262-5.867,8.916-10.258l3.756,3.76c-3.978,8.15-12.345,13.768-22.025,13.768c-13.528,0-24.494-10.966-24.494-24.494
	v0H8.828l6.464-6.462l6.459,6.462c0,0-3.648-0.001-3.943,0c0,0.028-0.002,0.056-0.002,0.084c0,7.486,4.211,13.985,10.394,17.263
	c-2.571-4.229-4.192-10.399-4.192-17.273c0-6.859,1.613-13.017,4.172-17.244c-4.133,2.198-7.382,5.837-9.079,10.248l-3.79-3.792
	c3.975-8.158,12.346-13.78,22.031-13.78c13.528,0,24.494,10.966,24.494,24.494h4.004L59.378,48.988z"/>
<path fill="#FFFFFF" d="M35.153,61.91V51.051v-0.01h-5.737C30.543,55.729,32.586,59.576,35.153,61.91z"/>
<path fill="#FFFFFF" d="M28.447,42.629c0,1.378,0.074,2.726,0.214,4.033l0,0h6.492v-8.063V38.59h-6.491
	C28.521,39.898,28.447,41.249,28.447,42.629z"/>
<path fill="#FFFFFF" d="M39.534,38.589v0.008v8.063h6.627c0.141-1.308,0.215-2.655,0.215-4.033c0-1.38-0.074-2.73-0.216-4.039
	H39.534z"/>
<path fill="#FFFFFF" d="M39.534,23.229V34.21h5.873C44.258,29.444,42.162,25.546,39.534,23.229z"/>
<path fill="#FFFFFF" d="M35.153,34.21V23.349c-2.565,2.332-4.608,6.178-5.736,10.861H35.153z"/>
<path fill="#FFFFFF" d="M39.534,51.051v10.964c0.007-0.001,0.014-0.001,0.02-0.003c2.623-2.32,4.708-6.215,5.854-10.971h-5.874
	V51.051z"/>
</svg>
