<?xml version="1.0" encoding="utf-8"?>
<!-- Generator: Adobe Illustrator 16.0.0, SVG Export Plug-In . SVG Version: 6.00 Build 0)  -->
<!DOCTYPE svg PUBLIC "-//W3C//DTD SVG 1.1//EN" "http://www.w3.org/Graphics/SVG/1.1/DTD/svg11.dtd">
<svg version="1.1" id="Layer_1" xmlns="http://www.w3.org/2000/svg" xmlns:xlink="http://www.w3.org/1999/xlink" x="0px" y="0px"
	 width="75px" height="85px" viewBox="0 0 75 85" enable-background="new 0 0 75 85" xml:space="preserve">
<path fill="#FFFFFF" d="M69.566,18.572L41.496,2.365c-2.383-1.375-6.279-1.375-8.66,0L4.77,18.572c-2.381,1.375-4.33,4.75-4.33,7.5
	V58.48c0,2.75,1.949,6.125,4.33,7.5l28.07,16.207c2.381,1.375,6.277,1.375,8.66,0l28.066-16.205c2.381-1.375,4.33-4.75,4.33-7.5
	v-32.41C73.896,23.322,71.947,19.947,69.566,18.572z M56.346,61.318H20.128v1.163c0,0.622-0.507,1.128-1.129,1.128
	c-0.621,0-1.127-0.506-1.127-1.128v-1.163h-1.163c-0.622,0-1.129-0.506-1.129-1.128s0.507-1.128,1.129-1.128h1.163v-36.22
	c0-0.622,0.506-1.128,1.127-1.128c0.622,0,1.129,0.506,1.129,1.128v30.364l4.581-11.936c0.228-0.6,0.793-1.023,1.441-1.078
	l0.131-0.005c0.598,0,1.158,0.321,1.464,0.839l3.812,6.597l5.945-11.829c0.279-0.554,0.837-0.91,1.455-0.929
	c0.001,0,0.001,0,0.002,0c0.657,0,1.205,0.312,1.511,0.835l2.396,4.093l3.044-6.745l-1.511-0.627
	c-0.509-0.209-0.884-0.654-1.001-1.19c-0.121-0.529,0.025-1.091,0.393-1.498l7.417-8.233c0.32-0.354,0.777-0.557,1.255-0.557
	c0.223,0,0.44,0.043,0.646,0.129c0.659,0.27,1.077,0.931,1.041,1.645l-0.573,11.065c-0.031,0.548-0.324,1.049-0.784,1.342
	c-0.279,0.172-0.589,0.262-0.903,0.262c-0.222,0-0.439-0.044-0.647-0.131l-2.207-0.915l-4.432,9.821
	c-0.263,0.579-0.818,0.959-1.451,0.991c-0.003,0-0.007,0-0.01,0c-0.691,0-1.229-0.312-1.535-0.831l-2.48-4.234L33.17,51.936
	c-0.281,0.556-0.841,0.911-1.46,0.929c-0.001,0-0.002,0-0.003,0c-0.659,0-1.204-0.315-1.508-0.844l-3.606-6.235l-5.095,13.277
	h34.847c0.622,0,1.128,0.506,1.128,1.128S56.967,61.318,56.346,61.318z"/>
</svg>
