<?xml version="1.0" encoding="utf-8"?>
<!-- Generator: Adobe Illustrator 16.0.0, SVG Export Plug-In . SVG Version: 6.00 Build 0)  -->
<!DOCTYPE svg PUBLIC "-//W3C//DTD SVG 1.1//EN" "http://www.w3.org/Graphics/SVG/1.1/DTD/svg11.dtd">
<svg version="1.1" id="Layer_1" xmlns="http://www.w3.org/2000/svg" xmlns:xlink="http://www.w3.org/1999/xlink" x="0px" y="0px"
	 width="75px" height="85px" viewBox="0 0 75 85" enable-background="new 0 0 75 85" xml:space="preserve">
<path fill="#FFFFFF" d="M70.67,19.572L42.599,3.365c-2.383-1.375-6.279-1.375-8.66,0L5.872,19.571
	c-2.381,1.375-4.33,4.751-4.33,7.501V59.48c0,2.75,1.949,6.125,4.33,7.5l28.07,16.207c2.381,1.375,6.277,1.375,8.66,0l28.066-16.205
	c2.381-1.375,4.33-4.75,4.33-7.5v-32.41H75C75,24.322,73.051,20.947,70.67,19.572z M52.218,19.914c2.293,0,4.15,1.858,4.15,4.151
	c0,2.292-1.857,4.149-4.15,4.149c-2.291,0-4.149-1.857-4.149-4.149C48.068,21.772,49.927,19.914,52.218,19.914z M32.885,25.333
	l3.893-3.577c0.14-0.129,0.342-0.162,0.516-0.089c0.174,0.074,0.289,0.244,0.292,0.435l0.027,1.353c0,0,3.542,0.563,5.507,3.729
	c0.898,1.455,0.975,3.065,0.789,4.382c-0.048,0.345-0.316,0.62-0.661,0.675s-0.685-0.123-0.837-0.436
	c-0.217-0.441-0.5-0.9-0.863-1.338c-1.445-1.727-3.807-0.696-3.807-0.696l0.031,1.566c0.004,0.199-0.113,0.381-0.297,0.455
	c-0.184,0.076-0.395,0.033-0.533-0.111l-4.123-4.305c-0.266-0.278-0.409-0.651-0.396-1.034
	C32.436,25.956,32.603,25.594,32.885,25.333z M25.269,19.914c2.293,0,4.151,1.858,4.151,4.151c0,2.292-1.858,4.149-4.151,4.149
	c-2.292,0-4.149-1.857-4.149-4.149C21.12,21.772,22.978,19.914,25.269,19.914z M25.141,39.649c-0.06-0.041-0.117-0.085-0.174-0.127
	c-0.178,1.42-0.301,3.143-0.301,5.185c0,0.522-0.108,1.026-0.304,1.477l-0.997,16.028c-0.076,1.24-1.144,2.182-2.382,2.104
	c-1.158-0.072-2.057-1.021-2.107-2.153l-0.61-14.825c-0.671-0.679-1.084-1.608-1.084-2.631c0-8.643,1.925-12.938,2.145-13.398
	c0.887-1.866,3.12-2.657,4.987-1.769c1.672,0.796,2.48,2.669,1.994,4.393c0.266,0.765,0.706,1.56,1.418,2.047
	c1.568,1.076,4.129,0.503,6.006-0.171c1.166-0.418,2.452,0.189,2.87,1.356c0.419,1.168-0.187,2.452-1.354,2.869
	c-1.929,0.691-3.69,1.038-5.275,1.038C28.116,41.071,26.5,40.598,25.141,39.649z M43.53,53.32l-3.896,3.576
	c-0.139,0.13-0.342,0.165-0.516,0.088c-0.174-0.074-0.287-0.244-0.293-0.434l-0.027-1.354c0,0-3.54-0.562-5.504-3.729
	c-0.902-1.454-0.975-3.067-0.791-4.381c0.048-0.348,0.315-0.62,0.66-0.676s0.685,0.119,0.838,0.437
	c0.216,0.438,0.499,0.9,0.864,1.338c1.444,1.723,3.805,0.697,3.805,0.697l-0.032-1.567c-0.003-0.201,0.115-0.38,0.299-0.456
	c0.182-0.081,0.393-0.034,0.529,0.111l4.129,4.309c0.264,0.275,0.408,0.652,0.396,1.033C43.978,52.699,43.813,53.06,43.53,53.32z
	 M59.224,47.338l-0.609,14.826c-0.051,1.134-0.949,2.081-2.107,2.153c-1.24,0.074-2.307-0.864-2.382-2.104l-0.997-16.028
	c-0.195-0.451-0.305-0.952-0.305-1.478c0-2.043-0.125-3.762-0.3-5.184c-0.058,0.042-0.116,0.086-0.174,0.127
	c-1.362,0.948-2.979,1.422-4.835,1.422c-1.586,0-3.346-0.347-5.275-1.038c-1.166-0.418-1.773-1.702-1.355-2.87
	c0.418-1.167,1.703-1.774,2.872-1.356c1.874,0.674,4.437,1.248,6.003,0.171c0.715-0.487,1.155-1.282,1.422-2.047
	c-0.488-1.724,0.32-3.597,1.992-4.393c1.866-0.89,4.098-0.098,4.986,1.769c0.22,0.461,2.145,4.756,2.147,13.398
	C60.307,45.733,59.892,46.662,59.224,47.338z"/>
</svg>
