<?xml version="1.0" encoding="utf-8"?>
<!-- Generator: Adobe Illustrator 16.0.0, SVG Export Plug-In . SVG Version: 6.00 Build 0)  -->
<!DOCTYPE svg PUBLIC "-//W3C//DTD SVG 1.1//EN" "http://www.w3.org/Graphics/SVG/1.1/DTD/svg11.dtd">
<svg version="1.1" id="Layer_1" xmlns="http://www.w3.org/2000/svg" xmlns:xlink="http://www.w3.org/1999/xlink" x="0px" y="0px"
	 width="75px" height="85px" viewBox="0 0 75 85" enable-background="new 0 0 75 85" xml:space="preserve">
<path fill="#FFFFFF" d="M70.233,18.572L42.162,2.365c-2.383-1.375-6.279-1.375-8.66,0L5.436,18.571c-2.381,1.375-4.33,4.75-4.33,7.5
	V58.48c0,2.75,1.949,6.125,4.33,7.5l28.07,16.207c2.381,1.375,6.277,1.375,8.66,0l28.066-16.205c2.381-1.375,4.33-4.75,4.33-7.5
	V26.072h0.001C74.563,23.322,72.614,19.947,70.233,18.572z M63.124,35.916c0,0-0.017,0.168-0.024,0.229
	c-0.021,0.163-0.053,0.311-0.1,0.453L62.969,36.7c-0.075,0.198-0.158,0.361-0.256,0.508L39.981,69.035v0.146l-0.237,0.18
	c-0.113,0.143-0.244,0.271-0.397,0.393l-0.134,0.095c-0.177,0.118-0.333,0.2-0.49,0.261c-0.073,0.029-0.121,0.048-0.172,0.064
	c-0.273,0.08-0.494,0.115-0.716,0.115c-0.222,0-0.443-0.035-0.695-0.109l-0.153-0.055c-0.196-0.076-0.348-0.156-0.502-0.259
	c-0.07-0.046-0.112-0.073-0.153-0.104c-0.2-0.161-0.352-0.318-0.476-0.492L12.934,37.183l-0.009-0.025
	c-0.093-0.148-0.171-0.312-0.233-0.488l-0.045-0.14c-0.055-0.19-0.086-0.384-0.095-0.574l-0.008-0.059l0.001-0.038
	c0-0.193,0.027-0.387,0.084-0.609l0.035-0.117c0.067-0.208,0.142-0.376,0.232-0.528l0.059-0.096l9.186-13.779l0.039-0.041
	c0.089-0.118,0.174-0.213,0.268-0.302c0.186-0.174,0.335-0.279,0.497-0.368l0.141-0.067c0.114-0.056,0.188-0.089,0.267-0.116
	l0.06-0.02c0,0,0.172-0.037,0.237-0.05c0.112-0.023,0.236-0.039,0.359-0.045l0.066-0.011l29.847,0.001l0.041,0.008
	c0.188,0.01,0.36,0.037,0.525,0.083l0.058,0.016l0.083,0.034c0.063,0.017,0.183,0.059,0.302,0.12l0.042,0.021l0.217,0.139
	c0.14,0.094,0.267,0.199,0.376,0.311l0.085,0.086c0.111,0.122,0.216,0.27,0.307,0.433l0.018,0.028l6.933,13.859l0.011,0.041
	c0.072,0.164,0.125,0.327,0.158,0.495l0.011,0.056l0.007,0.088c0.014,0.049,0.03,0.186,0.03,0.328V35.916z"/>
<polygon fill="#FFFFFF" points="33.289,24.577 27.496,24.577 29.427,30.37 "/>
<polygon fill="#FFFFFF" points="44.044,54.98 55.965,38.291 48.813,38.291 "/>
<polygon fill="#FFFFFF" points="19.705,38.291 31.626,54.979 26.858,38.291 "/>
<polygon fill="#FFFFFF" points="23.386,27.631 19.524,33.425 25.317,33.425 "/>
<polygon fill="#FFFFFF" points="42.432,33.425 37.835,26.53 33.237,33.425 "/>
<polygon fill="#FFFFFF" points="37.835,59.002 43.752,38.291 31.917,38.291 "/>
<polygon fill="#FFFFFF" points="49.898,24.577 42.379,24.577 46.676,31.021 "/>
<polygon fill="#FFFFFF" points="50.914,33.425 56.756,33.425 53.836,27.584 "/>
</svg>
