<?xml version="1.0" encoding="utf-8"?>
<!-- Generator: Adobe Illustrator 16.0.0, SVG Export Plug-In . SVG Version: 6.00 Build 0)  -->
<!DOCTYPE svg PUBLIC "-//W3C//DTD SVG 1.1//EN" "http://www.w3.org/Graphics/SVG/1.1/DTD/svg11.dtd">
<svg version="1.1" id="Layer_1" xmlns="http://www.w3.org/2000/svg" xmlns:xlink="http://www.w3.org/1999/xlink" x="0px" y="0px"
	 width="75px" height="85px" viewBox="0 0 75 85" enable-background="new 0 0 75 85" xml:space="preserve">
<path fill="#FFFFFF" d="M27.572,25.391l0.512,2.884c4.941-1.047,8.272-1.266,13.846,0.326l0.588-2.846
	C36.518,24.039,32.778,24.286,27.572,25.391z"/>
<path fill="#FFFFFF" d="M69.734,18.572L41.662,2.365c-2.383-1.375-6.279-1.375-8.66,0L4.935,18.571
	c-2.381,1.375-4.33,4.751-4.33,7.501V58.48c0,2.75,1.949,6.125,4.33,7.5l28.071,16.207c2.381,1.375,6.277,1.375,8.66,0
	l28.066-16.205c2.381-1.375,4.33-4.75,4.33-7.5v-32.41h0.002C74.064,23.322,72.115,19.947,69.734,18.572z M64.08,48.239
	c0,0.976-0.756,1.164-1.303,1.164c-0.546,0-6.695,0-6.695,0c-1.306,1.65-2.952,3.135-4.869,4.397v7.679h-8.757v-3.974
	c-2.349,0.558-4.852,0.861-7.448,0.861c-2.842,0-5.567-0.363-8.104-1.025v4.137h-8.759v-8.127c-4.654-3.298-7.557-7.941-7.557-13.09
	c0-9.999,10.932-18.105,24.419-18.106c5.201,0,10.02,1.211,13.98,3.265c1.16-2.494,4.896-5.913,10.581-4.204l-3.562,9.808
	c1.418,1.77,2.441,3.732,2.979,5.826c0,0,3.269,0,3.981,0c0.712,0,1.112,0.258,1.112,0.874C64.08,38.216,64.08,45.383,64.08,48.239z
	"/>
</svg>
