<?xml version="1.0" encoding="utf-8"?>
<!-- Generator: Adobe Illustrator 16.0.0, SVG Export Plug-In . SVG Version: 6.00 Build 0)  -->
<!DOCTYPE svg PUBLIC "-//W3C//DTD SVG 1.1//EN" "http://www.w3.org/Graphics/SVG/1.1/DTD/svg11.dtd">
<svg version="1.1" id="Layer_1" xmlns="http://www.w3.org/2000/svg" xmlns:xlink="http://www.w3.org/1999/xlink" x="0px" y="0px"
	 width="75px" height="85px" viewBox="0 0 75 85" enable-background="new 0 0 75 85" xml:space="preserve">
<path fill="#FFFFFF" d="M70.67,20.354L42.599,4.146c-2.383-1.375-6.279-1.375-8.66,0L5.872,20.353
	c-2.381,1.375-4.33,4.751-4.33,7.501v32.408c0,2.75,1.949,6.125,4.33,7.5l28.07,16.207c2.381,1.375,6.277,1.375,8.66,0
	l28.066-16.205c2.381-1.375,4.33-4.75,4.33-7.5v-32.41H75C75,25.104,73.051,21.729,70.67,20.354z M16.368,49.907
	c-0.016-0.084-0.022-0.171-0.022-0.259c0-0.037,0.004-0.071,0.004-0.116c0.002-0.133,0.011-0.344,0.011-0.363
	c0.038-0.644,0.112-2.177,0.112-4.916c0-5.075,1.86-9.245,5.527-12.384c5.03-4.383,12.375-5.782,17.07-6.217v-6.963
	c0-0.634,0.385-1.209,0.971-1.449c0.595-0.248,1.265-0.116,1.713,0.335l13.582,13.579c0.29,0.293,0.456,0.692,0.456,1.109
	c0,0.423-0.166,0.822-0.46,1.115l-13.58,13.545c-0.446,0.453-1.127,0.582-1.709,0.343c-0.586-0.245-0.971-0.818-0.971-1.453V36.56
	c-13.829-1.688-18.19,7.451-19.57,13.164c0,0.864-0.706,1.531-1.578,1.539C17.146,51.263,16.495,50.659,16.368,49.907z
	 M57.909,38.263c-0.004,0.135-0.014,0.348-0.014,0.365c-0.033,0.646-0.109,2.179-0.109,4.917c0,5.076-1.861,9.241-5.528,12.382
	c-5.029,4.387-12.374,5.782-17.071,6.224v6.96c0,0.635-0.383,1.209-0.972,1.45c-0.193,0.079-0.398,0.121-0.598,0.121
	c-0.41,0-0.81-0.154-1.115-0.464L18.924,56.646c-0.289-0.298-0.459-0.699-0.459-1.114c0-0.418,0.17-0.818,0.464-1.113L32.506,40.87
	c0.451-0.445,1.128-0.578,1.708-0.338c0.589,0.243,0.972,0.817,0.972,1.453v9.251c13.809,1.684,18.19-7.451,19.57-13.16
	c0-0.872,0.709-1.536,1.576-1.536c0.779,0,1.43,0.6,1.556,1.35c0.017,0.084,0.023,0.173,0.023,0.259
	C57.912,38.187,57.909,38.223,57.909,38.263z"/>
<path fill="#FFFFFF" d="M33.441,54.167c-0.14-0.027-0.278-0.066-0.406-0.124c-0.557-0.256-0.991-0.851-0.991-1.462v-6.805
	l-9.783,9.758l9.783,9.784V60.81c0-0.329,0.103-0.638,0.277-0.89c0.254-0.448,0.724-0.766,1.273-0.801
	c4.11-0.253,11.736-1.32,16.61-5.568c2.188-1.876,3.574-4.212,4.141-6.974C50.986,51.431,44.774,56.016,33.441,54.167z"/>
<path fill="#FFFFFF" d="M35.91,33.213c1.518,0,3.155,0.131,4.911,0.417c0.142,0.024,0.275,0.066,0.404,0.126
	c0.557,0.255,0.992,0.849,0.992,1.462v6.803l9.779-9.759l-9.779-9.78v4.503c0,0.332-0.103,0.641-0.278,0.895
	c-0.253,0.447-0.724,0.762-1.272,0.798c-4.113,0.253-11.738,1.319-16.608,5.566c-2.194,1.881-3.575,4.216-4.143,6.977
	C22.752,37.115,27.626,33.213,35.91,33.213z"/>
</svg>
