<?xml version="1.0" encoding="utf-8"?>
<!-- Generator: Adobe Illustrator 16.0.0, SVG Export Plug-In . SVG Version: 6.00 Build 0)  -->
<!DOCTYPE svg PUBLIC "-//W3C//DTD SVG 1.1//EN" "http://www.w3.org/Graphics/SVG/1.1/DTD/svg11.dtd">
<svg version="1.1" id="Layer_1" xmlns="http://www.w3.org/2000/svg" xmlns:xlink="http://www.w3.org/1999/xlink" x="0px" y="0px"
	 width="75px" height="85px" viewBox="0 0 75 85" enable-background="new 0 0 75 85" xml:space="preserve">
<path fill="#FFFFFF" d="M70.67,18.572L42.599,2.365c-2.383-1.375-6.279-1.375-8.66,0L5.872,18.571
	c-2.381,1.375-4.33,4.751-4.33,7.501V58.48c0,2.75,1.949,6.125,4.33,7.5l28.07,16.207c2.381,1.375,6.277,1.375,8.66,0l28.066-16.205
	c2.381-1.375,4.33-4.75,4.33-7.5v-32.41H75C75,23.322,73.051,19.947,70.67,18.572z M36.278,22.95
	c0.283,0.303,0.613,0.514,1.001,0.64v-3.462c-0.01-0.003-0.019-0.006-0.029-0.009c-0.134-0.041-0.243-0.067-0.364-0.091
	c-0.48-0.128-0.946-0.278-1.445-0.463c-0.488-0.184-0.929-0.431-1.312-0.734c-0.399-0.313-0.719-0.708-0.952-1.17
	c-0.236-0.458-0.357-1.041-0.357-1.729c0-0.697,0.137-1.322,0.407-1.856c0.261-0.526,0.618-0.979,1.059-1.344
	c0.436-0.362,0.943-0.644,1.509-0.838c0.475-0.165,0.974-0.275,1.485-0.329v-1.501h1.687v1.513c0.516,0.073,1,0.194,1.444,0.36
	c0.539,0.201,1.016,0.475,1.417,0.815c0.412,0.352,0.752,0.791,1.009,1.306c0.261,0.518,0.415,1.137,0.457,1.838l0.019,0.293h-3.295
	l-0.008-0.269c-0.012-0.452-0.148-0.823-0.414-1.135c-0.186-0.216-0.393-0.351-0.629-0.408v2.875l0.259,0.064
	c0.167,0.041,0.341,0.085,0.523,0.141c0.969,0.261,1.737,0.596,2.276,0.992c0.539,0.402,0.945,0.826,1.207,1.263
	c0.262,0.443,0.418,0.894,0.468,1.341c0.049,0.421,0.074,0.796,0.074,1.123c0,0.307-0.076,0.686-0.231,1.157
	c-0.152,0.466-0.425,0.921-0.811,1.353c-0.398,0.446-0.907,0.825-1.554,1.16c-0.59,0.306-1.333,0.503-2.21,0.584v1.655h-1.688
	v-1.656c-1.378-0.139-2.48-0.604-3.278-1.382c-0.85-0.819-1.351-2.035-1.489-3.613l-0.027-0.301h3.298l-0.006,0.282
	C35.764,22.075,35.927,22.577,36.278,22.95z M62.228,62.539H14.313v-4.843h5.821V41.872c0-1.588,1.292-2.881,2.879-2.881
	c1.589,0,2.882,1.292,2.882,2.881v0.553H25.87v15.272h4.432V41.872c0-1.588,1.292-2.881,2.879-2.881
	c1.589,0,2.882,1.292,2.882,2.881v0.553h-0.025v15.272h4.438V41.872c0-1.588,1.291-2.881,2.879-2.881s2.88,1.292,2.88,2.881v0.553
	H46.21v15.272h4.437V41.872c0-1.588,1.291-2.881,2.879-2.881c1.587,0,2.879,1.292,2.879,2.881v0.553h-0.022v15.272h5.846V62.539z
	 M62.228,38.596H14.313v-4.843h3.546v-3.302h40.821v3.302h3.547V38.596z"/>
<path fill="#FFFFFF" d="M39.913,23.209c0.171-0.133,0.313-0.296,0.42-0.485c0.104-0.186,0.157-0.409,0.157-0.662
	c0-0.413-0.12-0.71-0.368-0.908c-0.24-0.188-0.627-0.366-1.154-0.53v2.994c0.117-0.026,0.236-0.059,0.357-0.099
	C39.546,23.446,39.739,23.345,39.913,23.209z"/>
<path fill="#FFFFFF" d="M37.279,14.365c-0.093,0.014-0.185,0.035-0.274,0.064c-0.18,0.055-0.335,0.138-0.463,0.244
	c-0.141,0.112-0.248,0.248-0.324,0.408c-0.078,0.161-0.117,0.357-0.117,0.583c0,0.34,0.101,0.592,0.307,0.77
	c0.188,0.16,0.48,0.297,0.872,0.411V14.365z"/>
</svg>
