<?xml version="1.0" encoding="utf-8"?>
<!-- Generator: Adobe Illustrator 16.0.0, SVG Export Plug-In . SVG Version: 6.00 Build 0)  -->
<!DOCTYPE svg PUBLIC "-//W3C//DTD SVG 1.1//EN" "http://www.w3.org/Graphics/SVG/1.1/DTD/svg11.dtd">
<svg version="1.1" id="Layer_1" xmlns="http://www.w3.org/2000/svg" xmlns:xlink="http://www.w3.org/1999/xlink" x="0px" y="0px"
	 width="75px" height="85px" viewBox="0 0 75 85" enable-background="new 0 0 75 85" xml:space="preserve">
<path fill="#FFFFFF" d="M70.67,18.572L42.599,2.365c-2.383-1.375-6.279-1.375-8.66,0L5.872,18.571c-2.381,1.375-4.33,4.75-4.33,7.5
	V58.48c0,2.75,1.949,6.125,4.33,7.5l28.07,16.207c2.381,1.375,6.277,1.375,8.66,0l28.066-16.205c2.381-1.375,4.33-4.75,4.33-7.5
	V26.072H75C75,23.322,73.051,19.947,70.67,18.572z M25.537,61.162c0,1.602-1.296,2.898-2.898,2.898h-2.898
	c-1.599,0-2.897-1.295-2.897-2.898v-8.693c0-1.603,1.299-2.898,2.897-2.898h2.898c1.602,0,2.898,1.296,2.898,2.898V61.162z
	 M37.129,61.162c0,1.602-1.296,2.898-2.898,2.898h-2.898c-1.599,0-2.897-1.295-2.897-2.898v-14.49c0-1.602,1.298-2.898,2.897-2.898
	h2.898c1.603,0,2.898,1.297,2.898,2.898V61.162z M17.357,40.83c-0.175,0.032-0.348,0.046-0.518,0.046
	c-1.376,0-2.595-0.985-2.85-2.383c-0.283-1.577,0.764-3.084,2.34-3.368c7.096-1.28,14.717-4.897,22.674-10.707l-3.346-4.058
	l15.961-2.669L45.95,32.85l-3.256-3.951C33.835,35.425,25.526,39.359,17.357,40.83z M48.722,61.162c0,1.602-1.296,2.898-2.898,2.898
	h-2.898c-1.601,0-2.897-1.295-2.897-2.898V40.876c0-1.602,1.297-2.897,2.897-2.897h2.898c1.603,0,2.898,1.296,2.898,2.897V61.162z
	 M60.313,61.162c0,1.602-1.295,2.898-2.898,2.898h-2.896c-1.602,0-2.899-1.295-2.899-2.898V35.08c0-1.602,1.298-2.897,2.899-2.897
	h2.896c1.604,0,2.898,1.296,2.898,2.897V61.162z"/>
</svg>
