<?xml version="1.0" encoding="utf-8"?>
<!-- Generator: Adobe Illustrator 16.0.0, SVG Export Plug-In . SVG Version: 6.00 Build 0)  -->
<!DOCTYPE svg PUBLIC "-//W3C//DTD SVG 1.1//EN" "http://www.w3.org/Graphics/SVG/1.1/DTD/svg11.dtd">
<svg version="1.1" id="Layer_1" xmlns="http://www.w3.org/2000/svg" xmlns:xlink="http://www.w3.org/1999/xlink" x="0px" y="0px"
	 width="75px" height="85px" viewBox="0 0 75 85" enable-background="new 0 0 75 85" xml:space="preserve">
<path fill="#FFFFFF" d="M38.271,23.322c-11.002,0-19.954,8.951-19.954,19.954S27.268,63.23,38.271,63.23
	c11.004,0,19.955-8.951,19.955-19.954S49.274,23.322,38.271,23.322z M53.896,53.892c-0.794,1.276-2.61,1.583-4.053,0.685
	l-13.063-8.14c-0.966-0.603-1.518-1.593-1.539-2.565c-0.031-0.193-0.049-0.391-0.049-0.595v-15.39c0-1.7,1.148-3.079,2.566-3.079
	c1.416,0,2.564,1.379,2.564,3.079v14.336l12.402,7.728C54.169,50.85,54.692,52.613,53.896,53.892z"/>
<path fill="#FFFFFF" d="M70.67,19.572L42.599,3.365c-2.383-1.375-6.279-1.375-8.66,0L5.872,19.571c-2.381,1.375-4.33,4.75-4.33,7.5
	V59.48c0,2.75,1.949,6.125,4.33,7.5l28.07,16.207c2.381,1.375,6.277,1.375,8.66,0l28.066-16.205c2.381-1.375,4.33-4.75,4.33-7.5
	V27.072H75C75,24.322,73.051,20.947,70.67,19.572z M38.271,69.494c-14.456,0-26.217-11.762-26.217-26.218
	c0-14.457,11.761-26.218,26.217-26.218c14.457,0,26.219,11.761,26.219,26.218C64.489,57.732,52.728,69.494,38.271,69.494z"/>
</svg>
