<?xml version="1.0" encoding="utf-8"?>
<!-- Generator: Adobe Illustrator 16.0.0, SVG Export Plug-In . SVG Version: 6.00 Build 0)  -->
<!DOCTYPE svg PUBLIC "-//W3C//DTD SVG 1.1//EN" "http://www.w3.org/Graphics/SVG/1.1/DTD/svg11.dtd">
<svg version="1.1" id="Layer_1" xmlns="http://www.w3.org/2000/svg" xmlns:xlink="http://www.w3.org/1999/xlink" x="0px" y="0px"
	 width="75px" height="85px" viewBox="0 0 75 85" enable-background="new 0 0 75 85" xml:space="preserve">
<path fill="#FFFFFF" d="M70.67,18.573L42.6,2.366c-2.383-1.375-6.279-1.375-8.66,0L5.873,18.572c-2.381,1.375-4.33,4.75-4.33,7.5
	V58.48c0,2.75,1.949,6.125,4.33,7.5l28.07,16.207c2.381,1.375,6.277,1.375,8.66,0L70.67,65.982c2.381-1.375,4.33-4.75,4.33-7.5
	v-32.41C75,23.323,73.051,19.948,70.67,18.573z M38.271,66.52c-13.389,0-24.243-10.855-24.243-24.244
	c0-13.388,10.854-24.243,24.243-24.243s24.243,10.854,24.243,24.243C62.515,55.664,51.66,66.52,38.271,66.52z"/>
<path fill="#FFFFFF" d="M39.424,38.491c-1.852-0.452-2.385-0.576-2.796-0.781c-1.029-0.454-1.522-1.069-1.522-1.975
	c0-1.48,1.275-2.509,3.002-2.509c1.111,0,1.974,0.33,3.043,1.152c0.742,0.617,1.235,0.987,1.399,1.11
	c0.536,0.412,1.193,0.617,1.77,0.617c1.479,0,2.753-1.357,2.753-3.002c0-1.069-0.491-2.015-1.561-3.001
	c-0.905-0.782-1.729-1.234-3.578-1.811l-0.699-0.247c-0.165-2.014-1.357-3.248-3.126-3.248c-1.151,0-2.263,0.658-2.797,1.645
	c-0.206,0.495-0.33,0.946-0.37,1.81c-1.563,0.617-2.426,1.069-3.332,1.769c-1.767,1.357-2.796,3.62-2.796,6.045
	c0,3.29,2.057,5.841,5.387,6.664l3.373,0.821c3.126,0.742,4.36,1.77,4.36,3.498c0,1.686-1.398,3.001-3.251,3.001
	c-1.479,0-2.014-0.286-4.522-2.386c-1.152-0.904-2.016-1.315-3.002-1.315c-1.687,0-2.922,1.357-2.922,3.168
	c0,1.727,1.028,3.248,3.085,4.563c1.029,0.701,2.015,1.111,3.826,1.688v0.123v0.084c0,2.385,1.15,3.785,3.125,3.785
	c0.863,0,1.645-0.332,2.262-0.906c0.616-0.577,0.823-1.234,0.901-2.717v-0.369c4.033-0.864,6.873-4.441,6.874-8.599
	C48.31,42.48,45.675,39.889,39.424,38.491z"/>
</svg>
