<?xml version="1.0" encoding="utf-8"?>
<!-- Generator: Adobe Illustrator 16.0.0, SVG Export Plug-In . SVG Version: 6.00 Build 0)  -->
<!DOCTYPE svg PUBLIC "-//W3C//DTD SVG 1.1//EN" "http://www.w3.org/Graphics/SVG/1.1/DTD/svg11.dtd">
<svg version="1.1" id="Layer_1" xmlns="http://www.w3.org/2000/svg" xmlns:xlink="http://www.w3.org/1999/xlink" x="0px" y="0px"
	 width="75px" height="85px" viewBox="0 0 75 85" enable-background="new 0 0 75 85" xml:space="preserve">
<g>
	<path fill="#FFFFFF" d="M70.67,19.572L42.598,3.365c-2.383-1.375-6.279-1.375-8.66,0L5.871,19.571
		c-2.381,1.375-4.33,4.751-4.33,7.501V59.48c0,2.75,1.949,6.125,4.33,7.5l28.071,16.207c2.381,1.375,6.277,1.375,8.66,0
		l28.066-16.205c2.381-1.375,4.33-4.75,4.33-7.5V27.072H75C75,24.322,73.051,20.947,70.67,19.572z M57.891,60.43H13.257V36.6h44.633
		V60.43z M61.149,58.109h-1.871V35.216H15.58v-1.871l45.57-0.001V58.109z M64.331,54.926h-1.872V32.034H18.762v-1.872h45.569V54.926
		z"/>
	<path fill="#FFFFFF" d="M56.02,38.471H15.129v20.085H56.02V38.471z M16.316,57.449V39.581h15.377
		c-3.468,1.465-5.902,4.898-5.902,8.9c0,4.068,2.517,7.547,6.079,8.969H16.316z M36.246,53.809v1.787h-1.719v-1.646
		c-1.163-0.053-2.292-0.383-2.951-0.748l0.521-2.029c0.729,0.398,1.754,0.764,2.882,0.764c1.007,0,1.685-0.4,1.685-1.076
		c0-0.662-0.556-1.078-1.856-1.512c-1.859-0.625-3.126-1.494-3.126-3.176c0-1.545,1.077-2.744,2.934-3.09v-1.65h1.702v1.528
		c1.146,0.033,1.927,0.293,2.534,0.573l-0.521,1.961c-0.434-0.209-1.25-0.607-2.499-0.607c-1.128,0-1.493,0.504-1.493,0.99
		c0,0.557,0.608,0.938,2.101,1.475c2.065,0.73,2.881,1.684,2.881,3.264C39.318,52.16,38.242,53.479,36.246,53.809z M54.833,57.449
		H39.025c3.561-1.422,6.079-4.9,6.079-8.969c0-4.002-2.435-7.435-5.903-8.9h15.632V57.449z"/>
</g>
</svg>
