<?xml version="1.0" encoding="utf-8"?>
<!-- Generator: Adobe Illustrator 16.0.0, SVG Export Plug-In . SVG Version: 6.00 Build 0)  -->
<!DOCTYPE svg PUBLIC "-//W3C//DTD SVG 1.1//EN" "http://www.w3.org/Graphics/SVG/1.1/DTD/svg11.dtd">
<svg version="1.1" id="Layer_1" xmlns="http://www.w3.org/2000/svg" xmlns:xlink="http://www.w3.org/1999/xlink" x="0px" y="0px"
	 width="75px" height="85px" viewBox="0 0 75 85" enable-background="new 0 0 75 85" xml:space="preserve">
<circle fill="#FFFFFF" cx="21.196" cy="59.351" r="1.785"/>
<path fill="#FFFFFF" d="M39.017,39.827c-1.199-0.292-1.544-0.373-1.809-0.505c-0.666-0.294-0.986-0.692-0.986-1.278
	c0-0.958,0.825-1.623,1.942-1.623c0.719,0,1.277,0.213,1.969,0.745c0.48,0.398,0.799,0.638,0.906,0.718
	c0.346,0.266,0.771,0.399,1.144,0.399c0.957,0,1.781-0.878,1.781-1.943c0-0.691-0.317-1.303-1.009-1.941
	c-0.586-0.507-1.118-0.798-2.315-1.172l-0.452-0.159c-0.106-1.303-0.879-2.102-2.022-2.102c-0.745,0-1.464,0.426-1.81,1.064
	c-0.134,0.32-0.213,0.612-0.239,1.171c-1.012,0.399-1.57,0.691-2.155,1.145c-1.144,0.877-1.81,2.341-1.81,3.911
	c0,2.128,1.33,3.779,3.485,4.311l2.182,0.531c2.022,0.48,2.821,1.145,2.821,2.263c0,1.091-0.905,1.941-2.104,1.941
	c-0.956,0-1.302-0.185-2.925-1.543c-0.746-0.585-1.305-0.851-1.942-0.851c-1.092,0-1.891,0.877-1.891,2.049
	c0,1.117,0.665,2.102,1.996,2.953c0.666,0.453,1.304,0.719,2.476,1.092v0.078v0.055c0,1.543,0.743,2.449,2.021,2.449
	c0.558,0,1.063-0.215,1.462-0.587c0.399-0.373,0.533-0.799,0.584-1.758v-0.237c2.609-0.561,4.446-2.874,4.447-5.564
	C44.765,42.408,43.061,40.732,39.017,39.827z"/>
<circle fill="#FFFFFF" cx="38.271" cy="66.336" r="1.785"/>
<circle fill="#FFFFFF" cx="38.271" cy="18.216" r="1.786"/>
<circle fill="#FFFFFF" cx="55.347" cy="25.202" r="1.786"/>
<circle fill="#FFFFFF" cx="21.196" cy="25.201" r="1.785"/>
<circle fill="#FFFFFF" cx="14.211" cy="42.276" r="1.786"/>
<path fill="#FFFFFF" d="M70.67,18.572L42.6,2.365c-2.383-1.375-6.279-1.375-8.66,0L5.873,18.572c-2.381,1.375-4.33,4.75-4.33,7.5
	V58.48c0,2.75,1.949,6.125,4.33,7.5l28.07,16.207c2.381,1.375,6.277,1.375,8.66,0L70.67,65.982c2.381-1.375,4.33-4.75,4.33-7.5
	v-32.41C75,23.322,73.051,19.947,70.67,18.572z M62.332,46.699c-1.942,0-3.652-1.281-4.222-3.104h-3.848
	c-0.272,3.33-1.59,6.51-3.748,9.057l2.78,2.782c0.632-0.333,1.332-0.508,2.051-0.508c2.439,0,4.425,1.984,4.425,4.424
	c0,2.438-1.985,4.423-4.425,4.423s-4.424-1.984-4.424-4.423c0-0.717,0.176-1.417,0.509-2.05l-2.781-2.782
	c-2.548,2.159-5.729,3.476-9.059,3.749v3.847c1.822,0.57,3.104,2.28,3.104,4.222c0,2.439-1.984,4.424-4.423,4.424
	s-4.424-1.984-4.424-4.424c0-1.941,1.282-3.651,3.104-4.222v-3.847c-3.33-0.273-6.512-1.59-9.059-3.749l-2.78,2.782
	c0.333,0.633,0.508,1.334,0.508,2.05c0,2.438-1.984,4.423-4.425,4.423c-2.438,0-4.424-1.984-4.424-4.423
	c0-2.439,1.985-4.424,4.424-4.424c0.719,0,1.42,0.175,2.052,0.509l2.78-2.783c-2.159-2.547-3.476-5.727-3.748-9.057h-3.848
	c-0.569,1.822-2.279,3.104-4.222,3.104c-2.438,0-4.424-1.984-4.424-4.423c0-2.439,1.985-4.423,4.424-4.423
	c1.943,0,3.652,1.281,4.222,3.105h3.848c0.271-3.331,1.588-6.512,3.748-9.059l-2.782-2.781c-0.632,0.333-1.332,0.507-2.05,0.507
	c-2.438,0-4.424-1.985-4.424-4.424c0-2.439,1.985-4.423,4.424-4.423c2.439,0,4.425,1.984,4.425,4.423
	c0,0.718-0.176,1.419-0.509,2.051l2.781,2.781c2.548-2.159,5.729-3.475,9.059-3.749v-3.847c-1.822-0.57-3.104-2.28-3.104-4.222
	c0-2.438,1.985-4.423,4.424-4.423s4.423,1.984,4.423,4.423c0,1.942-1.281,3.652-3.104,4.222v3.847
	c3.33,0.273,6.512,1.59,9.059,3.749l2.782-2.781c-0.334-0.631-0.51-1.333-0.51-2.051c0-2.439,1.984-4.423,4.424-4.423
	s4.425,1.984,4.425,4.423c0,2.439-1.985,4.424-4.425,4.424c-0.717,0-1.418-0.174-2.05-0.507L50.515,31.9
	c2.159,2.547,3.477,5.728,3.749,9.058h3.847c0.569-1.824,2.278-3.105,4.222-3.105c2.438,0,4.424,1.984,4.424,4.423
	S64.771,46.699,62.332,46.699z"/>
<circle fill="#FFFFFF" cx="55.347" cy="59.351" r="1.785"/>
<circle fill="#FFFFFF" cx="62.332" cy="42.276" r="1.786"/>
</svg>
