<?xml version="1.0" encoding="utf-8"?>
<!-- Generator: Adobe Illustrator 16.0.0, SVG Export Plug-In . SVG Version: 6.00 Build 0)  -->
<!DOCTYPE svg PUBLIC "-//W3C//DTD SVG 1.1//EN" "http://www.w3.org/Graphics/SVG/1.1/DTD/svg11.dtd">
<svg version="1.1" id="Layer_1" xmlns="http://www.w3.org/2000/svg" xmlns:xlink="http://www.w3.org/1999/xlink" x="0px" y="0px"
	 width="75px" height="85px" viewBox="0 0 75 85" enable-background="new 0 0 75 85" xml:space="preserve">
<path fill="#FFFFFF" d="M69.734,18.572L41.662,2.365c-2.383-1.375-6.279-1.375-8.66,0L4.935,18.571c-2.381,1.375-4.33,4.75-4.33,7.5
	V58.48c0,2.75,1.949,6.125,4.33,7.5l28.071,16.207c2.381,1.375,6.277,1.375,8.66,0l28.066-16.205c2.381-1.375,4.33-4.75,4.33-7.5
	V26.072h0.002C74.064,23.322,72.115,19.947,69.734,18.572z M42.109,64.053c0,1.596-1.293,2.889-2.887,2.889L19.59,52.506
	c-2.074-1.408-2.887-1.613-2.887-2.888V25.944c0-1.595,1.292-2.886,2.887-2.886l19.633,14.436c0,0,2.854,1.836,2.887,2.886V64.053z
	 M53.08,53.949h-8.662V39.514c0-1.234-2.886-2.888-2.886-2.888l-0.384-0.289h8.034c0.718,0,1.299-0.582,1.299-1.298
	c0-0.718-0.581-1.299-1.299-1.299H37.701l-4.217-3.177h15.698c0.718,0,1.299-0.581,1.299-1.298s-0.581-1.301-1.299-1.301H30.035
	l-6.513-4.907h29.553c1.595,0,2.887,1.292,2.887,2.886l0.005,25.117C55.967,52.656,54.675,53.949,53.08,53.949z"/>
</svg>
