<?xml version="1.0" encoding="utf-8"?>
<!-- Generator: Adobe Illustrator 16.0.0, SVG Export Plug-In . SVG Version: 6.00 Build 0)  -->
<!DOCTYPE svg PUBLIC "-//W3C//DTD SVG 1.1//EN" "http://www.w3.org/Graphics/SVG/1.1/DTD/svg11.dtd">
<svg version="1.1" id="Layer_1" xmlns="http://www.w3.org/2000/svg" xmlns:xlink="http://www.w3.org/1999/xlink" x="0px" y="0px"
	 width="75px" height="85px" viewBox="0 0 75 85" enable-background="new 0 0 75 85" xml:space="preserve">
<path fill="#FFFFFF" d="M37.333,37.143c0.857,0.059,1.658,0.23,2.115,0.688c0.285,0.171,0.686,0.456,0.686,1.027
	c0,0.914,0.744,1.657,1.657,1.657s1.714-0.801,1.714-1.657c0-1.371-0.744-2.8-1.942-3.713c-0.743-0.571-1.542-0.915-2.515-1.086
	v-1.885c0-0.972-0.799-1.771-1.656-1.771c-0.971,0-1.715,0.8-1.715,1.714v1.885c-2.57,0.516-4.513,2.457-4.513,4.743
	c0,1.257,0.513,2.398,1.427,3.313c1.145,1.144,2.857,1.829,4.742,1.886c0.916,0,1.887,0.286,2.4,0.8
	c0.114,0.229,0.457,0.515,0.457,0.857c-0.057,0.801-1.199,1.657-2.857,1.657c-0.912,0-1.826-0.344-2.342-0.914
	c-0.229-0.172-0.457-0.457-0.457-0.857c0-0.857-0.742-1.656-1.656-1.656c-0.973,0-1.714,0.685-1.714,1.656
	c0,1.2,0.457,2.343,1.427,3.257c0.859,0.8,1.887,1.371,3.028,1.656v1.941c-0.056,0.916,0.743,1.658,1.657,1.658
	c0.973,0,1.715-0.742,1.715-1.658v-1.941c2.628-0.515,4.457-2.457,4.457-4.799c0-1.198-0.514-2.342-1.371-3.199
	c-1.086-1.2-2.857-1.886-4.744-1.886c-0.971,0-1.885-0.285-2.398-0.857c-0.229-0.228-0.457-0.514-0.457-0.913
	C34.534,38.059,35.677,37.143,37.333,37.143z"/>
<path fill="#FFFFFF" d="M69.733,18.572L41.663,2.365c-2.383-1.375-6.279-1.375-8.66,0L4.936,18.571
	c-2.381,1.375-4.33,4.751-4.33,7.501V58.48c0,2.75,1.949,6.125,4.33,7.5l28.071,16.207c2.381,1.375,6.277,1.375,8.66,0
	l28.066-16.205c2.381-1.375,4.33-4.75,4.33-7.5v-32.41l0,0C74.063,23.322,72.114,19.947,69.733,18.572z M37.334,61.111
	c-2.142,0-4.221-0.186-6.216-0.529c-3.533,3-7.713,4.286-11.45,4.14c2.088-1.862,3.378-4.114,3.967-6.332
	c-7.698-3.324-12.845-8.743-12.845-15.643c0-10.483,11.884-19.601,26.544-19.601c14.661,0,26.546,9.117,26.546,19.601
	C63.88,53.231,51.995,61.111,37.334,61.111z"/>
</svg>
