<?xml version="1.0" encoding="utf-8"?>
<!-- Generator: Adobe Illustrator 16.0.0, SVG Export Plug-In . SVG Version: 6.00 Build 0)  -->
<!DOCTYPE svg PUBLIC "-//W3C//DTD SVG 1.1//EN" "http://www.w3.org/Graphics/SVG/1.1/DTD/svg11.dtd">
<svg version="1.1" id="Layer_1" xmlns="http://www.w3.org/2000/svg" xmlns:xlink="http://www.w3.org/1999/xlink" x="0px" y="0px"
	 width="75px" height="85px" viewBox="0 0 75 85" enable-background="new 0 0 75 85" xml:space="preserve">
<path fill="#FFFFFF" d="M70.67,18.573L42.6,2.366c-2.383-1.375-6.279-1.375-8.66,0L5.873,18.572c-2.381,1.375-4.33,4.75-4.33,7.5
	V58.48c0,2.75,1.949,6.125,4.33,7.5l28.07,16.207c2.381,1.375,6.277,1.375,8.66,0L70.67,65.982c2.381-1.375,4.33-4.75,4.33-7.5
	v-32.41C75,23.323,73.051,19.948,70.67,18.573z M38.243,66.045c-12.139,0-22.015-9.876-22.015-22.014
	c0-11.336,8.373-20.711,19.56-22.016v-3.67h-1.319c-1.338,0-2.513-1.174-2.513-2.512s1.175-2.511,2.513-2.511h7.721
	c1.269,0,2.341,1.15,2.341,2.511c0,1.385-1.051,2.512-2.341,2.512h-1.434v3.672c3.732,0.454,7.351,1.885,10.523,4.164l2.115-2.165
	c0.665-0.665,1.535-1.029,2.457-1.029c0.927,0,1.786,0.367,2.421,1.034c1.353,1.354,1.353,3.49-0.01,4.853l-2.176,2.125
	c2.768,3.983,4.228,8.478,4.228,13.03C60.314,56.169,50.413,66.045,38.243,66.045z"/>
<path fill="#FFFFFF" d="M38.243,27.383c-9.086,0-16.477,7.468-16.477,16.648c0,9.085,7.391,16.477,16.477,16.477
	c9.181,0,16.648-7.392,16.648-16.477C54.892,34.851,47.424,27.383,38.243,27.383z M35.612,41.343
	c0.515,0.572,1.43,0.857,2.401,0.857c1.888,0,3.661,0.686,4.748,1.887c0.858,0.858,1.373,2.002,1.373,3.203
	c0,2.344-1.831,4.289-4.462,4.805v1.943c0,0.916-0.743,1.658-1.717,1.658c-0.914,0-1.715-0.742-1.658-1.658v-1.943
	c-1.144-0.287-2.172-0.858-3.031-1.659c-0.972-0.915-1.429-2.059-1.429-3.261c0-0.972,0.742-1.657,1.716-1.657
	c0.915,0,1.658,0.8,1.658,1.657c0,0.401,0.228,0.688,0.457,0.858c0.516,0.571,1.431,0.915,2.345,0.915
	c1.659,0,2.803-0.857,2.86-1.658c0-0.343-0.344-0.629-0.457-0.857c-0.516-0.516-1.487-0.801-2.403-0.801
	c-1.887-0.057-3.603-0.744-4.747-1.889c-0.915-0.915-1.429-2.058-1.429-3.316c0-2.288,1.944-4.232,4.518-4.748v-1.887
	c0-0.916,0.744-1.716,1.716-1.716c0.858,0,1.659,0.8,1.659,1.773v1.887c0.973,0.172,1.772,0.515,2.517,1.087
	c1.2,0.915,1.945,2.345,1.945,3.718c0,0.858-0.802,1.659-1.717,1.659c-0.914,0-1.659-0.744-1.659-1.659
	c0-0.572-0.399-0.858-0.686-1.03c-0.458-0.457-1.26-0.629-2.117-0.686c-1.658,0-2.802,0.915-2.859,1.602
	C35.154,40.828,35.383,41.114,35.612,41.343z"/>
</svg>
