<?xml version="1.0" encoding="utf-8"?>
<!-- Generator: Adobe Illustrator 15.0.0, SVG Export Plug-In . SVG Version: 6.00 Build 0)  -->
<!DOCTYPE svg PUBLIC "-//W3C//DTD SVG 1.1//EN" "http://www.w3.org/Graphics/SVG/1.1/DTD/svg11.dtd">
<svg version="1.1" id="Layer_1" xmlns="http://www.w3.org/2000/svg" xmlns:xlink="http://www.w3.org/1999/xlink" x="0px" y="0px"
	 width="75px" height="85px" viewBox="0 0 75 85" enable-background="new 0 0 75 85" xml:space="preserve">
<path fill-rule="evenodd" clip-rule="evenodd" fill="#FFFFFF" d="M69.898,18.796L41.827,2.589c-2.382-1.375-6.278-1.375-8.66,0
	L5.101,18.795c-2.381,1.375-4.33,4.75-4.33,7.5v32.409c0,2.75,1.949,6.125,4.33,7.5l28.07,16.206c2.381,1.375,6.278,1.375,8.66,0
	l28.067-16.205c2.381-1.375,4.33-4.75,4.33-7.5V26.296C74.229,23.546,72.279,20.171,69.898,18.796z M49.289,65.311H24.465l5.5-20.36
	c-3.669-2.289-6.115-6.361-6.115-11.003c0-7.16,5.807-12.965,12.964-12.965c7.16,0,12.964,5.806,12.964,12.965
	c0,4.55-2.347,8.548-5.894,10.863L49.289,65.311z"/>
</svg>
