<?xml version="1.0" encoding="utf-8"?>
<!-- Generator: Adobe Illustrator 15.0.0, SVG Export Plug-In . SVG Version: 6.00 Build 0)  -->
<!DOCTYPE svg PUBLIC "-//W3C//DTD SVG 1.1//EN" "http://www.w3.org/Graphics/SVG/1.1/DTD/svg11.dtd">
<svg version="1.1" id="Layer_1" xmlns="http://www.w3.org/2000/svg" xmlns:xlink="http://www.w3.org/1999/xlink" x="0px" y="0px"
	 width="50px" height="40px" viewBox="-0.75 0 50 40" enable-background="new -0.75 0 50 40" xml:space="preserve">
<g>
	<path fill="none" stroke="#FFFFFF" stroke-miterlimit="10" d="M36.292,8.543c0-0.55-0.45-1-1-1H4.708c-0.55,0-1,0.45-1,1v18.113
		c0,0.55,0.45,1,1,1h2.641c0.55,0,0.828,0.416,0.617,0.924l-1.223,2.953c-0.21,0.508-0.011,0.67,0.443,0.359l5.377-3.673
		c0.454-0.311,1.276-0.563,1.826-0.563h20.903c0.55,0,1-0.45,1-1V8.543z"/>
	<path fill="none" stroke="#FFFFFF" stroke-miterlimit="10" d="M36.292,8.543c0-0.55-0.45-1-1-1H4.708c-0.55,0-1,0.45-1,1v18.113
		c0,0.55,0.45,1,1,1h2.641c0.55,0,0.828,0.416,0.617,0.924l-1.223,2.953c-0.21,0.508-0.011,0.67,0.443,0.359l5.377-3.673
		c0.454-0.311,1.276-0.563,1.826-0.563h20.903c0.55,0,1-0.45,1-1V8.543z"/>
</g>
</svg>
