<?xml version="1.0" encoding="utf-8"?>
<!-- Generator: Adobe Illustrator 15.0.0, SVG Export Plug-In . SVG Version: 6.00 Build 0)  -->
<!DOCTYPE svg PUBLIC "-//W3C//DTD SVG 1.1//EN" "http://www.w3.org/Graphics/SVG/1.1/DTD/svg11.dtd">
<svg version="1.1" id="Layer_1" xmlns="http://www.w3.org/2000/svg" xmlns:xlink="http://www.w3.org/1999/xlink" x="0px" y="0px"
	 width="55px" height="62px" viewBox="0 0 55 62" enable-background="new 0 0 55 62" xml:space="preserve">
<g>
	<path fill="#FFFFFF" d="M16.803,34.486c-2.412,0.855-3.679,3.516-2.825,5.932c0.853,2.413,3.51,3.684,5.921,2.83
		c2.412-0.857,3.678-3.518,2.826-5.933C21.871,34.901,19.216,33.631,16.803,34.486z"/>
	<path fill="#FFFFFF" d="M39.1,26.903c-2.877-0.225-5.4,1.936-5.624,4.815c-0.225,2.881,1.933,5.408,4.809,5.633
		c2.876,0.226,5.399-1.935,5.624-4.816C44.134,29.655,41.977,27.129,39.1,26.903z"/>
	<path fill="#FFFFFF" d="M52.369,13.066L30.914,0.549c-0.813-0.47-1.789-0.729-2.922-0.729c-1.133,0-2.157,0.259-2.97,0.729
		L3.195,13.066C1.502,14.045,0,16.345,0,18.302v25.036c0,1.958,1.526,4.258,3.219,5.235L24.97,61.091
		c0.813,0.471,1.936,0.729,3.069,0.729s2.23-0.259,3.044-0.729l21.273-12.518C54.049,47.596,55,45.296,55,43.338V18.302
		C55,16.345,54.063,14.045,52.369,13.066z M13.216,17.318c0.066-0.33,0.384-0.547,0.713-0.484l1.454,0.283
		c-0.029,0.078-0.051,0.158-0.078,0.237c0.371-1.104,1.017-2.118,1.917-2.933c-0.062,0.056-0.126,0.107-0.185,0.165l-0.833-1.228
		c-0.188-0.278-0.116-0.659,0.161-0.848l1.005-0.683c0.277-0.188,0.657-0.114,0.846,0.165l0.833,1.227
		c-0.081,0.036-0.16,0.08-0.239,0.119c1.091-0.54,2.273-0.769,3.438-0.708c-0.081-0.004-0.161-0.014-0.241-0.015l0.275-1.457
		c0.063-0.329,0.382-0.547,0.711-0.482l1.196,0.232c0.329,0.064,0.548,0.386,0.484,0.715L24.4,13.08
		c-0.087-0.033-0.177-0.058-0.266-0.088c1.122,0.379,2.155,1.041,2.982,1.967c-0.062-0.069-0.121-0.142-0.185-0.208l1.221-0.829
		c0.275-0.188,0.657-0.114,0.846,0.164l0.685,1.012c0.188,0.278,0.116,0.66-0.161,0.848l-1.221,0.829
		c-0.032-0.072-0.071-0.142-0.105-0.212c0.524,1.07,0.755,2.225,0.711,3.362c0.002-0.061,0.01-0.119,0.01-0.18l1.454,0.283
		c0.329,0.065,0.549,0.386,0.485,0.716l-0.227,1.197c-0.063,0.329-0.381,0.547-0.711,0.483l-1.453-0.282
		c0.024-0.066,0.043-0.136,0.066-0.204c-0.375,1.098-1.023,2.106-1.924,2.917c0.068-0.063,0.139-0.119,0.203-0.183l0.831,1.229
		c0.189,0.277,0.118,0.66-0.159,0.848l-1.005,0.682c-0.277,0.188-0.659,0.114-0.846-0.163l-0.83-1.229
		c0.083-0.037,0.165-0.083,0.247-0.123c-1.089,0.542-2.27,0.771-3.432,0.713c0.074,0.005,0.148,0.013,0.223,0.015L21.565,28.1
		c-0.063,0.329-0.384,0.546-0.711,0.482l-1.196-0.232c-0.329-0.063-0.549-0.385-0.487-0.715l0.277-1.458
		c0.061,0.023,0.125,0.041,0.187,0.063c-1.077-0.378-2.068-1.02-2.87-1.904c0.052,0.057,0.1,0.117,0.153,0.171l-1.223,0.829
		c-0.275,0.189-0.656,0.114-0.844-0.164l-0.686-1.01c-0.189-0.28-0.116-0.661,0.161-0.849l1.218-0.829
		c0.042,0.094,0.093,0.185,0.14,0.278c-0.558-1.109-0.795-2.312-0.739-3.493c-0.004,0.081-0.013,0.162-0.014,0.244l-1.456-0.281
		c-0.327-0.065-0.546-0.387-0.483-0.716L13.216,17.318z M28.08,36.934l-1.635,0.58c-0.016-0.096-0.041-0.191-0.06-0.286
		c0.284,1.395,0.194,2.797-0.214,4.095c0.028-0.088,0.061-0.174,0.086-0.264l1.566,0.75c0.355,0.168,0.506,0.597,0.336,0.952
		l-0.615,1.289c-0.168,0.355-0.597,0.509-0.95,0.337l-1.567-0.748c0.051-0.072,0.094-0.146,0.142-0.219
		c-0.747,1.125-1.772,2.07-3.022,2.724c0.082-0.042,0.167-0.081,0.247-0.126l0.578,1.637c0.131,0.368-0.064,0.78-0.433,0.911
		l-1.346,0.478c-0.37,0.131-0.78-0.064-0.913-0.436l-0.578-1.636c0.089-0.015,0.177-0.038,0.266-0.056
		c-1.373,0.276-2.753,0.19-4.034-0.207c0.076,0.024,0.149,0.053,0.226,0.073l-0.747,1.569c-0.168,0.355-0.597,0.508-0.951,0.337
		l-1.29-0.614c-0.354-0.169-0.505-0.599-0.335-0.953l0.748-1.568c0.07,0.05,0.144,0.092,0.216,0.14
		c-1.101-0.733-2.028-1.734-2.679-2.952c0.031,0.058,0.058,0.117,0.09,0.175l-1.634,0.578c-0.373,0.132-0.783-0.063-0.913-0.436
		L8.189,41.71c-0.131-0.369,0.065-0.779,0.433-0.911l1.635-0.58c0.012,0.075,0.033,0.15,0.047,0.226
		c-0.264-1.349-0.179-2.703,0.205-3.963c-0.02,0.064-0.044,0.127-0.062,0.192L8.88,35.925c-0.355-0.168-0.507-0.598-0.337-0.952
		l0.615-1.29c0.169-0.354,0.598-0.508,0.953-0.338l1.565,0.75c-0.057,0.079-0.106,0.165-0.161,0.247
		c0.755-1.147,1.798-2.11,3.073-2.77c-0.093,0.048-0.189,0.092-0.28,0.144l-0.578-1.637c-0.132-0.372,0.064-0.78,0.435-0.912
		l1.345-0.477c0.372-0.132,0.781,0.064,0.912,0.436L17,30.761c-0.1,0.017-0.201,0.043-0.301,0.063
		c1.415-0.293,2.841-0.197,4.156,0.227c-0.104-0.034-0.206-0.073-0.311-0.103l0.747-1.567c0.167-0.355,0.597-0.508,0.951-0.338
		l1.288,0.615c0.355,0.171,0.506,0.599,0.335,0.954l-0.746,1.568c-0.06-0.042-0.124-0.078-0.185-0.119
		c1.115,0.75,2.052,1.776,2.697,3.025c-0.046-0.089-0.088-0.182-0.137-0.269l1.632-0.58c0.371-0.13,0.781,0.064,0.911,0.436
		l0.478,1.347C28.645,36.393,28.449,36.803,28.08,36.934z M50.467,33.857c-0.034,0.442-0.424,0.775-0.865,0.741l-1.947-0.152
		c0.02-0.082,0.033-0.166,0.053-0.248c-0.346,1.508-1.052,2.862-2.021,3.982c0.049-0.057,0.102-0.108,0.149-0.166l1.272,1.49
		c0.288,0.337,0.251,0.85-0.087,1.138l-1.224,1.046c-0.336,0.289-0.846,0.249-1.134-0.089l-1.272-1.49
		c0.085-0.05,0.166-0.108,0.25-0.163c-1.293,0.821-2.791,1.329-4.389,1.426c0.111-0.008,0.225-0.008,0.336-0.019l-0.153,1.951
		c-0.035,0.442-0.423,0.774-0.864,0.74l-1.605-0.124c-0.443-0.035-0.774-0.426-0.74-0.868l0.15-1.951
		c0.104,0.027,0.213,0.045,0.318,0.068c-1.559-0.345-2.955-1.077-4.102-2.087c0.074,0.066,0.145,0.137,0.221,0.2l-1.486,1.274
		c-0.336,0.286-0.849,0.247-1.137-0.09l-1.047-1.226c-0.286-0.336-0.245-0.848,0.089-1.137l1.488-1.273
		c0.048,0.082,0.104,0.158,0.155,0.238c-0.809-1.279-1.309-2.76-1.411-4.338c0.007,0.097,0.007,0.195,0.017,0.292l-1.95-0.152
		c-0.442-0.035-0.774-0.425-0.739-0.866l0.125-1.608c0.035-0.442,0.423-0.776,0.866-0.741l1.948,0.153
		c-0.027,0.104-0.045,0.213-0.068,0.318c0.346-1.564,1.079-2.968,2.092-4.118c-0.068,0.078-0.141,0.151-0.207,0.23l-1.272-1.489
		c-0.286-0.337-0.248-0.849,0.089-1.137l1.225-1.048c0.335-0.288,0.848-0.249,1.135,0.088l1.271,1.492
		c-0.093,0.056-0.18,0.119-0.271,0.176c1.294-0.828,2.798-1.339,4.401-1.437c-0.109,0.007-0.22,0.008-0.329,0.018l0.153-1.951
		c0.035-0.443,0.423-0.775,0.864-0.741l1.606,0.126c0.441,0.034,0.774,0.425,0.738,0.865l-0.151,1.952
		c-0.107-0.027-0.22-0.046-0.328-0.07c1.571,0.346,2.979,1.086,4.132,2.106c-0.08-0.071-0.156-0.146-0.238-0.215l1.485-1.275
		c0.339-0.289,0.849-0.248,1.136,0.089l1.047,1.225c0.287,0.337,0.246,0.849-0.09,1.137l-1.488,1.273
		c-0.042-0.071-0.092-0.139-0.135-0.208c0.789,1.258,1.279,2.709,1.391,4.255c-0.006-0.079-0.006-0.159-0.014-0.237l1.948,0.152
		c0.44,0.034,0.774,0.423,0.741,0.865L50.467,33.857z"/>
	<path fill="#FFFFFF" d="M18.655,21.849c1.229,1.813,3.695,2.292,5.498,1.067c1.802-1.225,2.268-3.695,1.04-5.508
		c-1.229-1.812-3.694-2.291-5.496-1.067S17.426,20.038,18.655,21.849z"/>
</g>
</svg>
