<?xml version="1.0" encoding="utf-8"?>
<!-- Generator: Adobe Illustrator 15.0.0, SVG Export Plug-In . SVG Version: 6.00 Build 0)  -->
<!DOCTYPE svg PUBLIC "-//W3C//DTD SVG 1.1//EN" "http://www.w3.org/Graphics/SVG/1.1/DTD/svg11.dtd">
<svg version="1.1" id="Layer_1" xmlns="http://www.w3.org/2000/svg" xmlns:xlink="http://www.w3.org/1999/xlink" x="0px" y="0px"
	 width="55px" height="62px" viewBox="0 0 55 62" enable-background="new 0 0 55 62" xml:space="preserve">
<path fill="#FFFFFF" d="M51.895,13.066L30.427,0.549c-0.804-0.47-1.894-0.729-3.015-0.729s-2.196,0.259-3,0.729L2.995,13.066
	C1.321,14.045,0,16.345,0,18.302v25.036c0,1.958,1.314,4.257,2.988,5.235l21.408,12.519c0.804,0.47,1.865,0.729,2.985,0.729
	c1.121,0,2.182-0.259,2.985-0.729l21.528-12.519C53.567,47.595,55,45.296,55,43.338V18.302C55,16.345,53.568,14.045,51.895,13.066z
	 M27.382,11.618c5.049,0,9.141,4.723,9.141,10.548c0,5.827-4.092,10.547-9.141,10.547c-5.049-0.001-9.142-4.723-9.142-10.548
	C18.24,16.34,22.333,11.618,27.382,11.618z M28.412,55.694c-0.131,0.077-0.495,0.206-1.03,0.206s-0.9-0.129-1.03-0.206
	l-12.226-7.148c1.152-7.777,4.358-14.313,13.256-14.313s12.104,6.537,13.256,14.313L28.412,55.694z"/>
</svg>
