<?xml version="1.0" encoding="utf-8"?>
<!-- Generator: Adobe Illustrator 15.0.0, SVG Export Plug-In . SVG Version: 6.00 Build 0)  -->
<!DOCTYPE svg PUBLIC "-//W3C//DTD SVG 1.1//EN" "http://www.w3.org/Graphics/SVG/1.1/DTD/svg11.dtd">
<svg version="1.1" id="Layer_1" xmlns="http://www.w3.org/2000/svg" xmlns:xlink="http://www.w3.org/1999/xlink" x="0px" y="0px"
	 width="55px" height="62px" viewBox="0 0 55 62" enable-background="new 0 0 55 62" xml:space="preserve">
<g>
	<path fill="#FFFFFF" d="M52.059,13.254L30.06,0.479c-1.513-0.878-3.987-0.878-5.5,0L2.559,13.254
		c-1.513,0.878-2.75,3.042-2.75,4.798v25.55c0,1.756,1.237,3.905,2.75,4.784L24.56,61.162c1.513,0.877,3.987,0.877,5.5,0
		l21.999-12.775c1.513-0.879,2.75-3.028,2.75-4.784v-25.55C54.809,16.296,53.571,14.132,52.059,13.254z M37.854,47.145L27.309,41.56
		l-10.544,5.585l2.014-11.807l-8.529-8.37l11.788-1.726l5.271-10.732l5.273,10.732l11.787,1.726l-8.529,8.37L37.854,47.145z"/>
</g>
</svg>
