<?xml version="1.0" encoding="UTF-8" standalone="no"?>
<!-- Created with Inkscape (http://www.inkscape.org/) -->

<svg
   xmlns:dc="http://purl.org/dc/elements/1.1/"
   xmlns:cc="http://creativecommons.org/ns#"
   xmlns:rdf="http://www.w3.org/1999/02/22-rdf-syntax-ns#"
   xmlns:svg="http://www.w3.org/2000/svg"
   xmlns="http://www.w3.org/2000/svg"
   xmlns:xlink="http://www.w3.org/1999/xlink"
   xmlns:sodipodi="http://sodipodi.sourceforge.net/DTD/sodipodi-0.dtd"
   xmlns:inkscape="http://www.inkscape.org/namespaces/inkscape"
   width="720"
   height="150"
   id="svg3205"
   version="1.1"
   inkscape:version="0.48.4 r9939"
   sodipodi:docname="New document 1">
  <defs
     id="defs3207">
    <linearGradient
       id="SVGID_3_"
       gradientUnits="userSpaceOnUse"
       x1="-31.679701"
       y1="41.959999"
       x2="-30.9785"
       y2="41.959999"
       gradientTransform="matrix(-0.9032,35.2236,15.1255,0.3878,-381.7624,1704.2708)">
      <stop
         offset="0"
         style="stop-color:#00ADEE"
         id="stop40" />
      <stop
         offset="1"
         style="stop-color:#8DD7F7"
         id="stop42" />
    </linearGradient>
    <clipPath
       id="SVGID_2_">
      <use
         height="1052.3622"
         width="744.09448"
         y="0"
         x="0"
         style="overflow:visible"
         xlink:href="#SVGID_1_"
         overflow="visible"
         id="use37" />
    </clipPath>
    <linearGradient
       id="SVGID_6_"
       gradientUnits="userSpaceOnUse"
       x1="-47.993198"
       y1="41.882801"
       x2="-47.307598"
       y2="41.882801"
       gradientTransform="matrix(-0.2477,9.94,14.4715,0.3606,-336.7025,1050.4901)">
      <stop
         offset="0"
         style="stop-color:#00ADEE"
         id="stop57" />
      <stop
         offset="1"
         style="stop-color:#8DD7F7"
         id="stop59" />
    </linearGradient>
    <clipPath
       id="SVGID_5_">
      <use
         height="1052.3622"
         width="744.09448"
         y="0"
         x="0"
         style="overflow:visible"
         xlink:href="#SVGID_4_"
         overflow="visible"
         id="use54" />
    </clipPath>
    <linearGradient
       id="SVGID_9_"
       gradientUnits="userSpaceOnUse"
       x1="-30.9307"
       y1="42.942402"
       x2="-30.244499"
       y2="42.942402"
       gradientTransform="matrix(-1.0061,39.2384,47.3919,1.2152,-1702.0652,1764.2019)">
      <stop
         offset="0"
         style="stop-color:#00ADEE"
         id="stop74" />
      <stop
         offset="1"
         style="stop-color:#8DD7F7"
         id="stop76" />
    </linearGradient>
    <clipPath
       id="SVGID_8_">
      <use
         height="1052.3622"
         width="744.09448"
         y="0"
         x="0"
         style="overflow:visible"
         xlink:href="#SVGID_7_"
         overflow="visible"
         id="use71" />
    </clipPath>
    <linearGradient
       id="SVGID_12_"
       gradientUnits="userSpaceOnUse"
       x1="-31.665501"
       y1="38.736301"
       x2="-30.965799"
       y2="38.736301"
       gradientTransform="matrix(-0.9032,35.2234,15.1258,0.3878,-218.4466,1705.061)">
      <stop
         offset="0"
         style="stop-color:#00ADEE"
         id="stop91" />
      <stop
         offset="1"
         style="stop-color:#8DD7F7"
         id="stop93" />
    </linearGradient>
    <clipPath
       id="SVGID_11_">
      <use
         height="1052.3622"
         width="744.09448"
         y="0"
         x="0"
         style="overflow:visible"
         xlink:href="#SVGID_10_"
         overflow="visible"
         id="use88" />
    </clipPath>
    <linearGradient
       id="SVGID_15_"
       gradientUnits="userSpaceOnUse"
       x1="-47.870098"
       y1="38.496101"
       x2="-47.183998"
       y2="38.496101"
       gradientTransform="matrix(-0.2477,9.94,14.4715,0.3606,-173.1244,1050.4901)">
      <stop
         offset="0"
         style="stop-color:#00ADEE"
         id="stop108" />
      <stop
         offset="1"
         style="stop-color:#8DD7F7"
         id="stop110" />
    </linearGradient>
    <clipPath
       id="SVGID_14_">
      <use
         height="1052.3622"
         width="744.09448"
         y="0"
         x="0"
         style="overflow:visible"
         xlink:href="#SVGID_13_"
         overflow="visible"
         id="use105" />
    </clipPath>
    <linearGradient
       id="SVGID_18_"
       gradientUnits="userSpaceOnUse"
       x1="-28.695801"
       y1="43.028301"
       x2="-28.0103"
       y2="43.028301"
       gradientTransform="matrix(-1.5674,61.1295,70.4918,1.8075,-2643.1843,2264.2449)">
      <stop
         offset="0"
         style="stop-color:#00ADEE"
         id="stop125" />
      <stop
         offset="1"
         style="stop-color:#8DD7F7"
         id="stop127" />
    </linearGradient>
    <clipPath
       id="SVGID_17_">
      <use
         height="1052.3622"
         width="744.09448"
         y="0"
         x="0"
         style="overflow:visible"
         xlink:href="#SVGID_16_"
         overflow="visible"
         id="use122" />
    </clipPath>
    <linearGradient
       id="SVGID_21_"
       gradientUnits="userSpaceOnUse"
       x1="-30.7544"
       y1="42.590801"
       x2="-30.0825"
       y2="42.590801"
       gradientTransform="matrix(-1.0325,40.2691,67.4546,1.7296,-2412.5703,1767.4695)">
      <stop
         offset="0"
         style="stop-color:#00ADEE"
         id="stop142" />
      <stop
         offset="1"
         style="stop-color:#8DD7F7"
         id="stop144" />
    </linearGradient>
    <clipPath
       id="SVGID_20_">
      <use
         height="1052.3622"
         width="744.09448"
         y="0"
         x="0"
         style="overflow:visible"
         xlink:href="#SVGID_19_"
         overflow="visible"
         id="use139" />
    </clipPath>
    <linearGradient
       id="SVGID_24_"
       gradientUnits="userSpaceOnUse"
       x1="-31.049299"
       y1="39.836899"
       x2="-30.3491"
       y2="39.836899"
       gradientTransform="matrix(-0.9799,38.2163,31.5574,0.8092,-751.9913,1757.2285)">
      <stop
         offset="0"
         style="stop-color:#00ADEE"
         id="stop159" />
      <stop
         offset="1"
         style="stop-color:#8DD7F7"
         id="stop161" />
    </linearGradient>
    <clipPath
       id="SVGID_23_">
      <use
         height="1052.3622"
         width="744.09448"
         y="0"
         x="0"
         style="overflow:visible"
         xlink:href="#SVGID_22_"
         overflow="visible"
         id="use156" />
    </clipPath>
    <linearGradient
       id="SVGID_27_"
       gradientUnits="userSpaceOnUse"
       x1="-31.044399"
       y1="39.423801"
       x2="-30.3442"
       y2="39.423801"
       gradientTransform="matrix(-0.9799,38.2163,31.5577,0.8092,-707.9188,1757.3848)">
      <stop
         offset="0"
         style="stop-color:#00ADEE"
         id="stop176" />
      <stop
         offset="1"
         style="stop-color:#8DD7F7"
         id="stop178" />
    </linearGradient>
    <clipPath
       id="SVGID_26_">
      <use
         height="1052.3622"
         width="744.09448"
         y="0"
         x="0"
         style="overflow:visible"
         xlink:href="#SVGID_25_"
         overflow="visible"
         id="use173" />
    </clipPath>
    <linearGradient
       id="SVGID_30_"
       gradientUnits="userSpaceOnUse"
       x1="-30.871099"
       y1="43.579102"
       x2="-30.1845"
       y2="43.579102"
       gradientTransform="matrix(-1.0209,39.8137,58.7032,1.5052,-2271.7664,1766.0535)">
      <stop
         offset="0"
         style="stop-color:#00ADEE"
         id="stop193" />
      <stop
         offset="1"
         style="stop-color:#8DD7F7"
         id="stop195" />
    </linearGradient>
    <clipPath
       id="SVGID_29_">
      <use
         height="1052.3622"
         width="744.09448"
         y="0"
         x="0"
         style="overflow:visible"
         xlink:href="#SVGID_28_"
         overflow="visible"
         id="use190" />
    </clipPath>
    <linearGradient
       id="SVGID_33_"
       gradientUnits="userSpaceOnUse"
       x1="154.74409"
       y1="709.37701"
       x2="154.74409"
       y2="579.85889"
       gradientTransform="matrix(1,0,0,-1,52.3398,1210.04)">
      <stop
         offset="0"
         style="stop-color:#00ADEE"
         id="stop214" />
      <stop
         offset="1"
         style="stop-color:#8DD7F7"
         id="stop216" />
    </linearGradient>
    <clipPath
       id="SVGID_32_">
      <path
         d="m 207.082,674.882 c -1.627,0 -3.187,-0.363 -4.28,-0.993 l -40.247,-23.236 c -2.281,-1.316 -4.281,-4.78 -4.281,-7.414 v -46.475 c 0,-2.632 2,-6.097 4.281,-7.413 l 40.247,-23.236 c 1.093,-0.631 2.652,-0.993 4.28,-0.993 1.628,0 3.188,0.362 4.281,0.993 l 40.248,23.236 c 2.28,1.316 4.28,4.781 4.28,7.413 v 46.475 c 0,2.634 -2,6.098 -4.28,7.414 l -40.248,23.236 c -1.092,0.63 -2.652,0.993 -4.281,0.993 z"
         id="use211"
         inkscape:connector-curvature="0" />
    </clipPath>
    <linearGradient
       inkscape:collect="always"
       xlink:href="#SVGID_3_"
       id="linearGradient3957"
       gradientUnits="userSpaceOnUse"
       gradientTransform="matrix(-0.9032,35.2236,15.1255,0.3878,-381.7624,1704.2708)"
       x1="-31.679701"
       y1="41.959999"
       x2="-30.9785"
       y2="41.959999" />
    <linearGradient
       inkscape:collect="always"
       xlink:href="#SVGID_6_"
       id="linearGradient3959"
       gradientUnits="userSpaceOnUse"
       gradientTransform="matrix(-0.2477,9.94,14.4715,0.3606,-336.7025,1050.4901)"
       x1="-47.993198"
       y1="41.882801"
       x2="-47.307598"
       y2="41.882801" />
    <linearGradient
       inkscape:collect="always"
       xlink:href="#SVGID_9_"
       id="linearGradient3961"
       gradientUnits="userSpaceOnUse"
       gradientTransform="matrix(-1.0061,39.2384,47.3919,1.2152,-1702.0652,1764.2019)"
       x1="-30.9307"
       y1="42.942402"
       x2="-30.244499"
       y2="42.942402" />
    <linearGradient
       inkscape:collect="always"
       xlink:href="#SVGID_12_"
       id="linearGradient3963"
       gradientUnits="userSpaceOnUse"
       gradientTransform="matrix(-0.9032,35.2234,15.1258,0.3878,-218.4466,1705.061)"
       x1="-31.665501"
       y1="38.736301"
       x2="-30.965799"
       y2="38.736301" />
    <linearGradient
       inkscape:collect="always"
       xlink:href="#SVGID_15_"
       id="linearGradient3965"
       gradientUnits="userSpaceOnUse"
       gradientTransform="matrix(-0.2477,9.94,14.4715,0.3606,-173.1244,1050.4901)"
       x1="-47.870098"
       y1="38.496101"
       x2="-47.183998"
       y2="38.496101" />
    <linearGradient
       inkscape:collect="always"
       xlink:href="#SVGID_18_"
       id="linearGradient3967"
       gradientUnits="userSpaceOnUse"
       gradientTransform="matrix(-1.5674,61.1295,70.4918,1.8075,-2643.1843,2264.2449)"
       x1="-28.695801"
       y1="43.028301"
       x2="-28.0103"
       y2="43.028301" />
    <linearGradient
       inkscape:collect="always"
       xlink:href="#SVGID_21_"
       id="linearGradient3969"
       gradientUnits="userSpaceOnUse"
       gradientTransform="matrix(-1.0325,40.2691,67.4546,1.7296,-2412.5703,1767.4695)"
       x1="-30.7544"
       y1="42.590801"
       x2="-30.0825"
       y2="42.590801" />
    <linearGradient
       inkscape:collect="always"
       xlink:href="#SVGID_24_"
       id="linearGradient3971"
       gradientUnits="userSpaceOnUse"
       gradientTransform="matrix(-0.9799,38.2163,31.5574,0.8092,-751.9913,1757.2285)"
       x1="-31.049299"
       y1="39.836899"
       x2="-30.3491"
       y2="39.836899" />
    <linearGradient
       inkscape:collect="always"
       xlink:href="#SVGID_27_"
       id="linearGradient3973"
       gradientUnits="userSpaceOnUse"
       gradientTransform="matrix(-0.9799,38.2163,31.5577,0.8092,-707.9188,1757.3848)"
       x1="-31.044399"
       y1="39.423801"
       x2="-30.3442"
       y2="39.423801" />
    <linearGradient
       inkscape:collect="always"
       xlink:href="#SVGID_30_"
       id="linearGradient3975"
       gradientUnits="userSpaceOnUse"
       gradientTransform="matrix(-1.0209,39.8137,58.7032,1.5052,-2271.7664,1766.0535)"
       x1="-30.871099"
       y1="43.579102"
       x2="-30.1845"
       y2="43.579102" />
  </defs>
  <sodipodi:namedview
     id="base"
     pagecolor="#ffffff"
     bordercolor="#666666"
     borderopacity="1.0"
     inkscape:pageopacity="0.0"
     inkscape:pageshadow="2"
     inkscape:zoom="1.4"
     inkscape:cx="341.72972"
     inkscape:cy="191.56173"
     inkscape:document-units="px"
     inkscape:current-layer="g7"
     showgrid="false"
     inkscape:window-width="1920"
     inkscape:window-height="1028"
     inkscape:window-x="0"
     inkscape:window-y="0"
     inkscape:window-maximized="1" />
  <metadata
     id="metadata3210">
    <rdf:RDF>
      <cc:Work
         rdf:about="">
        <dc:format>image/svg+xml</dc:format>
        <dc:type
           rdf:resource="http://purl.org/dc/dcmitype/StillImage" />
        <dc:title></dc:title>
      </cc:Work>
    </rdf:RDF>
  </metadata>
  <g
     inkscape:label="Layer 1"
     inkscape:groupmode="layer"
     id="layer1"
     transform="translate(0,-902.36218)">
    <g
       transform="translate(-65.034857,-199.06739)"
       id="g7">
      <g
         id="g199"
         transform="matrix(1,0,0,0.22735321,566.07111,1095.1634)">
        <rect
           style="fill:#212121"
           y="27.561403"
           x="-501.03625"
           enable-background="new    "
           width="720"
           height="659.76636"
           id="rect5" />
      </g>
      <g
         id="g3845"
         transform="translate(602.48508,754.75397)">
        <path
           id="path9"
           d="m -308.91622,453.2431 v -48.601 h 13.572 v 5.167 h 0.177 c 2.859,-4.554 7.269,-6.83 13.221,-6.83 5.08,0 9.224,1.399 12.436,4.202 3.735,3.21 5.605,8.438 5.605,15.674 v 30.387 h -14.537 v -26.531 c 0,-2.803 -0.321,-4.906 -0.963,-6.308 -1.108,-2.51 -3.327,-3.765 -6.656,-3.765 -5.545,0 -8.315,3.385 -8.315,10.158 v 26.445 l -14.54,0.002 0,0 z"
           inkscape:connector-curvature="0"
           style="fill:#00adee" />
        <path
           id="path11"
           d="m -50.776222,453.2431 v -48.601 h 13.659 v 5.167 h 0.176 c 2.337,-4.554 6.395,-6.83 12.172,-6.83 v 14.623 c -3.734,0.116 -6.422,0.671 -8.057,1.663 -2.275,1.345 -3.413,3.765 -3.413,7.269 v 26.708 l -14.537,0.001 0,0 z"
           inkscape:connector-curvature="0"
           style="fill:#00adee" />
        <path
           id="path13"
           d="m -81.825222,453.2431 v -48.601 h 13.658 v 5.167 h 0.176 c 2.335,-4.554 6.393,-6.83 12.173,-6.83 v 14.623 c -3.735,0.116 -6.423,0.671 -8.058,1.663 -2.277,1.345 -3.414,3.765 -3.414,7.269 v 26.708 l -14.535,0.001 0,0 z"
           inkscape:connector-curvature="0"
           style="fill:#00adee" />
        <path
           id="path15"
           d="m -123.33622,423.5591 h 22.065 c -0.408,-1.984 -1.374,-3.735 -2.889,-5.254 -2.104,-2.044 -4.817,-3.065 -8.145,-3.065 -3.33,0 -6.043,1.021 -8.145,3.065 -1.514,1.518 -2.478,3.269 -2.886,5.254 m 20.125,14.446 h 14.812998 c -2.219,5.021 -5.343,9.05 -9.371,12.085 -4.259998,3.153 -9.045998,4.729 -14.357998,4.729 -7.006,0 -13.047,-2.495 -18.127,-7.487 -5.076,-4.99 -7.616,-11.076 -7.616,-18.256 0,-6.947 2.438,-13.032 7.312,-18.259 4.875,-5.224 10.932,-7.835 18.168,-7.835 7.359,0 13.473998,2.554 18.347998,7.662 4.874,5.109 7.312,11.397 7.312,18.869 0,1.052 -0.118,2.336 -0.351,3.854 h -36.251998 c 0.407,2.802 1.662,5.034 3.795,6.696 2.115,1.666 4.626,2.498 7.528,2.498 3.487,0 6.419,-1.52 8.799,-4.556 z"
           inkscape:connector-curvature="0"
           style="fill:#00adee" />
        <path
           id="path17"
           d="m -181.57322,428.7261 c 0,3.677 1.165,6.684 3.503,9.021 2.334,2.335 5.225,3.501 8.667,3.501 4.145,0 7.354,-1.459 9.633,-4.377 1.868,-2.336 2.803,-5.052 2.803,-8.145 0,-3.212 -1.021,-5.982 -3.065,-8.32 -2.333,-2.566 -5.399,-3.854 -9.192,-3.854 -3.912,0 -7.006,1.316 -9.281,3.942 -2.047,2.335 -3.068,5.079 -3.068,8.232 m 38.354,-40.281 v 64.8 h -13.837 v -5.255 h -0.175 c -2.742,4.553 -7.589,6.829 -14.536,6.829 -7.236,0 -13.104,-2.479 -17.6,-7.439 -4.495,-4.966 -6.743,-11.151 -6.743,-18.565 0,-7.882 2.481,-14.244 7.443,-19.088 4.554,-4.495 10.099,-6.743 16.638,-6.743 5.663,0 10.419,1.927 14.273,5.778 v -20.314 h 14.536 v -0.003 z"
           inkscape:connector-curvature="0"
           style="fill:#00adee" />
        <rect
           id="rect19"
           height="11.033"
           width="14.537"
           y="388.4451"
           x="-215.58923"
           style="fill:#00adee" />
        <rect
           id="rect21"
           height="48.601002"
           width="14.537"
           y="404.6431"
           x="-215.58923"
           style="fill:#00adee" />
        <path
           id="path23"
           d="m -221.29822,418.3051 h -14.273 c -0.173,-2.451 -1.691,-3.677 -4.552,-3.677 -2.744,0 -4.114,1.078 -4.114,3.24 0,2.101 2.479,3.852 7.441,5.254 5.604,1.574 9.458,3.092 11.559,4.552 3.618,2.453 5.429,6.014 5.429,10.684 0,4.962 -1.912,8.959 -5.733,11.996 -3.825,3.033 -8.51,4.552 -14.056,4.552 -4.671,0 -8.729,-1.078 -12.172,-3.238 -4.495,-2.86 -7.034,-7.152 -7.619,-12.872 h 14.449 c 0.409,2.978 2.246,4.465 5.517,4.465 1.345,0 2.526,-0.349 3.546,-1.049 1.021,-0.702 1.534,-1.604 1.534,-2.715 0,-1.692 -0.965,-3.035 -2.89,-4.028 -0.76,-0.408 -4.088,-1.664 -9.983,-3.765 -7.706,-2.744 -11.559,-6.977 -11.559,-12.696 0,-4.671 1.867,-8.554 5.604,-11.647 3.616,-2.919 8.024,-4.378 13.221,-4.378 4.322,0 8.086,0.962 11.297,2.891 4.378,2.624 6.829,6.768 7.354,12.431"
           inkscape:connector-curvature="0"
           style="fill:#00adee" />
        <rect
           id="rect25"
           height="11.033"
           width="14.537"
           y="388.4451"
           x="-330.13123"
           style="fill:#00adee" />
        <rect
           id="rect27"
           height="48.601002"
           width="14.537"
           y="404.6431"
           x="-330.13123"
           style="fill:#00adee" />
        <g
           transform="translate(-604.07122,-197.9899)"
           id="g29">
          <g
             id="g31">
            <defs
               id="defs33">
              <rect
                 height="24.184"
                 width="9.9680004"
                 y="604.91699"
                 x="276.224"
                 id="SVGID_1_" />
            </defs>
            <clipPath
               id="clipPath3293">
              <use
                 id="use3295"
                 overflow="visible"
                 xlink:href="#SVGID_1_"
                 style="overflow:visible"
                 x="0"
                 y="0"
                 width="744.09448"
                 height="1052.3622" />
            </clipPath>
            <linearGradient
               gradientTransform="matrix(-0.9032,35.2236,15.1255,0.3878,-381.7624,1704.2708)"
               y2="41.959999"
               x2="-30.9785"
               y1="41.959999"
               x1="-31.679701"
               gradientUnits="userSpaceOnUse"
               id="linearGradient3297">
              <stop
                 id="stop3299"
                 style="stop-color:#00ADEE"
                 offset="0" />
              <stop
                 id="stop3301"
                 style="stop-color:#8DD7F7"
                 offset="1" />
            </linearGradient>
            <polygon
               id="polygon44"
               points="286.813,604.933 276.231,604.662 275.605,629.086 286.187,629.357 "
               clip-path="url(#SVGID_2_)"
               style="fill:url(#linearGradient3957)" />
          </g>
        </g>
        <g
           transform="translate(-604.07122,-197.9899)"
           id="g46">
          <g
             id="g48">
            <defs
               id="defs50">
              <rect
                 height="6.4660001"
                 width="9.9680004"
                 y="588.71802"
                 x="276.224"
                 id="SVGID_4_" />
            </defs>
            <clipPath
               id="clipPath3308">
              <use
                 id="use3310"
                 overflow="visible"
                 xlink:href="#SVGID_4_"
                 style="overflow:visible"
                 x="0"
                 y="0"
                 width="744.09448"
                 height="1052.3622" />
            </clipPath>
            <linearGradient
               gradientTransform="matrix(-0.2477,9.94,14.4715,0.3606,-336.7025,1050.4901)"
               y2="41.882801"
               x2="-47.307598"
               y1="41.882801"
               x1="-47.993198"
               gradientUnits="userSpaceOnUse"
               id="linearGradient3312">
              <stop
                 id="stop3314"
                 style="stop-color:#00ADEE"
                 offset="0" />
              <stop
                 id="stop3316"
                 style="stop-color:#8DD7F7"
                 offset="1" />
            </linearGradient>
            <polygon
               id="polygon61"
               points="286.354,588.723 276.231,588.47 276.063,595.179 286.188,595.432 "
               clip-path="url(#SVGID_5_)"
               style="fill:url(#linearGradient3959)" />
          </g>
        </g>
        <g
           transform="translate(-604.07122,-197.9899)"
           id="g63">
          <g
             id="g65">
            <defs
               id="defs67">
              <path
                 d="m 379.367,629.102 c -0.527,-0.559 -1.129,-1.085 -1.831,-1.561 -2.7,-1.87 -7.739,-3.347 -10.884,-4.233 -3.502,-0.986 -9.104,-2.99 -9.104,-7.449 0,-3.833 2.854,-5.523 6.397,-5.523 3.002,0 5.388,1.196 6.368,3.677 h 9.786 c -0.796,-3.438 -2.608,-6.241 -5.861,-8.192 -3.083,-1.852 -6.552,-2.564 -10.12,-2.564 -4.357,0 -8.371,1.117 -11.775,3.862 -3.126,2.586 -4.764,5.796 -4.764,9.88 0,5.831 5.129,8.795 10.039,10.544 1.269,0.454 2.883,0.988 4.523,1.561 h 17.226 z"
                 id="SVGID_7_"
                 inkscape:connector-curvature="0" />
            </defs>
            <clipPath
               id="clipPath3323">
              <use
                 id="use3325"
                 overflow="visible"
                 xlink:href="#SVGID_7_"
                 style="overflow:visible"
                 x="0"
                 y="0"
                 width="744.09448"
                 height="1052.3622" />
            </clipPath>
            <linearGradient
               gradientTransform="matrix(-1.0061,39.2384,47.3919,1.2152,-1702.0652,1764.2019)"
               y2="42.942402"
               x2="-30.244499"
               y1="42.942402"
               x1="-30.9307"
               gradientUnits="userSpaceOnUse"
               id="linearGradient3327">
              <stop
                 id="stop3329"
                 style="stop-color:#00ADEE"
                 offset="0" />
              <stop
                 id="stop3331"
                 style="stop-color:#8DD7F7"
                 offset="1" />
            </linearGradient>
            <polygon
               id="polygon78"
               points="380.766,603.271 347.602,602.421 346.918,629.084 380.082,629.936 "
               clip-path="url(#SVGID_8_)"
               style="fill:url(#linearGradient3961)" />
          </g>
        </g>
        <g
           transform="translate(-604.07122,-197.9899)"
           id="g80">
          <g
             id="g82">
            <defs
               id="defs84">
              <rect
                 height="24.184"
                 width="9.9700003"
                 y="604.91699"
                 x="390.767"
                 id="SVGID_10_" />
            </defs>
            <clipPath
               id="clipPath3338">
              <use
                 id="use3340"
                 overflow="visible"
                 xlink:href="#SVGID_10_"
                 style="overflow:visible"
                 x="0"
                 y="0"
                 width="744.09448"
                 height="1052.3622" />
            </clipPath>
            <linearGradient
               gradientTransform="matrix(-0.9032,35.2234,15.1258,0.3878,-218.4466,1705.061)"
               y2="38.736301"
               x2="-30.965799"
               y1="38.736301"
               x1="-31.665501"
               gradientUnits="userSpaceOnUse"
               id="linearGradient3342">
              <stop
                 id="stop3344"
                 style="stop-color:#00ADEE"
                 offset="0" />
              <stop
                 id="stop3346"
                 style="stop-color:#8DD7F7"
                 offset="1" />
            </linearGradient>
            <polygon
               id="polygon95"
               points="401.355,604.933 390.774,604.662 390.147,629.086 400.729,629.357 "
               clip-path="url(#SVGID_11_)"
               style="fill:url(#linearGradient3963)" />
          </g>
        </g>
        <g
           transform="translate(-604.07122,-197.9899)"
           id="g97">
          <g
             id="g99">
            <defs
               id="defs101">
              <rect
                 height="6.4660001"
                 width="9.9700003"
                 y="588.71802"
                 x="390.767"
                 id="SVGID_13_" />
            </defs>
            <clipPath
               id="clipPath3353">
              <use
                 id="use3355"
                 overflow="visible"
                 xlink:href="#SVGID_13_"
                 style="overflow:visible"
                 x="0"
                 y="0"
                 width="744.09448"
                 height="1052.3622" />
            </clipPath>
            <linearGradient
               gradientTransform="matrix(-0.2477,9.94,14.4715,0.3606,-173.1244,1050.4901)"
               y2="38.496101"
               x2="-47.183998"
               y1="38.496101"
               x1="-47.870098"
               gradientUnits="userSpaceOnUse"
               id="linearGradient3357">
              <stop
                 id="stop3359"
                 style="stop-color:#00ADEE"
                 offset="0" />
              <stop
                 id="stop3361"
                 style="stop-color:#8DD7F7"
                 offset="1" />
            </linearGradient>
            <polygon
               id="polygon112"
               points="400.897,588.723 390.773,588.47 390.606,595.179 400.73,595.432 "
               clip-path="url(#SVGID_14_)"
               style="fill:url(#linearGradient3965)" />
          </g>
        </g>
        <g
           transform="translate(-604.07122,-197.9899)"
           id="g114">
          <g
             id="g116">
            <defs
               id="defs118">
              <path
                 d="m 458.569,588.718 h -9.971 v 23.537 l -3.896,-3.89 c -3.502,-3.499 -7.719,-5.11 -12.658,-5.11 -5.863,0 -10.859,1.962 -15.042,6.089 -4.85,4.738 -6.757,10.752 -6.757,17.458 0,0.778 0.031,1.544 0.085,2.3 h 10.048 c -0.105,-0.779 -0.163,-1.57 -0.163,-2.387 0,-3.678 1.204,-6.961 3.623,-9.728 2.855,-3.297 6.684,-4.73 11.008,-4.73 4.255,0 8.013,1.445 10.903,4.627 2.443,2.794 3.64,6.122 3.64,9.831 0,0.815 -0.052,1.609 -0.165,2.387 h 9.347 l -0.002,-40.384 0,0 z"
                 id="SVGID_16_"
                 inkscape:connector-curvature="0" />
            </defs>
            <clipPath
               id="clipPath3368">
              <use
                 id="use3370"
                 overflow="visible"
                 xlink:href="#SVGID_16_"
                 style="overflow:visible"
                 x="0"
                 y="0"
                 width="744.09448"
                 height="1052.3622" />
            </clipPath>
            <linearGradient
               gradientTransform="matrix(-1.5674,61.1295,70.4918,1.8075,-2643.1843,2264.2449)"
               y2="43.028301"
               x2="-28.0103"
               y1="43.028301"
               x1="-28.695801"
               gradientUnits="userSpaceOnUse"
               id="linearGradient3372">
              <stop
                 id="stop3374"
                 style="stop-color:#00ADEE"
                 offset="0" />
              <stop
                 id="stop3376"
                 style="stop-color:#8DD7F7"
                 offset="1" />
            </linearGradient>
            <polygon
               id="polygon129"
               points="459.603,588.745 410.278,587.479 409.21,629.074 458.535,630.34 "
               clip-path="url(#SVGID_17_)"
               style="fill:url(#linearGradient3967)" />
          </g>
        </g>
        <g
           transform="translate(-604.07122,-197.9899)"
           id="g131">
          <g
             id="g133">
            <defs
               id="defs135">
              <path
                 d="m 478.497,621.087 c 0.511,-2.478 1.731,-4.624 3.528,-6.425 2.673,-2.594 6.045,-3.717 9.742,-3.717 3.697,0 7.068,1.123 9.752,3.729 1.787,1.787 3.009,3.938 3.52,6.415 l 0.563,2.742 h -27.674 l 0.569,-2.744 z m -0.402,8.015 -0.005,-0.028 h 36.885 c 0.05,-0.527 0.079,-1.053 0.079,-1.571 0,-6.647 -2.064,-12.453 -6.682,-17.293 -4.549,-4.767 -10.123,-6.953 -16.693,-6.953 -6.555,0 -12.022,2.313 -16.495,7.11 -4.408,4.724 -6.7,10.229 -6.7,16.699 0,0.688 0.032,1.372 0.084,2.036 h 9.527 l 0,0 z"
                 id="SVGID_19_"
                 inkscape:connector-curvature="0" />
            </defs>
            <clipPath
               id="clipPath3383">
              <use
                 id="use3385"
                 overflow="visible"
                 xlink:href="#SVGID_19_"
                 style="overflow:visible"
                 x="0"
                 y="0"
                 width="744.09448"
                 height="1052.3622" />
            </clipPath>
            <linearGradient
               gradientTransform="matrix(-1.0325,40.2691,67.4546,1.7296,-2412.5703,1767.4695)"
               y2="42.590801"
               x2="-30.0825"
               y1="42.590801"
               x1="-30.7544"
               gradientUnits="userSpaceOnUse"
               id="linearGradient3387">
              <stop
                 id="stop3389"
                 style="stop-color:#00ADEE"
                 offset="0" />
              <stop
                 id="stop3391"
                 style="stop-color:#8DD7F7"
                 offset="1" />
            </linearGradient>
            <polygon
               id="polygon146"
               points="515.716,603.271 468.513,602.061 467.821,629.084 515.023,630.295 "
               clip-path="url(#SVGID_20_)"
               style="fill:url(#linearGradient3969)" />
          </g>
        </g>
        <g
           transform="translate(-604.07122,-197.9899)"
           id="g148">
          <g
             id="g150">
            <defs
               id="defs152">
              <path
                 d="m 534.497,629.102 v -4.574 c 0,-3.75 1.172,-7.251 4.519,-9.228 1.929,-1.168 4.538,-1.657 6.954,-1.863 V 603.4 c -3.415,0.459 -6.128,2.067 -7.857,5.441 l -0.638,1.242 h -3.854 v -5.167 h -9.09 V 629.1 l 9.966,0.002 0,0 z"
                 id="SVGID_22_"
                 inkscape:connector-curvature="0" />
            </defs>
            <clipPath
               id="clipPath3398">
              <use
                 id="use3400"
                 overflow="visible"
                 xlink:href="#SVGID_22_"
                 style="overflow:visible"
                 x="0"
                 y="0"
                 width="744.09448"
                 height="1052.3622" />
            </clipPath>
            <linearGradient
               gradientTransform="matrix(-0.9799,38.2163,31.5574,0.8092,-751.9913,1757.2285)"
               y2="39.836899"
               x2="-30.3491"
               y1="39.836899"
               x1="-31.049299"
               gradientUnits="userSpaceOnUse"
               id="linearGradient3402">
              <stop
                 id="stop3404"
                 style="stop-color:#00ADEE"
                 offset="0" />
              <stop
                 id="stop3406"
                 style="stop-color:#8DD7F7"
                 offset="1" />
            </linearGradient>
            <polygon
               id="polygon163"
               points="546.629,603.417 524.546,602.851 523.872,629.086 545.956,629.651 "
               clip-path="url(#SVGID_23_)"
               style="fill:url(#linearGradient3971)" />
          </g>
        </g>
        <g
           transform="translate(-604.07122,-197.9899)"
           id="g165">
          <g
             id="g167">
            <defs
               id="defs169">
              <path
                 d="m 565.549,629.102 v -4.574 c 0,-3.75 1.172,-7.249 4.52,-9.228 1.928,-1.168 4.535,-1.657 6.951,-1.863 V 603.4 c -3.414,0.459 -6.125,2.067 -7.854,5.441 l -0.638,1.242 h -3.854 v -5.167 h -9.092 V 629.1 l 9.967,0.002 0,0 z"
                 id="SVGID_25_"
                 inkscape:connector-curvature="0" />
            </defs>
            <clipPath
               id="clipPath3413">
              <use
                 id="use3415"
                 overflow="visible"
                 xlink:href="#SVGID_25_"
                 style="overflow:visible"
                 x="0"
                 y="0"
                 width="744.09448"
                 height="1052.3622" />
            </clipPath>
            <linearGradient
               gradientTransform="matrix(-0.9799,38.2163,31.5577,0.8092,-707.9188,1757.3848)"
               y2="39.423801"
               x2="-30.3442"
               y1="39.423801"
               x1="-31.044399"
               gradientUnits="userSpaceOnUse"
               id="linearGradient3417">
              <stop
                 id="stop3419"
                 style="stop-color:#00ADEE"
                 offset="0" />
              <stop
                 id="stop3421"
                 style="stop-color:#8DD7F7"
                 offset="1" />
            </linearGradient>
            <polygon
               id="polygon180"
               points="577.678,603.417 555.594,602.851 554.921,629.086 577.004,629.651 "
               clip-path="url(#SVGID_26_)"
               style="fill:url(#linearGradient3973)" />
          </g>
        </g>
        <g
           transform="translate(-604.07122,-197.9899)"
           id="g182">
          <g
             id="g184">
            <defs
               id="defs186">
              <path
                 d="m 307.408,629.102 v -4.313 c 0,-6.994 2.92,-12.442 10.6,-12.442 3.854,0 7.135,1.482 8.738,5.107 0.978,2.141 1.164,4.924 1.164,7.249 v 4.398 h 9.969 v -8.252 c 0,-4.896 -0.886,-10.572 -4.818,-13.952 -3.079,-2.689 -6.912,-3.643 -10.938,-3.643 -4.81,0 -8.688,1.62 -11.284,5.76 l -0.672,1.069 h -3.725 v -5.167 h -9.004 V 629.1 l 9.97,0.002 0,0 z"
                 id="SVGID_28_"
                 inkscape:connector-curvature="0" />
            </defs>
            <clipPath
               id="clipPath3428">
              <use
                 id="use3430"
                 overflow="visible"
                 xlink:href="#SVGID_28_"
                 style="overflow:visible"
                 x="0"
                 y="0"
                 width="744.09448"
                 height="1052.3622" />
            </clipPath>
            <linearGradient
               gradientTransform="matrix(-1.0209,39.8137,58.7032,1.5052,-2271.7664,1766.0535)"
               y2="43.579102"
               x2="-30.1845"
               y1="43.579102"
               x1="-30.871099"
               gradientUnits="userSpaceOnUse"
               id="linearGradient3432">
              <stop
                 id="stop3434"
                 style="stop-color:#00ADEE"
                 offset="0" />
              <stop
                 id="stop3436"
                 style="stop-color:#8DD7F7"
                 offset="1" />
            </linearGradient>
            <polygon
               id="polygon197"
               points="338.541,603.271 297.465,602.219 296.776,629.084 337.852,630.139 "
               clip-path="url(#SVGID_29_)"
               style="fill:url(#linearGradient3975)" />
          </g>
        </g>
      </g>
    </g>
  </g>
</svg>
