<?xml version="1.0" encoding="UTF-8" standalone="no"?>
<!-- Created with Inkscape (http://www.inkscape.org/) -->

<svg
   xmlns:dc="http://purl.org/dc/elements/1.1/"
   xmlns:cc="http://creativecommons.org/ns#"
   xmlns:rdf="http://www.w3.org/1999/02/22-rdf-syntax-ns#"
   xmlns:svg="http://www.w3.org/2000/svg"
   xmlns="http://www.w3.org/2000/svg"
   xmlns:xlink="http://www.w3.org/1999/xlink"
   xmlns:sodipodi="http://sodipodi.sourceforge.net/DTD/sodipodi-0.dtd"
   xmlns:inkscape="http://www.inkscape.org/namespaces/inkscape"
   width="116"
   height="116"
   id="svg4241"
   version="1.1"
   inkscape:version="0.48.4 r9939"
   sodipodi:docname="New document 6">
  <defs
     id="defs4243">
    <linearGradient
       id="SVGID_3_"
       gradientUnits="userSpaceOnUse"
       x1="-31.679701"
       y1="41.959999"
       x2="-30.9785"
       y2="41.959999"
       gradientTransform="matrix(-0.9032,35.2236,15.1255,0.3878,-381.7624,1704.2708)">
      <stop
         offset="0"
         style="stop-color:#00ADEE"
         id="stop40" />
      <stop
         offset="1"
         style="stop-color:#8DD7F7"
         id="stop42" />
    </linearGradient>
    <clipPath
       id="SVGID_2_">
      <rect
         height="24.184"
         width="9.9680004"
         y="604.91699"
         x="276.224"
         id="use37" />
    </clipPath>
    <linearGradient
       id="SVGID_6_"
       gradientUnits="userSpaceOnUse"
       x1="-47.993198"
       y1="41.882801"
       x2="-47.307598"
       y2="41.882801"
       gradientTransform="matrix(-0.2477,9.94,14.4715,0.3606,-336.7025,1050.4901)">
      <stop
         offset="0"
         style="stop-color:#00ADEE"
         id="stop57" />
      <stop
         offset="1"
         style="stop-color:#8DD7F7"
         id="stop59" />
    </linearGradient>
    <clipPath
       id="SVGID_5_">
      <rect
         height="6.4660001"
         width="9.9680004"
         y="588.71802"
         x="276.224"
         id="use54" />
    </clipPath>
    <linearGradient
       id="SVGID_9_"
       gradientUnits="userSpaceOnUse"
       x1="-30.9307"
       y1="42.942402"
       x2="-30.244499"
       y2="42.942402"
       gradientTransform="matrix(-1.0061,39.2384,47.3919,1.2152,-1702.0652,1764.2019)">
      <stop
         offset="0"
         style="stop-color:#00ADEE"
         id="stop74" />
      <stop
         offset="1"
         style="stop-color:#8DD7F7"
         id="stop76" />
    </linearGradient>
    <clipPath
       id="SVGID_8_">
      <path
         d="m 379.367,629.102 c -0.527,-0.559 -1.129,-1.085 -1.831,-1.561 -2.7,-1.87 -7.739,-3.347 -10.884,-4.233 -3.502,-0.986 -9.104,-2.99 -9.104,-7.449 0,-3.833 2.854,-5.523 6.397,-5.523 3.002,0 5.388,1.196 6.368,3.677 h 9.786 c -0.796,-3.438 -2.608,-6.241 -5.861,-8.192 -3.083,-1.852 -6.552,-2.564 -10.12,-2.564 -4.357,0 -8.371,1.117 -11.775,3.862 -3.126,2.586 -4.764,5.796 -4.764,9.88 0,5.831 5.129,8.795 10.039,10.544 1.269,0.454 2.883,0.988 4.523,1.561 h 17.226 z"
         id="use71"
         inkscape:connector-curvature="0" />
    </clipPath>
    <linearGradient
       id="SVGID_12_"
       gradientUnits="userSpaceOnUse"
       x1="-31.665501"
       y1="38.736301"
       x2="-30.965799"
       y2="38.736301"
       gradientTransform="matrix(-0.9032,35.2234,15.1258,0.3878,-218.4466,1705.061)">
      <stop
         offset="0"
         style="stop-color:#00ADEE"
         id="stop91" />
      <stop
         offset="1"
         style="stop-color:#8DD7F7"
         id="stop93" />
    </linearGradient>
    <clipPath
       id="SVGID_11_">
      <rect
         height="24.184"
         width="9.9700003"
         y="604.91699"
         x="390.767"
         id="use88" />
    </clipPath>
    <linearGradient
       id="SVGID_15_"
       gradientUnits="userSpaceOnUse"
       x1="-47.870098"
       y1="38.496101"
       x2="-47.183998"
       y2="38.496101"
       gradientTransform="matrix(-0.2477,9.94,14.4715,0.3606,-173.1244,1050.4901)">
      <stop
         offset="0"
         style="stop-color:#00ADEE"
         id="stop108" />
      <stop
         offset="1"
         style="stop-color:#8DD7F7"
         id="stop110" />
    </linearGradient>
    <clipPath
       id="SVGID_14_">
      <rect
         height="6.4660001"
         width="9.9700003"
         y="588.71802"
         x="390.767"
         id="use105" />
    </clipPath>
    <linearGradient
       id="SVGID_18_"
       gradientUnits="userSpaceOnUse"
       x1="-28.695801"
       y1="43.028301"
       x2="-28.0103"
       y2="43.028301"
       gradientTransform="matrix(-1.5674,61.1295,70.4918,1.8075,-2643.1843,2264.2449)">
      <stop
         offset="0"
         style="stop-color:#00ADEE"
         id="stop125" />
      <stop
         offset="1"
         style="stop-color:#8DD7F7"
         id="stop127" />
    </linearGradient>
    <clipPath
       id="SVGID_17_">
      <path
         d="m 458.569,588.718 h -9.971 v 23.537 l -3.896,-3.89 c -3.502,-3.499 -7.719,-5.11 -12.658,-5.11 -5.863,0 -10.859,1.962 -15.042,6.089 -4.85,4.738 -6.757,10.752 -6.757,17.458 0,0.778 0.031,1.544 0.085,2.3 h 10.048 c -0.105,-0.779 -0.163,-1.57 -0.163,-2.387 0,-3.678 1.204,-6.961 3.623,-9.728 2.855,-3.297 6.684,-4.73 11.008,-4.73 4.255,0 8.013,1.445 10.903,4.627 2.443,2.794 3.64,6.122 3.64,9.831 0,0.815 -0.052,1.609 -0.165,2.387 h 9.347 l -0.002,-40.384 0,0 z"
         id="use122"
         inkscape:connector-curvature="0" />
    </clipPath>
    <linearGradient
       id="SVGID_21_"
       gradientUnits="userSpaceOnUse"
       x1="-30.7544"
       y1="42.590801"
       x2="-30.0825"
       y2="42.590801"
       gradientTransform="matrix(-1.0325,40.2691,67.4546,1.7296,-2412.5703,1767.4695)">
      <stop
         offset="0"
         style="stop-color:#00ADEE"
         id="stop142" />
      <stop
         offset="1"
         style="stop-color:#8DD7F7"
         id="stop144" />
    </linearGradient>
    <clipPath
       id="SVGID_20_">
      <path
         d="m 478.497,621.087 c 0.511,-2.478 1.731,-4.624 3.528,-6.425 2.673,-2.594 6.045,-3.717 9.742,-3.717 3.697,0 7.068,1.123 9.752,3.729 1.787,1.787 3.009,3.938 3.52,6.415 l 0.563,2.742 h -27.674 l 0.569,-2.744 z m -0.402,8.015 -0.005,-0.028 h 36.885 c 0.05,-0.527 0.079,-1.053 0.079,-1.571 0,-6.647 -2.064,-12.453 -6.682,-17.293 -4.549,-4.767 -10.123,-6.953 -16.693,-6.953 -6.555,0 -12.022,2.313 -16.495,7.11 -4.408,4.724 -6.7,10.229 -6.7,16.699 0,0.688 0.032,1.372 0.084,2.036 h 9.527 l 0,0 z"
         id="use139"
         inkscape:connector-curvature="0" />
    </clipPath>
    <linearGradient
       id="SVGID_24_"
       gradientUnits="userSpaceOnUse"
       x1="-31.049299"
       y1="39.836899"
       x2="-30.3491"
       y2="39.836899"
       gradientTransform="matrix(-0.9799,38.2163,31.5574,0.8092,-751.9913,1757.2285)">
      <stop
         offset="0"
         style="stop-color:#00ADEE"
         id="stop159" />
      <stop
         offset="1"
         style="stop-color:#8DD7F7"
         id="stop161" />
    </linearGradient>
    <clipPath
       id="SVGID_23_">
      <path
         d="m 534.497,629.102 v -4.574 c 0,-3.75 1.172,-7.251 4.519,-9.228 1.929,-1.168 4.538,-1.657 6.954,-1.863 V 603.4 c -3.415,0.459 -6.128,2.067 -7.857,5.441 l -0.638,1.242 h -3.854 v -5.167 h -9.09 V 629.1 l 9.966,0.002 0,0 z"
         id="use156"
         inkscape:connector-curvature="0" />
    </clipPath>
    <linearGradient
       id="SVGID_27_"
       gradientUnits="userSpaceOnUse"
       x1="-31.044399"
       y1="39.423801"
       x2="-30.3442"
       y2="39.423801"
       gradientTransform="matrix(-0.9799,38.2163,31.5577,0.8092,-707.9188,1757.3848)">
      <stop
         offset="0"
         style="stop-color:#00ADEE"
         id="stop176" />
      <stop
         offset="1"
         style="stop-color:#8DD7F7"
         id="stop178" />
    </linearGradient>
    <clipPath
       id="SVGID_26_">
      <path
         d="m 565.549,629.102 v -4.574 c 0,-3.75 1.172,-7.249 4.52,-9.228 1.928,-1.168 4.535,-1.657 6.951,-1.863 V 603.4 c -3.414,0.459 -6.125,2.067 -7.854,5.441 l -0.638,1.242 h -3.854 v -5.167 h -9.092 V 629.1 l 9.967,0.002 0,0 z"
         id="use173"
         inkscape:connector-curvature="0" />
    </clipPath>
    <linearGradient
       id="SVGID_30_"
       gradientUnits="userSpaceOnUse"
       x1="-30.871099"
       y1="43.579102"
       x2="-30.1845"
       y2="43.579102"
       gradientTransform="matrix(-1.0209,39.8137,58.7032,1.5052,-2271.7664,1766.0535)">
      <stop
         offset="0"
         style="stop-color:#00ADEE"
         id="stop193" />
      <stop
         offset="1"
         style="stop-color:#8DD7F7"
         id="stop195" />
    </linearGradient>
    <clipPath
       id="SVGID_29_">
      <path
         d="m 307.408,629.102 v -4.313 c 0,-6.994 2.92,-12.442 10.6,-12.442 3.854,0 7.135,1.482 8.738,5.107 0.978,2.141 1.164,4.924 1.164,7.249 v 4.398 h 9.969 v -8.252 c 0,-4.896 -0.886,-10.572 -4.818,-13.952 -3.079,-2.689 -6.912,-3.643 -10.938,-3.643 -4.81,0 -8.688,1.62 -11.284,5.76 l -0.672,1.069 h -3.725 v -5.167 h -9.004 V 629.1 l 9.97,0.002 0,0 z"
         id="use190"
         inkscape:connector-curvature="0" />
    </clipPath>
    <linearGradient
       id="SVGID_33_"
       gradientUnits="userSpaceOnUse"
       x1="154.74409"
       y1="709.37701"
       x2="154.74409"
       y2="579.85889"
       gradientTransform="matrix(1,0,0,-1,52.3398,1210.04)">
      <stop
         offset="0"
         style="stop-color:#00ADEE"
         id="stop214" />
      <stop
         offset="1"
         style="stop-color:#8DD7F7"
         id="stop216" />
    </linearGradient>
    <clipPath
       id="SVGID_32_">
      <use
         height="1052.3622"
         width="744.09448"
         y="0"
         x="0"
         style="overflow:visible"
         xlink:href="#SVGID_31_"
         overflow="visible"
         id="use211" />
    </clipPath>
  </defs>
  <sodipodi:namedview
     id="base"
     pagecolor="#ffffff"
     bordercolor="#666666"
     borderopacity="1.0"
     inkscape:pageopacity="0.0"
     inkscape:pageshadow="2"
     inkscape:zoom="1.979899"
     inkscape:cx="261.26347"
     inkscape:cy="-57.151566"
     inkscape:document-units="px"
     inkscape:current-layer="g7"
     showgrid="false"
     inkscape:window-width="1920"
     inkscape:window-height="1028"
     inkscape:window-x="0"
     inkscape:window-y="0"
     inkscape:window-maximized="1" />
  <metadata
     id="metadata4246">
    <rdf:RDF>
      <cc:Work
         rdf:about="">
        <dc:format>image/svg+xml</dc:format>
        <dc:type
           rdf:resource="http://purl.org/dc/dcmitype/StillImage" />
        <dc:title></dc:title>
      </cc:Work>
    </rdf:RDF>
  </metadata>
  <g
     inkscape:label="Layer 1"
     inkscape:groupmode="layer"
     id="layer1"
     transform="translate(0,-936.36218)">
    <g
       transform="translate(7.108,-87.638817)"
       id="g7">
      <g
         id="g199"
         transform="translate(-156.191,462)">
        <path
           style="fill:#00adee"
           inkscape:connector-curvature="0"
           d="m 156.482,596.763 c 0,-3.288 2.33,-7.322 5.176,-8.966 l 40.248,-23.237 c 2.848,-1.644 7.506,-1.644 10.354,0 l 40.248,23.237 c 2.847,1.645 5.176,5.678 5.176,8.966 v 46.475 c 0,3.288 -2.329,7.322 -5.176,8.967 l -40.248,23.237 c -2.848,1.644 -7.506,1.644 -10.354,0 l -40.248,-23.237 c -2.847,-1.645 -5.176,-5.679 -5.176,-8.967 v -46.475 z"
           id="path201" />
        <g
           id="g203">
          <g
             id="g205">
            <defs
               id="defs207">
              <path
                 inkscape:connector-curvature="0"
                 id="SVGID_31_"
                 d="m 207.082,674.882 c -1.627,0 -3.187,-0.363 -4.28,-0.993 l -40.247,-23.236 c -2.281,-1.316 -4.281,-4.78 -4.281,-7.414 v -46.475 c 0,-2.632 2,-6.097 4.281,-7.413 l 40.247,-23.236 c 1.093,-0.631 2.652,-0.993 4.28,-0.993 1.628,0 3.188,0.362 4.281,0.993 l 40.248,23.236 c 2.28,1.316 4.28,4.781 4.28,7.413 v 46.475 c 0,2.634 -2,6.098 -4.28,7.414 l -40.248,23.236 c -1.092,0.63 -2.652,0.993 -4.281,0.993 z" />
            </defs>
            <clipPath
               id="clipPath4228">
              <use
                 height="1052.3622"
                 width="744.09448"
                 y="0"
                 x="0"
                 style="overflow:visible"
                 xlink:href="#SVGID_31_"
                 overflow="visible"
                 id="use4230" />
            </clipPath>
            <linearGradient
               id="linearGradient4232"
               gradientUnits="userSpaceOnUse"
               x1="154.74409"
               y1="709.37701"
               x2="154.74409"
               y2="579.85889"
               gradientTransform="matrix(1,0,0,-1,52.3398,1210.04)">
              <stop
                 offset="0"
                 style="stop-color:#00ADEE"
                 id="stop4234" />
              <stop
                 offset="1"
                 style="stop-color:#8DD7F7"
                 id="stop4236" />
            </linearGradient>
            <path
               style="fill:url(#SVGID_33_)"
               inkscape:connector-curvature="0"
               clip-path="url(#SVGID_32_)"
               d="m 283.001,592.597 c 0,20.758 -33.99,37.585 -75.917,37.585 -41.929,0 -75.917,-16.827 -75.917,-37.585 V 500.663 H 275.43 l 7.571,91.934 z"
               id="path218" />
          </g>
        </g>
        <path
           style="fill:#00adee"
           inkscape:connector-curvature="0"
           d="m 188.182,654.043 7.828,-28.981 c -5.113,-3.686 -8.125,-9.528 -8.125,-15.883 0,-10.806 8.79,-19.598 19.596,-19.598 10.806,0 19.597,8.792 19.597,19.598 0,6.205 -2.905,11.97 -7.833,15.669 l 7.695,29.195 h -38.758 z"
           id="path220" />
        <path
           style="fill:#ffffff"
           inkscape:connector-curvature="0"
           d="m 224.613,652.25 -7.421,-28.152 c 4.87,-3.179 8.093,-8.67 8.093,-14.918 0,-9.831 -7.971,-17.804 -17.803,-17.804 -9.829,0 -17.803,7.974 -17.803,17.804 0,6.375 3.359,11.968 8.397,15.111 l -7.552,27.96 34.089,-10e-4 0,0 z"
           id="path222" />
      </g>
    </g>
  </g>
</svg>
