<?xml version="1.0" encoding="UTF-8" standalone="no"?>
<!-- Generator: Adobe Illustrator 15.0.2, SVG Export Plug-In . SVG Version: 6.00 Build 0)  -->

<svg
   xmlns:dc="http://purl.org/dc/elements/1.1/"
   xmlns:cc="http://creativecommons.org/ns#"
   xmlns:rdf="http://www.w3.org/1999/02/22-rdf-syntax-ns#"
   xmlns:svg="http://www.w3.org/2000/svg"
   xmlns="http://www.w3.org/2000/svg"
   xmlns:xlink="http://www.w3.org/1999/xlink"
   xmlns:sodipodi="http://sodipodi.sourceforge.net/DTD/sodipodi-0.dtd"
   xmlns:inkscape="http://www.inkscape.org/namespaces/inkscape"
   version="1.1"
   id="Layer_1"
   x="0px"
   y="0px"
   width="700"
   height="700"
   viewBox="0 0 700 700"
   enable-background="new 0 0 697.5 697.5"
   xml:space="preserve"
   inkscape:version="0.48.4 r9939"
   sodipodi:docname="placeholder.svg"><metadata
     id="metadata21"><rdf:RDF><cc:Work
         rdf:about=""><dc:format>image/svg+xml</dc:format><dc:type
           rdf:resource="http://purl.org/dc/dcmitype/StillImage" /></cc:Work></rdf:RDF></metadata><defs
     id="defs19" /><sodipodi:namedview
     pagecolor="#ffffff"
     bordercolor="#666666"
     borderopacity="1"
     objecttolerance="10"
     gridtolerance="10"
     guidetolerance="10"
     inkscape:pageopacity="0"
     inkscape:pageshadow="2"
     inkscape:window-width="1920"
     inkscape:window-height="1030"
     id="namedview17"
     showgrid="false"
     inkscape:snap-bbox="true"
     inkscape:snap-page="true"
     inkscape:zoom="1.353405"
     inkscape:cx="553.77259"
     inkscape:cy="446.72693"
     inkscape:window-x="0"
     inkscape:window-y="0"
     inkscape:window-maximized="1"
     inkscape:current-layer="Layer_1" /><rect
     width="700"
     height="700"
     id="rect3"
     x="0"
     y="0"
     style="fill:#191919" /><g
     id="g5"
     transform="translate(1.2505,1.249875)"><g
       id="g7"><defs
         id="defs9"><path
           id="SVGID_1_"
           d="m 348.749,515.755 c -4.952,0 -9.697,-1.105 -13.023,-3.021 L 213.252,442.022 c -6.94,-4.006 -13.026,-14.547 -13.026,-22.562 V 278.04 c 0,-8.012 6.086,-18.556 13.026,-22.56 l 122.474,-70.71 c 3.327,-1.919 8.071,-3.021 13.023,-3.021 4.956,0 9.704,1.101 13.028,3.021 l 122.477,70.71 c 6.936,4.004 13.021,14.548 13.021,22.56 v 141.42 c 0,8.015 -6.086,18.556 -13.021,22.562 l -122.477,70.712 c -3.325,1.915 -8.073,3.021 -13.028,3.021 z"
           inkscape:connector-curvature="0" /></defs><clipPath
         id="SVGID_2_"><use
           xlink:href="#SVGID_1_"
           overflow="visible"
           id="use13"
           style="overflow:visible"
           x="0"
           y="0"
           width="697.5"
           height="697.5" /></clipPath></g><path
       clip-rule="evenodd"
       d="m 486.981,250.753 -122.477,-70.71 c -8.668,-5.003 -22.842,-5.003 -31.508,0 l -122.477,70.71 c -8.663,5.001 -15.751,17.278 -15.751,27.287 v 141.42 c 0,10.006 7.089,22.285 15.751,27.286 l 122.477,70.712 c 8.666,5.002 22.84,5.002 31.508,0 l 122.477,-70.712 c 8.662,-5.001 15.75,-17.28 15.75,-27.286 V 278.04 c 0,-10.009 -7.087,-22.286 -15.75,-27.287 z M 402.095,446.886 H 298.36 l 22.98,-85.083 c -15.331,-9.566 -25.554,-26.582 -25.554,-45.981 0,-29.917 24.266,-54.18 54.176,-54.18 29.917,0 54.175,24.264 54.175,54.18 0,19.013 -9.807,35.722 -24.625,45.395 l 22.583,85.669 z"
       id="path15"
       inkscape:connector-curvature="0"
       style="opacity:0.3;fill:#484748;fill-rule:evenodd" /></g><g
     id="g2999"><path
       id="path3001"
       d="M 10,0 H 0 V 10 C 0,4.5 4.5,0 10,0 z"
       style="fill:#111111"
       inkscape:connector-curvature="0" /><path
       id="path3003"
       d="m 0,690 v 10 H 10 C 4.5,700 0,695.5 0,690 z"
       style="fill:#111111"
       inkscape:connector-curvature="0" /><path
       id="path3005"
       d="m 690,700 h 10 v -10 c 0,5.5 -4.5,10 -10,10 z"
       style="fill:#111111"
       inkscape:connector-curvature="0" /><path
       id="path3007"
       d="m 690,0 c 5.5,0 10,4.5 10,10 V 0 h -10 z"
       style="fill:#111111"
       inkscape:connector-curvature="0" /></g></svg>