<?xml version="1.0" encoding="utf-8"?>
<!-- Generator: Adobe Illustrator 15.0.0, SVG Export Plug-In . SVG Version: 6.00 Build 0)  -->
<!DOCTYPE svg PUBLIC "-//W3C//DTD SVG 1.1//EN" "http://www.w3.org/Graphics/SVG/1.1/DTD/svg11.dtd">
<svg version="1.1" id="Layer_1" xmlns="http://www.w3.org/2000/svg" xmlns:xlink="http://www.w3.org/1999/xlink" x="0px" y="0px"
	 width="720px" height="1280px" viewBox="0 0 720 1280" enable-background="new 0 0 720 1280" xml:space="preserve">
<g>
	<rect fill="#212121" enable-background="new    " width="720" height="1280"/>
	<g>
		<path fill="#00ADEE" d="M295.155,651.233v-48.601h13.572v5.167h0.177c2.859-4.554,7.269-6.83,13.221-6.83
			c5.08,0,9.224,1.399,12.436,4.202c3.735,3.21,5.605,8.438,5.605,15.674v30.387h-14.537v-26.531c0-2.803-0.321-4.906-0.963-6.308
			c-1.108-2.51-3.327-3.765-6.656-3.765c-5.545,0-8.315,3.385-8.315,10.158v26.445L295.155,651.233L295.155,651.233z"/>
		<path fill="#00ADEE" d="M553.295,651.233v-48.601h13.659v5.167h0.176c2.337-4.554,6.395-6.83,12.172-6.83v14.623
			c-3.734,0.116-6.422,0.671-8.057,1.663c-2.275,1.345-3.413,3.765-3.413,7.269v26.708L553.295,651.233L553.295,651.233z"/>
		<path fill="#00ADEE" d="M522.246,651.233v-48.601h13.658v5.167h0.176c2.335-4.554,6.393-6.83,12.173-6.83v14.623
			c-3.735,0.116-6.423,0.671-8.058,1.663c-2.277,1.345-3.414,3.765-3.414,7.269v26.708L522.246,651.233L522.246,651.233z"/>
		<path fill="#00ADEE" d="M480.735,621.549h22.065c-0.408-1.984-1.374-3.735-2.889-5.254c-2.104-2.044-4.817-3.065-8.145-3.065
			c-3.33,0-6.043,1.021-8.145,3.065C482.107,617.813,481.143,619.564,480.735,621.549 M500.86,635.995h14.813
			c-2.219,5.021-5.343,9.05-9.371,12.085c-4.26,3.153-9.046,4.729-14.358,4.729c-7.006,0-13.047-2.495-18.127-7.487
			c-5.076-4.99-7.616-11.076-7.616-18.256c0-6.947,2.438-13.032,7.312-18.259c4.875-5.224,10.932-7.835,18.168-7.835
			c7.359,0,13.474,2.554,18.348,7.662c4.874,5.109,7.312,11.397,7.312,18.869c0,1.052-0.118,2.336-0.351,3.854h-36.252
			c0.407,2.802,1.662,5.034,3.795,6.696c2.115,1.666,4.626,2.498,7.528,2.498C495.548,640.551,498.48,639.031,500.86,635.995z"/>
		<path fill="#00ADEE" d="M422.498,626.716c0,3.677,1.165,6.684,3.503,9.021c2.334,2.335,5.225,3.501,8.667,3.501
			c4.145,0,7.354-1.459,9.633-4.377c1.868-2.336,2.803-5.052,2.803-8.145c0-3.212-1.021-5.982-3.065-8.32
			c-2.333-2.566-5.399-3.854-9.192-3.854c-3.912,0-7.006,1.316-9.281,3.942C423.519,620.819,422.498,623.563,422.498,626.716
			 M460.852,586.435v64.8h-13.837v-5.255h-0.175c-2.742,4.553-7.589,6.829-14.536,6.829c-7.236,0-13.104-2.479-17.6-7.439
			c-4.495-4.966-6.743-11.151-6.743-18.565c0-7.882,2.481-14.244,7.443-19.088c4.554-4.495,10.099-6.743,16.638-6.743
			c5.663,0,10.419,1.927,14.273,5.778v-20.314h14.536V586.435z"/>
		<rect x="388.482" y="586.435" fill="#00ADEE" width="14.537" height="11.033"/>
		<rect x="388.482" y="602.633" fill="#00ADEE" width="14.537" height="48.601"/>
		<path fill="#00ADEE" d="M382.773,616.295H368.5c-0.173-2.451-1.691-3.677-4.552-3.677c-2.744,0-4.114,1.078-4.114,3.24
			c0,2.101,2.479,3.852,7.441,5.254c5.604,1.574,9.458,3.092,11.559,4.552c3.618,2.453,5.429,6.014,5.429,10.684
			c0,4.962-1.912,8.959-5.733,11.996c-3.825,3.033-8.51,4.552-14.056,4.552c-4.671,0-8.729-1.078-12.172-3.238
			c-4.495-2.86-7.034-7.152-7.619-12.872h14.449c0.409,2.978,2.246,4.465,5.517,4.465c1.345,0,2.526-0.349,3.546-1.049
			c1.021-0.702,1.534-1.604,1.534-2.715c0-1.692-0.965-3.035-2.89-4.028c-0.76-0.408-4.088-1.664-9.983-3.765
			c-7.706-2.744-11.559-6.977-11.559-12.696c0-4.671,1.867-8.554,5.604-11.647c3.616-2.919,8.024-4.378,13.221-4.378
			c4.322,0,8.086,0.962,11.297,2.891C379.797,606.488,382.248,610.632,382.773,616.295"/>
		<rect x="273.94" y="586.435" fill="#00ADEE" width="14.537" height="11.033"/>
		<rect x="273.94" y="602.633" fill="#00ADEE" width="14.537" height="48.601"/>
		<g>
			<g>
				<defs>
					<rect id="SVGID_1_" x="276.224" y="604.917" width="9.968" height="24.184"/>
				</defs>
				<clipPath id="SVGID_2_">
					<use xlink:href="#SVGID_1_"  overflow="visible"/>
				</clipPath>
				
					<linearGradient id="SVGID_3_" gradientUnits="userSpaceOnUse" x1="-31.6797" y1="41.96" x2="-30.9785" y2="41.96" gradientTransform="matrix(-0.9032 35.2236 15.1255 0.3878 -381.7624 1704.2708)">
					<stop  offset="0" style="stop-color:#00ADEE"/>
					<stop  offset="1" style="stop-color:#8DD7F7"/>
				</linearGradient>
				<polygon clip-path="url(#SVGID_2_)" fill="url(#SVGID_3_)" points="276.231,604.662 275.605,629.086 286.187,629.357 
					286.813,604.933 				"/>
			</g>
		</g>
		<g>
			<g>
				<defs>
					<rect id="SVGID_4_" x="276.224" y="588.718" width="9.968" height="6.466"/>
				</defs>
				<clipPath id="SVGID_5_">
					<use xlink:href="#SVGID_4_"  overflow="visible"/>
				</clipPath>
				
					<linearGradient id="SVGID_6_" gradientUnits="userSpaceOnUse" x1="-47.9932" y1="41.8828" x2="-47.3076" y2="41.8828" gradientTransform="matrix(-0.2477 9.94 14.4715 0.3606 -336.7025 1050.4901)">
					<stop  offset="0" style="stop-color:#00ADEE"/>
					<stop  offset="1" style="stop-color:#8DD7F7"/>
				</linearGradient>
				<polygon clip-path="url(#SVGID_5_)" fill="url(#SVGID_6_)" points="276.231,588.47 276.063,595.179 286.188,595.432 
					286.354,588.723 				"/>
			</g>
		</g>
		<g>
			<g>
				<defs>
					<path id="SVGID_7_" d="M379.367,629.102c-0.527-0.559-1.129-1.085-1.831-1.561c-2.7-1.87-7.739-3.347-10.884-4.233
						c-3.502-0.986-9.104-2.99-9.104-7.449c0-3.833,2.854-5.523,6.397-5.523c3.002,0,5.388,1.196,6.368,3.677h9.786
						c-0.796-3.438-2.608-6.241-5.861-8.192c-3.083-1.852-6.552-2.564-10.12-2.564c-4.357,0-8.371,1.117-11.775,3.862
						c-3.126,2.586-4.764,5.796-4.764,9.88c0,5.831,5.129,8.795,10.039,10.544c1.269,0.454,2.883,0.988,4.523,1.561H379.367z"/>
				</defs>
				<clipPath id="SVGID_8_">
					<use xlink:href="#SVGID_7_"  overflow="visible"/>
				</clipPath>
				
					<linearGradient id="SVGID_9_" gradientUnits="userSpaceOnUse" x1="-30.9307" y1="42.9424" x2="-30.2445" y2="42.9424" gradientTransform="matrix(-1.0061 39.2384 47.3919 1.2152 -1702.0652 1764.2019)">
					<stop  offset="0" style="stop-color:#00ADEE"/>
					<stop  offset="1" style="stop-color:#8DD7F7"/>
				</linearGradient>
				<polygon clip-path="url(#SVGID_8_)" fill="url(#SVGID_9_)" points="347.602,602.421 346.918,629.084 380.082,629.936 
					380.766,603.271 				"/>
			</g>
		</g>
		<g>
			<g>
				<defs>
					<rect id="SVGID_10_" x="390.767" y="604.917" width="9.97" height="24.184"/>
				</defs>
				<clipPath id="SVGID_11_">
					<use xlink:href="#SVGID_10_"  overflow="visible"/>
				</clipPath>
				
					<linearGradient id="SVGID_12_" gradientUnits="userSpaceOnUse" x1="-31.6655" y1="38.7363" x2="-30.9658" y2="38.7363" gradientTransform="matrix(-0.9032 35.2234 15.1258 0.3878 -218.4466 1705.061)">
					<stop  offset="0" style="stop-color:#00ADEE"/>
					<stop  offset="1" style="stop-color:#8DD7F7"/>
				</linearGradient>
				<polygon clip-path="url(#SVGID_11_)" fill="url(#SVGID_12_)" points="390.774,604.662 390.147,629.086 400.729,629.357 
					401.355,604.933 				"/>
			</g>
		</g>
		<g>
			<g>
				<defs>
					<rect id="SVGID_13_" x="390.767" y="588.718" width="9.97" height="6.466"/>
				</defs>
				<clipPath id="SVGID_14_">
					<use xlink:href="#SVGID_13_"  overflow="visible"/>
				</clipPath>
				
					<linearGradient id="SVGID_15_" gradientUnits="userSpaceOnUse" x1="-47.8701" y1="38.4961" x2="-47.184" y2="38.4961" gradientTransform="matrix(-0.2477 9.94 14.4715 0.3606 -173.1244 1050.4901)">
					<stop  offset="0" style="stop-color:#00ADEE"/>
					<stop  offset="1" style="stop-color:#8DD7F7"/>
				</linearGradient>
				<polygon clip-path="url(#SVGID_14_)" fill="url(#SVGID_15_)" points="390.773,588.47 390.606,595.179 400.73,595.432 
					400.897,588.723 				"/>
			</g>
		</g>
		<g>
			<g>
				<defs>
					<path id="SVGID_16_" d="M458.569,588.718h-9.971v23.537l-3.896-3.89c-3.502-3.499-7.719-5.11-12.658-5.11
						c-5.863,0-10.859,1.962-15.042,6.089c-4.85,4.738-6.757,10.752-6.757,17.458c0,0.778,0.031,1.544,0.085,2.3h10.048
						c-0.105-0.779-0.163-1.57-0.163-2.387c0-3.678,1.204-6.961,3.623-9.728c2.855-3.297,6.684-4.73,11.008-4.73
						c4.255,0,8.013,1.445,10.903,4.627c2.443,2.794,3.64,6.122,3.64,9.831c0,0.815-0.052,1.609-0.165,2.387h9.347L458.569,588.718
						L458.569,588.718z"/>
				</defs>
				<clipPath id="SVGID_17_">
					<use xlink:href="#SVGID_16_"  overflow="visible"/>
				</clipPath>
				
					<linearGradient id="SVGID_18_" gradientUnits="userSpaceOnUse" x1="-28.6958" y1="43.0283" x2="-28.0103" y2="43.0283" gradientTransform="matrix(-1.5674 61.1295 70.4918 1.8075 -2643.1843 2264.2449)">
					<stop  offset="0" style="stop-color:#00ADEE"/>
					<stop  offset="1" style="stop-color:#8DD7F7"/>
				</linearGradient>
				<polygon clip-path="url(#SVGID_17_)" fill="url(#SVGID_18_)" points="410.278,587.479 409.21,629.074 458.535,630.34 
					459.603,588.745 				"/>
			</g>
		</g>
		<g>
			<g>
				<defs>
					<path id="SVGID_19_" d="M478.497,621.087c0.511-2.478,1.731-4.624,3.528-6.425c2.673-2.594,6.045-3.717,9.742-3.717
						s7.068,1.123,9.752,3.729c1.787,1.787,3.009,3.938,3.52,6.415l0.563,2.742h-27.674L478.497,621.087z M478.095,629.102
						l-0.005-0.028h36.885c0.05-0.527,0.079-1.053,0.079-1.571c0-6.647-2.064-12.453-6.682-17.293
						c-4.549-4.767-10.123-6.953-16.693-6.953c-6.555,0-12.022,2.313-16.495,7.11c-4.408,4.724-6.7,10.229-6.7,16.699
						c0,0.688,0.032,1.372,0.084,2.036H478.095L478.095,629.102z"/>
				</defs>
				<clipPath id="SVGID_20_">
					<use xlink:href="#SVGID_19_"  overflow="visible"/>
				</clipPath>
				
					<linearGradient id="SVGID_21_" gradientUnits="userSpaceOnUse" x1="-30.7544" y1="42.5908" x2="-30.0825" y2="42.5908" gradientTransform="matrix(-1.0325 40.2691 67.4546 1.7296 -2412.5703 1767.4695)">
					<stop  offset="0" style="stop-color:#00ADEE"/>
					<stop  offset="1" style="stop-color:#8DD7F7"/>
				</linearGradient>
				<polygon clip-path="url(#SVGID_20_)" fill="url(#SVGID_21_)" points="468.513,602.061 467.821,629.084 515.023,630.295 
					515.716,603.271 				"/>
			</g>
		</g>
		<g>
			<g>
				<defs>
					<path id="SVGID_22_" d="M534.497,629.102v-4.574c0-3.75,1.172-7.251,4.519-9.228c1.929-1.168,4.538-1.657,6.954-1.863V603.4
						c-3.415,0.459-6.128,2.067-7.857,5.441l-0.638,1.242h-3.854v-5.167h-9.09v24.184L534.497,629.102L534.497,629.102z"/>
				</defs>
				<clipPath id="SVGID_23_">
					<use xlink:href="#SVGID_22_"  overflow="visible"/>
				</clipPath>
				
					<linearGradient id="SVGID_24_" gradientUnits="userSpaceOnUse" x1="-31.0493" y1="39.8369" x2="-30.3491" y2="39.8369" gradientTransform="matrix(-0.9799 38.2163 31.5574 0.8092 -751.9913 1757.2285)">
					<stop  offset="0" style="stop-color:#00ADEE"/>
					<stop  offset="1" style="stop-color:#8DD7F7"/>
				</linearGradient>
				<polygon clip-path="url(#SVGID_23_)" fill="url(#SVGID_24_)" points="524.546,602.851 523.872,629.086 545.956,629.651 
					546.629,603.417 				"/>
			</g>
		</g>
		<g>
			<g>
				<defs>
					<path id="SVGID_25_" d="M565.549,629.102v-4.574c0-3.75,1.172-7.249,4.52-9.228c1.928-1.168,4.535-1.657,6.951-1.863V603.4
						c-3.414,0.459-6.125,2.067-7.854,5.441l-0.638,1.242h-3.854v-5.167h-9.092v24.184L565.549,629.102L565.549,629.102z"/>
				</defs>
				<clipPath id="SVGID_26_">
					<use xlink:href="#SVGID_25_"  overflow="visible"/>
				</clipPath>
				
					<linearGradient id="SVGID_27_" gradientUnits="userSpaceOnUse" x1="-31.0444" y1="39.4238" x2="-30.3442" y2="39.4238" gradientTransform="matrix(-0.9799 38.2163 31.5577 0.8092 -707.9188 1757.3848)">
					<stop  offset="0" style="stop-color:#00ADEE"/>
					<stop  offset="1" style="stop-color:#8DD7F7"/>
				</linearGradient>
				<polygon clip-path="url(#SVGID_26_)" fill="url(#SVGID_27_)" points="555.594,602.851 554.921,629.086 577.004,629.651 
					577.678,603.417 				"/>
			</g>
		</g>
		<g>
			<g>
				<defs>
					<path id="SVGID_28_" d="M307.408,629.102v-4.313c0-6.994,2.92-12.442,10.6-12.442c3.854,0,7.135,1.482,8.738,5.107
						c0.978,2.141,1.164,4.924,1.164,7.249v4.398h9.969v-8.252c0-4.896-0.886-10.572-4.818-13.952
						c-3.079-2.689-6.912-3.643-10.938-3.643c-4.81,0-8.688,1.62-11.284,5.76l-0.672,1.069h-3.725v-5.167h-9.004v24.184
						L307.408,629.102L307.408,629.102z"/>
				</defs>
				<clipPath id="SVGID_29_">
					<use xlink:href="#SVGID_28_"  overflow="visible"/>
				</clipPath>
				
					<linearGradient id="SVGID_30_" gradientUnits="userSpaceOnUse" x1="-30.8711" y1="43.5791" x2="-30.1845" y2="43.5791" gradientTransform="matrix(-1.0209 39.8137 58.7032 1.5052 -2271.7664 1766.0535)">
					<stop  offset="0" style="stop-color:#00ADEE"/>
					<stop  offset="1" style="stop-color:#8DD7F7"/>
				</linearGradient>
				<polygon clip-path="url(#SVGID_29_)" fill="url(#SVGID_30_)" points="297.465,602.219 296.776,629.084 337.852,630.139 
					338.541,603.271 				"/>
			</g>
		</g>
		<g>
			<path fill="#00ADEE" d="M156.482,596.763c0-3.288,2.33-7.322,5.176-8.966l40.248-23.237c2.848-1.644,7.506-1.644,10.354,0
				l40.248,23.237c2.847,1.645,5.176,5.678,5.176,8.966v46.475c0,3.288-2.329,7.322-5.176,8.967l-40.248,23.237
				c-2.848,1.644-7.506,1.644-10.354,0l-40.248-23.237c-2.847-1.645-5.176-5.679-5.176-8.967V596.763z"/>
			<g>
				<g>
					<defs>
						<path id="SVGID_31_" d="M207.082,674.882c-1.627,0-3.187-0.363-4.28-0.993l-40.247-23.236
							c-2.281-1.316-4.281-4.78-4.281-7.414v-46.475c0-2.632,2-6.097,4.281-7.413l40.247-23.236c1.093-0.631,2.652-0.993,4.28-0.993
							s3.188,0.362,4.281,0.993l40.248,23.236c2.28,1.316,4.28,4.781,4.28,7.413v46.475c0,2.634-2,6.098-4.28,7.414l-40.248,23.236
							C210.271,674.519,208.711,674.882,207.082,674.882z"/>
					</defs>
					<clipPath id="SVGID_32_">
						<use xlink:href="#SVGID_31_"  overflow="visible"/>
					</clipPath>
					
						<linearGradient id="SVGID_33_" gradientUnits="userSpaceOnUse" x1="154.7441" y1="709.377" x2="154.7441" y2="579.8589" gradientTransform="matrix(1 0 0 -1 52.3398 1210.04)">
						<stop  offset="0" style="stop-color:#00ADEE"/>
						<stop  offset="1" style="stop-color:#8DD7F7"/>
					</linearGradient>
					<path clip-path="url(#SVGID_32_)" fill="url(#SVGID_33_)" d="M283.001,592.597c0,20.758-33.99,37.585-75.917,37.585
						c-41.929,0-75.917-16.827-75.917-37.585v-91.934H275.43L283.001,592.597z"/>
				</g>
			</g>
			<path fill="#00ADEE" d="M188.182,654.043l7.828-28.981c-5.113-3.686-8.125-9.528-8.125-15.883
				c0-10.806,8.79-19.598,19.596-19.598s19.597,8.792,19.597,19.598c0,6.205-2.905,11.97-7.833,15.669l7.695,29.195H188.182z"/>
			<path fill="#FFFFFF" d="M224.613,652.25l-7.421-28.152c4.87-3.179,8.093-8.67,8.093-14.918c0-9.831-7.971-17.804-17.803-17.804
				c-9.829,0-17.803,7.974-17.803,17.804c0,6.375,3.359,11.968,8.397,15.111l-7.552,27.96L224.613,652.25L224.613,652.25z"/>
		</g>
	</g>
</g>
</svg>
