<?xml version="1.0" encoding="utf-8"?>
<!-- Generator: Adobe Illustrator 15.0.0, SVG Export Plug-In . SVG Version: 6.00 Build 0)  -->
<!DOCTYPE svg PUBLIC "-//W3C//DTD SVG 1.1//EN" "http://www.w3.org/Graphics/SVG/1.1/DTD/svg11.dtd">
<svg version="1.1" id="Layer_1" xmlns="http://www.w3.org/2000/svg" xmlns:xlink="http://www.w3.org/1999/xlink" x="0px" y="0px"
	 width="88.6px" height="99.063px" viewBox="0 0 88.6 99.063" enable-background="new 0 0 88.6 99.063" xml:space="preserve">
<g>
	<path fill="#333333" stroke="#333333" stroke-width="2" stroke-miterlimit="10" d="M1,29.531c0-2.75,1.948-6.125,4.33-7.5
		l34.641-20c2.382-1.375,6.278-1.375,8.66,0l34.639,20c2.382,1.375,4.33,4.75,4.33,7.5v40c0,2.75-1.948,6.125-4.33,7.5l-34.639,20
		c-2.382,1.375-6.278,1.375-8.66,0l-34.641-20C2.948,75.656,1,72.281,1,69.531V29.531z"/>
</g>
<g>
	<g>
		<polygon fill-rule="evenodd" clip-rule="evenodd" fill="#FFFFFF" points="51.739,31.293 36.86,31.293 36.86,36.379 38.379,36.379 
			38.379,33.722 50.221,33.722 50.221,36.379 51.739,36.379 		"/>
	</g>
	<path fill-rule="evenodd" clip-rule="evenodd" fill="#FFFFFF" d="M63.922,36.91H24.678c-2.005,0-3.644,1.64-3.644,3.644v23.572
		c0,2.005,1.639,3.644,3.644,3.644h39.244c2.005,0,3.644-1.639,3.644-3.644V40.554C67.565,38.55,65.927,36.91,63.922,36.91z
		 M39.973,53.61h8.654v2.201h-8.654V53.61z M64.567,58.771H24.032l-1.215-1.897l1.784,1.215l39.358,0.073l1.822-1.288L64.567,58.771
		z"/>
</g>
</svg>
