<?xml version="1.0" encoding="utf-8"?>
<!-- Generator: Adobe Illustrator 15.0.0, SVG Export Plug-In . SVG Version: 6.00 Build 0)  -->
<!DOCTYPE svg PUBLIC "-//W3C//DTD SVG 1.1//EN" "http://www.w3.org/Graphics/SVG/1.1/DTD/svg11.dtd">
<svg version="1.1" id="Layer_1" xmlns="http://www.w3.org/2000/svg" xmlns:xlink="http://www.w3.org/1999/xlink" x="0px" y="0px"
	 width="88.6px" height="99.063px" viewBox="0 0 88.6 99.063" enable-background="new 0 0 88.6 99.063" xml:space="preserve">
<g>
	<g>
		<path fill="#FFFFFF" d="M1,29.531c0-2.75,1.948-6.125,4.33-7.5l34.641-20c2.382-1.375,6.278-1.375,8.66,0l34.639,20
			c2.382,1.375,4.33,4.75,4.33,7.5v40c0,2.75-1.948,6.125-4.33,7.5l-34.639,20c-2.382,1.375-6.278,1.375-8.66,0l-34.641-20
			C2.948,75.656,1,72.281,1,69.531V29.531z"/>
		<path fill="none" stroke="#FFFFFF" stroke-width="2" stroke-miterlimit="10" d="M1,29.531c0-2.75,1.948-6.125,4.33-7.5l34.641-20
			c2.382-1.375,6.278-1.375,8.66,0l34.639,20c2.382,1.375,4.33,4.75,4.33,7.5v40c0,2.75-1.948,6.125-4.33,7.5l-34.639,20
			c-2.382,1.375-6.278,1.375-8.66,0l-34.641-20C2.948,75.656,1,72.281,1,69.531V29.531z"/>
	</g>
	<g>
		<g>
			<path fill-rule="evenodd" clip-rule="evenodd" fill="#333333" d="M38.715,26.507c3.724,0,7.448,0,11.173,0
				c2.623,0.607,2.241,2.647,2.609,5.848c0.335,2.923,0.722,6.288,1.044,9.188c0.183,1.637,0.675,3.38,0.522,4.595
				c-0.369,2.953-4.897,1.547-7.936,1.881c0,1.253,0,2.505,0,3.758c2.775,0.503,7.173-0.717,9.503,0.104
				c1.117,0.396,1.046,1.451,1.67,2.298c1.938-0.36,2.173-2.422,1.982-4.907c-1.256,0.071-2.156,0.014-2.191-0.939
				c-0.047-1.255,1.554-1.046,3.236-1.046c1.69,0,3.272-0.188,3.237,1.046c-0.026,0.901-0.75,1.036-2.193,0.939
				c0.312,4.104-1.047,6.54-4.385,6.995c-0.51,3.841-7.12,1.582-10.859,2.191c0,2.403,0,4.805,0,7.207
				c4.021,0.259,7.184,1.379,9.711,3.131c1.341,0.143,2.218,0.572,2.297,1.775c0.18,2.787-4.429,2.563-3.446-0.731
				c-2.579-1.527-5.72-2.493-9.605-2.714c0,0.591,0,1.184,0,1.774c1.587,1.11,1.072,3.701-0.835,3.655
				c-1.2-0.027-1.8-0.854-1.775-1.881c0.02-0.898,0.819-1.048,1.043-1.879c0.14-0.515-0.098-0.93,0-1.67
				c-3.889,0.252-7.02,1.263-9.605,2.818c0.374,1.608-0.534,2.641-1.774,2.611c-2.342-0.057-2.394-4.082,0.626-3.655
				c2.521-1.793,5.717-2.913,9.711-3.235c0-2.402,0-4.804,0-7.207c-3.809-0.576-10.372,1.602-10.964-2.191
				c-3.261-0.498-4.648-2.87-4.281-6.995c-1.432,0.063-2.156,0.021-2.192-0.939c-0.047-1.248,1.517-1.046,3.236-1.046
				c1.646,0,3.385-0.174,3.237,1.15c-0.094,0.837-1.078,0.91-2.298,0.835c-0.145,2.512,0.105,4.628,2.193,4.907
				c0.409-4.082,7.163-1.816,11.068-2.402c0-1.253,0-2.505,0-3.758c-2.536-0.448-4.937,0.695-6.893-0.211
				c-1.64-0.757-0.87-3.961-0.626-6.16c0.316-2.847,0.74-6.386,1.043-9.188C36.318,29.522,36.257,26.78,38.715,26.507z"/>
		</g>
	</g>
</g>
</svg>
