<?xml version="1.0" encoding="utf-8"?>
<!-- Generator: Adobe Illustrator 15.0.0, SVG Export Plug-In . SVG Version: 6.00 Build 0)  -->
<!DOCTYPE svg PUBLIC "-//W3C//DTD SVG 1.1//EN" "http://www.w3.org/Graphics/SVG/1.1/DTD/svg11.dtd">
<svg version="1.1" id="Layer_1" xmlns="http://www.w3.org/2000/svg" xmlns:xlink="http://www.w3.org/1999/xlink" x="0px" y="0px"
	 width="88.6px" height="99.063px" viewBox="0 0 88.6 99.063" enable-background="new 0 0 88.6 99.063" xml:space="preserve">
<g>
	<path fill="#333333" stroke="#333333" stroke-width="2" stroke-miterlimit="10" d="M1,29.531c0-2.75,1.948-6.125,4.33-7.5
		l34.641-20c2.382-1.375,6.278-1.375,8.66,0l34.639,20c2.382,1.375,4.33,4.75,4.33,7.5v40c0,2.75-1.948,6.125-4.33,7.5l-34.639,20
		c-2.382,1.375-6.278,1.375-8.66,0l-34.641-20C2.948,75.656,1,72.281,1,69.531V29.531z"/>
</g>
<g>
	<g>
		<path fill="#FFFFFF" d="M46.607,71.933c-0.824,0-1.692-0.085-2.606-0.264c-0.659-0.13-1.088-0.768-0.959-1.425
			c0.13-0.657,0.756-1.089,1.426-0.959c9.316,1.822,13.02-8.658,14.982-16.707c0.099-0.403,0.396-0.728,0.786-0.86
			c0.322-0.112,0.669-0.081,0.962,0.073c0.777-0.569,2.348-3.722,2.711-7.133c0.225-2.116-0.165-3.182-0.568-3.449
			c-0.382-0.257-1.235-0.066-2.282,0.503c-0.411,0.223-0.913,0.189-1.294-0.086c-0.378-0.275-0.565-0.742-0.48-1.202
			c0.348-1.874-0.041-7.695-0.974-11.564c-0.156-0.652,0.244-1.307,0.896-1.466c0.657-0.156,1.31,0.246,1.466,0.896
			c0.741,3.081,1.206,7.556,1.161,10.511c2.037-0.481,3.133,0.446,3.653,1.158c2.189,2.993-0.048,11.12-2.512,13.487
			c-0.489,0.47-0.978,0.712-1.435,0.795C60.145,59.788,56.516,71.931,46.607,71.933z"/>
	</g>
	<g>
		<path fill="#FFFFFF" d="M36.668,72.536c-4.797,0-11.812-2.872-14.339-8.466c-0.276-0.612-0.005-1.331,0.605-1.606
			c0.612-0.277,1.331-0.005,1.607,0.605c2.261,5,9.453,7.513,13.22,6.964c1.095-0.156,1.857-0.623,2.331-1.435
			c0.697-1.193,0.571-2.812,0.354-3.373c-0.44-1.132-0.431-1.67-0.086-2.415c-2.417-0.908-6.532-2.818-6.976-7.164
			c-0.052-0.515,0.229-1.006,0.698-1.224c0.47-0.216,1.024-0.114,1.385,0.256c1.552,1.608,3.67,2.365,6.291,3.074
			c-0.01-0.55,0.048-1.2,0.237-1.929c0.14-0.536,0.623-0.908,1.176-0.908c1.145,0,2.925-0.334,3.784-0.669
			c-1.714-3.356-4.246-10.227-3.772-13.545c0.53-4.085,0.676-7.593-2.6-12.264c-0.386-0.548-0.253-1.308,0.296-1.691
			c0.551-0.385,1.309-0.252,1.691,0.296c3.767,5.368,3.577,9.679,3.02,13.986c-0.398,2.79,2.276,9.939,3.875,12.755
			c0.048,0.086,0.084,0.174,0.111,0.266c0.146,0.511,0.042,1.032-0.29,1.474c-0.869,1.152-3.533,1.608-5.086,1.758
			c-0.06,0.74,0.082,1.269,0.168,1.594c0.031,0.114,0.055,0.209,0.069,0.282c0.081,0.408-0.053,0.83-0.354,1.12
			c-0.303,0.287-0.735,0.4-1.137,0.294c-1.503-0.382-2.921-0.745-4.235-1.208c1.153,0.698,2.398,1.142,3.239,1.442l0.515,0.188
			c0.304,0.116,0.549,0.349,0.68,0.647c0.13,0.297,0.137,0.637,0.016,0.938c-0.194,0.486-0.368,0.813-0.503,1.07
			c-0.05,0.094-0.095,0.168-0.124,0.239c0.005,0.002,0.041,0.111,0.175,0.458c0.415,1.064,0.641,3.496-0.52,5.479
			c-0.848,1.449-2.26,2.353-4.084,2.614C37.656,72.502,37.175,72.536,36.668,72.536z"/>
	</g>
	<g>
		<path fill="#FFFFFF" d="M45.761,62.43v-0.023c-0.305-0.023-0.54-0.081-0.675-0.169c-0.454-0.291-0.661-0.847-0.509-1.363
			c0.141-0.484,0.642-0.826,1.146-0.868v-0.005c1.031-0.017,3.993-0.311,5.306-1.449c0.506-0.437,1.272-0.385,1.714,0.123
			c0.438,0.506,0.384,1.273-0.122,1.713c-1.581,1.371-4.918,2.059-6.63,2.033c-0.053,0.007-0.107,0.009-0.163,0.009v-0.019
			c-0.022,0-0.044-0.002-0.065-0.005L45.761,62.43z"/>
	</g>
	<g>
		<path fill="#FFFFFF" d="M34.737,45.341C34.737,45.341,34.737,45.341,34.737,45.341c-1.065,0-1.873-0.088-2.471-0.271
			c-0.367-0.111-0.66-0.392-0.79-0.752c-0.129-0.362-0.08-0.764,0.133-1.084c1.141-1.71,4.318-4.185,7.084-4.185
			c0.328,0,0.643,0.133,0.871,0.37c0.229,0.235,0.353,0.553,0.343,0.883c-0.001,0.023-0.073,2.455-0.003,3.444
			c0.046,0.636-0.409,1.2-1.043,1.288C38.772,45.047,36.662,45.341,34.737,45.341z M37.449,41.724
			c-0.723,0.259-1.462,0.697-2.104,1.179c0.758-0.023,1.516-0.088,2.102-0.147C37.444,42.415,37.445,42.058,37.449,41.724z"/>
	</g>
	<g>
		<path fill="#FFFFFF" d="M51.754,45.216L51.754,45.216c-1.392,0-2.583-0.221-3.544-0.657c-0.33-0.149-0.575-0.439-0.67-0.79
			c-0.094-0.352-0.027-0.724,0.184-1.021c1.519-2.132,3.098-3.214,4.694-3.214c1.844,0,3.356,1.497,3.858,3.814
			c0.138,0.638-0.254,1.271-0.887,1.433C55.319,44.8,53.662,45.216,51.754,45.216z M50.908,42.751
			c0.814,0.073,1.801,0.017,2.529-0.081c-0.264-0.417-0.61-0.707-1.02-0.707C52.182,41.963,51.661,42.063,50.908,42.751z"/>
	</g>
</g>
</svg>
