<?xml version="1.0" encoding="utf-8"?>
<!-- Generator: Adobe Illustrator 15.0.0, SVG Export Plug-In . SVG Version: 6.00 Build 0)  -->
<!DOCTYPE svg PUBLIC "-//W3C//DTD SVG 1.1//EN" "http://www.w3.org/Graphics/SVG/1.1/DTD/svg11.dtd">
<svg version="1.1" id="Layer_1" xmlns="http://www.w3.org/2000/svg" xmlns:xlink="http://www.w3.org/1999/xlink" x="0px" y="0px"
	 width="88.6px" height="99.063px" viewBox="0 0 88.6 99.063" enable-background="new 0 0 88.6 99.063" xml:space="preserve">
<g>
	<path fill="#333333" stroke="#333333" stroke-width="2" stroke-miterlimit="10" d="M1,29.531c0-2.75,1.948-6.125,4.33-7.5
		l34.641-20c2.382-1.375,6.278-1.375,8.66,0l34.639,20c2.382,1.375,4.33,4.75,4.33,7.5v40c0,2.75-1.948,6.125-4.33,7.5l-34.639,20
		c-2.382,1.375-6.278,1.375-8.66,0l-34.641-20C2.948,75.656,1,72.281,1,69.531V29.531z"/>
	<path fill="#FFFFFF" d="M76.193,40.632c-6.604-1.807-9.176-2.502-15.987-2.363c-7.338,0.149-12.189,2.896-15.779,2.677
		c0-0.004,0-0.008,0-0.013c-0.041,0.005-0.085,0.004-0.127,0.006c-0.041-0.002-0.085-0.001-0.127-0.006c0,0.005,0,0.009,0,0.013
		c-3.59,0.22-8.441-2.527-15.779-2.677c-6.812-0.139-9.383,0.557-15.987,2.363c0,0-0.764,1.529-0.416,4.193
		c1.111,0.094,2.015,0.186,2.41,2.317c0.19,1.039-0.368,13.097,9.174,13.624c11.77,0.647,16.751-6.025,17.679-11.029
		c0.754-4.072,2.444-4.524,3.047-4.55c0.603,0.025,2.293,0.478,3.047,4.55c0.928,5.004,5.908,11.678,17.679,11.029
		c9.542-0.527,8.983-12.585,9.174-13.624c0.394-2.132,1.297-2.224,2.41-2.317C76.956,42.162,76.193,40.632,76.193,40.632z
		 M28.186,58.425c-8.272,0.486-10.487-1.807-10.904-7.923c-0.418-6.118,0.348-10.565,9.453-9.939
		c6.255,0.416,11.955,0.973,12.372,3.196C39.989,48.466,36.456,57.94,28.186,58.425z M71.318,50.502
		c-0.417,6.116-2.632,8.409-10.904,7.923c-8.271-0.485-11.804-9.959-10.922-14.666c0.418-2.224,6.118-2.78,12.373-3.196
		C70.971,39.937,71.736,44.384,71.318,50.502z"/>
</g>
</svg>
