<?xml version="1.0" encoding="utf-8"?>
<!-- Generator: Adobe Illustrator 15.0.0, SVG Export Plug-In . SVG Version: 6.00 Build 0)  -->
<!DOCTYPE svg PUBLIC "-//W3C//DTD SVG 1.1//EN" "http://www.w3.org/Graphics/SVG/1.1/DTD/svg11.dtd">
<svg version="1.1" id="Layer_1" xmlns="http://www.w3.org/2000/svg" xmlns:xlink="http://www.w3.org/1999/xlink" x="0px" y="0px"
	 width="88.6px" height="99.063px" viewBox="0 0 88.6 99.063" enable-background="new 0 0 88.6 99.063" xml:space="preserve">
<g>
	<path fill="none" stroke="#333333" stroke-width="2" stroke-miterlimit="10" d="M1,29.531c0-2.75,1.948-6.125,4.33-7.5l34.641-20
		c2.382-1.375,6.278-1.375,8.66,0l34.639,20c2.382,1.375,4.33,4.75,4.33,7.5v40c0,2.75-1.948,6.125-4.33,7.5l-34.639,20
		c-2.382,1.375-6.278,1.375-8.66,0l-34.641-20C2.948,75.656,1,72.281,1,69.531V29.531z"/>
</g>
<path fill="#333333" d="M67.375,30.656c-3.348,0-6.072,2.724-6.072,6.073c0,1.036,0.285,1.997,0.746,2.851l-7.707,7.705
	c-0.805-0.396-1.699-0.638-2.654-0.638c-2.395,0-4.449,1.404-5.438,3.423l-7.021-1.079c-0.52-2.826-2.99-4.975-5.961-4.975
	c-3.35,0-6.074,2.723-6.074,6.072c0,0.956,0.242,1.851,0.639,2.654l-3.953,4.156c-0.807-0.396-1.699-0.638-2.656-0.638
	c-3.348,0-6.072,2.726-6.072,6.072c0,3.35,2.725,6.073,6.072,6.073c3.35,0,6.074-2.724,6.074-6.073c0-1.063-0.299-2.047-0.783-2.918
	l3.838-4.034c0.869,0.48,1.854,0.779,2.916,0.779c2.445,0,4.547-1.463,5.508-3.553l6.936,1.064c0.463,2.895,2.955,5.119,5.977,5.119
	c3.348,0,6.072-2.723,6.072-6.072c0-1.063-0.299-2.05-0.781-2.92l7.674-7.672c0.824,0.415,1.74,0.674,2.723,0.674
	c3.35,0,6.074-2.726,6.074-6.072C73.449,33.379,70.725,30.656,67.375,30.656z M21.223,64.762c-1.338,0-2.428-1.088-2.428-2.429
	c0-1.338,1.09-2.429,2.428-2.429c1.34,0,2.43,1.091,2.43,2.429C23.652,63.674,22.563,64.762,21.223,64.762z M33.268,52.518
	c-1.34,0-2.43-1.089-2.43-2.43c0-1.34,1.09-2.429,2.43-2.429c1.338,0,2.428,1.089,2.428,2.429
	C35.695,51.429,34.605,52.518,33.268,52.518z M51.688,55.149c-1.34,0-2.43-1.09-2.43-2.43s1.09-2.429,2.43-2.429
	s2.43,1.089,2.43,2.429S53.027,55.149,51.688,55.149z M67.375,39.158c-1.338,0-2.428-1.089-2.428-2.429
	c0-1.341,1.09-2.43,2.428-2.43c1.34,0,2.43,1.089,2.43,2.43C69.805,38.069,68.715,39.158,67.375,39.158z"/>
</svg>
