<?xml version="1.0" encoding="utf-8"?>
<!-- Generator: Adobe Illustrator 16.0.0, SVG Export Plug-In . SVG Version: 6.00 Build 0)  -->
<!DOCTYPE svg PUBLIC "-//W3C//DTD SVG 1.1//EN" "http://www.w3.org/Graphics/SVG/1.1/DTD/svg11.dtd">
<svg version="1.1" id="Layer_1" xmlns="http://www.w3.org/2000/svg" xmlns:xlink="http://www.w3.org/1999/xlink" x="0px" y="0px"
	 width="75px" height="85px" viewBox="0 0 75 85" enable-background="new 0 0 75 85" xml:space="preserve">
<path fill="#FFFFFF" d="M70.67,19.572L42.598,3.365c-2.383-1.375-6.279-1.375-8.66,0L5.871,19.571c-2.381,1.375-4.33,4.75-4.33,7.5
	V59.48c0,2.75,1.949,6.125,4.33,7.5l28.07,16.207c2.381,1.375,6.277,1.375,8.66,0l28.066-16.205c2.381-1.375,4.33-4.75,4.33-7.5
	V27.072H75C75,24.322,73.051,20.947,70.67,19.572z M62.01,29.56L38.441,62.302c-0.587,0.815-1.888,1.481-2.892,1.481h-4.906
	c-1.003,0-2.267-0.692-2.807-1.538L16.474,44.451c-0.541-0.847-0.291-1.982,0.553-2.525l5.634-3.616
	c0.845-0.542,1.979-0.296,2.521,0.549l7.242,11.279c0.542,0.845,1.465,0.868,2.05,0.053l19.133-26.662
	c0.584-0.815,1.732-1.003,2.547-0.418l5.439,3.903C62.41,27.6,62.598,28.745,62.01,29.56z"/>
</svg>
