<?xml version="1.0" encoding="utf-8"?>
<!-- Generator: Adobe Illustrator 16.0.0, SVG Export Plug-In . SVG Version: 6.00 Build 0)  -->
<!DOCTYPE svg PUBLIC "-//W3C//DTD SVG 1.1//EN" "http://www.w3.org/Graphics/SVG/1.1/DTD/svg11.dtd">
<svg version="1.1" id="Layer_1" xmlns="http://www.w3.org/2000/svg" xmlns:xlink="http://www.w3.org/1999/xlink" x="0px" y="0px"
	 width="75px" height="85px" viewBox="0 0 75 85" enable-background="new 0 0 75 85" xml:space="preserve">
<g>
	<circle fill="#FFFFFF" cx="38.271" cy="38.17" r="6.831"/>
	<path fill="#FFFFFF" d="M70.67,19.573L42.599,3.366c-2.383-1.375-6.279-1.375-8.66,0L5.872,19.572c-2.381,1.375-4.33,4.75-4.33,7.5
		V59.48c0,2.75,1.949,6.125,4.33,7.5l28.07,16.207c2.381,1.375,6.277,1.375,8.66,0l28.066-16.205c2.381-1.375,4.33-4.75,4.33-7.5
		v-32.41H75C75,24.323,73.051,20.948,70.67,19.573z M40.138,67.773c-0.483,0.519-1.159,0.814-1.866,0.814
		c-0.709,0-1.385-0.297-1.866-0.814c-0.631-0.677-15.437-16.721-15.437-29.058c0-9.54,7.764-17.302,17.303-17.302
		s17.303,7.762,17.303,17.302C55.574,51.053,40.769,67.098,40.138,67.773z"/>
</g>
</svg>
