<?xml version="1.0" encoding="utf-8"?>
<!-- Generator: Adobe Illustrator 16.0.0, SVG Export Plug-In . SVG Version: 6.00 Build 0)  -->
<!DOCTYPE svg PUBLIC "-//W3C//DTD SVG 1.1//EN" "http://www.w3.org/Graphics/SVG/1.1/DTD/svg11.dtd">
<svg version="1.1" id="Layer_1" xmlns="http://www.w3.org/2000/svg" xmlns:xlink="http://www.w3.org/1999/xlink" x="0px" y="0px"
	 width="75px" height="85px" viewBox="0 0 75 85" enable-background="new 0 0 75 85" xml:space="preserve">
<g>
	<path fill="#FFFFFF" d="M38.271,23.762c-10.778,0-19.516,8.738-19.516,19.516c0,10.776,8.737,19.516,19.516,19.516
		c10.778-0.001,19.516-8.738,19.516-19.516C57.786,32.499,49.049,23.761,38.271,23.762z M52.331,41.705
		c0.02,0.022,0.037,0.046,0.054,0.067c0.015,0.018,0.028,0.037,0.042,0.055c0.3,0.405,0.479,0.905,0.48,1.449
		c-0.002,0.545-0.181,1.046-0.482,1.45c-0.011,0.015-0.02,0.026-0.029,0.041c-0.022,0.027-0.044,0.056-0.066,0.082
		c-0.039,0.049-0.085,0.098-0.135,0.148c0,0.002-0.004,0.003-0.004,0.006L41.354,55.838c-0.951,0.952-2.495,0.952-3.448,0
		c-0.952-0.953-0.952-2.497,0-3.451l6.671-6.672l-18.504,0.001c-1.348-0.001-2.439-1.093-2.439-2.438
		c0-1.347,1.092-2.44,2.439-2.439l18.504,0l-6.671-6.672c-0.953-0.955-0.953-2.497,0-3.45c0.953-0.952,2.497-0.952,3.448,0
		l10.838,10.835C52.244,41.603,52.29,41.654,52.331,41.705z"/>
	<path fill="#FFFFFF" d="M70.67,19.572L42.599,3.365c-2.383-1.375-6.279-1.375-8.66,0L5.872,19.572c-2.381,1.375-4.33,4.75-4.33,7.5
		V59.48c0,2.75,1.949,6.125,4.33,7.5l28.07,16.207c2.381,1.375,6.277,1.375,8.66,0l28.066-16.205c2.381-1.375,4.33-4.75,4.33-7.5
		v-32.41H75C75,24.322,73.051,20.947,70.67,19.572z M38.271,67.67c-13.473,0-24.395-10.922-24.395-24.393
		c0-13.473,10.922-24.394,24.395-24.395c13.473,0,24.395,10.922,24.395,24.394C62.663,56.748,51.743,67.67,38.271,67.67z"/>
</g>
</svg>
