<?xml version="1.0" encoding="utf-8"?>
<!-- Generator: Adobe Illustrator 16.0.0, SVG Export Plug-In . SVG Version: 6.00 Build 0)  -->
<!DOCTYPE svg PUBLIC "-//W3C//DTD SVG 1.1//EN" "http://www.w3.org/Graphics/SVG/1.1/DTD/svg11.dtd">
<svg version="1.1" id="Layer_1" xmlns="http://www.w3.org/2000/svg" xmlns:xlink="http://www.w3.org/1999/xlink" x="0px" y="0px"
	 width="75px" height="85px" viewBox="0 0 75 85" enable-background="new 0 0 75 85" xml:space="preserve">
<g>
	<path fill="#FFFFFF" d="M45.479,27.569c-1.71,1.71-1.71,4.502,0,6.213c1.717,1.709,4.503,1.709,6.219,0
		c1.711-1.711,1.711-4.503,0-6.213C49.981,25.853,47.195,25.853,45.479,27.569z"/>
	<path fill="#FFFFFF" d="M70.67,19.572L42.598,3.365c-2.383-1.375-6.279-1.375-8.66,0L5.871,19.571c-2.381,1.375-4.33,4.75-4.33,7.5
		V59.48c0,2.75,1.949,6.125,4.33,7.5l28.07,16.207c2.381,1.375,6.277,1.375,8.66,0l28.066-16.205c2.381-1.375,4.33-4.75,4.33-7.5
		V27.072H75C75,24.322,73.051,20.947,70.67,19.572z M55.839,37.923c-3.284,3.279-8.209,3.828-12.094,1.733l-10.69,10.692
		l3.106,3.106c0.572,0.578,0.572,1.499,0,2.076l-2.071,2.071c-0.572,0.572-1.499,0.572-2.071,0l-3.108-3.112l-2.071,2.076
		l3.106,3.107c0.573,0.572,0.573,1.499,0,2.071l-2.072,2.07c-0.572,0.572-1.498,0.572-2.07,0l-3.106-3.106
		c-1.139,1.139-3.004,1.139-4.142,0c-1.14-1.138-1.14-3.003,0-4.143l21.048-21.052c-2.093-3.878-1.547-8.81,1.731-12.087
		c4.005-4.005,10.497-4.005,14.502,0C59.838,27.425,59.838,33.918,55.839,37.923z"/>
</g>
</svg>
