<?xml version="1.0" encoding="utf-8"?>
<!-- Generator: Adobe Illustrator 16.0.0, SVG Export Plug-In . SVG Version: 6.00 Build 0)  -->
<!DOCTYPE svg PUBLIC "-//W3C//DTD SVG 1.1//EN" "http://www.w3.org/Graphics/SVG/1.1/DTD/svg11.dtd">
<svg version="1.1" id="Layer_1" xmlns="http://www.w3.org/2000/svg" xmlns:xlink="http://www.w3.org/1999/xlink" x="0px" y="0px"
	 width="75px" height="85px" viewBox="0 0 75 85" enable-background="new 0 0 75 85" xml:space="preserve">
<g>
	<path fill="#FFFFFF" d="M38.271,23.615c-10.858,0-19.663,8.804-19.663,19.663c0,10.857,8.805,19.662,19.663,19.662
		s19.661-8.805,19.661-19.662C57.932,32.418,49.129,23.615,38.271,23.615z M50.926,43.645c-0.96,0.959-2.516,0.959-3.477,0
		l-6.723-6.722v18.643c0,1.358-1.1,2.458-2.456,2.458s-2.457-1.1-2.457-2.458l-0.001-18.643l-6.724,6.722
		c-0.958,0.959-2.515,0.959-3.475,0c-0.96-0.961-0.96-2.517,0-3.476L36.532,29.25c0.051-0.051,0.104-0.097,0.155-0.14
		c0.022-0.02,0.045-0.037,0.068-0.054c0.018-0.015,0.036-0.028,0.055-0.042c0.408-0.303,0.912-0.483,1.46-0.484
		c0.548,0,1.052,0.181,1.461,0.485c0.015,0.011,0.027,0.02,0.041,0.031c0.027,0.021,0.057,0.042,0.083,0.065
		c0.05,0.041,0.1,0.087,0.148,0.136c0.003,0,0.005,0.003,0.006,0.003l10.916,10.917C51.886,41.129,51.886,42.684,50.926,43.645z"/>
	<path fill="#FFFFFF" d="M70.67,19.572L42.598,3.365c-2.383-1.375-6.279-1.375-8.66,0L5.872,19.571
		c-2.381,1.375-4.33,4.751-4.33,7.501V59.48c0,2.75,1.949,6.125,4.33,7.5l28.07,16.207c2.381,1.375,6.277,1.375,8.66,0
		l28.066-16.205c2.381-1.375,4.33-4.75,4.33-7.5v-32.41H75C75,24.322,73.051,20.947,70.67,19.572z M38.271,67.854
		c-13.573,0-24.577-11.004-24.577-24.576c0-13.574,11.004-24.578,24.577-24.578s24.577,11.004,24.577,24.578
		C62.848,56.85,51.844,67.854,38.271,67.854z"/>
</g>
</svg>
