<?xml version="1.0" encoding="utf-8"?>
<!-- Generator: Adobe Illustrator 16.0.0, SVG Export Plug-In . SVG Version: 6.00 Build 0)  -->
<!DOCTYPE svg PUBLIC "-//W3C//DTD SVG 1.1//EN" "http://www.w3.org/Graphics/SVG/1.1/DTD/svg11.dtd">
<svg version="1.1" id="Layer_1" xmlns="http://www.w3.org/2000/svg" xmlns:xlink="http://www.w3.org/1999/xlink" x="0px" y="0px"
	 width="75px" height="85px" viewBox="0 0 75 85" enable-background="new 0 0 75 85" xml:space="preserve">
<g>
	<path fill="#FFFFFF" d="M70.67,19.572L42.598,3.365c-2.383-1.375-6.279-1.375-8.66,0L5.871,19.571
		c-2.381,1.375-4.33,4.751-4.33,7.501V59.48c0,2.75,1.949,6.125,4.33,7.5l28.07,16.207c2.381,1.375,6.277,1.375,8.66,0
		l28.066-16.205c2.381-1.375,4.33-4.75,4.33-7.5v-32.41H75C75,24.322,73.051,20.947,70.67,19.572z M41.447,64.044l-2.993,12.498
		l-2.947-12.729c0-1.645,1.338-2.982,2.983-2.982c1.645,0,2.984,1.338,2.984,2.982L41.447,64.044z M43.712,56.859
		c-0.423,1.026-0.696,1.612-0.696,1.612h-4.526h-0.577h-4.526c0,0-0.262-0.572-0.671-1.58l-7.907,2.236l4.654-12.167
		c-2.789-10.981-4.058-26.78,8.868-33.264c12.893,6.466,11.563,22.198,8.714,33.177l4.688,12.254L43.712,56.859z"/>
	<path fill="#FFFFFF" d="M38.489,62.8c-0.526,0-0.96,0.404-1.008,0.918l0.996,4.264l1.021-4.266
		C39.449,63.202,39.016,62.8,38.489,62.8z"/>
	<path fill="#FFFFFF" d="M38.201,24.065c-2.927,0-5.308,2.38-5.308,5.307c0,2.926,2.381,5.307,5.308,5.307
		c2.926,0,5.308-2.381,5.308-5.307C43.509,26.445,41.127,24.065,38.201,24.065z"/>
</g>
</svg>
