<?xml version="1.0" encoding="utf-8"?>
<!-- Generator: Adobe Illustrator 16.0.0, SVG Export Plug-In . SVG Version: 6.00 Build 0)  -->
<!DOCTYPE svg PUBLIC "-//W3C//DTD SVG 1.1//EN" "http://www.w3.org/Graphics/SVG/1.1/DTD/svg11.dtd">
<svg version="1.1" id="Layer_1" xmlns="http://www.w3.org/2000/svg" xmlns:xlink="http://www.w3.org/1999/xlink" x="0px" y="0px"
	 width="75px" height="85px" viewBox="0 0 75 85" enable-background="new 0 0 75 85" xml:space="preserve">
<path fill="#FFFFFF" d="M70.67,19.572L42.598,3.365c-2.383-1.375-6.279-1.375-8.66,0L5.872,19.571
	c-2.381,1.375-4.33,4.751-4.33,7.501V59.48c0,2.75,1.949,6.125,4.33,7.5l28.07,16.207c2.381,1.375,6.277,1.375,8.66,0l28.066-16.205
	c2.381-1.375,4.33-4.75,4.33-7.5v-32.41H75C75,24.322,73.051,20.947,70.67,19.572z M22.646,24.633h31.249
	c1.583,0,3.072,0.397,4.381,1.094L39.953,44.051c-0.893,0.887-2.472,0.887-3.363,0L18.268,25.727
	C19.572,25.03,21.063,24.633,22.646,24.633z M13.312,52.637V33.968c0-1.844,0.543-3.56,1.467-5.009l11.519,11.521L13.351,53.424
	C13.33,53.165,13.312,52.902,13.312,52.637z M53.895,61.969H22.646c-3.033,0-5.719-1.451-7.423-3.691l14.435-14.437l3.57,3.571
	c1.343,1.341,3.134,2.082,5.042,2.082s3.698-0.74,5.043-2.082l3.569-3.571l14.436,14.437C59.613,60.518,56.927,61.969,53.895,61.969
	z M63.229,52.637c0,0.266-0.02,0.528-0.039,0.787L50.243,40.479l11.52-11.521c0.925,1.45,1.467,3.165,1.467,5.009V52.637z"/>
</svg>
