<?xml version="1.0" encoding="utf-8"?>
<!-- Generator: Adobe Illustrator 16.0.0, SVG Export Plug-In . SVG Version: 6.00 Build 0)  -->
<!DOCTYPE svg PUBLIC "-//W3C//DTD SVG 1.1//EN" "http://www.w3.org/Graphics/SVG/1.1/DTD/svg11.dtd">
<svg version="1.1" id="Layer_1" xmlns="http://www.w3.org/2000/svg" xmlns:xlink="http://www.w3.org/1999/xlink" x="0px" y="0px"
	 width="75px" height="85px" viewBox="0 0 75 85" enable-background="new 0 0 75 85" xml:space="preserve">
<g>
	<path fill="#FFFFFF" d="M59.488,37.295H45.365V23.172c0-0.987-0.803-1.791-1.791-1.791H32.966c-0.988,0-1.791,0.803-1.791,1.791
		v14.123H17.052c-0.987,0-1.791,0.803-1.791,1.791v10.608c0,0.987,0.803,1.79,1.791,1.79h14.123v14.125
		c0,0.986,0.803,1.789,1.791,1.789h10.608c0.988,0,1.791-0.803,1.791-1.789V51.484h14.123c0.988,0,1.791-0.803,1.791-1.79V39.086
		C61.279,38.098,60.477,37.295,59.488,37.295z M24.714,48.516l-6.483-4.125l6.483-4.126V48.516z M38.271,64.43l-4.125-6.482h8.251
		L38.271,64.43z M34.145,30.834l4.125-6.483l4.126,6.483H34.145z M51.826,48.516v-8.251l6.484,4.126L51.826,48.516z"/>
	<path fill="#FFFFFF" d="M70.67,19.572L42.598,3.365c-2.383-1.375-6.279-1.375-8.66,0L5.872,19.571
		c-2.381,1.375-4.33,4.751-4.33,7.501V59.48c0,2.75,1.949,6.125,4.33,7.5l28.07,16.207c2.381,1.375,6.277,1.375,8.66,0
		l28.066-16.205c2.381-1.375,4.33-4.75,4.33-7.5v-32.41H75C75,24.322,73.051,20.947,70.67,19.572z M64.771,49.694
		c0,2.913-2.369,5.282-5.282,5.282H48.857v10.633c0,2.912-2.369,5.281-5.283,5.281H32.966c-2.913,0-5.283-2.369-5.283-5.281V54.977
		H17.052c-2.913,0-5.282-2.369-5.282-5.282V39.086c0-2.913,2.369-5.283,5.282-5.283h10.631V23.172c0-2.913,2.37-5.282,5.283-5.282
		h10.608c2.914,0,5.283,2.37,5.283,5.282v10.631h10.631c2.913,0,5.282,2.37,5.282,5.283V49.694z"/>
</g>
</svg>
