<?xml version="1.0" encoding="utf-8"?>
<!-- Generator: Adobe Illustrator 16.0.0, SVG Export Plug-In . SVG Version: 6.00 Build 0)  -->
<!DOCTYPE svg PUBLIC "-//W3C//DTD SVG 1.1//EN" "http://www.w3.org/Graphics/SVG/1.1/DTD/svg11.dtd">
<svg version="1.1" id="Layer_1" xmlns="http://www.w3.org/2000/svg" xmlns:xlink="http://www.w3.org/1999/xlink" x="0px" y="0px"
	 width="75px" height="85px" viewBox="0 0 75 85" enable-background="new 0 0 75 85" xml:space="preserve">
<g>
	<circle fill="#FFFFFF" cx="38.271" cy="43.273" r="5.846"/>
	<path fill="#FFFFFF" d="M70.67,19.572L42.598,3.365c-2.383-1.375-6.279-1.375-8.66,0L5.872,19.571c-2.381,1.375-4.33,4.75-4.33,7.5
		V59.48c0,2.75,1.949,6.125,4.33,7.5l28.07,16.207c2.381,1.375,6.277,1.375,8.66,0l28.066-16.205c2.381-1.375,4.33-4.75,4.33-7.5
		V27.072H75C75,24.322,73.051,20.947,70.67,19.572z M62.104,46.152c0,0.902-0.721,1.803-1.598,2.001l-5.729,1.29
		c-0.145,0.389-0.299,0.774-0.473,1.15l3.132,4.959c0.482,0.764,0.356,1.904-0.282,2.541l-4.065,4.068
		c-0.64,0.637-1.784,0.768-2.548,0.286l-4.955-3.139c-0.377,0.173-0.765,0.328-1.151,0.473l-1.296,5.729
		c-0.191,0.878-1.092,1.599-1.994,1.599h-5.751c-0.902,0-1.801-0.721-2.001-1.599l-1.29-5.732c-0.387-0.146-0.772-0.298-1.148-0.472
		l-4.96,3.135c-0.762,0.482-1.904,0.357-2.543-0.281l-4.067-4.067c-0.639-0.638-0.767-1.78-0.285-2.544l3.139-4.962
		c-0.17-0.374-0.327-0.759-0.472-1.146l-5.729-1.295c-0.879-0.197-1.597-1.094-1.598-1.996l0.001-5.752
		c-0.001-0.901,0.718-1.801,1.597-1.999l5.73-1.29c0.145-0.389,0.299-0.775,0.472-1.152l-3.133-4.958
		c-0.482-0.762-0.355-1.905,0.28-2.54l4.069-4.07c0.638-0.636,1.78-0.766,2.544-0.286l4.956,3.137
		c0.378-0.172,0.762-0.327,1.153-0.476l1.291-5.726c0.197-0.877,1.094-1.596,1.998-1.596h5.752c0.902,0,1.801,0.719,1.998,1.596
		l1.293,5.726c0.388,0.148,0.773,0.304,1.152,0.477l4.955-3.134c0.762-0.48,1.904-0.354,2.544,0.281l4.065,4.071
		c0.64,0.636,0.768,1.78,0.285,2.54l-3.135,4.958c0.172,0.377,0.326,0.765,0.473,1.154l5.725,1.291c0.879,0.2,1.6,1.095,1.6,1.999
		V46.152z"/>
</g>
</svg>
