<?xml version="1.0" encoding="utf-8"?>
<!-- Generator: Adobe Illustrator 16.0.0, SVG Export Plug-In . SVG Version: 6.00 Build 0)  -->
<!DOCTYPE svg PUBLIC "-//W3C//DTD SVG 1.1//EN" "http://www.w3.org/Graphics/SVG/1.1/DTD/svg11.dtd">
<svg version="1.1" id="Layer_1" xmlns="http://www.w3.org/2000/svg" xmlns:xlink="http://www.w3.org/1999/xlink" x="0px" y="0px"
	 width="75px" height="85px" viewBox="0 0 75 85" enable-background="new 0 0 75 85" xml:space="preserve">
<path fill="#FFFFFF" d="M70.67,19.573L42.599,3.366c-2.383-1.375-6.279-1.375-8.66,0L5.872,19.572c-2.381,1.375-4.33,4.75-4.33,7.5
	V59.48c0,2.75,1.949,6.125,4.33,7.5l28.07,16.207c2.381,1.375,6.277,1.375,8.66,0l28.066-16.205c2.381-1.375,4.33-4.75,4.33-7.5
	v-32.41H75C75,24.323,73.051,20.948,70.67,19.573z M35.652,21.227c0-1.465,1.175-2.657,2.62-2.657c1.444,0,2.618,1.192,2.618,2.657
	v21.05c0,1.465-1.174,2.657-2.618,2.657c-1.445,0-2.62-1.191-2.62-2.657V21.227z M38.271,65.983
	c-11.966-0.003-21.703-9.852-21.705-21.952c-0.008-6.326,2.687-10.886,4.949-13.597c2.215-2.661,4.396-4.102,5.013-4.48
	c0.411-0.244,0.861-0.37,1.328-0.37c0.927,0,1.794,0.503,2.263,1.313c0.73,1.26,0.315,2.89-0.924,3.633l-0.243,0.159
	c-0.186,0.125-0.476,0.33-0.83,0.613c-0.645,0.513-1.618,1.372-2.595,2.552c-2.499,3.043-3.716,6.371-3.723,10.176
	c0.001,4.438,1.714,8.614,4.821,11.759c3.116,3.146,7.252,4.878,11.645,4.879c4.395-0.001,8.529-1.733,11.645-4.878
	c3.108-3.146,4.82-7.322,4.823-11.758c-0.008-3.713-1.167-6.97-3.544-9.958c-1.483-1.856-3.081-3.026-3.614-3.391l-0.032-0.064
	l-0.063-0.031l-0.082-0.123l-0.217-0.035c-1.123-0.789-1.463-2.326-0.764-3.533c0.47-0.81,1.337-1.313,2.264-1.313
	c0.46,0,0.915,0.125,1.315,0.363c0.609,0.371,2.79,1.8,5.025,4.486c2.263,2.71,4.958,7.269,4.95,13.596
	C59.976,56.132,50.238,65.98,38.271,65.983z"/>
</svg>
