<?xml version="1.0" encoding="utf-8"?>
<!-- Generator: Adobe Illustrator 16.0.0, SVG Export Plug-In . SVG Version: 6.00 Build 0)  -->
<!DOCTYPE svg PUBLIC "-//W3C//DTD SVG 1.1//EN" "http://www.w3.org/Graphics/SVG/1.1/DTD/svg11.dtd">
<svg version="1.1" id="Layer_1" xmlns="http://www.w3.org/2000/svg" xmlns:xlink="http://www.w3.org/1999/xlink" x="0px" y="0px"
	 width="75px" height="85px" viewBox="0 0 75 85" enable-background="new 0 0 75 85" xml:space="preserve">
<g>
	<path fill="#FFFFFF" d="M42.379,30.608v-9.596h-19.19v42.645h30.135V31.956h-9.595C42.984,31.956,42.379,31.351,42.379,30.608z
		 M29.09,40.851c0-1.605,1.306-2.912,2.912-2.912c0.927,0,1.807,0.448,2.354,1.198c0.365,0.5,0.558,1.093,0.558,1.713
		c0,1.606-1.306,2.913-2.912,2.913C30.396,43.764,29.09,42.457,29.09,40.851z M38.256,52.914c-3.331,0-6.04-2.71-6.04-6.04
		c0-0.743,0.605-1.349,1.348-1.349c0.744,0,1.35,0.605,1.35,1.349c0,1.843,1.499,3.341,3.342,3.341c1.842,0,3.342-1.498,3.342-3.341
		c0-0.743,0.604-1.349,1.349-1.349c0.743,0,1.349,0.605,1.349,1.349C44.295,50.204,41.586,52.914,38.256,52.914z M47.421,40.851
		c0,1.606-1.306,2.913-2.911,2.913c-1.606,0-2.912-1.307-2.912-2.913c0-1.605,1.306-2.912,2.912-2.912
		C46.115,37.939,47.421,39.245,47.421,40.851z"/>
	<path fill="#FFFFFF" d="M70.67,19.572L42.598,3.365c-2.383-1.375-6.279-1.375-8.66,0L5.872,19.571c-2.381,1.375-4.33,4.75-4.33,7.5
		V59.48c0,2.75,1.949,6.125,4.33,7.5l28.07,16.207c2.381,1.375,6.277,1.375,8.66,0l28.066-16.205c2.381-1.375,4.33-4.75,4.33-7.5
		V27.072H75C75,24.322,73.051,20.947,70.67,19.572z M56.02,30.831v34.173c0,0.743-0.604,1.348-1.348,1.348H21.839
		c-0.743,0-1.348-0.604-1.348-1.348V19.663c0-0.743,0.605-1.348,1.348-1.348h21.966l0.133,0.031l0.041,0.005l0.094,0.023
		c0.24,0.063,0.447,0.176,0.607,0.334l10.787,10.787l0.025,0.017l0.066,0.08l0.137,0.133l0.019,0.039
		c0.233,0.272,0.337,0.55,0.337,0.844C56.051,30.7,56.033,30.777,56.02,30.831z"/>
</g>
</svg>
