<?xml version="1.0" encoding="utf-8"?>
<!-- Generator: Adobe Illustrator 16.0.0, SVG Export Plug-In . SVG Version: 6.00 Build 0)  -->
<!DOCTYPE svg PUBLIC "-//W3C//DTD SVG 1.1//EN" "http://www.w3.org/Graphics/SVG/1.1/DTD/svg11.dtd">
<svg version="1.1" id="Layer_1" xmlns="http://www.w3.org/2000/svg" xmlns:xlink="http://www.w3.org/1999/xlink" x="0px" y="0px"
	 width="75px" height="85px" viewBox="0 0 75 85" enable-background="new 0 0 75 85" xml:space="preserve">
<path fill="#FFFFFF" d="M70.67,19.572L42.598,3.365c-2.383-1.375-6.279-1.375-8.66,0L5.871,19.571
	c-2.381,1.375-4.33,4.751-4.33,7.501V59.48c0,2.75,1.949,6.125,4.33,7.5l28.07,16.207c2.381,1.375,6.277,1.375,8.66,0l28.066-16.205
	c2.381-1.375,4.33-4.75,4.33-7.5V27.072H75C75,24.322,73.051,20.947,70.67,19.572z M58.118,48.248c0,4.238-3.448,7.688-7.688,7.688
	c0,0-3.438,0-7.729,0c0.16,0.599,0.294,1.219,0.383,1.868l0.205,0.03c5.168,0.773,8.253,2.577,8.253,4.824
	c0,3.366-6.839,5.183-13.273,5.183c-6.434,0-13.271-1.816-13.271-5.183c0-2.248,3.086-4.051,8.254-4.824l0.207-0.031
	c0.089-0.653,0.222-1.271,0.382-1.868c-4.287,0-7.724,0-7.73,0c-4.238,0-7.688-3.448-7.688-7.688V29.151
	c0-4.239,3.449-7.688,7.688-7.688h24.321c4.239,0,7.688,3.449,7.688,7.688V48.248z"/>
<path fill="#FFFFFF" d="M48.331,26.612H28.209c-2.281,0-4.138,1.856-4.138,4.138v15.799c0,2.282,1.856,4.139,4.138,4.139
	c0.082,0,0.169-0.004,0.277-0.01l1.284-0.084v0.094h18.561c2.282,0,4.139-1.856,4.139-4.139V30.75
	C52.47,28.468,50.613,26.612,48.331,26.612z"/>
</svg>
