<?xml version="1.0" encoding="utf-8"?>
<!-- Generator: Adobe Illustrator 16.0.0, SVG Export Plug-In . SVG Version: 6.00 Build 0)  -->
<!DOCTYPE svg PUBLIC "-//W3C//DTD SVG 1.1//EN" "http://www.w3.org/Graphics/SVG/1.1/DTD/svg11.dtd">
<svg version="1.1" id="Layer_1" xmlns="http://www.w3.org/2000/svg" xmlns:xlink="http://www.w3.org/1999/xlink" x="0px" y="0px"
	 width="75px" height="85px" viewBox="0 0 75 85" enable-background="new 0 0 75 85" xml:space="preserve">
<g>
	<path fill="#FFFFFF" d="M24.694,41.487h15.222L34.804,36c-0.465-0.463-0.729-1.142-0.732-1.871
		c-0.002-0.73,0.253-1.405,0.697-1.853c0.453-0.457,1.058-0.708,1.703-0.708c0.638,0,1.238,0.248,1.69,0.697l9.134,9.064
		l0.086,0.113l0.12,0.116l0.1,0.072c0.017,0.026,0.036,0.052,0.054,0.076l0.229,0.289c0.008,0.019,0.155,0.312,0.155,0.312
		c0.05,0.103,0.063,0.147,0.073,0.188l0.102,0.343c0,0.024,0.04,0.438,0.04,0.438l-0.048,0.464l-0.091,0.305
		c-0.018,0.067-0.026,0.104-0.04,0.138c-0.011,0.027-0.029,0.057-0.047,0.088L47.855,44.6l-0.387,0.48l-9.307,9.246
		c-0.466,0.465-1.081,0.732-1.688,0.732c-0.488,0-1.18-0.111-1.704-0.641c-0.452-0.455-0.7-1.037-0.698-1.633
		c0.003-0.596,0.255-1.174,0.71-1.623l5.363-4.927h-15.45v14.603h29.26V25.711h-29.26V41.487z"/>
	<path fill="#FFFFFF" d="M70.67,19.572L42.599,3.365c-2.383-1.375-6.279-1.375-8.66,0L5.872,19.572c-2.381,1.375-4.33,4.75-4.33,7.5
		V59.48c0,2.75,1.949,6.125,4.33,7.5l28.07,16.207c2.381,1.375,6.277,1.375,8.66,0l28.066-16.205c2.381-1.375,4.33-4.75,4.33-7.5
		v-32.41H75C75,24.322,73.051,20.947,70.67,19.572z M58.705,63.301c0,1.262-1.156,2.289-2.577,2.289H22.405
		c-1.381,0-2.463-1.006-2.463-2.289V46.235h-1.703c-1.324,0-2.401-1.065-2.401-2.374c0-1.309,1.077-2.374,2.401-2.374h1.703V23.256
		c0-1.286,1.082-2.292,2.463-2.292h33.723c1.421,0,2.577,1.028,2.577,2.292V63.301z"/>
</g>
</svg>
