<?xml version="1.0" encoding="utf-8"?>
<!-- Generator: Adobe Illustrator 16.0.0, SVG Export Plug-In . SVG Version: 6.00 Build 0)  -->
<!DOCTYPE svg PUBLIC "-//W3C//DTD SVG 1.1//EN" "http://www.w3.org/Graphics/SVG/1.1/DTD/svg11.dtd">
<svg version="1.1" id="Layer_1" xmlns="http://www.w3.org/2000/svg" xmlns:xlink="http://www.w3.org/1999/xlink" x="0px" y="0px"
	 width="75px" height="85px" viewBox="0 0 75 85" enable-background="new 0 0 75 85" xml:space="preserve">
<polygon fill="#FFFFFF" points="43.541,37.079 35.76,37.079 33.423,48.316 41.206,48.313 "/>
<path fill="#FFFFFF" d="M5.872,66.98l28.07,16.207c2.381,1.375,6.277,1.375,8.66,0l28.066-16.205c2.381-1.375,4.33-4.75,4.33-7.5
	V27.072H75c0-2.75-1.949-6.125-4.33-7.5L42.599,3.365c-2.383-1.375-6.279-1.375-8.66,0L5.872,19.572
	c-2.381,1.375-4.33,4.75-4.33,7.5V59.48C1.542,62.23,3.491,65.605,5.872,66.98z M20.195,48.316h6.077l2.336-11.239h-5.806
	c-1.93,0-3.5-1.569-3.5-3.498c0-1.931,1.569-3.5,3.498-3.5h7.266l1.22-5.875c0.336-1.615,1.776-2.788,3.425-2.788
	c0.239,0,0.481,0.025,0.717,0.075c0.914,0.19,1.701,0.726,2.215,1.507c0.512,0.784,0.69,1.717,0.498,2.633l-0.923,4.447l7.78-0.002
	l1.211-5.822c0.339-1.616,1.779-2.787,3.425-2.787c0.24,0,0.48,0.025,0.716,0.074c0.916,0.191,1.701,0.725,2.214,1.507
	c0.514,0.783,0.689,1.716,0.501,2.632l-0.915,4.396h4.194c1.93,0,3.501,1.572,3.501,3.503c-0.002,1.93-1.571,3.498-3.501,3.498
	v0.001h-5.65l-2.336,11.234h5.381c1.93,0,3.5,1.572,3.5,3.503c-0.002,1.929-1.571,3.499-3.5,3.499H46.9l-1.462,7.031
	c-0.336,1.615-1.777,2.787-3.427,2.787c-0.239,0-0.479-0.025-0.714-0.074c-0.916-0.19-1.702-0.726-2.216-1.508
	c-0.512-0.781-0.688-1.716-0.5-2.631l1.167-5.605h-7.783l-1.45,6.981c-0.337,1.614-1.777,2.786-3.427,2.786
	c-0.238,0-0.479-0.025-0.715-0.072c-1.89-0.396-3.106-2.252-2.715-4.141l1.157-5.556h-4.618c-1.931,0-3.501-1.57-3.501-3.499
	C16.697,49.886,18.268,48.316,20.195,48.316z"/>
</svg>
