<?xml version="1.0" encoding="utf-8"?>
<!-- Generator: Adobe Illustrator 16.0.0, SVG Export Plug-In . SVG Version: 6.00 Build 0)  -->
<!DOCTYPE svg PUBLIC "-//W3C//DTD SVG 1.1//EN" "http://www.w3.org/Graphics/SVG/1.1/DTD/svg11.dtd">
<svg version="1.1" id="Layer_1" xmlns="http://www.w3.org/2000/svg" xmlns:xlink="http://www.w3.org/1999/xlink" x="0px" y="0px"
	 width="75px" height="85px" viewBox="0 0 75 85" enable-background="new 0 0 75 85" xml:space="preserve">
<g>
	<path fill="#FFFFFF" d="M40.922,32.535l-2.406-3.706c-0.09-0.13-2.373-3.41-5.747-3.41c-1.26,0-2.595,0.452-3.966,1.343
		l-1.144,0.742l6.233,9.597L40.922,32.535z"/>
	<path fill="#FFFFFF" d="M25.141,29.138l-1.14,0.739c-0.595,0.395-5.75,4.044-2.064,9.714l2.409,3.709l7.03-4.566L25.141,29.138z"/>
	<path fill="#FFFFFF" d="M70.67,19.572L42.598,3.365c-2.383-1.375-6.279-1.375-8.66,0L5.871,19.571
		c-2.381,1.375-4.33,4.751-4.33,7.501V59.48c0,2.75,1.949,6.125,4.33,7.5l28.07,16.207c2.381,1.375,6.277,1.375,8.66,0
		l28.066-16.205c2.381-1.375,4.33-4.75,4.33-7.5v-32.41H75C75,24.322,73.051,20.947,70.67,19.572z M64.554,60.914
		c-0.161,0.674-0.789,1.164-1.494,1.164c-0.182,0-0.365-0.031-0.544-0.094c-0.538-0.236-1.075-0.348-1.638-0.348
		c-0.994,0-2.085,0.34-3.241,1.011c-1.924,1.119-3.755,1.687-5.441,1.687c-3.332,0-5.467-2.231-6.553-3.536l-1.1,0.716
		c-2.135,1.387-4.318,2.09-6.491,2.09c-5.963-0.002-9.49-5.297-9.637-5.523L18.048,42.119c-3.274-5.039-2.128-9.217-0.59-11.835
		c1.577-2.686,3.918-4.229,4.017-4.293l4.802-3.117c2.137-1.388,4.321-2.091,6.492-2.091c5.837,0,9.263,4.953,9.634,5.518
		l10.369,15.965c3.272,5.043,2.127,9.22,0.59,11.836c-1.578,2.686-3.919,4.229-4.018,4.293l-1.158,0.752
		c1.035,1.178,2.268,2.166,4.035,2.166c1.153,0,2.469-0.424,3.91-1.261c1.634-0.947,3.234-1.427,4.757-1.427
		c0.949,0,1.866,0.186,2.727,0.555C64.514,59.635,64.684,60.371,64.554,60.914z"/>
	<path fill="#FFFFFF" d="M48.881,44.792l-6.324-9.74L25.98,45.818l6.322,9.737c0.09,0.13,2.39,3.409,5.75,3.411
		c1.256,0,2.591-0.451,3.967-1.343l4.797-3.118C47.413,54.111,52.568,50.467,48.881,44.792z"/>
</g>
</svg>
