<?xml version="1.0" encoding="utf-8"?>
<!-- Generator: Adobe Illustrator 16.0.0, SVG Export Plug-In . SVG Version: 6.00 Build 0)  -->
<!DOCTYPE svg PUBLIC "-//W3C//DTD SVG 1.1//EN" "http://www.w3.org/Graphics/SVG/1.1/DTD/svg11.dtd">
<svg version="1.1" id="Layer_1" xmlns="http://www.w3.org/2000/svg" xmlns:xlink="http://www.w3.org/1999/xlink" x="0px" y="0px"
	 width="75px" height="85px" viewBox="0 0 75 85" enable-background="new 0 0 75 85" xml:space="preserve">
<g>
	<path fill="#FFFFFF" d="M57.344,46.928c-0.578-0.057-1.146-0.392-1.558-0.917c-0.374-0.477-0.546-1.131-0.458-1.748l0.029-0.221
		c0.034-0.353,0.054-0.752,0.054-1.137c0-6.416-5.186-11.635-11.56-11.635c-2.66,0-5.256,0.93-7.309,2.617
		c-2.02,1.661-3.437,3.98-3.987,6.529c-0.078,0.412-0.284,0.807-0.581,1.119c-0.427,0.448-1.026,0.705-1.645,0.705
		c-0.539,0-1.062-0.192-1.473-0.543c-0.063-0.056-0.118-0.107-0.168-0.159c-0.763-0.809-1.788-1.255-2.885-1.255
		c-2.116,0-3.894,1.733-3.963,3.864c0.03,0.671-0.218,1.302-0.683,1.753c-0.426,0.414-0.99,0.643-1.586,0.643h-0.086
		c-1.991,0.066-3.874,2.365-3.874,4.729c0,1.146,0.458,2.345,1.26,3.287c0.779,0.916,1.765,1.441,2.705,1.441h37.359
		c1.965,0,3.965-2.386,3.965-4.729C60.9,49.151,59.238,47.122,57.344,46.928z"/>
	<path fill="#FFFFFF" d="M70.67,19.572L42.598,3.365c-2.383-1.375-6.279-1.375-8.66,0L5.872,19.571
		c-2.381,1.375-4.33,4.751-4.33,7.501V59.48c0,2.75,1.949,6.125,4.33,7.5l28.07,16.207c2.381,1.375,6.277,1.375,8.66,0
		l28.066-16.205c2.381-1.375,4.33-4.75,4.33-7.5v-32.41H75C75,24.322,73.051,20.947,70.67,19.572z M63.033,57.228
		c-1.618,1.802-3.758,2.805-6.025,2.825H56.76l-0.098-0.011H19.564c-2.292,0-4.453-1.004-6.086-2.825
		c-1.529-1.703-2.406-3.959-2.406-6.188c0-2.23,0.876-4.485,2.404-6.188c1.09-1.217,2.44-2.088,3.903-2.52l0.154-0.046l0.04-0.155
		c0.971-3.754,4.355-6.375,8.229-6.375c1.041,0,2.067,0.191,3.049,0.57l0.249,0.097l0.111-0.243c1.021-2.235,2.56-4.237,4.45-5.79
		c2.863-2.354,6.482-3.651,10.19-3.651c8.733,0,15.953,7.135,16.096,15.904l0.002,0.186l0.171,0.072
		c3.182,1.339,5.319,4.612,5.319,8.145C65.439,53.266,64.563,55.523,63.033,57.228z"/>
</g>
</svg>
