<?xml version="1.0" encoding="utf-8"?>
<!-- Generator: Adobe Illustrator 15.0.0, SVG Export Plug-In . SVG Version: 6.00 Build 0)  -->
<!DOCTYPE svg PUBLIC "-//W3C//DTD SVG 1.1//EN" "http://www.w3.org/Graphics/SVG/1.1/DTD/svg11.dtd">
<svg version="1.1" id="Layer_1" xmlns="http://www.w3.org/2000/svg" xmlns:xlink="http://www.w3.org/1999/xlink" x="0px" y="0px"
	 width="457px" height="88px" viewBox="0 0 457 88" enable-background="new 0 0 457 88" xml:space="preserve">
<g>
	<g>
		<g>
			<g>
				<path fill="#0097BD" d="M457,83c0,2.75-2.25,5-5,5H5c-2.75,0-5-2.25-5-5V5c0-2.75,2.25-5,5-5h447c2.75,0,5,2.25,5,5V83z"/>
			</g>
		</g>
	</g>
	<g>
		<g enable-background="new    ">
			<path fill="#FFFFFF" d="M110.244,32.131h2.777v26.786h16.333v2.368h-19.11V32.131z"/>
			<path fill="#FFFFFF" d="M150.543,50.75c0,6.044-3.552,11.147-9.963,11.147s-9.963-5.104-9.963-11.147
				c0-6.043,3.553-11.146,9.963-11.146S150.543,44.707,150.543,50.75z M133.189,50.75c0,4.451,2.491,8.983,7.391,8.983
				s7.391-4.532,7.391-8.983c0-4.45-2.491-8.982-7.391-8.982S133.189,46.3,133.189,50.75z"/>
			<path fill="#FFFFFF" d="M172.183,59.57c0,6.329-2.531,10.126-9.35,10.126c-4.206,0-8.412-1.919-8.738-6.369h2.573
				c0.531,3.103,3.348,4.205,6.166,4.205c4.778,0,6.778-2.776,6.778-7.962v-2.858h-0.081c-1.185,2.613-3.634,4.328-6.697,4.328
				c-6.737,0-9.514-4.777-9.514-10.82c0-5.799,3.43-10.616,9.514-10.616c3.103,0,5.675,1.919,6.697,4.246h0.081v-3.634h2.572V59.57z
				 M169.61,50.506c0-4.125-1.878-8.738-6.778-8.738s-6.941,4.369-6.941,8.738c0,4.246,2.164,8.37,6.941,8.37
				C167.283,58.876,169.61,54.752,169.61,50.506z"/>
			<path fill="#FFFFFF" d="M177.122,32.131h2.572v4.124h-2.572V32.131z M177.122,40.216h2.572v21.069h-2.572V40.216z"/>
			<path fill="#FFFFFF" d="M184.594,40.216h2.572v3.634h0.082c0.979-2.531,3.757-4.246,6.737-4.246c5.921,0,7.717,3.103,7.717,8.125
				v13.557h-2.572V48.137c0-3.593-1.184-6.369-5.349-6.369c-4.124,0-6.492,3.103-6.615,7.227v12.291h-2.572V40.216z"/>
			<path fill="#FFFFFF" d="M215.786,40.216h2.736l5.39,18.048h0.082l5.145-18.048h2.899l5.145,18.048h0.082l5.39-18.048h2.736
				l-6.778,21.069h-2.817l-5.187-17.722h-0.081l-5.146,17.722h-2.817L215.786,40.216z"/>
			<path fill="#FFFFFF" d="M248.206,32.131h2.572v4.124h-2.572V32.131z M248.206,40.216h2.572v21.069h-2.572V40.216z"/>
			<path fill="#FFFFFF" d="M259.802,40.216h4.287v2.164h-4.287v14.21c0,1.674,0.245,2.653,2.082,2.776
				c0.735,0,1.471-0.041,2.205-0.123v2.205c-0.775,0-1.511,0.082-2.286,0.082c-3.43,0-4.614-1.144-4.573-4.736V42.38h-3.675v-2.164
				h3.675v-6.329h2.572V40.216z"/>
			<path fill="#FFFFFF" d="M267.763,32.131h2.572V43.85h0.082c0.979-2.531,3.756-4.246,6.737-4.246c5.921,0,7.717,3.103,7.717,8.125
				v13.557h-2.572V48.137c0-3.593-1.184-6.369-5.349-6.369c-4.124,0-6.492,3.103-6.615,7.227v12.291h-2.572V32.131z"/>
			<path fill="#FFFFFF" d="M301.12,32.131h2.572v29.154h-2.572V32.131z"/>
			<path fill="#FFFFFF" d="M308.674,32.131h2.572v4.124h-2.572V32.131z M308.674,40.216h2.572v21.069h-2.572V40.216z"/>
			<path fill="#FFFFFF" d="M316.146,40.216h2.572v3.634h0.082c0.979-2.531,3.756-4.246,6.737-4.246c5.921,0,7.717,3.103,7.717,8.125
				v13.557h-2.572V48.137c0-3.593-1.184-6.369-5.349-6.369c-4.124,0-6.492,3.103-6.615,7.227v12.291h-2.572V40.216z"/>
			<path fill="#FFFFFF" d="M338.111,32.131h2.572v18.293l11.678-10.208h3.431l-8.983,7.799l9.596,13.271h-3.226l-8.33-11.474
				l-4.165,3.471v8.003h-2.572V32.131z"/>
			<path fill="#FFFFFF" d="M360.037,51.444c0,3.757,2.041,8.289,6.941,8.289c3.757,0,5.798-2.164,6.615-5.39h2.572
				c-1.103,4.777-3.839,7.554-9.188,7.554c-6.696,0-9.514-5.145-9.514-11.147c0-5.553,2.817-11.146,9.514-11.146
				c6.737,0,9.473,5.92,9.269,11.841H360.037z M373.675,49.28c-0.122-3.879-2.572-7.513-6.696-7.513
				c-4.247,0-6.492,3.675-6.941,7.513H373.675z"/>
			<path fill="#FFFFFF" d="M398.255,61.285h-2.369v-4.002h-0.081c-1.103,2.777-4.451,4.614-7.514,4.614
				c-6.41,0-9.473-5.145-9.473-11.147c0-6.002,3.063-11.146,9.473-11.146c3.104,0,6.248,1.592,7.31,4.613h0.081V32.131h2.573V61.285
				z M388.291,59.733c5.431,0,7.391-4.614,7.391-8.983s-1.96-8.982-7.391-8.982c-4.899,0-6.9,4.613-6.9,8.982
				S383.392,59.733,388.291,59.733z"/>
			<path fill="#FFFFFF" d="M403.193,32.131h2.572v4.124h-2.572V32.131z M403.193,40.216h2.572v21.069h-2.572V40.216z"/>
			<path fill="#FFFFFF" d="M410.665,40.216h2.572v3.634h0.082c0.979-2.531,3.756-4.246,6.737-4.246c5.921,0,7.717,3.103,7.717,8.125
				v13.557h-2.572V48.137c0-3.593-1.184-6.369-5.349-6.369c-4.124,0-6.492,3.103-6.615,7.227v12.291h-2.572V40.216z"/>
		</g>
	</g>
	<g>
		<g>
			<path fill="#FFFFFF" d="M26.252,33.517H37.4v35.851H26.252V33.517z M31.826,15.694c3.563,0,6.457,2.895,6.457,6.458
				c0,3.568-2.895,6.463-6.457,6.463c-3.571,0-6.459-2.895-6.459-6.463C25.367,18.589,28.255,15.694,31.826,15.694"/>
		</g>
		<g>
			<path fill="#FFFFFF" d="M44.388,33.517h10.69v4.896h0.15c1.488-2.817,5.123-5.79,10.544-5.79c11.275,0,13.358,7.423,13.358,17.08
				v19.664H68V51.934c0-4.16-0.081-9.507-5.793-9.507c-5.797,0-6.682,4.529-6.682,9.206v17.735H44.388V33.517z"/>
		</g>
	</g>
</g>
</svg>
