<?xml version="1.0" encoding="utf-8"?>
<!-- Generator: Adobe Illustrator 15.0.0, SVG Export Plug-In . SVG Version: 6.00 Build 0)  -->
<!DOCTYPE svg PUBLIC "-//W3C//DTD SVG 1.1//EN" "http://www.w3.org/Graphics/SVG/1.1/DTD/svg11.dtd">
<svg version="1.1" xmlns="http://www.w3.org/2000/svg" xmlns:xlink="http://www.w3.org/1999/xlink" x="0px" y="0px"
	 width="53.532px" height="60px" viewBox="0 0 53.532 60" enable-background="new 0 0 53.532 60" xml:space="preserve">
<g id="Layer_6">
	<path fill="#F5F5F5" d="M50.854,13.001L29.443,0.638c-1.474-0.85-3.883-0.85-5.353,0L2.675,13.001C1.205,13.851,0,15.938,0,17.637
		v24.726c0,1.7,1.205,3.786,2.675,4.636L24.09,59.361c1.47,0.851,3.879,0.851,5.353,0l21.411-12.362
		c1.474-0.85,2.678-2.936,2.678-4.636V17.637C53.532,15.938,52.328,13.851,50.854,13.001z M26.765,14.215
		c4.316,0,7.813,3.987,7.813,8.904c0,4.915-3.497,8.9-7.813,8.9c-4.315,0-7.814-3.986-7.814-8.902
		C18.951,18.202,22.45,14.215,26.765,14.215z M27.646,51.417c-0.111,0.065-0.422,0.173-0.881,0.173
		c-0.457,0-0.769-0.107-0.879-0.173l-10.451-6.033c0.984-6.563,3.724-12.081,11.33-12.081s10.347,5.518,11.331,12.081L27.646,51.417
		z"/>
</g>
<g id="Layer_5" display="none">
	<g display="inline">
		<path fill="#FFFFFF" d="M23.51,23.042c1.562-1.061,1.966-3.199,0.902-4.769c-1.066-1.569-3.204-1.984-4.767-0.925
			c-1.562,1.061-1.969,3.2-0.902,4.77C19.808,23.686,21.946,24.102,23.51,23.042z"/>
		<path fill="#FFFFFF" d="M17.137,33.061c-2.091,0.739-3.19,3.042-2.45,5.134c0.74,2.091,3.044,3.19,5.135,2.449
			c2.092-0.739,3.191-3.043,2.452-5.134C21.532,33.418,19.229,32.318,17.137,33.061z"/>
		<path fill="#FFFFFF" d="M50.854,13L29.443,0.638c-1.472-0.851-3.881-0.851-5.352,0L2.677,13C1.205,13.851,0,15.938,0,17.637
			v24.726C0,44.063,1.205,46.149,2.677,47l21.414,12.361c1.471,0.851,3.88,0.851,5.352,0L50.854,47
			c1.474-0.851,2.678-2.938,2.678-4.637V17.637C53.532,15.938,52.328,13.851,50.854,13z M14.027,18.194
			c0.057-0.285,0.332-0.474,0.619-0.418l1.259,0.245c-0.024,0.068-0.044,0.136-0.066,0.205c0.307-0.912,0.828-1.751,1.554-2.44
			c-0.017,0.015-0.038,0.027-0.053,0.043l-0.722-1.064c-0.163-0.242-0.101-0.571,0.139-0.734l0.871-0.592
			c0.242-0.162,0.571-0.098,0.735,0.143l0.722,1.063c-0.07,0.03-0.138,0.069-0.206,0.103c0.946-0.468,1.97-0.666,2.979-0.613
			c-0.07-0.005-0.14-0.012-0.208-0.013l0.239-1.262c0.054-0.285,0.332-0.474,0.617-0.417l1.037,0.199
			c0.285,0.058,0.475,0.334,0.419,0.62l-0.238,1.261c-0.079-0.029-0.161-0.053-0.24-0.08c0.977,0.328,1.876,0.903,2.597,1.708
			c-0.054-0.059-0.105-0.123-0.162-0.181l1.059-0.718c0.239-0.162,0.569-0.099,0.732,0.143l0.595,0.874
			c0.164,0.243,0.101,0.573-0.14,0.735l-1.059,0.717c-0.029-0.063-0.063-0.125-0.096-0.19c0.457,0.928,0.658,1.928,0.621,2.914
			c0.001-0.05,0.008-0.1,0.008-0.151l1.263,0.245c0.284,0.057,0.473,0.334,0.419,0.619l-0.196,1.038
			c-0.055,0.284-0.331,0.473-0.617,0.418l-1.261-0.246c0.022-0.057,0.038-0.116,0.059-0.174c-0.326,0.947-0.885,1.819-1.664,2.52
			c0.058-0.053,0.117-0.102,0.172-0.154l0.721,1.065c0.164,0.24,0.102,0.569-0.138,0.732l-0.872,0.592
			c-0.239,0.162-0.57,0.099-0.733-0.143l-0.719-1.063c0.077-0.035,0.152-0.076,0.229-0.115c-0.944,0.472-1.969,0.674-2.978,0.627
			c0.06,0.002,0.12,0.009,0.179,0.011l-0.237,1.263c-0.055,0.285-0.334,0.472-0.618,0.417l-1.037-0.2
			c-0.285-0.056-0.476-0.334-0.423-0.62l0.24-1.261c0.056,0.021,0.115,0.036,0.172,0.056c-0.937-0.326-1.799-0.881-2.495-1.648
			c0.043,0.048,0.084,0.1,0.129,0.145l-1.061,0.718c-0.238,0.162-0.568,0.099-0.73-0.143L14.85,24.12
			c-0.164-0.241-0.101-0.572,0.14-0.735l1.056-0.718c0.038,0.082,0.082,0.162,0.122,0.242c-0.484-0.961-0.69-2.003-0.641-3.027
			c-0.003,0.071-0.012,0.143-0.013,0.213l-1.261-0.245c-0.284-0.054-0.473-0.334-0.419-0.619L14.027,18.194z M26.915,35.179
			l-1.418,0.501c-0.013-0.084-0.035-0.167-0.053-0.251c0.247,1.204,0.171,2.414-0.179,3.536c0.021-0.071,0.049-0.142,0.069-0.215
			l1.358,0.648c0.309,0.146,0.441,0.518,0.293,0.826l-0.535,1.116c-0.145,0.308-0.517,0.438-0.822,0.292l-1.359-0.649
			c0.044-0.061,0.082-0.126,0.124-0.189c-0.651,0.979-1.545,1.801-2.637,2.368c0.076-0.04,0.155-0.076,0.23-0.117l0.5,1.416
			c0.114,0.319-0.055,0.677-0.376,0.789l-1.167,0.414c-0.321,0.112-0.676-0.057-0.791-0.377l-0.501-1.416
			c0.09-0.016,0.179-0.039,0.268-0.058c-1.211,0.251-2.432,0.176-3.558-0.179c0.073,0.023,0.146,0.05,0.219,0.072l-0.647,1.358
			c-0.146,0.307-0.518,0.438-0.826,0.292l-1.118-0.532c-0.306-0.147-0.438-0.52-0.291-0.825l0.648-1.358
			c0.057,0.04,0.117,0.075,0.176,0.114c-0.949-0.636-1.75-1.498-2.313-2.549c0.027,0.049,0.049,0.102,0.079,0.149l-1.417,0.503
			c-0.324,0.112-0.679-0.058-0.792-0.377l-0.412-1.167c-0.114-0.321,0.056-0.677,0.376-0.79l1.418-0.502
			c0.011,0.065,0.028,0.133,0.042,0.199c-0.23-1.171-0.158-2.349,0.177-3.44c-0.018,0.058-0.04,0.113-0.055,0.171l-1.358-0.649
			c-0.309-0.146-0.44-0.517-0.293-0.823l0.533-1.117c0.146-0.308,0.517-0.439,0.825-0.293l1.358,0.649
			c-0.049,0.067-0.091,0.14-0.137,0.21c0.656-0.994,1.561-1.827,2.668-2.396c-0.083,0.042-0.167,0.081-0.248,0.126l-0.502-1.418
			c-0.115-0.32,0.057-0.675,0.377-0.789l1.166-0.413c0.322-0.115,0.677,0.055,0.791,0.376l0.5,1.417
			c-0.087,0.014-0.172,0.038-0.259,0.055c1.218-0.252,2.445-0.172,3.579,0.188c-0.083-0.027-0.164-0.057-0.246-0.081l0.646-1.358
			c0.146-0.307,0.518-0.439,0.825-0.293l1.117,0.533c0.308,0.146,0.438,0.518,0.291,0.826l-0.646,1.358
			c-0.054-0.038-0.111-0.07-0.167-0.108c0.97,0.651,1.786,1.543,2.347,2.628c-0.041-0.077-0.077-0.159-0.122-0.237l1.416-0.502
			c0.322-0.112,0.678,0.057,0.79,0.378l0.415,1.167C27.406,34.708,27.235,35.064,26.915,35.179z M46.328,32.516
			c-0.03,0.383-0.368,0.672-0.75,0.641l-1.689-0.131c0.018-0.072,0.029-0.145,0.045-0.217c-0.301,1.313-0.919,2.495-1.768,3.469
			c0.047-0.055,0.1-0.105,0.146-0.163l1.103,1.291c0.25,0.291,0.219,0.734-0.074,0.984l-1.063,0.906
			c-0.291,0.25-0.732,0.216-0.983-0.077l-1.103-1.29c0.075-0.045,0.144-0.096,0.217-0.142c-1.118,0.711-2.419,1.15-3.804,1.233
			c0.096-0.006,0.194-0.006,0.29-0.015l-0.133,1.689c-0.031,0.382-0.367,0.67-0.75,0.64l-1.393-0.107
			c-0.383-0.029-0.672-0.368-0.641-0.75l0.131-1.689c0.092,0.023,0.188,0.038,0.281,0.06c-1.347-0.296-2.555-0.926-3.546-1.794
			c0.059,0.051,0.113,0.108,0.175,0.159l-1.289,1.104c-0.291,0.247-0.736,0.214-0.985-0.078l-0.907-1.061
			c-0.25-0.291-0.212-0.735,0.076-0.984l1.291-1.104c0.038,0.067,0.085,0.128,0.124,0.192c-0.694-1.104-1.125-2.381-1.214-3.741
			c0.006,0.085,0.007,0.17,0.015,0.253l-1.691-0.131c-0.382-0.031-0.671-0.37-0.64-0.75l0.107-1.392
			c0.029-0.384,0.367-0.671,0.751-0.642l1.689,0.132c-0.023,0.091-0.04,0.188-0.061,0.281c0.301-1.359,0.938-2.578,1.819-3.574
			c-0.062,0.068-0.124,0.132-0.183,0.203l-1.104-1.29c-0.248-0.292-0.216-0.735,0.077-0.984l1.063-0.908
			c0.29-0.249,0.734-0.214,0.983,0.078l1.102,1.291c-0.077,0.045-0.148,0.098-0.225,0.146c1.125-0.717,2.431-1.158,3.822-1.24
			c-0.101,0.006-0.201,0.006-0.3,0.017l0.133-1.69c0.03-0.383,0.366-0.67,0.749-0.641l1.393,0.109
			c0.384,0.029,0.672,0.367,0.642,0.75l-0.132,1.689c-0.094-0.023-0.19-0.041-0.286-0.061c1.376,0.301,2.606,0.951,3.611,1.847
			c-0.079-0.07-0.152-0.144-0.233-0.211l1.288-1.104c0.294-0.25,0.734-0.214,0.985,0.077l0.905,1.061
			c0.25,0.293,0.215,0.735-0.077,0.986l-1.29,1.103c-0.036-0.063-0.08-0.12-0.117-0.181c0.687,1.092,1.113,2.354,1.207,3.696
			c-0.005-0.073-0.007-0.146-0.013-0.218l1.688,0.131c0.383,0.029,0.673,0.368,0.645,0.75L46.328,32.516z"/>
		<path fill="#FFFFFF" d="M36.47,26.494c-2.494-0.194-4.682,1.676-4.877,4.169c-0.195,2.495,1.676,4.683,4.17,4.877
			c2.494,0.195,4.682-1.676,4.878-4.169C40.835,28.877,38.965,26.687,36.47,26.494z"/>
	</g>
</g>
<g id="Layer_4" display="none">
	<g display="inline">
		<polygon fill-rule="evenodd" clip-rule="evenodd" fill="#F5F5F5" points="13.209,35.89 11.981,35.053 12.818,36.359 
			40.714,36.359 41.55,35.053 40.296,35.938 		"/>
		<rect x="23.789" y="32.808" fill-rule="evenodd" clip-rule="evenodd" fill="#F5F5F5" width="5.955" height="1.514"/>
		<path fill-rule="evenodd" clip-rule="evenodd" fill="#F5F5F5" d="M50.854,13L29.443,0.638c-1.474-0.851-3.88-0.851-5.353,0
			L2.677,13C1.205,13.851,0,15.938,0,17.637v24.726C0,44.063,1.205,46.149,2.677,47L24.09,59.363c1.473,0.849,3.879,0.849,5.353,0
			L50.854,47c1.474-0.851,2.678-2.938,2.678-4.637V17.637C53.532,15.938,52.328,13.851,50.854,13z M21.646,17.45h10.238v3.5H30.84
			v-1.828h-8.149v1.828h-1.045V17.45z M42.777,40.045c0,1.378-1.127,2.507-2.508,2.507H13.262c-1.38,0-2.508-1.129-2.508-2.507
			V23.822c0-1.378,1.127-2.508,2.508-2.508h27.007c1.381,0,2.508,1.129,2.508,2.508V40.045z"/>
	</g>
</g>
<g id="Layer_3" display="none">
	<g display="inline">
		<polygon fill="#F5F5F5" points="30.455,22.967 30.455,22.156 30.162,22.156 30.254,23.979 30.455,23.979 		"/>
		<path fill="#F5F5F5" d="M22.564,24.234v-1.012h-5.326c-0.425,0-0.773,0.342-0.773,0.759v10.571c0,0.418,0.348,0.759,0.773,0.759
			h19.055c0.426,0,0.774-0.341,0.774-0.759V23.981c0-0.418-0.349-0.759-0.774-0.759h-5.324v1.012c0,0.141-0.116,0.256-0.257,0.256
			H22.82C22.68,24.49,22.564,24.375,22.564,24.234z M26.877,27.466h5.801v1.145h-5.801V27.466z M26.877,29.838h7.841v1.143
			l-7.841,0.001V29.838z M26.877,32.207h7.841v1.144h-7.841V32.207z M17.793,34.502c0.287-1.918,1.087-3.53,3.312-3.53
			c2.223,0,3.024,1.612,3.313,3.53H17.793z M23.573,27.994c0,1.438-1.104,2.603-2.468,2.603c-1.363,0-2.468-1.165-2.468-2.603
			c0-1.437,1.105-2.602,2.468-2.602C22.469,25.392,23.573,26.557,23.573,27.994z"/>
		<polygon fill="#F5F5F5" points="23.076,22.156 23.076,22.967 23.076,23.98 23.277,23.98 23.371,22.156 		"/>
		<path fill="#F5F5F5" d="M28.86,16.726c0-0.708-0.422-1.285-0.922-1.285h-2.345c-0.498,0-0.92,0.577-0.92,1.26l-0.375,7.28
			l4.937-0.001L28.86,16.726z M26.766,19.369c-0.85,0-1.543-0.685-1.543-1.524c0-0.84,0.694-1.523,1.543-1.523
			s1.542,0.683,1.542,1.523C28.308,18.685,27.616,19.369,26.766,19.369z"/>
		<ellipse fill="#F5F5F5" cx="26.766" cy="17.844" rx="1.031" ry="1.013"/>
		<path fill="#F5F5F5" d="M50.854,13L29.443,0.637c-1.472-0.85-3.88-0.85-5.352,0L2.678,13C1.205,13.851,0,15.938,0,17.637v24.726
			c0,1.699,1.205,3.786,2.678,4.636l21.413,12.362c1.472,0.851,3.88,0.851,5.352,0l21.411-12.362
			c1.474-0.85,2.678-2.937,2.678-4.636V17.637C53.532,15.938,52.328,13.851,50.854,13z M41.165,29.862v7.47v1.27
			c0,1.119-0.919,2.029-2.052,2.029H14.418c-1.132,0-2.051-0.91-2.051-2.029v-1.27v-7.47v-8.66c0-1.12,0.919-2.029,2.051-2.029
			h9.107l0.128-2.499c0-1.229,0.87-2.25,1.939-2.25h2.345c1.071,0,1.941,1.021,1.941,2.276l0.128,2.471h9.105
			c1.133,0,2.052,0.911,2.052,2.031V29.862z"/>
		<path fill="#F5F5F5" d="M14.418,39.362c-0.305,0-0.591-0.069-0.851-0.187c0.188,0.264,0.499,0.439,0.851,0.439l24.694-0.001
			c0.353,0,0.664-0.175,0.85-0.441c-0.258,0.12-0.546,0.189-0.85,0.189H14.418z"/>
		<path fill="#F5F5F5" d="M39.113,20.188H30.06l0.074,1.458h0.577c0.141,0,0.257,0.114,0.257,0.254v0.813h5.324
			c0.708,0,1.284,0.568,1.284,1.268v10.571c0,0.699-0.576,1.269-1.284,1.269H17.238c-0.707,0-1.283-0.568-1.283-1.269V23.981
			c0-0.7,0.577-1.268,1.283-1.268h5.326V21.9c0-0.141,0.116-0.256,0.256-0.256h0.578l0.075-1.457h-9.055
			c-0.569,0-1.034,0.455-1.034,1.014v16.131c0,0.56,0.464,1.013,1.034,1.013h24.694c0.57,0,1.033-0.454,1.033-1.014v-16.13
			C40.146,20.642,39.683,20.188,39.113,20.188z"/>
	</g>
</g>
<g id="Layer_2" display="none">
	<path display="inline" fill="#FFFFFF" d="M50.854,13.001L29.443,0.638c-1.472-0.851-3.88-0.851-5.352,0L2.677,13.001
		C1.205,13.851,0,15.938,0,17.637v24.726C0,44.063,1.205,46.149,2.677,47l21.414,12.363c1.472,0.849,3.88,0.849,5.352,0L50.854,47
		c1.474-0.851,2.678-2.938,2.678-4.637V17.637C53.532,15.938,52.328,13.851,50.854,13.001z M35.496,43.43l-8.729-4.588L18.04,43.43
		l1.666-9.718l-7.06-6.883l9.757-1.417l4.364-8.843l4.365,8.843l9.757,1.417l-7.061,6.883L35.496,43.43z"/>
</g>
</svg>
