<?xml version="1.0" encoding="utf-8"?>
<!-- Generator: Adobe Illustrator 15.0.0, SVG Export Plug-In . SVG Version: 6.00 Build 0)  -->
<!DOCTYPE svg PUBLIC "-//W3C//DTD SVG 1.1//EN" "http://www.w3.org/Graphics/SVG/1.1/DTD/svg11.dtd">
<svg version="1.1" xmlns="http://www.w3.org/2000/svg" xmlns:xlink="http://www.w3.org/1999/xlink" x="0px" y="0px"
	 width="44.611px" height="50.002px" viewBox="0 0 44.611 50.002" enable-background="new 0 0 44.611 50.002" xml:space="preserve">
<g id="Layer_6" display="none">
	<path display="inline" fill="#F5F5F5" d="M42.38,10.835L24.536,0.532c-1.228-0.708-3.235-0.708-4.461,0L2.229,10.835
		C1.004,11.543,0,13.282,0,14.698v20.605c0,1.417,1.004,3.155,2.229,3.863L20.075,49.47c1.226,0.709,3.233,0.709,4.461,0
		L42.38,39.167c1.228-0.708,2.231-2.446,2.231-3.863V14.698C44.611,13.282,43.607,11.543,42.38,10.835z M22.305,11.847
		c3.598,0,6.512,3.322,6.512,7.42c0,4.096-2.914,7.417-6.512,7.417c-3.596,0-6.512-3.321-6.512-7.418S18.709,11.847,22.305,11.847z
		 M23.039,42.849c-0.093,0.055-0.352,0.145-0.734,0.145c-0.381,0-0.641-0.09-0.732-0.145l-8.709-5.027
		c0.82-5.47,3.104-10.068,9.441-10.068s8.623,4.599,9.443,10.068L23.039,42.849z"/>
</g>
<g id="Layer_5" display="none">
	<g display="inline">
		<path fill="#FFFFFF" d="M19.592,19.202c1.302-0.884,1.639-2.666,0.752-3.975c-0.889-1.308-2.67-1.653-3.973-0.771
			c-1.302,0.884-1.641,2.667-0.752,3.975C16.507,19.739,18.289,20.086,19.592,19.202z"/>
		<path fill="#FFFFFF" d="M14.281,27.552c-1.742,0.616-2.658,2.535-2.042,4.278c0.617,1.742,2.537,2.658,4.279,2.041
			c1.743-0.616,2.659-2.536,2.043-4.278C17.943,27.85,16.024,26.933,14.281,27.552z"/>
		<path fill="#FFFFFF" d="M42.38,10.834L24.536,0.532c-1.227-0.709-3.234-0.709-4.46,0L2.23,10.834C1.004,11.543,0,13.282,0,14.698
			v20.605c0,1.416,1.004,3.155,2.23,3.864L20.076,49.47c1.226,0.709,3.233,0.709,4.46,0L42.38,39.168
			c1.228-0.709,2.231-2.448,2.231-3.864V14.698C44.611,13.282,43.607,11.543,42.38,10.834z M11.689,15.162
			c0.047-0.237,0.276-0.395,0.516-0.349l1.05,0.204c-0.021,0.057-0.037,0.113-0.056,0.171c0.256-0.76,0.69-1.459,1.295-2.033
			c-0.014,0.013-0.031,0.022-0.044,0.036l-0.602-0.887c-0.136-0.201-0.084-0.476,0.116-0.611L14.69,11.2
			c0.201-0.135,0.476-0.082,0.612,0.119l0.602,0.886c-0.059,0.025-0.115,0.058-0.172,0.086c0.788-0.39,1.642-0.555,2.482-0.511
			c-0.059-0.004-0.116-0.01-0.173-0.011l0.199-1.052c0.045-0.237,0.276-0.395,0.514-0.348l0.864,0.166
			c0.237,0.048,0.396,0.278,0.35,0.517l-0.198,1.051c-0.065-0.024-0.134-0.044-0.2-0.066c0.814,0.273,1.563,0.753,2.164,1.423
			c-0.045-0.049-0.088-0.103-0.135-0.15l0.883-0.599c0.199-0.135,0.475-0.082,0.61,0.119l0.495,0.729
			c0.137,0.202,0.084,0.478-0.116,0.612l-0.882,0.598c-0.024-0.053-0.053-0.104-0.08-0.158c0.381,0.773,0.549,1.606,0.518,2.429
			c0.001-0.042,0.007-0.083,0.007-0.126l1.052,0.204c0.237,0.047,0.395,0.278,0.35,0.516l-0.164,0.865
			c-0.045,0.236-0.275,0.395-0.514,0.349l-1.051-0.205c0.019-0.047,0.031-0.097,0.049-0.145c-0.271,0.789-0.737,1.516-1.387,2.1
			c0.048-0.044,0.098-0.085,0.144-0.129l0.601,0.888c0.137,0.2,0.085,0.475-0.115,0.61l-0.727,0.493
			c-0.199,0.135-0.476,0.082-0.611-0.119l-0.6-0.886c0.064-0.029,0.127-0.063,0.191-0.096c-0.787,0.394-1.641,0.562-2.481,0.522
			c0.05,0.002,0.1,0.008,0.149,0.009l-0.197,1.053c-0.046,0.237-0.278,0.394-0.515,0.348l-0.864-0.167
			c-0.237-0.047-0.396-0.278-0.353-0.517l0.2-1.051c0.047,0.018,0.096,0.03,0.144,0.047c-0.78-0.271-1.499-0.734-2.079-1.374
			c0.036,0.04,0.07,0.083,0.107,0.121l-0.884,0.599c-0.198,0.135-0.474,0.082-0.608-0.119l-0.496-0.729
			c-0.137-0.201-0.084-0.477,0.116-0.612l0.88-0.599c0.031,0.068,0.068,0.135,0.102,0.201c-0.403-0.801-0.575-1.669-0.534-2.522
			c-0.003,0.06-0.01,0.119-0.011,0.178l-1.051-0.204c-0.236-0.045-0.395-0.278-0.35-0.516L11.689,15.162z M22.43,29.316
			l-1.182,0.418c-0.011-0.07-0.029-0.14-0.044-0.209c0.206,1.003,0.143,2.012-0.149,2.946c0.018-0.06,0.041-0.118,0.058-0.179
			l1.132,0.54c0.258,0.122,0.367,0.432,0.244,0.688l-0.445,0.931c-0.121,0.256-0.431,0.365-0.686,0.243l-1.133-0.541
			c0.037-0.051,0.068-0.105,0.104-0.158c-0.543,0.816-1.288,1.501-2.197,1.974c0.063-0.033,0.129-0.063,0.191-0.098l0.417,1.18
			c0.095,0.267-0.046,0.564-0.313,0.658l-0.973,0.345c-0.268,0.094-0.563-0.047-0.659-0.314l-0.418-1.18
			c0.075-0.013,0.149-0.032,0.224-0.048c-1.01,0.209-2.026,0.146-2.965-0.149c0.061,0.02,0.121,0.042,0.183,0.061l-0.539,1.132
			c-0.122,0.256-0.432,0.365-0.688,0.243l-0.932-0.443c-0.255-0.123-0.364-0.433-0.242-0.688l0.54-1.132
			c0.048,0.033,0.098,0.063,0.146,0.095c-0.791-0.529-1.458-1.248-1.927-2.124c0.022,0.041,0.041,0.085,0.065,0.125l-1.181,0.419
			c-0.27,0.094-0.565-0.048-0.66-0.314l-0.344-0.973C7.962,32.496,8.104,32.2,8.37,32.105l1.182-0.418
			c0.009,0.055,0.023,0.11,0.035,0.166c-0.192-0.976-0.132-1.957,0.147-2.867c-0.015,0.048-0.033,0.095-0.046,0.143l-1.132-0.541
			c-0.258-0.122-0.367-0.431-0.244-0.687l0.444-0.931c0.122-0.257,0.431-0.366,0.688-0.244l1.132,0.541
			c-0.041,0.056-0.076,0.116-0.114,0.175c0.547-0.828,1.301-1.522,2.224-1.997c-0.069,0.035-0.14,0.067-0.207,0.105l-0.418-1.182
			c-0.096-0.267,0.047-0.563,0.314-0.657l0.972-0.344c0.269-0.096,0.564,0.046,0.659,0.313l0.417,1.181
			c-0.072,0.012-0.144,0.031-0.216,0.046c1.015-0.21,2.037-0.144,2.982,0.157c-0.069-0.022-0.137-0.048-0.205-0.067l0.538-1.132
			c0.121-0.256,0.432-0.366,0.688-0.244l0.931,0.444c0.257,0.122,0.365,0.432,0.242,0.688l-0.538,1.132
			c-0.045-0.031-0.093-0.059-0.139-0.09c0.809,0.543,1.488,1.286,1.956,2.19c-0.034-0.064-0.064-0.133-0.102-0.198l1.18-0.418
			c0.269-0.094,0.564,0.047,0.658,0.314l0.346,0.973C22.839,28.925,22.696,29.222,22.43,29.316z M38.607,27.098
			c-0.025,0.318-0.307,0.56-0.625,0.533l-1.408-0.108c0.015-0.061,0.024-0.121,0.038-0.181c-0.251,1.095-0.767,2.079-1.474,2.891
			c0.039-0.046,0.083-0.088,0.121-0.136l0.919,1.075c0.209,0.243,0.183,0.612-0.062,0.82l-0.886,0.756
			c-0.242,0.208-0.61,0.18-0.819-0.064l-0.919-1.075c0.063-0.037,0.12-0.08,0.181-0.118c-0.932,0.593-2.016,0.959-3.17,1.028
			c0.08-0.005,0.162-0.005,0.242-0.013l-0.111,1.408c-0.025,0.318-0.306,0.559-0.625,0.533l-1.16-0.09
			c-0.319-0.024-0.56-0.307-0.534-0.625l0.109-1.408c0.076,0.02,0.156,0.032,0.234,0.05c-1.122-0.246-2.129-0.771-2.955-1.495
			c0.049,0.043,0.095,0.091,0.146,0.133l-1.074,0.92c-0.242,0.206-0.613,0.178-0.821-0.065l-0.756-0.884
			c-0.208-0.242-0.177-0.612,0.063-0.82l1.076-0.92c0.031,0.056,0.07,0.106,0.104,0.16c-0.579-0.92-0.938-1.984-1.012-3.118
			c0.005,0.071,0.006,0.142,0.012,0.211l-1.409-0.109c-0.318-0.025-0.56-0.308-0.533-0.625l0.09-1.16
			c0.024-0.32,0.306-0.56,0.626-0.535l1.407,0.11c-0.02,0.076-0.033,0.156-0.05,0.234c0.25-1.133,0.781-2.148,1.516-2.979
			c-0.051,0.057-0.104,0.11-0.152,0.169l-0.92-1.075c-0.207-0.243-0.18-0.612,0.064-0.82l0.885-0.757
			c0.242-0.207,0.612-0.179,0.82,0.064l0.918,1.076c-0.064,0.037-0.124,0.081-0.188,0.122c0.938-0.598,2.025-0.965,3.186-1.033
			c-0.084,0.005-0.168,0.005-0.25,0.014l0.11-1.408c0.025-0.319,0.306-0.559,0.624-0.534l1.161,0.091
			c0.319,0.024,0.56,0.306,0.534,0.625l-0.109,1.408c-0.078-0.02-0.159-0.034-0.238-0.051c1.146,0.251,2.172,0.792,3.009,1.539
			c-0.065-0.059-0.127-0.12-0.194-0.176l1.073-0.92c0.245-0.208,0.612-0.179,0.821,0.064l0.755,0.884
			c0.208,0.244,0.179,0.612-0.064,0.821l-1.075,0.919c-0.03-0.053-0.066-0.1-0.098-0.15c0.572,0.91,0.928,1.962,1.006,3.08
			c-0.004-0.061-0.006-0.121-0.011-0.182l1.407,0.109c0.319,0.024,0.561,0.307,0.537,0.625L38.607,27.098z"/>
		<path fill="#FFFFFF" d="M30.393,22.079c-2.078-0.162-3.901,1.396-4.064,3.475c-0.162,2.079,1.396,3.902,3.476,4.064
			c2.078,0.162,3.901-1.396,4.064-3.475C34.03,24.065,32.472,22.24,30.393,22.079z"/>
	</g>
</g>
<g id="Layer_4" display="none">
	<g display="inline">
		<polygon fill-rule="evenodd" clip-rule="evenodd" fill="#F5F5F5" points="11.008,29.909 9.984,29.212 10.682,30.301 33.93,30.301 
			34.626,29.212 33.581,29.95 		"/>
		<rect x="19.824" y="27.341" fill-rule="evenodd" clip-rule="evenodd" fill="#F5F5F5" width="4.963" height="1.262"/>
		<path fill-rule="evenodd" clip-rule="evenodd" fill="#F5F5F5" d="M42.38,10.834L24.536,0.532c-1.228-0.709-3.233-0.709-4.461,0
			L2.23,10.834C1.004,11.543,0,13.282,0,14.698v20.605c0,1.416,1.004,3.155,2.23,3.864l17.845,10.303
			c1.228,0.708,3.233,0.708,4.461,0L42.38,39.168c1.228-0.709,2.231-2.448,2.231-3.864V14.698
			C44.611,13.282,43.607,11.543,42.38,10.834z M18.039,14.542h8.532v2.917h-0.87v-1.523H18.91v1.523h-0.871V14.542z M35.648,33.372
			c0,1.148-0.939,2.089-2.09,2.089H11.052c-1.15,0-2.09-0.94-2.09-2.089v-13.52c0-1.148,0.939-2.09,2.09-2.09h22.507
			c1.15,0,2.09,0.941,2.09,2.09V33.372z"/>
	</g>
</g>
<g id="Layer_3">
	<g>
		<polygon fill="#F5F5F5" points="25.38,19.14 25.38,18.464 25.136,18.464 25.213,19.983 25.38,19.983 		"/>
		<path fill="#F5F5F5" d="M18.804,20.196v-0.844h-4.438c-0.354,0-0.645,0.285-0.645,0.633v8.81c0,0.349,0.29,0.633,0.645,0.633
			h15.879c0.355,0,0.646-0.284,0.646-0.633v-8.81c0-0.349-0.29-0.633-0.646-0.633h-4.437v0.844c0,0.117-0.097,0.213-0.214,0.213
			h-6.576C18.9,20.409,18.804,20.313,18.804,20.196z M22.398,22.89h4.834v0.954h-4.834V22.89z M22.398,24.866h6.534v0.952
			l-6.534,0.001V24.866z M22.398,26.84h6.534v0.953h-6.534V26.84z M14.828,28.753c0.239-1.599,0.906-2.942,2.76-2.942
			c1.853,0,2.521,1.344,2.761,2.942H14.828z M19.645,23.329c0,1.198-0.92,2.169-2.057,2.169c-1.136,0-2.057-0.971-2.057-2.169
			c0-1.197,0.921-2.168,2.057-2.168C18.725,21.161,19.645,22.132,19.645,23.329z"/>
		<polygon fill="#F5F5F5" points="19.23,18.464 19.23,19.14 19.23,19.984 19.398,19.984 19.477,18.464 		"/>
		<path fill="#F5F5F5" d="M24.051,13.938c0-0.59-0.352-1.07-0.769-1.07h-1.954c-0.415,0-0.767,0.48-0.767,1.05l-0.313,6.066
			l4.114-0.001L24.051,13.938z M22.306,16.142c-0.708,0-1.286-0.57-1.286-1.271s0.578-1.27,1.286-1.27s1.285,0.569,1.285,1.27
			S23.014,16.142,22.306,16.142z"/>
		<ellipse fill="#F5F5F5" cx="22.306" cy="14.871" rx="0.859" ry="0.845"/>
		<path fill="#F5F5F5" d="M42.38,10.834L24.536,0.531c-1.227-0.708-3.233-0.708-4.46,0L2.231,10.834C1.004,11.543,0,13.282,0,14.698
			v20.605c0,1.416,1.004,3.155,2.231,3.863L20.076,49.47c1.227,0.709,3.233,0.709,4.46,0L42.38,39.167
			c1.228-0.708,2.231-2.447,2.231-3.863V14.698C44.611,13.282,43.607,11.543,42.38,10.834z M34.305,24.886v6.226v1.058
			c0,0.933-0.766,1.691-1.71,1.691H12.016c-0.943,0-1.709-0.759-1.709-1.691v-1.058v-6.226v-7.217c0-0.934,0.766-1.691,1.709-1.691
			h7.59l0.106-2.082c0-1.024,0.725-1.875,1.616-1.875h1.954c0.893,0,1.618,0.851,1.618,1.896l0.106,2.06h7.588
			c0.944,0,1.71,0.759,1.71,1.692V24.886z"/>
		<path fill="#F5F5F5" d="M12.016,32.803c-0.254,0-0.492-0.058-0.709-0.155c0.156,0.22,0.416,0.366,0.709,0.366l20.579-0.001
			c0.294,0,0.554-0.146,0.708-0.367c-0.215,0.1-0.455,0.157-0.708,0.157H12.016z"/>
		<path fill="#F5F5F5" d="M32.595,16.824h-7.544l0.062,1.215h0.481c0.117,0,0.214,0.095,0.214,0.212v0.678h4.437
			c0.591,0,1.07,0.474,1.07,1.057v8.81c0,0.583-0.479,1.058-1.07,1.058H14.365c-0.589,0-1.069-0.474-1.069-1.058v-8.81
			c0-0.583,0.48-1.057,1.069-1.057h4.438v-0.678c0-0.117,0.097-0.213,0.214-0.213h0.481l0.063-1.214h-7.546
			c-0.475,0-0.861,0.379-0.861,0.845v13.443c0,0.466,0.387,0.844,0.861,0.844h20.579c0.476,0,0.861-0.379,0.861-0.845V17.669
			C33.456,17.202,33.07,16.824,32.595,16.824z"/>
	</g>
</g>
<g id="Layer_2" display="none">
	<path display="inline" fill="#FFFFFF" d="M42.38,10.835L24.536,0.532c-1.227-0.709-3.233-0.709-4.46,0L2.23,10.835
		C1.004,11.543,0,13.282,0,14.698v20.605c0,1.416,1.004,3.155,2.23,3.864l17.846,10.303c1.227,0.708,3.233,0.708,4.46,0
		L42.38,39.168c1.228-0.709,2.231-2.448,2.231-3.864V14.698C44.611,13.282,43.607,11.543,42.38,10.835z M29.58,36.192l-7.274-3.823
		l-7.272,3.823l1.389-8.098l-5.884-5.736l8.131-1.181l3.637-7.369l3.638,7.369l8.131,1.181l-5.884,5.736L29.58,36.192z"/>
</g>
</svg>
