<?xml version="1.0" encoding="utf-8"?>
<!-- Generator: Adobe Illustrator 15.0.0, SVG Export Plug-In . SVG Version: 6.00 Build 0)  -->
<!DOCTYPE svg PUBLIC "-//W3C//DTD SVG 1.1//EN" "http://www.w3.org/Graphics/SVG/1.1/DTD/svg11.dtd">
<svg version="1.1" id="Layer_1" xmlns="http://www.w3.org/2000/svg" xmlns:xlink="http://www.w3.org/1999/xlink" x="0px" y="0px"
	 width="140px" height="99.063px" viewBox="0 0 140 99.063" enable-background="new 0 0 140 99.063" xml:space="preserve">
<g>
	<g>
		<g>
			<path fill="#333333" d="M70,99.063c-1.813,0-3.529-0.414-4.83-1.165l-34.64-20c-2.708-1.564-4.83-5.238-4.83-8.366v-40
				c0-3.129,2.122-6.804,4.83-8.366l34.64-20C66.471,0.414,68.186,0,70,0c1.814,0,3.529,0.414,4.83,1.165l34.64,20
				c2.709,1.563,4.83,5.237,4.83,8.366v40c0,3.127-2.121,6.802-4.83,8.364l-34.64,20C73.529,98.648,71.813,99.063,70,99.063z M70,2
				c-1.446,0-2.842,0.327-3.83,0.896l-34.64,20c-2.076,1.2-3.83,4.238-3.83,6.636v40c0,2.396,1.754,5.435,3.83,6.634l34.64,20
				c1.976,1.141,5.687,1.141,7.66,0l34.64-20c2.076-1.198,3.83-4.236,3.83-6.634v-40c0-2.397-1.754-5.438-3.83-6.636l-34.64-20
				C72.842,2.327,71.446,2,70,2z"/>
		</g>
		<g>
			<path fill="#333333" d="M70,23.487c7.405,0,13.407,4.718,13.407,13.154c0,8.438-6.002,15.275-13.407,15.275
				c-7.405,0-13.407-6.839-13.407-15.276C56.593,28.204,62.595,23.487,70,23.487z"/>
			<path fill="#333333" d="M70,54.178c-18.25,0-16.738,18.925-18.331,29.543l16.907,9.761c0.18,0.104,0.684,0.281,1.424,0.281
				c0.74,0,1.244-0.177,1.426-0.281l16.905-9.761C86.738,73.104,88.25,54.178,70,54.178z"/>
		</g>
	</g>
	<g>
		<path fill="#333333" d="M80.075,96.719c1.976,1.141,4.479,0.587,6.455-0.554l34.64-20c2.076-1.198,3.83-4.236,3.83-6.634v-40
			c0-2.397-1.754-5.438-3.83-6.636l-34.64-20C85.542,2.327,84.147,2,82.7,2s-1.888-0.163-2.875,0.406L77.87,1.165
			C79.172,0.414,80.887,0,82.7,0s3.528,0.414,4.83,1.165l34.64,20c2.708,1.563,4.83,5.237,4.83,8.366v40
			c0,3.127-2.122,6.802-4.83,8.364l-34.64,20c-1.302,0.751-3.019,1.166-4.83,1.166c-1.813,0-3.528-0.414-4.83-1.165L80.075,96.719z"
			/>
	</g>
</g>
</svg>
