<?xml version="1.0" encoding="utf-8"?>
<!-- Generator: Adobe Illustrator 15.0.0, SVG Export Plug-In . SVG Version: 6.00 Build 0)  -->
<!DOCTYPE svg PUBLIC "-//W3C//DTD SVG 1.1//EN" "http://www.w3.org/Graphics/SVG/1.1/DTD/svg11.dtd">
<svg version="1.1" id="Layer_1" xmlns="http://www.w3.org/2000/svg" xmlns:xlink="http://www.w3.org/1999/xlink" x="0px" y="0px"
	 width="88.6px" height="99.063px" viewBox="0 0 88.6 99.063" enable-background="new 0 0 88.6 99.063" xml:space="preserve">
<g>
	<g>
		<path fill="#333333" d="M44.3,99.063c-1.813,0-3.529-0.414-4.83-1.165l-34.64-20C2.122,76.333,0,72.659,0,69.531v-40
			c0-3.128,2.122-6.803,4.83-8.366l34.64-20C40.771,0.414,42.486,0,44.3,0s3.529,0.414,4.83,1.165l34.64,20
			c2.708,1.563,4.83,5.238,4.83,8.366v40c0,3.127-2.122,6.802-4.83,8.365l-34.64,20C47.829,98.648,46.113,99.063,44.3,99.063z
			 M44.3,2c-1.446,0-2.842,0.327-3.83,0.896l-34.64,20C3.754,24.096,2,27.134,2,29.531v40c0,2.396,1.754,5.435,3.83,6.634l34.64,20
			c1.976,1.141,5.686,1.141,7.66,0l34.64-20c2.076-1.198,3.83-4.236,3.83-6.634v-40c0-2.397-1.754-5.437-3.83-6.635l-34.64-20
			C47.142,2.327,45.746,2,44.3,2z"/>
	</g>
	<g>
		<path fill="#333333" d="M44.3,23.487c7.405,0,13.407,4.717,13.407,13.154S51.705,51.916,44.3,51.916
			c-7.405,0-13.407-6.839-13.407-15.276C30.893,28.204,36.895,23.487,44.3,23.487z"/>
		<path fill="#333333" d="M45.726,93.482c-0.182,0.104-0.686,0.281-1.426,0.281s-1.244-0.177-1.424-0.281l-16.907-9.761
			C27.562,73.103,44.3,54.178,44.3,54.178s16.738,18.926,18.331,29.543L45.726,93.482z"/>
		<path fill="#333333" d="M25.969,83.721C27.562,73.103,26.05,54.178,44.3,54.178s16.738,18.926,18.331,29.543"/>
	</g>
</g>
</svg>
