<?xml version="1.0" encoding="utf-8"?>
<!-- Generator: Adobe Illustrator 15.0.0, SVG Export Plug-In . SVG Version: 6.00 Build 0)  -->
<!DOCTYPE svg PUBLIC "-//W3C//DTD SVG 1.1//EN" "http://www.w3.org/Graphics/SVG/1.1/DTD/svg11.dtd">
<svg version="1.1" id="Layer_1" xmlns="http://www.w3.org/2000/svg" xmlns:xlink="http://www.w3.org/1999/xlink" x="0px" y="0px"
	 width="140px" height="99.063px" viewBox="0 0 140 99.063" enable-background="new 0 0 140 99.063" xml:space="preserve">
<g>
	<path fill="#333333" d="M109.611,21.165l-34.64-20C73.671,0.414,71.957,0,70.142,0c-1.815,0-3.529,0.414-4.83,1.165l-34.64,20
		c-2.708,1.563-4.83,5.238-4.83,8.366v40c0,3.128,2.122,6.802,4.83,8.365l34.64,20c1.301,0.751,3.017,1.165,4.83,1.165
		c1.813,0,3.529-0.415,4.83-1.166l34.64-20c2.709-1.563,4.83-5.237,4.83-8.364v-40C114.441,26.404,112.32,22.729,109.611,21.165z
		 M70.142,23.487c7.405,0,13.407,4.718,13.407,13.154c0,8.438-6.002,15.275-13.407,15.275c-7.405,0-13.407-6.839-13.407-15.276
		C56.735,28.204,62.737,23.487,70.142,23.487z M71.568,93.482c-0.183,0.104-0.687,0.281-1.427,0.281
		c-0.74,0-1.244-0.177-1.424-0.281l-16.907-9.761c1.593-10.618,0.081-29.543,18.331-29.543S86.88,73.104,88.473,83.721
		L71.568,93.482z"/>
	<g>
		<path fill="#333333" d="M122.391,21.166l-34.529-20C86.56,0.415,84.9,0.001,83.088,0.001c-1.68,0-3.235,0.368-4.492,1.017
			l31.798,18.418c3.248,1.875,5.607,6.122,5.607,10.098v40c0,3.976-2.357,8.223-5.604,10.098l-31.71,18.427
			c1.255,0.642,2.808,1.005,4.476,1.005c1.813,0,3.52-0.414,4.82-1.165l34.414-20c2.707-1.563,4.604-5.237,4.604-8.364v-40
			C127,26.406,125.099,22.73,122.391,21.166z"/>
	</g>
</g>
</svg>
