<?xml version="1.0" encoding="utf-8"?>
<!-- Generator: Adobe Illustrator 15.0.0, SVG Export Plug-In . SVG Version: 6.00 Build 0)  -->
<!DOCTYPE svg PUBLIC "-//W3C//DTD SVG 1.1//EN" "http://www.w3.org/Graphics/SVG/1.1/DTD/svg11.dtd">
<svg version="1.1" id="Layer_1" xmlns="http://www.w3.org/2000/svg" xmlns:xlink="http://www.w3.org/1999/xlink" x="0px" y="0px"
	 width="140px" height="99.063px" viewBox="0 0 140 99.063" enable-background="new 0 0 140 99.063" xml:space="preserve">
<g>
	<g>
		<g>
			<g>
				<polygon fill="#333333" points="77.981,29.227 61.417,29.227 61.417,34.889 63.107,34.889 63.107,31.931 76.291,31.931 
					76.291,34.889 77.981,34.889 				"/>
			</g>
			<path fill="#333333" d="M91.545,35.48H47.854c-2.232,0-4.058,1.825-4.058,4.059v26.243c0,2.23,1.824,4.057,4.058,4.057h43.689
				c2.232,0,4.06-1.824,4.06-4.057V39.537C95.603,37.306,93.777,35.48,91.545,35.48z M64.882,54.073h9.636v2.448h-9.636V54.073z
				 M92.266,59.819H47.134l-1.354-2.111l1.986,1.352l43.819,0.082l2.028-1.434L92.266,59.819z"/>
		</g>
		<g>
			<path fill="#333333" d="M69.7,99.063c-1.813,0-3.529-0.414-4.83-1.165l-34.64-20c-2.708-1.564-4.83-5.238-4.83-8.366v-40
				c0-3.129,2.122-6.804,4.83-8.366l34.64-20C66.171,0.414,67.886,0,69.7,0c1.814,0,3.529,0.414,4.83,1.165l34.64,20
				c2.709,1.563,4.83,5.237,4.83,8.366v40c0,3.127-2.121,6.802-4.83,8.364l-34.64,20C73.229,98.648,71.514,99.063,69.7,99.063z
				 M69.7,2c-1.446,0-2.842,0.327-3.83,0.896l-34.64,20c-2.076,1.2-3.83,4.238-3.83,6.636v40c0,2.396,1.754,5.435,3.83,6.634
				l34.64,20c1.976,1.141,5.687,1.141,7.66,0l34.64-20c2.076-1.198,3.83-4.236,3.83-6.634v-40c0-2.397-1.754-5.438-3.83-6.636
				l-34.64-20C72.543,2.327,71.146,2,69.7,2z"/>
		</g>
	</g>
	<g>
		<path fill="#333333" d="M80.075,96.719c1.976,1.141,4.48,0.587,6.455-0.554l34.64-20c2.076-1.198,3.83-4.236,3.83-6.634v-40
			c0-2.397-1.754-5.438-3.83-6.636l-34.64-20C85.543,2.327,84.146,2,82.7,2s-1.887-0.163-2.875,0.406L77.87,1.165
			C79.172,0.414,80.887,0,82.7,0c1.814,0,3.529,0.414,4.83,1.165l34.64,20c2.709,1.563,4.83,5.237,4.83,8.366v40
			c0,3.127-2.121,6.802-4.83,8.364l-34.64,20c-1.301,0.751-3.019,1.166-4.83,1.166c-1.813,0-3.528-0.414-4.83-1.165L80.075,96.719z"
			/>
	</g>
</g>
</svg>
