<?xml version="1.0" encoding="utf-8"?>
<!-- Generator: Adobe Illustrator 15.0.0, SVG Export Plug-In . SVG Version: 6.00 Build 0)  -->
<!DOCTYPE svg PUBLIC "-//W3C//DTD SVG 1.1//EN" "http://www.w3.org/Graphics/SVG/1.1/DTD/svg11.dtd">
<svg version="1.1" id="Layer_1" xmlns="http://www.w3.org/2000/svg" xmlns:xlink="http://www.w3.org/1999/xlink" x="0px" y="0px"
	 width="88.6px" height="99.063px" viewBox="0 0 88.6 99.063" enable-background="new 0 0 88.6 99.063" xml:space="preserve">
<path fill="#333333" d="M83.549,21.165l-34.529-20C47.718,0.414,46.058,0,44.245,0s-3.501,0.414-4.802,1.165l-34.547,20
	c-2.708,1.564-4.737,5.239-4.737,8.366v40c0,3.127,2.042,6.802,4.751,8.366l34.6,20c1.301,0.751,2.997,1.165,4.81,1.165
	s3.519-0.414,4.82-1.165l34.414-20c2.708-1.564,4.604-5.239,4.604-8.366v-40C88.158,26.404,86.257,22.729,83.549,21.165z
	 M58.42,71.257l-14.121-7.422L30.18,71.257l2.697-15.72L21.455,44.403l15.784-2.293l7.06-14.304l7.062,14.304l15.784,2.293
	L55.723,55.537L58.42,71.257z"/>
</svg>
