<?xml version="1.0" encoding="utf-8"?>
<!-- Generator: Adobe Illustrator 15.0.0, SVG Export Plug-In . SVG Version: 6.00 Build 0)  -->
<!DOCTYPE svg PUBLIC "-//W3C//DTD SVG 1.1//EN" "http://www.w3.org/Graphics/SVG/1.1/DTD/svg11.dtd">
<svg version="1.1" id="Layer_1" xmlns="http://www.w3.org/2000/svg" xmlns:xlink="http://www.w3.org/1999/xlink" x="0px" y="0px"
	 width="88.6px" height="99.063px" viewBox="0 0 88.6 99.063" enable-background="new 0 0 88.6 99.063" xml:space="preserve">
<g>
	<path fill="#333333" d="M28.723,54.481c-3.383,1.197-5.16,4.924-3.963,8.307c1.197,3.382,4.924,5.161,8.307,3.963
		c3.383-1.198,5.16-4.925,3.965-8.308C35.832,55.062,32.107,53.283,28.723,54.481z"/>
	<path fill="#333333" d="M39.031,38.273c2.528-1.714,3.182-5.176,1.459-7.714c-1.724-2.539-5.182-3.21-7.71-1.495
		s-3.185,5.176-1.46,7.714C33.044,39.318,36.503,39.988,39.031,38.273z"/>
	<path fill="#333333" d="M59.999,43.858c-4.036-0.315-7.575,2.711-7.89,6.746c-0.314,4.036,2.711,7.575,6.746,7.89
		c4.034,0.315,7.574-2.71,7.89-6.746C67.061,47.714,64.035,44.173,59.999,43.858z"/>
	<path fill="#333333" d="M83.549,21.165l-34.528-20C47.719,0.414,46.059,0,44.246,0s-3.501,0.414-4.802,1.165l-34.548,20
		c-2.708,1.564-4.737,5.239-4.737,8.366v40c0,3.127,2.042,6.802,4.751,8.366l34.601,20c1.301,0.751,2.997,1.166,4.81,1.166
		s3.519-0.414,4.82-1.165l34.413-20c2.709-1.564,4.604-5.239,4.604-8.366v-40C88.158,26.404,86.258,22.729,83.549,21.165z
		 M23.691,30.432c0.092-0.462,0.538-0.767,1-0.678l2.039,0.397c-0.041,0.109-0.071,0.221-0.108,0.331
		c0.496-1.473,1.341-2.832,2.513-3.945c-0.026,0.024-0.059,0.043-0.084,0.068l-1.168-1.72c-0.264-0.39-0.163-0.923,0.226-1.188
		l1.41-0.956c0.39-0.264,0.921-0.161,1.187,0.23l1.168,1.719c-0.113,0.051-0.223,0.112-0.334,0.167
		c1.53-0.756,3.188-1.076,4.82-0.992c-0.112-0.006-0.223-0.019-0.335-0.021l0.387-2.042c0.088-0.461,0.535-0.766,0.997-0.676
		l1.678,0.324c0.461,0.09,0.769,0.541,0.68,1.001l-0.386,2.041c-0.127-0.048-0.259-0.085-0.388-0.129
		c1.581,0.53,3.036,1.461,4.202,2.764c-0.087-0.098-0.171-0.2-0.262-0.294l1.712-1.162c0.387-0.263,0.922-0.16,1.186,0.23
		l0.961,1.417c0.265,0.39,0.163,0.924-0.226,1.187l-1.712,1.161c-0.047-0.104-0.104-0.205-0.154-0.307
		c0.738,1.499,1.063,3.117,1.002,4.712c0.003-0.082,0.013-0.162,0.014-0.244l2.04,0.396c0.462,0.091,0.77,0.541,0.68,1.002
		l-0.316,1.678c-0.088,0.46-0.534,0.766-0.997,0.676l-2.04-0.396c0.035-0.093,0.061-0.189,0.093-0.283
		c-0.526,1.534-1.432,2.942-2.69,4.076c0.092-0.083,0.189-0.163,0.278-0.249l1.165,1.721c0.266,0.39,0.165,0.924-0.224,1.188
		l-1.409,0.956c-0.389,0.264-0.924,0.16-1.188-0.23l-1.164-1.72c0.124-0.056,0.246-0.123,0.368-0.185
		c-1.526,0.763-3.182,1.089-4.814,1.012c0.097,0.005,0.193,0.016,0.291,0.018l-0.384,2.042c-0.089,0.461-0.539,0.766-0.998,0.676
		l-1.678-0.324c-0.461-0.09-0.77-0.541-0.684-1.002l0.389-2.042c0.091,0.035,0.185,0.06,0.277,0.092
		c-1.514-0.528-2.907-1.425-4.035-2.667c0.071,0.077,0.137,0.16,0.209,0.234l-1.715,1.161c-0.387,0.264-0.92,0.161-1.184-0.229
		l-0.963-1.417c-0.266-0.39-0.163-0.924,0.227-1.187l1.709-1.162c0.06,0.131,0.13,0.258,0.195,0.388
		c-0.782-1.554-1.116-3.239-1.036-4.895c-0.005,0.115-0.018,0.23-0.02,0.345l-2.042-0.395c-0.459-0.09-0.766-0.541-0.678-1.002
		L23.691,30.432z M44.541,57.909l-2.293,0.811c-0.022-0.135-0.058-0.271-0.085-0.405c0.399,1.947,0.275,3.908-0.293,5.723
		c0.037-0.117,0.081-0.231,0.114-0.35l2.197,1.049c0.498,0.237,0.71,0.838,0.473,1.335l-0.863,1.806
		c-0.235,0.497-0.837,0.71-1.332,0.473l-2.198-1.049c0.073-0.103,0.136-0.212,0.205-0.317c-1.054,1.589-2.505,2.924-4.276,3.842
		c0.125-0.065,0.254-0.124,0.377-0.193l0.811,2.292c0.184,0.518-0.09,1.094-0.607,1.277l-1.889,0.668
		c-0.52,0.184-1.095-0.09-1.28-0.61l-0.811-2.29c0.145-0.024,0.289-0.062,0.433-0.092c-1.949,0.404-3.912,0.284-5.729-0.282
		c0.11,0.035,0.217,0.076,0.328,0.107l-1.048,2.198c-0.235,0.497-0.837,0.71-1.334,0.473l-1.81-0.861
		c-0.496-0.237-0.708-0.838-0.471-1.335l1.049-2.198c0.092,0.065,0.19,0.121,0.284,0.184c-1.533-1.024-2.826-2.418-3.734-4.113
		c0.042,0.077,0.077,0.158,0.12,0.234l-2.291,0.812c-0.523,0.184-1.098-0.09-1.281-0.609L16.64,64.6
		c-0.185-0.519,0.091-1.093,0.607-1.276l2.294-0.812c0.018,0.107,0.046,0.214,0.067,0.321c-0.372-1.894-0.253-3.797,0.288-5.565
		c-0.028,0.093-0.064,0.183-0.09,0.277l-2.198-1.048c-0.499-0.237-0.712-0.838-0.474-1.335l0.862-1.807
		c0.237-0.498,0.838-0.711,1.336-0.474l2.196,1.05c-0.079,0.11-0.146,0.227-0.22,0.34c1.061-1.606,2.525-2.956,4.316-3.877
		c-0.134,0.069-0.271,0.132-0.402,0.206l-0.811-2.292c-0.186-0.519,0.09-1.094,0.609-1.277l1.887-0.667
		c0.521-0.185,1.096,0.089,1.279,0.609l0.811,2.292c-0.142,0.023-0.283,0.061-0.424,0.089c1.972-0.408,3.958-0.279,5.793,0.305
		c-0.133-0.042-0.263-0.092-0.398-0.13l1.047-2.198c0.233-0.497,0.838-0.71,1.334-0.472l1.807,0.862
		c0.498,0.237,0.709,0.838,0.471,1.335l-1.046,2.198c-0.087-0.062-0.18-0.115-0.27-0.174c1.571,1.054,2.891,2.496,3.798,4.253
		c-0.066-0.127-0.126-0.26-0.197-0.385l2.29-0.812c0.52-0.183,1.095,0.091,1.277,0.61l0.67,1.887
		C45.334,57.15,45.059,57.725,44.541,57.909z M75.945,53.6c-0.049,0.619-0.595,1.086-1.215,1.038l-2.732-0.214
		c0.029-0.114,0.048-0.233,0.074-0.349c-0.487,2.126-1.488,4.037-2.861,5.611c0.077-0.088,0.161-0.171,0.236-0.262l1.784,2.086
		c0.405,0.472,0.353,1.188-0.121,1.592l-1.718,1.467c-0.47,0.403-1.186,0.348-1.59-0.125l-1.785-2.088
		c0.121-0.072,0.234-0.155,0.353-0.23c-1.808,1.149-3.904,1.858-6.139,1.996c0.15-0.01,0.303-0.01,0.452-0.025l-0.215,2.734
		c-0.049,0.62-0.594,1.085-1.213,1.037l-2.252-0.175c-0.621-0.048-1.086-0.596-1.037-1.214l0.211-2.733
		c0.145,0.037,0.294,0.062,0.439,0.094c-2.172-0.48-4.121-1.497-5.721-2.898c0.096,0.084,0.185,0.175,0.283,0.256l-2.086,1.786
		c-0.471,0.403-1.189,0.347-1.594-0.125l-1.468-1.716c-0.402-0.471-0.345-1.188,0.124-1.592l2.088-1.785
		c0.063,0.106,0.137,0.206,0.203,0.311c-1.125-1.786-1.822-3.852-1.964-6.053c0.009,0.136,0.009,0.274,0.022,0.41l-2.735-0.214
		c-0.619-0.048-1.085-0.594-1.036-1.213l0.175-2.252c0.049-0.62,0.594-1.086,1.215-1.038l2.733,0.213
		c-0.039,0.149-0.064,0.304-0.098,0.456c0.483-2.199,1.516-4.17,2.942-5.783c-0.099,0.11-0.203,0.215-0.297,0.329l-1.785-2.087
		c-0.402-0.472-0.348-1.189,0.125-1.593l1.717-1.467c0.471-0.403,1.189-0.349,1.592,0.124l1.784,2.088
		c-0.126,0.075-0.244,0.161-0.367,0.239c1.819-1.16,3.933-1.874,6.186-2.007c-0.162,0.01-0.324,0.011-0.485,0.026l0.215-2.733
		c0.049-0.62,0.594-1.086,1.213-1.038l2.254,0.177c0.619,0.048,1.086,0.594,1.036,1.212l-0.214,2.734
		c-0.152-0.04-0.311-0.065-0.465-0.1c2.227,0.488,4.22,1.538,5.845,2.989c-0.126-0.113-0.247-0.233-0.378-0.341l2.084-1.785
		c0.475-0.404,1.189-0.348,1.594,0.125l1.467,1.716c0.404,0.472,0.347,1.188-0.125,1.593l-2.088,1.784
		c-0.059-0.1-0.128-0.193-0.189-0.291c1.11,1.767,1.8,3.807,1.951,5.979c-0.008-0.117-0.009-0.237-0.02-0.354l2.733,0.213
		c0.618,0.048,1.087,0.594,1.04,1.213L75.945,53.6z"/>
</g>
</svg>
