<?xml version="1.0" encoding="utf-8"?>
<!-- Generator: Adobe Illustrator 15.0.0, SVG Export Plug-In . SVG Version: 6.00 Build 0)  -->
<!DOCTYPE svg PUBLIC "-//W3C//DTD SVG 1.1//EN" "http://www.w3.org/Graphics/SVG/1.1/DTD/svg11.dtd">
<svg version="1.1" id="Layer_1" xmlns="http://www.w3.org/2000/svg" xmlns:xlink="http://www.w3.org/1999/xlink" x="0px" y="0px"
	 width="140px" height="99.063px" viewBox="0 0 140 99.063" enable-background="new 0 0 140 99.063" xml:space="preserve">
<g>
	<g>
		<polygon fill="#333333" points="75.858,38.154 75.858,36.393 75.494,36.393 75.645,39.393 75.858,39.393 		"/>
		<path fill="#333333" d="M62.858,40.205v-1.813h-8.272c-0.688,0-1.728,0.729-1.728,1.403v17.102c0,0.679,1.037,1.495,1.728,1.495
			h30.825c0.688,0,1.447-0.816,1.447-1.496V39.795c0-0.677-0.759-1.402-1.447-1.402h-8.553v1.813c0,0.229-0.247,0.188-0.478,0.188
			H63.616C63.388,40.393,62.858,40.434,62.858,40.205z M69.858,45.393h10v2h-10V45.393z M69.858,49.393h13v2h-13V49.393z
			 M69.858,53.393h13v2h-13V53.393z M55.482,56.393c0.467-3,1.762-5.712,5.358-5.712c3.596,0,4.894,2.712,5.358,5.712H55.482z
			 M64.834,46.287c0,2.323-1.787,4.209-3.992,4.209s-3.992-1.886-3.992-4.209c0-2.324,1.787-4.209,3.992-4.209
			S64.834,43.962,64.834,46.287z"/>
		<path fill="#333333" d="M70,28.229c-0.919,0-1.668,0.735-1.668,1.641c0,0.902,0.747,1.64,1.668,1.64
			c0.918,0,1.666-0.735,1.666-1.64C71.666,28.964,70.918,28.229,70,28.229z"/>
		<path fill="#333333" d="M73.389,28.066c0-1.146-0.684-1.673-1.494-1.673h-3.792c-0.807,0-1.487,0.525-1.487,1.631l-0.607,11.369
			h7.985L73.389,28.066z M70,32.332c-1.375,0.001-2.496-1.105-2.496-2.465c0-1.358,1.121-2.466,2.496-2.466
			c1.374,0,2.494,1.105,2.494,2.466C72.494,31.227,71.374,32.332,70,32.332z"/>
		<polygon fill="#333333" points="63.858,36.393 63.858,38.154 63.858,39.393 64.356,39.393 64.508,36.393 		"/>
		<path fill="#333333" d="M109.249,21.165l-34.528-20C73.418,0.414,71.758,0,69.945,0c-1.813,0-3.501,0.414-4.803,1.165l-34.547,20
			c-2.708,1.563-4.736,5.237-4.736,8.366v40c0,3.127,2.042,6.802,4.751,8.364l34.6,20c1.301,0.751,2.997,1.165,4.81,1.165
			s3.52-0.414,4.82-1.165l34.415-20c2.707-1.563,4.604-5.237,4.604-8.364v-40C113.858,26.404,111.957,22.729,109.249,21.165z
			 M92.858,49.309v12.085v2.055c0,1.81-1.054,2.944-2.886,2.944H50.024c-1.831,0-3.166-1.136-3.166-2.947v-2.051V49.31V35.298
			c0-1.813,1.335-2.905,3.166-2.905h14.732l0.207-4.2c0-1.986,1.407-3.8,3.139-3.8h3.792c1.732,0,3.143,1.813,3.143,3.842
			l0.207,4.158h14.729c1.832,0,2.887,1.093,2.887,2.904L92.858,49.309L92.858,49.309z"/>
		<path fill="#333333" d="M50.024,64.393c-0.492,0-0.955,0.185-1.375-0.006c0.302,0.428,0.806,1.006,1.375,1.006h39.948
			c0.57,0,1.074-0.579,1.375-1.008c-0.42,0.191-0.885,0.008-1.375,0.008H50.024z"/>
		<path fill="#333333" d="M89.973,33.393H75.328l0.121,3h0.934c0.229,0,0.478-0.188,0.478,0.036v0.964h8.553
			c1.146,0,2.447,1.271,2.447,2.402v17.102c0,1.135-1.302,2.496-2.447,2.496H54.586c-1.145,0-2.728-1.36-2.728-2.496V39.795
			c0-1.132,1.583-2.402,2.728-2.402h8.272v-0.964c0-0.228,0.528-0.036,0.758-0.036h0.935l0.122-3H50.024
			c-0.922,0-2.166,1.002-2.166,1.905v26.098c0,0.903,1.244,1.997,2.166,1.997h39.948c0.922,0,1.886-1.095,1.886-1.998V35.297
			C91.858,34.394,90.895,33.393,89.973,33.393z"/>
	</g>
	<g>
		<path fill="#333333" d="M122.392,21.165l-34.529-20C86.561,0.414,84.899,0,83.088,0c-1.68,0-3.236,0.368-4.492,1.017
			l31.798,18.418C113.642,21.31,116,25.557,116,29.532v40c0,3.976-2.356,8.223-5.604,10.098L78.688,98.057
			c1.254,0.642,2.808,1.005,4.475,1.005c1.813,0,3.52-0.414,4.82-1.165l34.413-20c2.709-1.563,4.604-5.237,4.604-8.364v-40
			C127,26.404,125.099,22.729,122.392,21.165z"/>
	</g>
</g>
</svg>
