<?xml version="1.0" encoding="utf-8"?>
<!-- Generator: Adobe Illustrator 15.0.0, SVG Export Plug-In . SVG Version: 6.00 Build 0)  -->
<!DOCTYPE svg PUBLIC "-//W3C//DTD SVG 1.1//EN" "http://www.w3.org/Graphics/SVG/1.1/DTD/svg11.dtd">
<svg version="1.1" id="Layer_1" xmlns="http://www.w3.org/2000/svg" xmlns:xlink="http://www.w3.org/1999/xlink" x="0px" y="0px"
	 width="140px" height="99.063px" viewBox="0 0 140 99.063" enable-background="new 0 0 140 99.063" xml:space="preserve">
<g>
	<g>
		<g>
			<path fill="#333333" d="M69.7,99.063c-1.813,0-3.529-0.414-4.83-1.165l-34.64-20c-2.708-1.564-4.83-5.238-4.83-8.366v-40
				c0-3.129,2.122-6.804,4.83-8.366l34.64-20C66.171,0.414,67.886,0,69.7,0c1.814,0,3.529,0.414,4.83,1.165l34.64,20
				c2.709,1.563,4.83,5.237,4.83,8.366v40c0,3.127-2.121,6.802-4.83,8.364l-34.64,20C73.229,98.648,71.514,99.063,69.7,99.063z
				 M69.7,2c-1.446,0-2.842,0.327-3.83,0.896l-34.64,20c-2.076,1.2-3.83,4.238-3.83,6.636v40c0,2.396,1.754,5.435,3.83,6.634
				l34.64,20c1.976,1.141,5.687,1.141,7.66,0l34.64-20c2.076-1.198,3.83-4.236,3.83-6.634v-40c0-2.397-1.754-5.438-3.83-6.636
				l-34.64-20C72.543,2.327,71.146,2,69.7,2z"/>
		</g>
		<g>
			<g>
				<rect x="69.879" y="45.434" fill="#333333" width="9.386" height="1.854"/>
				<rect x="69.879" y="49.269" fill="#333333" width="12.687" height="1.853"/>
				<rect x="69.879" y="53.103" fill="#333333" width="12.687" height="1.852"/>
				<path fill="#333333" d="M89.674,32.014H74.944l-0.207-3.998c0-2.03-1.407-3.683-3.144-3.683h-3.792
					c-1.73,0-3.139,1.65-3.139,3.641l-0.207,4.04H49.725c-1.831,0-3.319,1.473-3.319,3.284V49.31v12.085v2.051
					c0,1.813,1.488,3.284,3.319,3.284l39.947-0.001c1.832,0,3.321-1.473,3.321-3.28v-2.055V49.309V35.297
					C92.995,33.485,91.506,32.014,89.674,32.014z M63.316,40.617h12.768c0.229,0,0.414-0.187,0.414-0.413v-1.64h8.613
					c0.689,0,1.252,0.554,1.252,1.229v17.102c0,0.68-0.563,1.229-1.252,1.229l-30.825,0.001c-0.688,0-1.252-0.553-1.252-1.229
					V39.796c0-0.677,0.563-1.229,1.252-1.229h8.617v1.641C62.903,40.434,63.088,40.617,63.316,40.617z M64.057,39.793H63.73v-1.641
					V36.84l0.479-0.001L64.057,39.793z M75.67,38.154v1.64h-0.324l-0.149-2.951h0.476L75.67,38.154L75.67,38.154z M67.803,25.979
					h3.792c0.812,0,1.492,0.935,1.492,2.08l0.604,11.733l-7.985,0.001l0.607-11.776C66.315,26.911,66.998,25.979,67.803,25.979z
					 M48.053,35.298c0-0.903,0.75-1.64,1.672-1.64h14.647l-0.122,2.355h-0.935c-0.229,0-0.414,0.188-0.414,0.413v1.313h-8.616
					c-1.145,0-2.076,0.921-2.076,2.053v17.102c0,1.134,0.933,2.056,2.076,2.056l30.825-0.001c1.146,0,2.077-0.922,2.077-2.055v-17.1
					c0-1.133-0.932-2.053-2.077-2.053h-8.612v-1.313c0-0.227-0.188-0.412-0.416-0.412h-0.934l-0.121-2.356h14.646
					c0.922,0,1.672,0.733,1.672,1.639v26.098c0,0.903-0.75,1.641-1.672,1.641l-39.948,0.001c-0.922,0-1.672-0.735-1.672-1.641
					V35.298L48.053,35.298z M89.674,65.085H49.725c-0.569,0-1.073-0.282-1.375-0.71c0.42,0.188,0.883,0.303,1.375,0.303
					l39.947-0.001c0.492,0,0.957-0.112,1.377-0.304C90.75,64.802,90.245,65.085,89.674,65.085z"/>
				<path fill="#333333" d="M69.7,32.332c1.374,0,2.494-1.105,2.494-2.465c0-1.358-1.12-2.466-2.494-2.466
					c-1.375,0-2.496,1.105-2.496,2.466C67.205,31.227,68.325,32.333,69.7,32.332z M69.7,28.229c0.918,0,1.666,0.735,1.666,1.641
					c0,0.902-0.748,1.64-1.666,1.64c-0.921,0-1.668-0.735-1.668-1.64C68.032,28.964,68.781,28.229,69.7,28.229z"/>
			</g>
			<ellipse fill="#333333" cx="60.542" cy="46.287" rx="3.992" ry="4.209"/>
			<path fill="#333333" d="M55.183,56.816c0.467-3.104,1.762-5.713,5.358-5.713c3.596,0,4.894,2.609,5.358,5.712L55.183,56.816z"/>
		</g>
	</g>
	<g>
		<path fill="#333333" d="M80.075,96.719c1.976,1.141,4.48,0.587,6.455-0.554l34.64-20c2.076-1.198,3.83-4.236,3.83-6.634v-40
			c0-2.397-1.754-5.438-3.83-6.636l-34.64-20C85.543,2.327,84.146,2,82.7,2s-1.887-0.163-2.875,0.406L77.87,1.165
			C79.172,0.414,80.887,0,82.7,0c1.814,0,3.529,0.414,4.83,1.165l34.64,20c2.709,1.563,4.83,5.237,4.83,8.366v40
			c0,3.127-2.121,6.802-4.83,8.364l-34.64,20c-1.301,0.751-3.019,1.166-4.83,1.166c-1.813,0-3.528-0.414-4.83-1.165L80.075,96.719z"
			/>
	</g>
</g>
</svg>
