<?xml version="1.0" encoding="utf-8"?>
<!-- Generator: Adobe Illustrator 15.0.0, SVG Export Plug-In . SVG Version: 6.00 Build 0)  -->
<!DOCTYPE svg PUBLIC "-//W3C//DTD SVG 1.1//EN" "http://www.w3.org/Graphics/SVG/1.1/DTD/svg11.dtd">
<svg version="1.1" id="Layer_1" xmlns="http://www.w3.org/2000/svg" xmlns:xlink="http://www.w3.org/1999/xlink" x="0px" y="0px"
	 width="65.195px" height="65px" viewBox="-2.598 -2.499 65.195 65" enable-background="new -2.598 -2.499 65.195 65"
	 xml:space="preserve">
<g>
	<g>
		<polygon fill="#F4F5F5" points="16.98,2.501 15.229,7.402 30.693,7.402 		"/>
		<polygon fill="#F4F5F5" points="43.018,57.501 44.77,52.601 29.306,52.601 		"/>
		<polygon fill="#F4F5F5" points="2.501,43.021 7.402,44.772 7.402,29.307 		"/>
		<polygon fill="#F4F5F5" points="57.499,16.981 52.6,15.231 52.6,30.688 		"/>
	</g>
	<path fill="#F4F5F5" d="M10.001,10.001v40h40v-40H10.001z M30.209,18.803c-1.381,0-2.5-1.12-2.5-2.5c0-1.38,1.119-2.5,2.5-2.5
		c1.38,0,2.501,1.12,2.501,2.5C32.711,17.683,31.59,18.803,30.209,18.803z"/>
</g>
</svg>
