<?xml version="1.0" encoding="utf-8"?>
<!-- Generator: Adobe Illustrator 15.0.2, SVG Export Plug-In . SVG Version: 6.00 Build 0)  -->
<!DOCTYPE svg PUBLIC "-//W3C//DTD SVG 1.1//EN" "http://www.w3.org/Graphics/SVG/1.1/DTD/svg11.dtd">
<svg version="1.1" id="Layer_1" xmlns="http://www.w3.org/2000/svg" xmlns:xlink="http://www.w3.org/1999/xlink" x="0px" y="0px"
	 width="149.107px" height="32.453px" viewBox="0 0 149.107 32.453" enable-background="new 0 0 149.107 32.453"
	 xml:space="preserve">
<g>
	<path fill="#F5F6F6" d="M10.359,31.642V7.91h6.627v2.523h0.086c1.396-2.224,3.551-3.335,6.457-3.335
		c2.48,0,4.504,0.683,6.072,2.052c1.822,1.567,2.736,4.119,2.736,7.653v14.838H25.24V18.687c0-1.369-0.158-2.396-0.471-3.08
		c-0.541-1.226-1.625-1.838-3.25-1.838c-2.709,0-4.061,1.652-4.061,4.96v12.913H10.359z"/>
	<path fill="#F5F6F6" d="M136.408,31.642V7.91h6.67v2.523h0.086c1.143-2.224,3.123-3.335,5.943-3.335v7.14
		c-1.822,0.058-3.135,0.328-3.934,0.813c-1.111,0.656-1.666,1.838-1.666,3.549v13.042H136.408z"/>
	<path fill="#F5F6F6" d="M121.248,31.642V7.91h6.67v2.523h0.086c1.139-2.224,3.121-3.335,5.943-3.335v7.14
		c-1.824,0.058-3.137,0.328-3.936,0.813c-1.111,0.656-1.666,1.838-1.666,3.549v13.042H121.248z"/>
	<path fill="#F5F6F6" d="M100.979,17.146h10.775c-0.201-0.97-0.672-1.824-1.412-2.565c-1.027-0.998-2.352-1.497-3.977-1.497
		s-2.949,0.499-3.977,1.497C101.648,15.322,101.178,16.177,100.979,17.146 M110.805,24.2h7.234
		c-1.084,2.453-2.609,4.419-4.576,5.901c-2.08,1.54-4.418,2.309-7.012,2.309c-3.42,0-6.371-1.219-8.852-3.656
		c-2.479-2.437-3.719-5.408-3.719-8.914c0-3.393,1.189-6.363,3.57-8.916c2.381-2.551,5.338-3.825,8.871-3.825
		c3.594,0,6.578,1.246,8.959,3.741c2.379,2.494,3.57,5.565,3.57,9.214c0,0.513-0.059,1.141-0.172,1.881h-17.701
		c0.199,1.368,0.813,2.459,1.854,3.271c1.033,0.813,2.258,1.22,3.676,1.22C108.211,26.425,109.643,25.683,110.805,24.2z"/>
	<path fill="#F5F6F6" d="M72.541,19.669c0,1.796,0.568,3.264,1.711,4.404c1.139,1.141,2.551,1.71,4.232,1.71
		c2.023,0,3.59-0.713,4.703-2.138c0.912-1.141,1.369-2.466,1.369-3.977c0-1.568-0.5-2.921-1.498-4.063
		c-1.139-1.254-2.637-1.882-4.488-1.882c-1.91,0-3.422,0.643-4.533,1.926C73.039,16.79,72.541,18.13,72.541,19.669 M91.27,0v31.642
		h-6.756v-2.565h-0.086c-1.34,2.223-3.705,3.334-7.098,3.334c-3.535,0-6.4-1.211-8.594-3.633c-2.195-2.425-3.293-5.445-3.293-9.065
		c0-3.849,1.211-6.955,3.635-9.321c2.223-2.194,4.93-3.292,8.123-3.292c2.766,0,5.088,0.94,6.971,2.821V0H91.27z"/>
	<rect x="55.932" fill="#F5F6F6" width="7.098" height="5.388"/>
	<rect x="55.932" y="7.91" fill="#F5F6F6" width="7.098" height="23.731"/>
	<path fill="#F5F6F6" d="M53.143,14.581h-6.969c-0.084-1.197-0.826-1.796-2.223-1.796c-1.34,0-2.01,0.526-2.01,1.582
		c0,1.026,1.211,1.881,3.635,2.566c2.736,0.769,4.617,1.51,5.645,2.223c1.766,1.197,2.65,2.937,2.65,5.217
		c0,2.423-0.934,4.374-2.801,5.857c-1.867,1.48-4.154,2.223-6.863,2.223c-2.279,0-4.262-0.527-5.943-1.582
		c-2.195-1.396-3.434-3.492-3.721-6.285H41.6c0.199,1.454,1.096,2.18,2.693,2.18c0.656,0,1.234-0.17,1.73-0.512
		c0.5-0.343,0.75-0.783,0.75-1.326c0-0.826-0.471-1.481-1.41-1.967c-0.371-0.199-1.996-0.813-4.875-1.838
		c-3.764-1.34-5.645-3.406-5.645-6.199c0-2.281,0.912-4.178,2.736-5.688c1.768-1.426,3.92-2.138,6.455-2.138
		c2.111,0,3.949,0.47,5.518,1.411C51.691,9.792,52.887,11.815,53.143,14.581"/>
	<rect fill="#F5F6F6" width="7.1" height="5.388"/>
	<rect y="7.91" fill="#F5F6F6" width="7.1" height="23.731"/>
</g>
</svg>
